<svg width="660" height="360" viewBox="0 0 660 360" fill="none" xmlns="http://www.w3.org/2000/svg">
<path d="M187.36 103.23H34.04V206.55H187.36V103.23Z" fill="white"/>
<path d="M187.85 207.05H33.54V102.73H187.85V207.05ZM34.54 206.05H186.85V103.73H34.54V206.05Z" fill="#EBEBEB"/>
<path d="M48.85 111.05C48.85 111.748 48.643 112.431 48.2551 113.011C47.8672 113.592 47.3159 114.044 46.6709 114.311C46.0259 114.578 45.3161 114.648 44.6314 114.512C43.9466 114.376 43.3176 114.04 42.824 113.546C42.3303 113.052 41.9941 112.423 41.8579 111.739C41.7217 111.054 41.7916 110.344 42.0587 109.699C42.3259 109.054 42.7784 108.503 43.3589 108.115C43.9394 107.727 44.6219 107.52 45.32 107.52C46.2563 107.52 47.1541 107.892 47.8161 108.554C48.4781 109.216 48.85 110.114 48.85 111.05Z" fill="#37474F"/>
<path d="M63.27 111.05C63.27 111.748 63.0629 112.431 62.6751 113.011C62.2872 113.592 61.7359 114.044 61.0908 114.311C60.4458 114.578 59.7361 114.648 59.0513 114.512C58.3665 114.376 57.7376 114.04 57.2439 113.546C56.7502 113.052 56.414 112.423 56.2778 111.739C56.1416 111.054 56.2115 110.344 56.4787 109.699C56.7458 109.054 57.1983 108.503 57.7788 108.115C58.3593 107.727 59.0418 107.52 59.74 107.52C60.6762 107.52 61.574 107.892 62.2361 108.554C62.8981 109.216 63.27 110.114 63.27 111.05Z" fill="#EBEBEB"/>
<path d="M77.7001 111.05C77.7021 111.751 77.4959 112.437 77.1077 113.021C76.7195 113.604 76.1667 114.059 75.5194 114.329C74.8722 114.598 74.1596 114.669 73.4719 114.532C72.7843 114.396 72.1526 114.059 71.657 113.563C71.1613 113.067 70.8239 112.436 70.6877 111.748C70.5514 111.061 70.6223 110.348 70.8915 109.701C71.1607 109.053 71.616 108.501 72.1996 108.112C72.7833 107.724 73.4691 107.518 74.1701 107.52C75.1063 107.52 76.0042 107.892 76.6662 108.554C77.3282 109.216 77.7001 110.114 77.7001 111.05Z" fill="#FFA4BB"/>
<path d="M187.36 118.3H34.04V119.3H187.36V118.3Z" fill="#EBEBEB"/>
<path d="M649.35 175.31H496.03V278.63H649.35V175.31Z" fill="white"/>
<path d="M649.85 279.13H495.53V174.81H649.85V279.13ZM496.53 278.13H648.85V175.81H496.53V278.13Z" fill="#EBEBEB"/>
<path d="M510.84 183.13C510.84 183.828 510.633 184.511 510.245 185.091C509.858 185.672 509.306 186.124 508.661 186.391C508.016 186.659 507.306 186.728 506.622 186.592C505.937 186.456 505.308 186.12 504.814 185.626C504.32 185.132 503.984 184.504 503.848 183.819C503.712 183.134 503.782 182.424 504.049 181.779C504.316 181.134 504.769 180.583 505.349 180.195C505.93 179.807 506.612 179.6 507.31 179.6C508.246 179.6 509.144 179.972 509.806 180.634C510.468 181.296 510.84 182.194 510.84 183.13Z" fill="#37474F"/>
<path d="M525.26 183.13C525.26 183.827 525.054 184.508 524.667 185.088C524.281 185.668 523.731 186.12 523.088 186.388C522.445 186.656 521.736 186.728 521.052 186.594C520.369 186.46 519.74 186.127 519.245 185.636C518.75 185.146 518.411 184.519 518.272 183.837C518.132 183.154 518.198 182.445 518.46 181.8C518.723 181.154 519.171 180.601 519.747 180.209C520.324 179.818 521.003 179.606 521.7 179.6C522.166 179.596 522.629 179.684 523.06 179.86C523.492 180.035 523.885 180.295 524.216 180.623C524.547 180.951 524.809 181.342 524.989 181.772C525.168 182.202 525.26 182.664 525.26 183.13Z" fill="#EBEBEB"/>
<path d="M539.7 183.13C539.7 183.828 539.493 184.511 539.105 185.091C538.717 185.672 538.166 186.124 537.521 186.391C536.876 186.659 536.166 186.728 535.481 186.592C534.796 186.456 534.167 186.12 533.674 185.626C533.18 185.132 532.844 184.504 532.707 183.819C532.571 183.134 532.641 182.424 532.908 181.779C533.176 181.134 533.628 180.583 534.209 180.195C534.789 179.807 535.471 179.6 536.17 179.6C537.106 179.6 538.004 179.972 538.666 180.634C539.328 181.296 539.7 182.194 539.7 183.13Z" fill="#FFA4BB"/>
<path d="M649.35 190.38H496.03V191.38H649.35V190.38Z" fill="#EBEBEB"/>
<path d="M141.78 204.63C141.781 206.761 141.362 208.873 140.547 210.842C139.732 212.812 138.537 214.602 137.029 216.109C135.522 217.616 133.732 218.812 131.762 219.627C129.793 220.442 127.682 220.861 125.55 220.86C125.26 220.86 124.99 220.86 124.72 220.86L95.84 220.92C91.6039 220.815 87.5768 219.058 84.6179 216.025C81.6591 212.992 80.0029 208.922 80.0029 204.685C80.0029 200.447 81.6591 196.378 84.6179 193.345C87.5768 190.311 91.6039 188.555 95.84 188.45H124.45C124.82 188.45 125.18 188.45 125.55 188.45C129.845 188.452 133.964 190.156 137.006 193.189C140.047 196.221 141.764 200.335 141.78 204.63Z" fill="#A6A6A6"/>
<path d="M96.0205 205.16C96.0497 204.555 96.2471 203.969 96.5905 203.47C96.7305 203.24 96.8905 203.02 97.0405 202.8L98.0405 201.8C98.4105 201.53 98.7905 201.24 99.1705 200.99C100.739 199.99 102.489 199.311 104.32 198.99C108.539 198.15 112.882 198.15 117.1 198.99C118.904 199.321 120.627 200 122.171 200.99C122.581 201.26 122.96 201.56 123.35 201.84L124.35 202.78C124.601 203.144 124.831 203.521 125.04 203.91C125.204 204.307 125.341 204.715 125.451 205.13H125.161H117.09C117.02 205.154 116.944 205.154 116.874 205.131C116.803 205.107 116.742 205.061 116.701 205C116.475 204.557 116.135 204.182 115.717 203.914C115.299 203.645 114.817 203.492 114.32 203.47C111.89 203.315 109.451 203.315 107.021 203.47C106.523 203.49 106.041 203.642 105.622 203.911C105.204 204.18 104.865 204.556 104.641 205C104.571 205.11 104.521 205.19 104.361 205.19H96.0305L96.0205 205.16Z" fill="white"/>
<path d="M96.0105 209.88V207C96.0105 206.93 96.0105 206.86 96.0105 206.81H104.281C104.281 206.99 104.281 207.2 104.281 207.41C104.281 208.22 104.281 209.03 104.281 209.84C104.303 209.983 104.291 210.129 104.246 210.267C104.201 210.404 104.124 210.529 104.022 210.631C103.92 210.734 103.795 210.81 103.657 210.855C103.52 210.9 103.373 210.912 103.231 210.89H97.0705C96.9306 210.913 96.7874 210.902 96.652 210.86C96.5167 210.818 96.3929 210.745 96.2902 210.648C96.1876 210.55 96.109 210.43 96.0605 210.297C96.012 210.163 95.9949 210.021 96.0105 209.88Z" fill="white"/>
<path d="M117.071 209.92C117.071 208.92 117.071 207.85 117.151 206.82H125.301C125.301 206.87 125.301 206.94 125.301 207C125.301 208 125.301 208.93 125.301 209.9C125.317 210.035 125.302 210.172 125.257 210.301C125.213 210.429 125.14 210.546 125.043 210.643C124.947 210.739 124.83 210.812 124.702 210.857C124.573 210.901 124.436 210.916 124.301 210.9H118.061C117.928 210.916 117.793 210.901 117.666 210.858C117.54 210.814 117.424 210.743 117.329 210.649C117.234 210.554 117.161 210.44 117.117 210.314C117.072 210.188 117.056 210.053 117.071 209.92Z" fill="white"/>
<path d="M640.591 178.53C640.157 177.819 639.927 177.003 639.927 176.17C639.927 175.337 640.157 174.521 640.591 173.81C640.831 173.42 641.061 173.01 641.281 172.6C641.501 172.19 641.711 171.77 641.911 171.35C642.253 170.595 642.798 169.95 643.484 169.486C644.171 169.022 644.973 168.757 645.8 168.72L651.601 168.54L651.01 149.66L645.18 149.83C644.359 149.842 643.55 149.626 642.844 149.206C642.137 148.786 641.562 148.178 641.18 147.45C640.739 146.645 640.255 145.864 639.731 145.11C639.247 144.427 638.961 143.625 638.902 142.791C638.844 141.957 639.017 141.123 639.401 140.38L642.141 135.28L625.481 126.34L622.75 131.44C622.345 132.174 621.745 132.782 621.017 133.197C620.288 133.612 619.459 133.817 618.62 133.79C617.703 133.77 616.785 133.8 615.87 133.88C615.051 133.967 614.224 133.826 613.479 133.473C612.735 133.12 612.102 132.569 611.651 131.88L608.57 126.88L592.51 136.88L595.581 141.88C596.01 142.574 596.237 143.374 596.237 144.19C596.237 145.006 596.01 145.806 595.581 146.5C595.331 146.92 595.09 147.34 594.86 147.78C594.63 148.22 594.401 148.65 594.201 149.09C593.855 149.835 593.31 150.469 592.624 150.921C591.939 151.373 591.141 151.626 590.32 151.65L584.521 151.83L585.101 170.72L590.891 170.53C591.703 170.51 592.505 170.713 593.21 171.117C593.915 171.52 594.496 172.109 594.891 172.82C595.371 173.701 595.898 174.556 596.471 175.38C596.937 176.051 597.208 176.838 597.252 177.654C597.296 178.47 597.112 179.283 596.721 180L593.99 185.1L610.701 193.94L613.43 188.84C613.835 188.106 614.435 187.499 615.164 187.086C615.894 186.672 616.723 186.47 617.56 186.5C618.481 186.52 619.403 186.49 620.32 186.41C621.145 186.328 621.975 186.476 622.72 186.838C623.465 187.2 624.095 187.761 624.541 188.46L627.61 193.41L643.67 183.41L640.591 178.53ZM612.591 174.63C609.572 173.477 606.99 171.409 605.207 168.715C603.423 166.021 602.527 162.836 602.644 159.608C602.761 156.379 603.885 153.267 605.86 150.71C607.834 148.152 610.559 146.276 613.653 145.345C616.747 144.414 620.054 144.475 623.112 145.518C626.17 146.561 628.825 148.535 630.704 151.163C632.584 153.791 633.594 156.941 633.594 160.172C633.593 163.403 632.581 166.553 630.701 169.18C628.709 171.956 625.854 173.996 622.583 174.982C619.311 175.968 615.805 175.844 612.61 174.63H612.591Z" fill="#EBEBEB"/>
<path d="M573.8 122.67C573.299 122.373 572.89 121.943 572.618 121.427C572.346 120.912 572.222 120.332 572.26 119.75C572.26 119.42 572.26 119.1 572.26 118.75C572.26 118.4 572.26 118.09 572.26 117.75C572.22 117.171 572.342 116.592 572.612 116.078C572.882 115.564 573.29 115.136 573.79 114.84L577.31 112.84L570.7 101.38L567.18 103.38C566.672 103.666 566.095 103.807 565.513 103.785C564.93 103.764 564.365 103.582 563.88 103.26C563.328 102.896 562.757 102.562 562.17 102.26C561.649 102.002 561.211 101.605 560.904 101.112C560.596 100.619 560.432 100.051 560.43 99.4702V95.4102H547.19V99.4702C547.187 100.051 547.023 100.619 546.715 101.112C546.408 101.605 545.97 102.002 545.45 102.26C544.864 102.56 544.296 102.894 543.75 103.26C543.263 103.584 542.696 103.767 542.112 103.789C541.527 103.81 540.948 103.668 540.44 103.38L536.93 101.38L530.31 112.85L533.84 114.85C534.34 115.145 534.75 115.573 535.022 116.087C535.293 116.601 535.417 117.18 535.38 117.76C535.38 118.08 535.38 118.4 535.38 118.76C535.38 119.12 535.38 119.41 535.38 119.76C535.417 120.343 535.292 120.924 535.018 121.44C534.745 121.955 534.333 122.385 533.83 122.68L530.31 124.68L536.93 136.14L540.43 134.14C540.936 133.85 541.512 133.707 542.095 133.726C542.678 133.746 543.244 133.927 543.73 134.25C544.286 134.612 544.86 134.946 545.45 135.25C545.97 135.511 546.408 135.91 546.715 136.404C547.022 136.899 547.186 137.468 547.19 138.05V142.1H560.43V138C560.433 137.418 560.597 136.849 560.904 136.354C561.211 135.86 561.649 135.461 562.17 135.2C562.761 134.898 563.335 134.564 563.89 134.2C564.375 133.877 564.941 133.696 565.524 133.676C566.107 133.657 566.684 133.8 567.19 134.09L570.7 136.09L577.31 124.63L573.8 122.67ZM553.8 129.67C551.658 129.66 549.567 129.017 547.791 127.821C546.014 126.625 544.631 124.93 543.816 122.949C543.001 120.969 542.79 118.791 543.211 116.691C543.631 114.591 544.663 112.663 546.178 111.148C547.692 109.634 549.621 108.601 551.721 108.181C553.821 107.761 555.998 107.972 557.979 108.787C559.959 109.602 561.654 110.985 562.85 112.761C564.046 114.538 564.69 116.629 564.7 118.77C564.7 120.198 564.418 121.611 563.871 122.929C563.324 124.248 562.522 125.445 561.511 126.453C560.5 127.461 559.301 128.259 557.981 128.803C556.661 129.346 555.247 129.624 553.82 129.62L553.8 129.67Z" fill="#EBEBEB"/>
<path d="M93.5703 91.9999L100.18 103.46L103.69 101.46C104.198 101.174 104.775 101.033 105.357 101.055C105.94 101.076 106.505 101.258 106.99 101.58C107.545 101.944 108.119 102.278 108.71 102.58C109.23 102.839 109.668 103.236 109.975 103.729C110.282 104.221 110.446 104.789 110.45 105.37V109.43H123.7V105.37C123.704 104.789 123.869 104.221 124.176 103.729C124.483 103.236 124.921 102.839 125.44 102.58C126.03 102.276 126.604 101.942 127.16 101.58C127.646 101.258 128.211 101.076 128.793 101.055C129.376 101.033 129.953 101.174 130.46 101.46L133.97 103.46L140.57 91.9999L137.05 89.9999C136.534 89.6985 136.114 89.2564 135.839 88.7251C135.565 88.1939 135.447 87.5955 135.5 86.9999C135.5 86.6699 135.5 86.3499 135.5 85.9999C135.5 85.6499 135.5 85.3499 135.5 84.9999C135.463 84.4198 135.586 83.8407 135.858 83.3269C136.13 82.8131 136.539 82.3849 137.04 82.0899L140.57 80.0899L133.96 68.6199L130.44 70.6199C129.933 70.9061 129.356 71.0464 128.773 71.0252C128.191 71.0041 127.626 70.8223 127.14 70.4999C126.589 70.1356 126.018 69.8018 125.43 69.4999C124.911 69.2411 124.473 68.8434 124.166 68.3509C123.859 67.8584 123.694 67.2903 123.69 66.7099V62.6499H110.45V66.7099C110.446 67.2903 110.282 67.8584 109.975 68.3509C109.668 68.8434 109.23 69.2411 108.71 69.4999C108.122 69.8018 107.552 70.1356 107 70.4999C106.515 70.8223 105.95 71.0041 105.367 71.0252C104.785 71.0464 104.208 70.9061 103.7 70.6199L100.18 68.6199L93.5703 80.0899L97.0903 82.0899C97.5901 82.3853 97.998 82.8139 98.2682 83.3278C98.5384 83.8417 98.6603 84.4207 98.6203 84.9999C98.6203 85.3199 98.6203 85.6499 98.6203 85.9999C98.6203 86.3499 98.6203 86.6499 98.6203 86.9999C98.6577 87.5813 98.5337 88.1617 98.2619 88.677C97.9902 89.1923 97.5812 89.6224 97.0803 89.9199L93.5703 91.9999ZM106.22 85.9999C106.22 83.8535 106.857 81.7554 108.05 79.9709C109.242 78.1864 110.937 76.7958 112.921 75.9749C114.904 75.1539 117.086 74.9397 119.191 75.3591C121.296 75.7786 123.229 76.8129 124.746 78.3313C126.263 79.8497 127.296 81.784 127.713 83.8893C128.131 85.9947 127.914 88.1765 127.092 90.1589C126.269 92.1413 124.877 93.8352 123.091 95.0262C121.305 96.2172 119.207 96.8519 117.06 96.8499C115.636 96.8499 114.226 96.5692 112.91 96.0238C111.594 95.4784 110.398 94.6791 109.392 93.6714C108.385 92.6638 107.587 91.4676 107.043 90.1513C106.498 88.8349 106.219 87.4243 106.22 85.9999Z" fill="#EBEBEB"/>
<path d="M357.707 102.444C365.553 70.9263 346.364 39.0151 314.846 31.1685C283.329 23.3219 251.417 42.5113 243.571 74.0291C235.724 105.547 254.914 137.458 286.431 145.305C317.949 153.151 349.86 133.962 357.707 102.444Z" fill="#EBEBEB"/>
<path d="M344.142 99.1027C350.165 75.0533 335.552 50.675 311.503 44.652C287.453 38.6291 263.075 53.2424 257.052 77.2917C251.029 101.341 265.642 125.719 289.692 131.742C313.741 137.765 338.119 123.152 344.142 99.1027Z" fill="white"/>
<path d="M331.743 96.0706C336.074 78.8909 325.659 61.4529 308.479 57.1217C291.299 52.7905 273.861 63.2063 269.53 80.386C265.199 97.5657 275.614 115.004 292.794 119.335C309.974 123.666 327.412 113.25 331.743 96.0706Z" fill="#EBEBEB"/>
<path d="M317.8 92.5715C320.209 83.0804 314.467 73.4337 304.976 71.025C295.485 68.6164 285.838 74.3578 283.43 83.8489C281.021 93.3401 286.762 102.987 296.254 105.395C305.745 107.804 315.391 102.063 317.8 92.5715Z" fill="white"/>
<path d="M308.41 90.2149C309.505 85.923 306.913 81.5562 302.621 80.4614C298.33 79.3667 293.963 81.9584 292.868 86.2503C291.773 90.5422 294.365 94.909 298.657 96.0038C302.949 97.0986 307.316 94.5068 308.41 90.2149Z" fill="#EBEBEB"/>
<path d="M371.81 15.404L304.444 82.77L306.064 84.3893L373.43 17.0232L371.81 15.404Z" fill="#C7C7C7"/>
<path d="M309.42 85.8602L300.62 88.2202L302.97 79.4102L309.42 85.8602Z" fill="#A6A6A6"/>
<path d="M383.89 11.8299L371.26 24.4599L361.35 27.4799L364.37 17.5799L377.01 4.93994L373.98 14.8499L383.89 11.8299Z" fill="#A6A6A6"/>
<path d="M0 329.02L82.43 328.78L164.85 328.69L329.7 328.52L494.55 328.69L576.97 328.78L659.4 329.02L576.97 329.27L494.55 329.35L329.7 329.52L164.85 329.35L82.43 329.26L0 329.02Z" fill="#263238"/>
<path d="M208.581 334.92H70.7706L60.1006 241.32H197.911L208.581 334.92Z" fill="#37474F"/>
<path d="M201.07 328.64H76.8503L67.6104 247.6H191.83L201.07 328.64Z" fill="white"/>
<path d="M286.48 328.64H145.03V334.92H286.48V328.64Z" fill="#37474F"/>
<path d="M286.47 328.64H215.28V334.92H286.47V328.64Z" fill="#263238"/>
<path d="M157.191 247.6L76.7809 328.01L74.3809 306.98L133.751 247.6H157.191Z" fill="#EBEBEB"/>
<path d="M198.97 310.18L180.51 328.64H157.07L196.57 289.14L198.97 310.18Z" fill="#EBEBEB"/>
<path d="M83.0001 247.6L69.1901 261.41L68.3701 254.24L75.0101 247.6H83.0001Z" fill="#EBEBEB"/>
<path d="M195.031 275.62L142.011 328.64H134.011L194.211 268.44L195.031 275.62Z" fill="#EBEBEB"/>
<path d="M93.4208 247.6L70.2508 270.77L70.0508 268.97L91.4208 247.6H93.4208Z" fill="#EBEBEB"/>
<path d="M168.681 247.6L87.6406 328.64H85.6406L166.681 247.6H168.681Z" fill="#EBEBEB"/>
<path d="M193.681 263.77L128.811 328.64H126.811L193.481 261.97L193.681 263.77Z" fill="#EBEBEB"/>
<path d="M450.001 334.92H587.821L598.481 241.32H460.671L450.001 334.92Z" fill="#37474F"/>
<path d="M457.511 328.64H581.741L590.971 247.6H466.751L457.511 328.64Z" fill="white"/>
<path d="M513.56 328.64H372.11V334.92H513.56V328.64Z" fill="#37474F"/>
<path d="M443.3 328.64H372.11V334.92H443.3V328.64Z" fill="#263238"/>
<path d="M587.401 278.99L584.381 305.45L561.191 328.64H537.751L587.401 278.99Z" fill="#EBEBEB"/>
<path d="M543.351 247.6L462.321 328.64H457.511L459.911 307.61L519.921 247.6H543.351Z" fill="#EBEBEB"/>
<path d="M490.56 247.6L463.69 274.47L464.72 265.44L482.56 247.6H490.56Z" fill="#EBEBEB"/>
<path d="M578.95 247.6L497.91 328.64H489.91L570.95 247.6H578.95Z" fill="#EBEBEB"/>
<path d="M588.551 268.89L588.301 271.15L530.811 328.64H528.811L588.551 268.89Z" fill="#EBEBEB"/>
<path d="M587.341 247.6L506.311 328.64H504.311L585.351 247.6H587.341Z" fill="#EBEBEB"/>
<path d="M511.86 247.6L460.94 298.52L461.2 296.26L509.86 247.6H511.86Z" fill="#EBEBEB"/>
<path d="M198.821 194C215.911 228.51 241.221 263 248.001 269.46C266.221 286.94 314.861 299.51 329.201 299.91C335.391 300.08 343.951 258.96 339.381 254.17C334.811 249.38 274.761 236.31 271.541 233.85C269.311 232.1 240.701 204.87 221.701 188.7C198.071 168.61 194.331 184.9 198.821 194Z" fill="#F7A9A0"/>
<path d="M326.121 248.42L310.611 297.37C310.611 297.37 259.791 284 246.191 270.92C232.591 257.84 204.421 211.02 198.921 195.58C193.421 180.14 197.001 167.95 221.921 187.98C246.841 208.01 267.971 228.5 272.381 231.8C276.791 235.1 326.121 248.42 326.121 248.42Z" fill="#455A64"/>
<path d="M310.38 250.38C310.456 250.869 310.674 251.325 311.008 251.689C311.342 252.054 311.776 252.312 312.257 252.429C312.737 252.547 313.242 252.519 313.706 252.35C314.171 252.181 314.575 251.878 314.868 251.479C315.16 251.081 315.328 250.604 315.349 250.11C315.371 249.616 315.245 249.127 314.989 248.704C314.732 248.281 314.356 247.944 313.908 247.735C313.459 247.526 312.959 247.455 312.47 247.53C311.816 247.631 311.227 247.988 310.836 248.523C310.444 249.057 310.28 249.725 310.38 250.38Z" fill="#263238"/>
<path d="M297.93 246.79C298.003 247.28 298.22 247.737 298.553 248.103C298.886 248.469 299.321 248.728 299.801 248.847C300.282 248.967 300.787 248.94 301.252 248.772C301.718 248.604 302.123 248.301 302.416 247.903C302.71 247.504 302.878 247.027 302.9 246.533C302.922 246.038 302.797 245.548 302.541 245.125C302.284 244.702 301.907 244.364 301.459 244.155C301.01 243.946 300.509 243.875 300.02 243.95C299.696 243.999 299.385 244.111 299.105 244.281C298.824 244.45 298.58 244.673 298.386 244.937C298.192 245.2 298.052 245.5 297.973 245.818C297.895 246.136 297.88 246.467 297.93 246.79Z" fill="#263238"/>
<path d="M273.12 285.24C261.99 280.92 251.38 275.89 246.19 270.92C232.59 257.92 204.42 211.02 198.92 195.58C195.4 185.71 195.59 177.17 202.69 177.52L273.12 285.24Z" fill="#263238"/>
<path d="M117.761 328.62H246.061C246.581 323.93 220.181 193.2 207.611 176.81C204.921 173.3 196.051 172.33 188.521 173.27C186.553 173.494 184.609 173.889 182.711 174.45C182.65 174.478 182.586 174.498 182.521 174.51C180.986 174.951 179.54 175.658 178.251 176.6C157.281 193.37 116.751 327.47 117.761 328.62Z" fill="#455A64"/>
<path d="M197.17 206.39L202.63 195.77L209.67 203.45L207.95 211.1L200.99 211.99L197.17 206.39Z" fill="#263238"/>
<path d="M200.99 211.99L197.67 290.12L212.31 315.96L219.91 286.88L207.95 211.1L200.99 211.99Z" fill="#263238"/>
<path d="M200.791 194.35C198.791 194.27 185.371 183.79 181.251 175.62C180.971 175.06 182.011 169.3 182.941 162.23C183.481 157.94 183.941 153.15 184.141 148.75C184.141 147.84 187.191 149.61 187.191 149.61L192.841 151.17L211.541 156.38C211.541 156.38 208.541 165.52 208.301 173.2C208.292 173.81 208.335 174.418 208.431 175.02C208.437 175.12 208.437 175.22 208.431 175.32C208.911 178.77 204.101 194.48 200.791 194.35Z" fill="#F7A9A0"/>
<path d="M208.431 175C208.438 175.1 208.438 175.2 208.431 175.3C207.487 175.393 206.537 175.41 205.591 175.35C187.001 174.35 185.471 150.59 185.471 150.59L192.811 151.15L211.511 156.36C211.511 156.36 208.511 165.5 208.271 173.18C208.272 173.79 208.325 174.399 208.431 175Z" fill="#263238"/>
<path d="M179.8 116.39C176.99 126.24 182.71 154.45 189.8 160.63C200.07 169.63 216.63 170.15 224.17 157.85C231.48 145.94 223.39 109.31 215.49 103.72C203.87 95.49 183.94 101.83 179.8 116.39Z" fill="#F7A9A0"/>
<path d="M207.701 132.81C207.701 132.74 207.571 132.93 207.591 133C208.021 134.89 208.211 137.13 206.591 138.1C206.541 138.1 206.591 138.23 206.591 138.21C208.701 137.49 208.451 134.53 207.701 132.81Z" fill="#263238"/>
<path d="M205.64 131.16C202.54 131.53 203.51 137.71 206.38 137.37C209.25 137.03 208.24 130.84 205.64 131.16Z" fill="#263238"/>
<path d="M218.87 131.38C218.87 131.3 219.03 131.44 219.04 131.52C219.28 133.45 219.88 135.61 221.71 135.97C221.77 135.97 221.78 136.08 221.71 136.08C219.55 136.12 218.79 133.24 218.87 131.38Z" fill="#263238"/>
<path d="M220.26 129.11C223.26 128.39 224.52 134.53 221.7 135.19C218.88 135.85 217.7 129.71 220.26 129.11Z" fill="#263238"/>
<path d="M202.761 128.71C203.537 128.347 204.291 127.94 205.021 127.49C205.877 127.174 206.605 126.583 207.091 125.81C207.195 125.537 207.206 125.237 207.123 124.957C207.04 124.677 206.867 124.432 206.631 124.26C206.111 123.992 205.53 123.867 204.946 123.898C204.362 123.93 203.798 124.117 203.311 124.44C202.225 124.944 201.363 125.831 200.891 126.93C200.798 127.188 200.781 127.467 200.844 127.733C200.907 128 201.046 128.242 201.245 128.431C201.443 128.619 201.692 128.746 201.961 128.796C202.23 128.846 202.508 128.816 202.761 128.71Z" fill="#263238"/>
<path d="M222.16 125.62C221.28 125.62 220.47 125.46 219.61 125.37C218.696 125.409 217.795 125.141 217.05 124.61C216.845 124.403 216.716 124.132 216.683 123.841C216.65 123.551 216.716 123.258 216.87 123.01C217.246 122.562 217.734 122.223 218.284 122.026C218.834 121.829 219.426 121.782 220 121.89C221.198 121.934 222.337 122.419 223.2 123.25C223.383 123.453 223.504 123.705 223.547 123.974C223.591 124.244 223.555 124.521 223.445 124.771C223.336 125.021 223.156 125.234 222.928 125.385C222.7 125.536 222.434 125.617 222.16 125.62Z" fill="#263238"/>
<path d="M208.751 150.86C209.281 151.23 209.841 151.78 210.541 151.73C211.258 151.606 211.94 151.33 212.541 150.92C212.553 150.915 212.567 150.914 212.58 150.917C212.593 150.92 212.605 150.927 212.614 150.936C212.624 150.946 212.631 150.958 212.633 150.971C212.636 150.984 212.635 150.998 212.631 151.01C212.417 151.429 212.095 151.782 211.697 152.032C211.299 152.282 210.84 152.42 210.371 152.43C209.963 152.389 209.577 152.229 209.26 151.969C208.944 151.709 208.711 151.362 208.591 150.97C208.541 150.87 208.701 150.8 208.751 150.86Z" fill="#263238"/>
<path d="M216.05 146.15C215.406 147.331 214.469 148.326 213.33 149.04C212.699 149.411 211.968 149.572 211.24 149.5C209.64 149.34 209.39 147.95 209.48 146.7C209.533 146.041 209.664 145.389 209.87 144.76C211.73 145.869 213.895 146.356 216.05 146.15Z" fill="white"/>
<path d="M209.87 144.81C210.481 145.488 211.225 146.032 212.057 146.409C212.888 146.786 213.788 146.987 214.7 147C215.499 147.025 216.297 146.934 217.07 146.73C217.22 146.705 217.368 146.665 217.51 146.61C217.64 146.61 217.77 146.54 217.92 146.48C218.018 146.443 218.101 146.376 218.157 146.287C218.213 146.199 218.239 146.094 218.23 145.99C218.224 145.924 218.207 145.86 218.18 145.8V145.63C217.99 144.15 217.49 141.93 217.49 141.93C218.07 142.12 221.01 142.93 220.85 142.16C219.47 135.84 217.93 128.82 215.22 122.82C215.202 122.78 215.169 122.748 215.129 122.731C215.089 122.713 215.043 122.711 215.001 122.725C214.96 122.738 214.924 122.766 214.902 122.804C214.879 122.842 214.872 122.887 214.88 122.93C215.96 129.05 218.12 134.93 219.32 141.08C218.27 140.777 217.183 140.622 216.09 140.62C215.89 140.72 217.09 144.9 217.16 145.57V145.64C214.73 146.35 212.74 145.89 210.08 144.64C209.86 144.52 209.7 144.67 209.87 144.81Z" fill="#263238"/>
<path d="M183.12 138.39C189.85 137.39 189.37 124.96 189.37 124.96C189.37 124.96 200.66 121.37 201.07 112.42C201.07 112.42 213.07 117.83 221.25 113.42C229.43 109.01 226.19 99.5303 224.93 97.5803C223.67 95.6303 219.45 100.21 219.45 100.21C219.45 100.21 218.09 94.7603 216.54 94.4103C214.99 94.0603 213.86 97.6403 213.86 97.6403C213.86 97.6403 202.19 95.5403 192.14 97.3003C182.09 99.0603 178.58 110 178.58 110C178.58 110 173.35 111.93 172.16 116C170.97 120.07 178.82 139 183.12 138.39Z" fill="#263238"/>
<path d="M186.7 125.44C195.82 125.32 200.89 118.51 200.94 109.75C200.946 109.732 200.958 109.717 200.973 109.706C200.988 109.695 201.007 109.689 201.025 109.689C201.044 109.689 201.062 109.695 201.077 109.706C201.093 109.717 201.104 109.732 201.11 109.75C202.01 117.75 195.86 127.75 186.67 125.86C186.41 125.8 186.42 125.44 186.7 125.44Z" fill="#263238"/>
<path d="M178.8 109.78C178.821 109.775 178.844 109.778 178.863 109.787C178.883 109.796 178.899 109.812 178.909 109.831C178.919 109.85 178.923 109.872 178.92 109.894C178.916 109.915 178.906 109.935 178.89 109.95C176.55 111.48 173.81 112.76 172.38 115.3C170.66 118.37 171.64 121.92 172.9 124.94C174.83 129.61 178.26 135.55 183.01 137.77C183.29 137.9 183.08 138.3 182.81 138.19C177.15 135.88 172.93 128.14 171.38 122.53C169.64 116.25 173.09 112 178.8 109.78Z" fill="#263238"/>
<path d="M211.24 113.49C215.53 115.29 221.39 114.49 224.86 111.27C229.08 107.27 227.29 102.02 224.59 97.7901C224.46 97.5901 224.75 97.3001 224.93 97.4901C228.3 101.06 229.41 107.07 226.06 111.05C222.71 115.03 215.67 116.05 210.94 114.05C210.55 113.92 210.84 113.32 211.24 113.49Z" fill="#263238"/>
<path d="M206.14 144C204.587 144.06 203.048 143.683 201.699 142.912C200.35 142.141 199.245 141.006 198.509 139.637C197.772 138.269 197.435 136.721 197.536 135.17C197.636 133.619 198.17 132.128 199.077 130.865C199.983 129.603 201.226 128.62 202.663 128.029C204.1 127.439 205.675 127.263 207.207 127.523C208.739 127.783 210.168 128.468 211.33 129.5C212.492 130.532 213.341 131.869 213.78 133.36C214.4 135.47 214.158 137.739 213.106 139.671C212.054 141.602 210.279 143.037 208.17 143.66C207.51 143.856 206.828 143.97 206.14 144ZM205.55 128.52C204.954 128.549 204.364 128.646 203.79 128.81C202.038 129.329 200.55 130.496 199.629 132.073C198.707 133.65 198.422 135.52 198.83 137.301C199.239 139.081 200.311 140.639 201.828 141.657C203.345 142.675 205.193 143.076 206.996 142.779C208.798 142.482 210.42 141.509 211.53 140.058C212.64 138.607 213.156 136.788 212.972 134.97C212.787 133.153 211.917 131.474 210.538 130.275C209.159 129.077 207.376 128.449 205.55 128.52Z" fill="#455A64"/>
<path d="M224.93 141C221.76 141.12 218.76 138 218.09 133.71C217.738 131.671 218.032 129.574 218.93 127.71C219.294 126.902 219.847 126.193 220.544 125.644C221.24 125.096 222.059 124.724 222.93 124.56C223.807 124.449 224.698 124.552 225.525 124.863C226.353 125.173 227.092 125.68 227.68 126.34C229.1 127.844 230.019 129.752 230.31 131.8C231.01 136.32 228.85 140.43 225.49 140.95C225.305 140.983 225.118 140.999 224.93 141ZM223.51 125.61H223.09C222.396 125.754 221.747 126.062 221.196 126.507C220.644 126.952 220.207 127.522 219.92 128.17C219.128 129.828 218.873 131.691 219.19 133.5C219.8 137.41 222.53 140.25 225.3 139.82C228.07 139.39 229.81 135.82 229.2 131.93C228.952 130.113 228.144 128.418 226.89 127.08C226.458 126.615 225.935 126.243 225.354 125.989C224.772 125.734 224.145 125.602 223.51 125.6V125.61Z" fill="#455A64"/>
<path d="M213.7 134.38L212.87 133.65C213.95 132.41 216.6 130.56 218.94 132.39L218.26 133.26C216.12 131.62 213.75 134.27 213.7 134.38Z" fill="#455A64"/>
<path d="M177.46 142.18L176.46 141.83C176.62 141.34 178.13 137.02 180.46 136.24C182.79 135.46 197.6 134.6 198.23 134.56L198.3 135.67C194.02 135.93 182.53 136.73 180.81 137.29C179.09 137.85 177.86 141 177.46 142.18Z" fill="#455A64"/>
<path d="M187.4 139.64C187.4 139.64 180.65 130.74 176.58 133.19C172.51 135.64 177.85 148.7 182.8 150.33C183.42 150.575 184.083 150.693 184.75 150.678C185.417 150.662 186.074 150.514 186.682 150.241C187.291 149.968 187.839 149.576 188.293 149.088C188.748 148.6 189.1 148.026 189.33 147.4L187.4 139.64Z" fill="#F7A9A0"/>
<path d="M178.21 136.9C178.13 136.9 178.12 137 178.21 137.03C181.69 138.28 183.61 141.38 185 144.61C183.93 143.39 182.52 142.75 180.87 144.02C180.856 144.037 180.847 144.058 180.845 144.08C180.842 144.103 180.847 144.125 180.858 144.145C180.869 144.164 180.885 144.18 180.905 144.19C180.926 144.2 180.948 144.203 180.97 144.2C181.565 143.987 182.211 143.962 182.819 144.131C183.428 144.299 183.97 144.652 184.37 145.14C185.037 145.957 185.611 146.845 186.08 147.79C186.26 148.09 186.8 147.9 186.67 147.55V147.48C186.52 143.12 182.9 137.15 178.21 136.9Z" fill="#263238"/>
<path d="M208.531 175.68L201.851 192.07L181.611 171.37L175.841 178C175.841 178 195.621 210.86 195.741 209.38L202.501 195.32L212.191 205.13L211.461 180.55L208.531 175.68Z" fill="#455A64"/>
<path d="M212.52 193C212.26 188.94 212.11 184.85 211.67 180.82C211.67 180.67 211.43 180.61 211.39 180.82C210.57 184.73 211.64 200.23 211.61 203.94C211.21 203.52 202.61 195.31 202.54 195.44C201.08 197.67 196.12 207.91 195.78 208.84C192.65 203.62 180.67 184.64 176.96 179.7C176.94 179.673 176.91 179.654 176.876 179.648C176.843 179.641 176.808 179.647 176.778 179.664C176.749 179.681 176.727 179.709 176.716 179.741C176.705 179.773 176.707 179.809 176.72 179.84C179.48 185.36 195.34 210.91 195.59 210.84C198.195 206.01 200.552 201.05 202.65 195.98C204.1 197.76 212.76 206.98 212.79 206.42C212.938 201.945 212.848 197.465 212.52 193Z" fill="#263238"/>
<path d="M250.47 346.66L150.56 356.55L150.24 279.1L250.15 269.2L250.47 346.66Z" fill="#FFA4BB"/>
<path d="M182.85 267.3L150.15 270.54L150.24 279.1L185.23 275.63L182.85 267.3Z" fill="#FFA4BB"/>
<g opacity="0.1">
<path d="M250.47 346.66L150.56 356.55L150.24 279.1L250.15 269.2L250.47 346.66Z" fill="black"/>
<path d="M182.85 267.3L150.15 270.54L150.24 279.1L185.23 275.63L182.85 267.3Z" fill="black"/>
</g>
<path d="M250.401 346.67L154.041 356.21L140.261 278.54L242.971 269.92L250.401 346.67Z" fill="#EBEBEB"/>
<path d="M250.4 346.67L151.59 356.45L136.82 281.8L240.69 271.52L250.4 346.67Z" fill="white"/>
<path d="M250.22 346.69L150.1 356.6L135.48 283.56L235.61 273.65L250.22 346.69Z" fill="#FFA4BB"/>
<path d="M164.821 188.3C130.671 219.3 106.021 272.7 106.821 287.09C107.821 306.09 142.261 338.61 164.691 348.02C170.361 350.4 192.301 303.96 184.001 301.54C175.241 298.99 155.001 280.63 154.001 279.79C151.901 278.01 168.221 237.38 175.051 212.72C182.701 184.87 179.191 175.26 164.821 188.3Z" fill="#F7A9A0"/>
<path d="M151.971 340.92C173.701 356.6 203.221 360 208.311 359.48C212.661 359.05 214.891 358.79 214.891 358.79C222.701 358.18 225.501 354.48 225.501 354.48C225.501 354.48 234.741 356.42 236.841 351.04C239.221 345.04 225.781 343.45 218.921 338.04C203.191 325.73 184.271 303.83 180.091 299.83L151.971 340.92Z" fill="#F7A9A0"/>
<path d="M193.37 336.76C198.07 340.29 202.6 343.88 207.75 346.76C213.41 349.91 219.38 352 225.41 354.28C225.442 354.298 225.467 354.326 225.481 354.36C225.495 354.394 225.497 354.432 225.487 354.467C225.476 354.502 225.454 354.532 225.424 354.553C225.393 354.574 225.357 354.583 225.32 354.58C213.174 351.83 202.014 345.805 193.05 337.16C192.84 337 193.13 336.59 193.37 336.76Z" fill="#263238"/>
<path d="M184.56 345.18C189.32 348.36 197.73 353.9 214.94 358.61C215 358.61 214.99 358.72 214.94 358.71C203.706 357.304 193.085 352.803 184.26 345.71C183.97 345.45 184.24 345 184.56 345.18Z" fill="#263238"/>
<path d="M200.9 322.05C199.49 319.63 200.75 318.87 205.37 320.69C209.99 322.51 226.78 333.69 230.17 327.47C233.56 321.25 209.7 305.92 201.7 303.48C193.7 301.04 180.07 299.87 180.07 299.87C184.14 303.8 193.05 314.25 200.9 322.05Z" fill="#F7A9A0"/>
<path d="M152.75 344.41L179.96 298.74C179.96 298.74 154.5 280.88 154.38 279.1C154.26 277.32 172.27 228.1 177.71 203.88C183.15 179.66 180.46 168.11 156.62 195.11C132.78 222.11 102.21 267.54 103.83 287.01C105.45 306.48 152.75 344.41 152.75 344.41Z" fill="#455A64"/>
<path d="M173.19 227C172.19 228.73 171.14 230.43 170.25 232.21C169.95 232.79 169.66 233.37 169.37 233.95C169.59 233.25 169.82 232.56 170.05 231.86C171.44 227.47 172.79 223.06 173.97 218.6C173.98 218.575 173.979 218.547 173.967 218.523C173.956 218.498 173.936 218.479 173.91 218.47C173.885 218.461 173.857 218.462 173.833 218.473C173.809 218.484 173.79 218.505 173.78 218.53C170.64 226.09 168.04 233.88 165.46 241.65C162.88 249.42 160.46 257.35 158.1 265.25C156.8 269.67 155.46 274.11 154.44 278.6C154.446 278.615 154.456 278.629 154.47 278.638C154.483 278.647 154.499 278.652 154.515 278.652C154.532 278.652 154.548 278.647 154.561 278.638C154.575 278.629 154.585 278.615 154.59 278.6C156.09 274.75 157.36 270.8 158.66 266.88C159.96 262.96 161.28 259.05 162.55 255.13C164.55 248.87 166.55 242.607 168.55 236.34C169.406 235.166 170.136 233.906 170.73 232.58C171.66 230.76 172.4 228.86 173.22 227H173.19Z" fill="#263238"/>
<path d="M147.921 332.94C147.767 333.41 147.756 333.915 147.89 334.391C148.023 334.868 148.295 335.294 148.67 335.616C149.046 335.937 149.508 336.141 149.999 336.199C150.491 336.258 150.988 336.17 151.429 335.946C151.87 335.722 152.235 335.372 152.477 334.941C152.719 334.51 152.828 334.016 152.789 333.523C152.751 333.03 152.567 332.56 152.261 332.171C151.955 331.782 151.541 331.493 151.071 331.34C150.441 331.138 149.756 331.192 149.167 331.492C148.577 331.791 148.129 332.312 147.921 332.94Z" fill="#263238"/>
<path d="M138.41 324.15C138.258 324.621 138.249 325.126 138.384 325.601C138.519 326.077 138.792 326.502 139.168 326.822C139.545 327.142 140.008 327.344 140.499 327.402C140.99 327.459 141.487 327.37 141.927 327.145C142.367 326.92 142.731 326.569 142.972 326.138C143.213 325.706 143.32 325.213 143.281 324.72C143.242 324.227 143.057 323.757 142.751 323.369C142.445 322.981 142.03 322.693 141.56 322.54C141.247 322.439 140.918 322.4 140.59 322.426C140.263 322.452 139.944 322.543 139.651 322.692C139.359 322.842 139.099 323.048 138.886 323.298C138.673 323.548 138.511 323.838 138.41 324.15Z" fill="#263238"/>
<path d="M121.311 315.14C124.461 317.82 127.421 320.7 130.311 323.6C131.771 325.06 133.221 326.52 134.651 328C136.081 329.48 137.491 331 138.901 332.51C135.644 329.994 132.57 327.25 129.701 324.3C126.738 321.403 123.937 318.345 121.311 315.14Z" fill="#263238"/>
<path d="M469.7 109C471.84 102.12 481.2 86.9999 496.31 91.5499C517.82 98.0499 517 140.71 526.7 155C544.26 180.8 542.7 204.54 526.06 206.79C507.45 209.3 491.58 188.09 496.25 145.87C499.17 119.47 492.82 107.05 487.48 107.34C482.14 107.63 478.6 114 478.6 114L469.7 109Z" fill="#263238"/>
<path d="M470.63 106.41C472.026 103.243 473.802 100.258 475.92 97.5201C478.048 94.7005 480.742 92.357 483.83 90.6401C487.01 88.8951 490.659 88.1954 494.26 88.6401C497.851 89.0798 501.283 90.3837 504.26 92.4401C507.131 94.5555 509.517 97.259 511.26 100.37C512.978 103.424 514.34 106.665 515.32 110.03C517.148 116.692 518.222 123.538 518.52 130.44C517.478 123.666 515.927 116.981 513.88 110.44C512.799 107.249 511.395 104.176 509.69 101.27C508.028 98.4024 505.783 95.9155 503.1 93.9701C500.4 92.0844 497.292 90.8645 494.03 90.4101C490.78 89.9315 487.462 90.4584 484.52 91.9201C481.525 93.4393 478.852 95.5243 476.65 98.0601C475.503 99.3294 474.431 100.665 473.44 102.06C472.453 103.493 471.517 104.943 470.63 106.41Z" fill="#263238"/>
<path d="M497.48 131.24C497.31 135.46 496.67 139.64 496.2 143.82C495.73 148 495.14 152.16 494.74 156.33C494.34 160.5 494.08 164.68 494.11 168.85C494.065 172.999 494.43 177.143 495.2 181.22C495.905 185.263 497.371 189.135 499.52 192.63C501.798 196.048 504.658 199.04 507.97 201.47C511.284 203.938 515.136 205.586 519.21 206.28C521.256 206.637 523.341 206.725 525.41 206.54C526.447 206.443 527.476 206.276 528.49 206.04C529.534 205.831 530.543 205.478 531.49 204.99C529.651 206.078 527.609 206.779 525.49 207.05C523.377 207.385 521.229 207.446 519.1 207.23C516.96 206.982 514.858 206.475 512.84 205.72C510.826 204.939 508.907 203.933 507.12 202.72C505.325 201.51 503.651 200.13 502.12 198.6L501.01 197.43L499.94 196.22C499.215 195.404 498.547 194.538 497.94 193.63C495.624 189.967 494.032 185.893 493.25 181.63C491.65 173.16 492.14 164.56 493.2 156.2C493.73 152 494.46 147.84 495.2 143.7C495.94 139.56 496.88 135.41 497.48 131.24Z" fill="#263238"/>
<path d="M468.381 109C468.321 107 469.751 104.47 471.031 104.12C472.311 103.77 481.791 107.84 482.611 110.28C483.431 112.72 479.201 114.86 479.201 114.86L468.381 109Z" fill="#455A64"/>
<path d="M475.7 196.3C470.06 208.56 428.14 266.19 407.33 267.76C385.55 269.41 333.33 233.82 328.33 230.85C314.6 222.73 352.89 185.25 359.51 191.85C370.57 202.98 397.02 223.94 403.51 222.53C417.11 219.53 445.42 195.77 465.51 183.39C477.55 176 481.93 182.73 475.7 196.3Z" fill="#AD6359"/>
<path d="M331.58 232.76C329.22 231.19 310.16 220.6 303.01 210.4C299.23 205 290.5 189 293.5 186.24C296.24 183.76 299.71 187.57 299.71 187.57C299.71 187.57 295.92 180.36 299.77 176.96C303.62 173.56 309.15 180.29 309.15 180.29C309.15 180.29 305.8 172.6 309.88 169.49C313.96 166.38 318.38 174.06 318.38 174.06C318.38 174.06 314.99 167.18 319.43 166.06C324.78 164.67 329.6 178.06 334.78 183.22C335.95 184.39 360.31 205.22 360.31 205.22L331.58 232.76Z" fill="#AD6359"/>
<path d="M318.7 174.06C322.27 183.9 325.53 187.59 333.7 193.91C333.86 194.03 333.7 194.3 333.53 194.18C325 188.72 320.24 184.68 318.24 174.18C318.1 173.69 318.51 173.59 318.7 174.06Z" fill="#263238"/>
<path d="M309.451 180.24C314.041 190.14 317.551 194.17 325.591 201.42C325.701 201.52 325.541 201.72 325.421 201.63C316.931 195.18 312.281 191.05 308.981 180.55C308.831 180.08 309.241 179.79 309.451 180.24Z" fill="#263238"/>
<path d="M300.11 187.91C305.25 197.17 308.9 201.76 317.61 207.79C317.654 207.817 317.685 207.859 317.697 207.909C317.71 207.959 317.702 208.011 317.675 208.055C317.649 208.099 317.606 208.13 317.556 208.142C317.506 208.155 317.454 208.147 317.41 208.12C307.93 202.83 303.33 197.12 299.84 188.12C299.61 187.48 299.79 187.32 300.11 187.91Z" fill="#263238"/>
<path d="M368.56 202.19C368.56 202.19 363.16 190.24 359.62 185.51C356.08 180.78 336.44 168.02 333.44 172.11C329.57 177.38 339.44 186.99 344.92 191.06C344.92 191.06 335.92 203.26 341.56 211.69C347.2 220.12 368.56 202.19 368.56 202.19Z" fill="#AD6359"/>
<path d="M332.851 173.9C332.791 181.26 340.301 186.15 345.301 190.49C345.38 190.549 345.444 190.628 345.485 190.718C345.527 190.808 345.546 190.907 345.54 191.006C345.534 191.105 345.504 191.201 345.451 191.286C345.399 191.37 345.327 191.44 345.241 191.49C341.831 196.86 338.571 205.42 341.151 211.62C341.169 211.656 341.173 211.697 341.161 211.736C341.149 211.774 341.122 211.806 341.086 211.825C341.05 211.844 341.008 211.847 340.97 211.835C340.931 211.823 340.899 211.796 340.881 211.76C337.211 205.49 339.721 196.82 343.881 191.18C338.681 186.81 331.361 181.58 332.821 173.91C332.791 173.86 332.851 173.86 332.851 173.9Z" fill="#263238"/>
<path d="M475.13 199.78C468.6 212.78 430.54 268.29 409.98 269.17C389.42 270.05 346.36 252.51 346.36 252.51L378.26 203.92C378.26 203.92 400.35 219.86 403.82 219.98C407.29 220.1 453.7 189.47 464.5 182.73C475.3 175.99 485.7 178.62 475.13 199.78Z" fill="#FFA4BB"/>
<path d="M375.491 252.87C375.337 251.391 375.374 249.899 375.601 248.43C375.785 246.956 376.155 245.511 376.701 244.13C376.855 245.608 376.818 247.101 376.591 248.57C376.404 250.043 376.035 251.488 375.491 252.87Z" fill="white"/>
<path d="M439.001 243.14C438.852 241.661 438.889 240.17 439.111 238.7C439.294 237.225 439.667 235.779 440.221 234.4C440.473 237.368 440.056 240.355 439.001 243.14Z" fill="white"/>
<path d="M442.52 206.17C441.041 206.321 439.549 206.28 438.08 206.05C436.605 205.873 435.159 205.503 433.78 204.95C435.259 204.801 436.751 204.838 438.22 205.06C439.695 205.244 441.14 205.617 442.52 206.17Z" fill="white"/>
<path d="M391.331 222.94C389.855 223.086 388.366 223.046 386.901 222.82C385.425 222.645 383.979 222.275 382.601 221.72C384.076 221.571 385.564 221.608 387.031 221.83C388.506 222.013 389.951 222.386 391.331 222.94Z" fill="white"/>
<path d="M398.801 268.08C398.743 268.161 398.679 268.238 398.611 268.31H398.351L398.801 268.08Z" fill="white"/>
<path d="M362.7 235.42C364.61 233.149 367.001 231.332 369.7 230.1C368.761 231.252 367.679 232.281 366.48 233.16C365.322 234.072 364.052 234.832 362.7 235.42Z" fill="white"/>
<path d="M415.931 224.38C416.873 223.23 417.954 222.202 419.151 221.32C420.323 220.408 421.607 219.649 422.971 219.06C422.034 220.215 420.951 221.243 419.751 222.12C418.578 223.032 417.294 223.791 415.931 224.38Z" fill="white"/>
<path d="M398.271 239.62C400.554 241.518 402.373 243.912 403.591 246.62C401.313 244.717 399.494 242.324 398.271 239.62Z" fill="white"/>
<path d="M448.811 216.83C451.085 218.734 452.9 221.127 454.121 223.83C452.969 222.897 451.944 221.818 451.071 220.62C450.159 219.458 449.4 218.184 448.811 216.83Z" fill="white"/>
<path d="M385.17 211.81C381.17 219.08 377.28 226.42 372.94 233.5C368.746 240.57 364.179 247.413 359.26 254C359.238 254.021 359.21 254.033 359.179 254.036C359.149 254.039 359.119 254.033 359.093 254.017C359.067 254.001 359.046 253.977 359.035 253.949C359.024 253.92 359.022 253.889 359.03 253.86C362.87 246.61 367.26 239.61 371.53 232.61C375.8 225.61 380.42 218.67 384.71 211.61C384.88 211.33 385.32 211.53 385.17 211.81Z" fill="#263238"/>
<path d="M475.13 199.78C468.6 212.78 430.54 268.29 409.98 269.17C404.98 269.38 398.67 268.51 391.98 267.06C407.98 249.97 452.65 201.77 473.34 179.46C479.61 179.08 482.7 184.76 475.13 199.78Z" fill="#263238"/>
<path d="M437.2 328.62H557.87C557.87 328.62 510.95 209.83 485.96 185.93C479.17 179.44 462.39 179.93 454.17 190.88C447.43 199.88 428.72 235.62 427.87 248.49C427.02 261.36 437.11 274.05 437.11 274.05L437.2 328.62Z" fill="#FFA4BB"/>
<path d="M452.62 284.11C452.471 282.634 452.508 281.146 452.73 279.68C452.913 278.205 453.286 276.759 453.84 275.38C453.991 276.856 453.95 278.345 453.72 279.81C453.536 281.284 453.166 282.728 452.62 284.11Z" fill="white"/>
<path d="M535.541 306.47C535.405 304.979 535.459 303.477 535.701 302C535.884 300.525 536.257 299.08 536.811 297.7C536.961 299.179 536.921 300.671 536.691 302.14C536.492 303.626 536.106 305.081 535.541 306.47Z" fill="white"/>
<path d="M483.48 326C483.331 324.525 483.368 323.036 483.59 321.57C483.773 320.095 484.146 318.65 484.7 317.27C484.851 318.746 484.811 320.235 484.58 321.7C484.396 323.174 484.026 324.619 483.48 326Z" fill="white"/>
<path d="M471.48 236.34C471.334 234.864 471.375 233.376 471.6 231.91C471.775 230.434 472.145 228.988 472.7 227.61C472.964 230.575 472.547 233.561 471.48 236.34Z" fill="white"/>
<path d="M503.551 272.45C503.414 270.966 503.464 269.471 503.701 268C503.88 266.525 504.25 265.08 504.801 263.7C505.066 266.668 504.649 269.658 503.581 272.44L503.551 272.45Z" fill="white"/>
<path d="M439.001 243.14C438.852 241.661 438.889 240.17 439.111 238.7C439.294 237.225 439.667 235.779 440.221 234.4C440.473 237.368 440.056 240.355 439.001 243.14Z" fill="white"/>
<path d="M481.44 278.64C478.473 278.902 475.485 278.488 472.7 277.43C474.179 277.276 475.671 277.313 477.14 277.54C478.614 277.726 480.058 278.095 481.44 278.64Z" fill="white"/>
<path d="M517.841 244.13C516.362 244.279 514.87 244.242 513.401 244.02C511.925 243.837 510.48 243.464 509.101 242.91C512.069 242.658 515.055 243.075 517.841 244.13Z" fill="white"/>
<path d="M452.89 319.23C451.414 319.376 449.926 319.336 448.46 319.11C446.984 318.935 445.538 318.565 444.16 318.01C445.636 317.861 447.124 317.898 448.59 318.12C450.065 318.303 451.511 318.676 452.89 319.23Z" fill="white"/>
<path d="M520.6 289.33C519.122 289.484 517.63 289.447 516.16 289.22C514.687 289.034 513.242 288.665 511.86 288.12C513.339 287.966 514.831 288.003 516.3 288.23C517.774 288.416 519.219 288.785 520.6 289.33Z" fill="white"/>
<path d="M463.471 305.73C464.413 304.583 465.495 303.559 466.691 302.68C467.861 301.765 469.145 301.005 470.511 300.42C468.604 302.691 466.212 304.505 463.511 305.73H463.471Z" fill="white"/>
<path d="M509.101 314.45C510.038 313.295 511.12 312.267 512.321 311.39C513.493 310.478 514.777 309.719 516.141 309.13C514.237 311.407 511.845 313.226 509.141 314.45H509.101Z" fill="white"/>
<path d="M521.181 271.76C522.123 270.613 523.205 269.589 524.401 268.71C525.571 267.795 526.855 267.035 528.221 266.45C527.286 267.604 526.203 268.63 525.001 269.5C523.83 270.416 522.546 271.175 521.181 271.76Z" fill="white"/>
<path d="M449.13 256.42C450.072 255.27 451.154 254.242 452.35 253.36C453.523 252.448 454.806 251.689 456.17 251.1C455.233 252.255 454.151 253.283 452.95 254.16C451.777 255.072 450.494 255.831 449.13 256.42Z" fill="white"/>
<path d="M495.79 227C496.732 225.85 497.814 224.822 499.01 223.94C500.183 223.028 501.466 222.269 502.83 221.68C501.893 222.835 500.811 223.863 499.61 224.74C498.437 225.652 497.154 226.411 495.79 227Z" fill="white"/>
<path d="M440.311 291.56C439.384 292.689 438.319 293.697 437.141 294.56V293.34C438.125 292.626 439.188 292.028 440.311 291.56Z" fill="white"/>
<path d="M472.021 208.22C472.963 207.07 474.044 206.042 475.24 205.16C476.413 204.248 477.697 203.489 479.06 202.9C477.157 205.177 474.764 206.996 472.06 208.22H472.021Z" fill="white"/>
<path d="M432.23 262.51C433.38 263.452 434.408 264.534 435.29 265.73C436.202 266.903 436.962 268.186 437.55 269.55C435.273 267.647 433.454 265.254 432.23 262.55V262.51Z" fill="white"/>
<path d="M448.811 216.83C451.085 218.734 452.9 221.127 454.121 223.83C452.969 222.897 451.944 221.818 451.071 220.62C450.159 219.458 449.4 218.184 448.811 216.83Z" fill="white"/>
<path d="M490.7 290.7C492.971 292.607 494.786 294.999 496.01 297.7C494.879 296.757 493.871 295.676 493.01 294.48C492.08 293.325 491.304 292.055 490.7 290.7Z" fill="white"/>
<path d="M534.101 319.71C535.25 320.652 536.278 321.734 537.161 322.93C538.072 324.103 538.832 325.386 539.421 326.75C538.264 325.816 537.235 324.733 536.361 323.53C535.447 322.359 534.687 321.075 534.101 319.71Z" fill="white"/>
<path d="M489.851 195.26C492.125 197.164 493.94 199.557 495.161 202.26C492.886 200.357 491.071 197.964 489.851 195.26Z" fill="white"/>
<path d="M482.061 251.56C483.215 252.497 484.244 253.579 485.121 254.78C486.038 255.949 486.797 257.233 487.381 258.6C485.103 256.697 483.284 254.304 482.061 251.6V251.56Z" fill="white"/>
<path d="M477.941 187.08C477.281 188.87 466.941 199.66 458.611 198.17C455.891 197.68 457.891 182.73 457.891 182.73L457.791 181.59L456.341 165.67L476.031 156.36L478.861 155.16C478.861 155.16 478.971 159.54 479.051 165C479.051 165.26 479.051 165.51 479.051 165.78C479.051 166.05 479.051 166.38 479.051 166.67C479.051 167.48 479.051 168.32 479.051 169.15C479.051 169.78 479.051 170.39 479.051 171.06V173.06C479.009 177.754 478.638 182.439 477.941 187.08Z" fill="#AD6359"/>
<path d="M479.051 165C476.925 169.144 473.921 172.774 470.25 175.639C466.578 178.504 462.327 180.535 457.791 181.59L456.341 165.67L476.031 156.36L478.861 155.16C478.861 155.16 478.971 159.54 479.051 165Z" fill="#263238"/>
<path d="M436.08 142.21C433.86 170.21 450.36 174.68 456.4 175.15C461.87 175.58 480.58 176.35 485.68 148.75C490.78 121.15 478.48 111.28 466.01 109.63C453.54 107.98 438.31 114.23 436.08 142.21Z" fill="#AD6359"/>
<path d="M440.8 136.26C441.44 136.169 442.074 136.042 442.7 135.88C443.388 135.842 444.043 135.575 444.56 135.12C444.695 134.945 444.768 134.731 444.768 134.51C444.768 134.289 444.695 134.075 444.56 133.9C444.245 133.592 443.854 133.375 443.427 133.269C442.999 133.164 442.552 133.174 442.13 133.3C441.234 133.427 440.415 133.879 439.83 134.57C439.705 134.736 439.632 134.934 439.619 135.141C439.606 135.348 439.655 135.555 439.758 135.735C439.861 135.915 440.015 136.06 440.2 136.154C440.385 136.247 440.594 136.284 440.8 136.26Z" fill="#263238"/>
<path d="M459.42 136.66C458.77 136.58 458.17 136.39 457.53 136.25C456.842 136.194 456.192 135.913 455.68 135.45C455.546 135.275 455.473 135.061 455.473 134.84C455.473 134.619 455.546 134.405 455.68 134.23C456.002 133.928 456.399 133.717 456.83 133.621C457.261 133.524 457.71 133.544 458.13 133.68C459.023 133.814 459.833 134.278 460.4 134.98C460.518 135.148 460.585 135.345 460.594 135.55C460.602 135.755 460.552 135.957 460.449 136.134C460.346 136.311 460.194 136.455 460.012 136.548C459.829 136.641 459.624 136.68 459.42 136.66Z" fill="#263238"/>
<path d="M455.041 143.72C455.041 143.64 455.191 143.81 455.181 143.89C455.061 145.8 455.241 148 456.951 148.69C457.001 148.69 456.951 148.81 456.951 148.8C454.831 148.43 454.621 145.5 455.041 143.72Z" fill="#263238"/>
<path d="M456.811 141.78C459.891 141.64 459.931 147.78 457.081 147.94C454.231 148.1 454.231 141.89 456.811 141.78Z" fill="#263238"/>
<path d="M458.02 142.1C458.57 142.44 459.1 143.1 459.75 143.1C460.4 143.1 461.06 142.52 461.55 141.9C461.55 141.84 461.65 141.9 461.66 141.97C461.66 143.15 461.23 144.37 459.97 144.55C458.71 144.73 457.97 143.68 457.67 142.49C457.62 142.28 457.81 142 458.02 142.1Z" fill="#263238"/>
<path d="M444.431 143.29C444.431 143.22 444.291 143.39 444.291 143.47C444.381 145.38 444.161 147.58 442.441 148.24C442.381 148.24 442.391 148.35 442.441 148.34C444.561 148 444.821 145.09 444.431 143.29Z" fill="#263238"/>
<path d="M442.7 141.32C439.62 141.13 439.47 147.32 442.32 147.48C445.17 147.64 445.28 141.48 442.7 141.32Z" fill="#263238"/>
<path d="M441.401 141.7C440.911 142.01 440.401 142.59 439.831 142.62C439.261 142.65 438.671 141.96 438.261 141.31C438.211 141.25 438.161 141.31 438.161 141.38C438.101 142.56 438.461 143.79 439.581 144.05C440.701 144.31 441.391 143.29 441.701 142.12C441.761 141.91 441.601 141.57 441.401 141.7Z" fill="#263238"/>
<path d="M455.181 158.84C454.751 159.31 454.321 159.95 453.631 160.04C452.922 160.062 452.217 159.936 451.561 159.67C451.547 159.666 451.534 159.667 451.521 159.671C451.508 159.675 451.496 159.683 451.488 159.694C451.479 159.704 451.474 159.717 451.473 159.731C451.472 159.744 451.474 159.758 451.481 159.77C451.773 160.129 452.156 160.403 452.591 160.564C453.025 160.724 453.495 160.764 453.951 160.68C454.339 160.563 454.682 160.332 454.936 160.016C455.189 159.7 455.341 159.314 455.371 158.91C455.391 158.8 455.241 158.77 455.181 158.84Z" fill="#263238"/>
<path d="M447.23 151.88C447.23 151.88 446.82 154.74 446.81 156.08C446.81 156.21 447.14 156.27 447.59 156.3C447.59 156.3 447.59 156.3 447.65 156.3C448.803 156.519 449.994 156.416 451.091 156.001C452.189 155.586 453.15 154.877 453.87 153.95C453.885 153.924 453.89 153.893 453.886 153.863C453.882 153.833 453.868 153.805 453.846 153.784C453.825 153.763 453.797 153.749 453.767 153.744C453.737 153.74 453.707 153.746 453.68 153.76C451.954 154.923 449.899 155.498 447.82 155.4C447.73 155.03 448.69 150.54 448.47 150.52C447.425 150.614 446.396 150.842 445.41 151.2C446.1 145.2 447.73 139.43 448.32 133.48C448.332 133.434 448.325 133.384 448.301 133.343C448.276 133.302 448.237 133.272 448.19 133.26C448.144 133.248 448.094 133.255 448.053 133.28C448.012 133.304 447.982 133.344 447.97 133.39C445.83 139.39 444.89 146.2 444.03 152.39C443.91 153.11 446.7 152.11 447.23 151.88Z" fill="#263238"/>
<path d="M447.88 156C448.687 157.077 449.758 157.927 450.99 158.47C451.666 158.744 452.411 158.8 453.12 158.63C454.68 158.24 454.73 156.82 454.46 155.63C454.309 154.983 454.084 154.356 453.79 153.76C452.11 155.119 450.039 155.904 447.88 156Z" fill="#263238"/>
<path d="M450.99 158.49C451.666 158.764 452.411 158.82 453.12 158.65C454.68 158.26 454.73 156.84 454.46 155.65C452.8 155.77 451.15 156.88 450.99 158.49Z" fill="#EB9481"/>
<path d="M484.441 151.54C482.651 150.662 481.12 149.334 479.998 147.686C478.876 146.038 478.201 144.127 478.041 142.14C473.167 139.983 468.958 136.561 465.851 132.23C466.031 132.81 467.361 136.97 468.111 139.07C450.411 135.68 444.991 122.07 444.991 122.07C439.221 127.78 438.061 131.44 437.221 133.26C437.221 133.26 437.141 122.4 442.761 115.15C449.641 106.27 472.761 103.97 483.371 115.64C494.821 128.25 484.441 151.54 484.441 151.54Z" fill="#263238"/>
<path d="M454.7 136.08C457.539 137.649 460.596 138.785 463.77 139.45C458.782 138.077 454.278 135.334 450.77 131.53C449.281 129.912 448.004 128.111 446.97 126.17C445.759 124.092 444.97 121.794 444.65 119.41C444.65 119.373 444.635 119.337 444.609 119.311C444.583 119.285 444.547 119.27 444.51 119.27C444.473 119.27 444.437 119.285 444.411 119.311C444.385 119.337 444.37 119.373 444.37 119.41C444.435 121.804 444.902 124.17 445.75 126.41C446.678 128.595 448.004 130.589 449.66 132.29C451.139 133.792 452.823 135.077 454.66 136.11" fill="#263238"/>
<path d="M481.071 150.55C481.071 150.55 487.131 141.74 491.071 143.9C495.011 146.06 490.541 158.79 485.891 160.56C485.309 160.828 484.679 160.975 484.039 160.993C483.399 161.011 482.761 160.9 482.166 160.665C481.57 160.431 481.027 160.078 480.571 159.629C480.115 159.18 479.754 158.642 479.511 158.05L481.071 150.55Z" fill="#AD6359"/>
<path d="M489.7 147.52C489.78 147.52 489.79 147.61 489.7 147.64C486.44 148.99 484.7 152.04 483.55 155.19C484.55 153.97 485.84 153.3 487.47 154.45C487.55 154.51 487.47 154.64 487.38 154.62C486.807 154.436 486.192 154.433 485.617 154.612C485.042 154.791 484.537 155.143 484.17 155.62C483.578 156.437 483.068 157.311 482.65 158.23C482.5 158.53 481.97 158.37 482.08 158.04V157.96C482.06 153.83 485.26 148 489.7 147.52Z" fill="#263238"/>
<path d="M482.04 159.92C482.04 160.315 482.157 160.702 482.377 161.031C482.597 161.36 482.909 161.616 483.275 161.768C483.64 161.919 484.042 161.959 484.43 161.882C484.818 161.804 485.175 161.614 485.454 161.334C485.734 161.054 485.924 160.698 486.002 160.31C486.079 159.922 486.039 159.52 485.888 159.155C485.736 158.789 485.48 158.477 485.151 158.257C484.822 158.037 484.436 157.92 484.04 157.92C483.514 157.933 483.012 158.147 482.64 158.52C482.267 158.892 482.053 159.393 482.04 159.92Z" fill="white"/>
<path d="M448.791 192.79C448.791 192.79 443.071 209.05 453.421 210.2C463.771 211.35 490.8 191.36 490.8 191.36C490.8 191.36 483.301 179.22 471.321 180.52C461.371 181.59 448.791 192.79 448.791 192.79Z" fill="#AD6359"/>
<path d="M497.7 211.83C497.7 231.91 486.16 292.12 475.08 300.23C452.91 316.46 400.92 315.34 386.58 315.59C380.39 315.69 372.26 274.48 376.87 269.74C381.48 265 444.87 263.24 448.07 260.81C450.32 259.12 468.2 229.81 478.55 210.97C492.51 185.5 497.7 201.71 497.7 211.83Z" fill="#AD6359"/>
<path d="M387.871 267.54C387.871 267.54 369.161 265.47 356.871 264.7C350.001 264.26 338.171 264.57 332.981 266.55C325.221 269.55 294.671 286.92 298.721 294.42C302.391 301.2 311.721 293.7 311.721 293.7C311.721 293.7 300.721 300.94 306.461 306.56C312.201 312.18 323.461 301.26 323.461 301.26C323.461 301.26 311.271 308.14 317.941 313.56C323.731 318.25 338.011 307.03 338.011 307.03C338.011 307.03 324.431 312.86 329.891 318.25C335.891 324.25 359.441 310.07 359.441 310.07C374.751 315.17 384.631 316.16 396.351 315.42C398.471 315.29 387.871 267.54 387.871 267.54Z" fill="#AD6359"/>
<path d="M320.02 303.73L322.79 301.29C324.554 299.664 326.41 298.142 328.35 296.73C330.27 295.38 332.24 294.13 334.25 292.94C336.26 291.75 338.64 290.62 340.73 289.3C340.746 289.288 340.764 289.28 340.784 289.275C340.803 289.271 340.823 289.27 340.843 289.274C340.862 289.278 340.88 289.286 340.897 289.297C340.913 289.309 340.926 289.324 340.936 289.341C340.946 289.358 340.953 289.377 340.955 289.397C340.957 289.417 340.955 289.437 340.948 289.455C340.942 289.474 340.932 289.492 340.918 289.506C340.905 289.521 340.889 289.532 340.87 289.54C338.794 290.82 336.791 292.216 334.87 293.72C332.94 295.13 331.02 296.57 329.1 298C327.18 299.43 325.28 300.67 323.37 302C322.37 302.67 321.49 303.39 320.57 304.1C319.735 304.842 318.839 305.511 317.89 306.1C317.8 306.15 317.71 306.02 317.77 305.94C318.442 305.127 319.196 304.387 320.02 303.73Z" fill="#263238"/>
<path d="M309.46 295.25C310.73 293.6 317.72 287.9 319.59 286.55C323.205 283.923 327.074 281.665 331.14 279.81C331.169 279.802 331.201 279.804 331.229 279.815C331.257 279.826 331.281 279.846 331.297 279.872C331.313 279.898 331.32 279.929 331.317 279.959C331.314 279.989 331.301 280.018 331.28 280.04C327.67 282.68 324.02 285.26 320.37 287.85C318.58 289.11 310.66 295.1 309.75 295.62C309.53 295.75 309.33 295.43 309.46 295.25Z" fill="#263238"/>
<path d="M329.701 312C332.743 309.122 335.973 306.449 339.371 304C343.059 301.815 346.907 299.909 350.881 298.3C351.031 298.25 351.151 298.45 351.021 298.53C347.341 300.72 343.641 302.83 340.021 305.19C338.281 306.34 331.621 311.33 329.861 312.28C329.781 312.33 329.621 312.1 329.701 312Z" fill="#263238"/>
<path d="M400.491 318.62L383.391 264.28C383.391 264.28 445.611 260.28 447.631 259.28C449.651 258.28 471.831 219.05 480.631 203.81C489.431 188.57 502.991 194.81 497.921 229.24C492.831 263.83 487.231 290.71 479.481 298.71C470.041 308.39 435.641 318.39 400.491 318.62Z" fill="#FFA4BB"/>
<path d="M452.62 284.11C452.471 282.634 452.508 281.146 452.73 279.68C452.913 278.205 453.286 276.759 453.84 275.38C453.991 276.856 453.95 278.345 453.72 279.81C453.536 281.284 453.166 282.728 452.62 284.11Z" fill="white"/>
<path d="M418.241 315.21C418.087 313.732 418.124 312.239 418.351 310.77C418.537 309.297 418.907 307.852 419.451 306.47C419.605 307.949 419.568 309.441 419.341 310.91C419.156 312.384 418.787 313.829 418.241 315.21Z" fill="white"/>
<path d="M471.48 236.34C471.334 234.864 471.375 233.376 471.6 231.91C471.775 230.434 472.145 228.988 472.7 227.61C472.964 230.575 472.547 233.561 471.48 236.34Z" fill="white"/>
<path d="M481.44 278.64C478.473 278.902 475.485 278.488 472.7 277.43C474.179 277.276 475.671 277.313 477.14 277.54C478.614 277.726 480.058 278.095 481.44 278.64Z" fill="white"/>
<path d="M421.7 280.35C420.221 280.504 418.729 280.467 417.26 280.24C415.786 280.056 414.341 279.686 412.96 279.14C414.439 278.986 415.931 279.023 417.4 279.25C418.873 279.437 420.318 279.806 421.7 280.35Z" fill="white"/>
<path d="M463.471 305.73C464.413 304.583 465.495 303.559 466.691 302.68C467.861 301.765 469.145 301.005 470.511 300.42C468.604 302.691 466.212 304.505 463.511 305.73H463.471Z" fill="white"/>
<path d="M391.761 273.39C392.703 272.243 393.785 271.219 394.981 270.34C396.151 269.425 397.435 268.665 398.801 268.08C397.866 269.234 396.784 270.259 395.581 271.13C394.41 272.045 393.126 272.805 391.761 273.39Z" fill="white"/>
<path d="M456.17 251.1C455.233 252.255 454.151 253.283 452.95 254.16C452.043 254.85 451.08 255.462 450.07 255.99C450.38 255.51 450.72 254.99 451.07 254.41C451.48 254.05 451.91 253.7 452.34 253.41C453.513 252.48 454.8 251.704 456.17 251.1Z" fill="white"/>
<path d="M498.49 224.39C498.49 224.81 498.41 225.23 498.36 225.66C497.552 226.206 496.691 226.668 495.79 227.04C496.588 226.059 497.494 225.17 498.49 224.39Z" fill="white"/>
<path d="M433.271 296.88C434.213 295.73 435.294 294.702 436.491 293.82C437.663 292.908 438.947 292.149 440.31 291.56C439.374 292.715 438.291 293.743 437.091 294.62C435.918 295.532 434.634 296.291 433.271 296.88Z" fill="white"/>
<path d="M432.23 262.51C433.38 263.452 434.408 264.534 435.29 265.73C436.202 266.903 436.962 268.186 437.55 269.55C435.273 267.647 433.454 265.254 432.23 262.55V262.51Z" fill="white"/>
<path d="M495.16 202.29C494.011 201.354 492.986 200.275 492.11 199.08C491.361 198.11 490.712 197.069 490.17 195.97C490.353 195.96 490.537 195.96 490.72 195.97C491.512 196.733 492.241 197.559 492.9 198.44C493.815 199.621 494.575 200.915 495.16 202.29Z" fill="white"/>
<path d="M482.061 251.56C483.215 252.497 484.244 253.579 485.121 254.78C486.038 255.949 486.797 257.233 487.381 258.6C485.103 256.697 483.284 254.304 482.061 251.6V251.56Z" fill="white"/>
<path d="M467.111 226.78C465.111 229.78 463.201 232.96 461.331 236.09L461.171 236.35C461.261 236.11 461.361 235.87 461.451 235.64C462.061 234.08 462.601 232.49 463.261 230.96C463.261 230.87 463.171 230.79 463.131 230.88C462.451 232.39 461.701 233.88 461.061 235.39C460.631 236.39 460.241 237.46 459.871 238.51C458.481 240.83 457.091 243.15 455.721 245.51C453.881 248.65 452.051 251.81 450.201 254.95C449.741 255.72 449.301 256.49 448.831 257.26C448.501 257.942 447.926 258.474 447.221 258.75C446.384 258.949 445.53 259.062 444.671 259.09C443.761 259.18 442.851 259.29 441.941 259.4C437.801 259.91 433.691 260.59 429.551 261.13C429.451 261.13 429.451 261.3 429.551 261.29C433.351 261 437.161 260.86 440.961 260.55C442.841 260.4 444.721 260.27 446.581 260.03C447.3 259.992 447.994 259.749 448.581 259.33C449.096 258.862 449.519 258.303 449.831 257.68C453.597 251.16 457.364 244.637 461.131 238.11C463.261 234.41 465.421 230.73 467.381 226.94C467.402 226.904 467.408 226.861 467.398 226.821C467.387 226.781 467.361 226.746 467.326 226.725C467.29 226.704 467.247 226.698 467.207 226.708C467.166 226.718 467.132 226.744 467.111 226.78Z" fill="#263238"/>
<path d="M498.01 241.29C497.818 242.536 497.52 243.764 497.12 244.96C496.82 246.03 496.53 247.1 496.21 248.16C495.89 249.22 495.42 250.55 495.01 251.74C495.85 246.447 496.517 241.113 497.01 235.74C497.01 235.58 496.75 235.55 496.72 235.74C495.72 243.21 494.35 250.65 492.78 258.01C491.21 265.37 489.31 272.72 487.16 279.95C486.1 283.51 484.98 287.06 483.74 290.56C482.771 293.626 481.298 296.509 479.38 299.09C477.113 301.666 474.274 303.677 471.09 304.96C467.775 306.485 464.377 307.821 460.91 308.96C453.03 311.54 444.91 313.18 436.85 315.11C436.76 315.11 436.78 315.28 436.85 315.27C444.247 314.236 451.574 312.753 458.79 310.83C462.445 309.856 466.036 308.654 469.54 307.23C472.75 305.89 476.06 304.44 478.65 302.06C481.021 299.725 482.85 296.899 484.01 293.78C485.36 290.51 486.42 287.11 487.47 283.78C489.77 276.4 491.69 268.96 493.26 261.39C493.707 259.197 494.124 257 494.51 254.8C495.41 252.709 496.139 250.548 496.69 248.34C496.99 247.19 497.28 246.04 497.51 244.87C497.74 243.7 497.81 242.48 498.14 241.35C498.19 241.2 498.02 241.17 498.01 241.29Z" fill="#263238"/>
<path d="M411.31 314.24C408.49 306.43 405.51 298.68 403.04 290.76C400.479 282.946 398.333 275.001 396.61 266.96C396.611 266.93 396.621 266.9 396.64 266.876C396.659 266.852 396.685 266.835 396.714 266.827C396.743 266.819 396.774 266.821 396.803 266.832C396.831 266.844 396.855 266.864 396.87 266.89C399.8 274.55 402.18 282.46 404.64 290.28C407.1 298.1 409.28 306.15 411.77 314.03C411.86 314.33 411.43 314.54 411.31 314.24Z" fill="#263238"/>
<path d="M400.831 263C399.342 262.92 397.85 262.92 396.361 263C394.871 263 393.361 263.1 391.891 263.16C388.891 263.29 385.941 263.51 382.971 263.76C382.913 263.762 382.856 263.777 382.805 263.805C382.753 263.833 382.709 263.871 382.675 263.919C382.641 263.966 382.619 264.021 382.61 264.078C382.6 264.135 382.604 264.194 382.621 264.25C382.982 265.351 383.494 266.398 384.141 267.36C384.191 267.41 384.291 267.36 384.291 267.31C384.16 266.336 383.898 265.384 383.511 264.48C386.351 264.29 389.191 264.12 392.031 263.9L396.491 263.58C397.941 263.46 399.421 263.42 400.861 263.19C400.981 263.19 400.931 263 400.831 263Z" fill="#263238"/>
<path d="M333.7 251.36C337.41 253.2 354.36 253.9 359.3 259.98C362.59 263.98 362.3 268.11 364.18 280.18C365.85 290.66 357.18 288.18 354.67 282.8C350.75 274.37 347.38 265.13 347.38 265.13C344.487 264.986 341.588 265.03 338.7 265.26L333.7 251.36Z" fill="#F7A9A0"/>
<path d="M345.881 291C351.751 287.28 370.521 311 361.141 317.25C351.761 323.5 339.231 295.2 345.881 291Z" fill="#F7A9A0"/>
<path d="M336.371 296C342.231 292.28 361.011 316 351.631 322.25C342.251 328.5 329.701 300.25 336.371 296Z" fill="#F7A9A0"/>
<path d="M329.631 297C335.48 294.43 349.251 318.58 339.851 323C330.451 327.42 323.011 299.87 329.631 297Z" fill="#F7A9A0"/>
<path d="M322.7 296.3C328.85 295.57 334.83 321.87 324.86 323.3C314.89 324.73 315.77 297.13 322.7 296.3Z" fill="#F7A9A0"/>
<path d="M344.54 299.19C345.616 300.378 346.593 301.652 347.46 303C348.46 304.41 349.39 305.84 350.23 307.34C351.049 308.769 351.783 310.245 352.43 311.76C353.09 313.37 353.55 315.09 354.26 316.68C354.269 316.698 354.274 316.717 354.275 316.736C354.276 316.756 354.273 316.775 354.266 316.794C354.259 316.812 354.248 316.829 354.234 316.842C354.22 316.856 354.204 316.867 354.185 316.874C354.167 316.881 354.147 316.884 354.128 316.883C354.108 316.882 354.089 316.877 354.072 316.868C354.054 316.859 354.039 316.847 354.027 316.832C354.014 316.817 354.005 316.799 354 316.78C353.316 315.231 352.521 313.734 351.62 312.3C350.79 310.85 350.04 309.36 349.23 307.9C348.42 306.44 347.69 305.04 346.88 303.63C346.07 302.22 345.1 300.82 344.35 299.33C344.338 299.305 344.335 299.276 344.341 299.249C344.348 299.222 344.364 299.198 344.387 299.181C344.409 299.164 344.437 299.156 344.465 299.158C344.493 299.16 344.519 299.171 344.54 299.19Z" fill="#263238"/>
<path d="M334.771 299.06C335.371 300.84 337.391 307.64 338.071 309.4C338.751 311.16 339.501 312.92 340.271 314.66C341.041 316.4 341.701 318.29 342.701 320C342.709 320.031 342.707 320.063 342.695 320.093C342.682 320.122 342.66 320.146 342.632 320.161C342.605 320.176 342.572 320.181 342.541 320.176C342.51 320.17 342.482 320.154 342.461 320.13C341.521 318.43 340.461 316.85 339.561 315.13C338.661 313.41 337.951 311.64 337.261 309.84C336.125 306.333 335.207 302.76 334.511 299.14C334.461 298.92 334.701 298.91 334.771 299.06Z" fill="#263238"/>
<path d="M327.401 300.75C327.871 303.29 328.181 305.86 328.661 308.4C328.891 309.65 329.141 310.9 329.371 312.16C329.481 312.76 329.581 313.37 329.691 313.98C329.749 314.685 329.88 315.382 330.081 316.06C330.151 316.23 329.831 316.31 329.811 316.06C329.627 315.3 329.386 314.554 329.091 313.83C328.921 313.24 328.751 312.66 328.601 312.06C328.291 310.82 328.041 309.58 327.841 308.31C327.391 305.82 327.13 303.299 327.061 300.77C327.061 300.61 327.371 300.56 327.401 300.75Z" fill="#263238"/>
<path d="M418.91 132.59C421.386 128.911 422.725 124.585 422.76 120.15C422.76 104.39 405.45 91.6201 384.12 91.6201C362.79 91.6201 345.51 104.39 345.51 120.15C345.51 135.91 362.79 148.68 384.12 148.68C394.47 148.68 403.84 145.68 410.77 140.79L424.08 144.17L418.91 132.59Z" fill="#FFA4BB"/>
<path d="M370.229 120.15C370.229 120.941 369.995 121.714 369.555 122.372C369.116 123.03 368.491 123.543 367.76 123.845C367.029 124.148 366.225 124.227 365.449 124.073C364.673 123.919 363.96 123.538 363.401 122.978C362.842 122.419 362.461 121.706 362.306 120.93C362.152 120.154 362.231 119.35 362.534 118.619C362.837 117.888 363.349 117.264 364.007 116.824C364.665 116.385 365.438 116.15 366.229 116.15C367.29 116.15 368.308 116.571 369.058 117.321C369.808 118.072 370.229 119.089 370.229 120.15Z" fill="#263238"/>
<path d="M384.13 124.16C386.345 124.16 388.14 122.365 388.14 120.15C388.14 117.935 386.345 116.14 384.13 116.14C381.915 116.14 380.12 117.935 380.12 120.15C380.12 122.365 381.915 124.16 384.13 124.16Z" fill="#263238"/>
<path d="M406.029 120.15C406.029 120.941 405.795 121.714 405.355 122.372C404.916 123.03 404.291 123.543 403.56 123.845C402.829 124.148 402.025 124.227 401.249 124.073C400.473 123.919 399.76 123.538 399.201 122.978C398.641 122.419 398.26 121.706 398.106 120.93C397.952 120.154 398.031 119.35 398.334 118.619C398.637 117.888 399.149 117.264 399.807 116.824C400.465 116.385 401.238 116.15 402.029 116.15C403.09 116.15 404.108 116.571 404.858 117.321C405.608 118.072 406.029 119.089 406.029 120.15Z" fill="#263238"/>
<path d="M279.47 46.9999C277.24 65.6499 265.25 68.9999 263.23 73.9999C262.211 77.1298 261.37 80.3149 260.71 83.5399H241.21C240.563 80.313 239.725 77.1274 238.7 73.9999C236.7 68.9999 224.7 65.5599 222.6 46.8899C221.19 34.6299 230.46 15.2899 251.09 15.3399C271.72 15.3899 280.92 34.7499 279.47 46.9999Z" fill="#FFA4BB"/>
<path d="M240.946 53.6925L239.963 53.8735L245.675 84.9022L246.658 84.7212L240.946 53.6925Z" fill="white"/>
<path d="M261.103 53.7275L255.251 84.73L256.234 84.9155L262.086 53.913L261.103 53.7275Z" fill="white"/>
<path d="M251.02 64.1202C249.49 64.1202 247.95 62.9002 246.69 60.6902C246.63 60.5902 246.57 60.4902 246.52 60.3902C246.32 60.6486 246.068 60.8627 245.78 61.0193C245.493 61.1758 245.176 61.2715 244.85 61.3002C241.93 61.3002 240.77 55.3002 240.73 55.0102L241.22 54.9202C241.22 54.9802 242.34 60.7902 244.85 60.8002C245.136 60.7603 245.411 60.6603 245.656 60.5069C245.9 60.3536 246.11 60.1502 246.27 59.9102C245.04 57.3702 244.35 54.0502 245.27 52.5402C245.402 52.2978 245.597 52.0961 245.835 51.9568C246.073 51.8175 246.345 51.7461 246.62 51.7502C246.948 51.7397 247.271 51.8201 247.556 51.9825C247.84 52.1449 248.073 52.383 248.23 52.6702C249.11 54.2002 248.46 57.3602 247.3 59.3502C247.178 59.5634 247.044 59.7704 246.9 59.9702C246.98 60.1302 247.07 60.2902 247.16 60.4402C247.84 61.6302 249.25 63.6202 251.06 63.6202C252.27 63.6202 253.48 62.6202 254.48 60.9502C254.568 60.8079 254.648 60.661 254.72 60.5102C254.461 60.2006 254.233 59.8656 254.04 59.5102C252.83 57.4102 252.59 54.3002 253.51 52.7202C253.657 52.4248 253.882 52.1753 254.16 51.999C254.439 51.8226 254.761 51.7262 255.09 51.7202C255.346 51.7207 255.596 51.7921 255.813 51.9262C256.03 52.0604 256.206 52.2522 256.32 52.4802C257.18 53.9802 256.7 57.5502 255.32 60.3602C255.583 60.6226 255.895 60.8302 256.238 60.971C256.582 61.1118 256.949 61.1829 257.32 61.1802C259.1 61.1802 260.69 56.9302 261.15 55.2902L261.63 55.4202C261.56 55.6802 259.84 61.6802 257.32 61.6802C256.513 61.6783 255.736 61.3752 255.14 60.8302L254.96 61.1502C254.1 62.5302 252.8 64.1202 251.02 64.1202ZM255.02 52.2702C254.779 52.2745 254.543 52.3461 254.34 52.4768C254.137 52.6075 253.974 52.7922 253.87 53.0102C253.05 54.4302 253.3 57.3702 254.4 59.3002C254.544 59.5554 254.712 59.7964 254.9 60.0202C256.12 57.4002 256.58 54.1102 255.82 52.7802C255.749 52.6284 255.636 52.5 255.494 52.4097C255.353 52.3195 255.188 52.2711 255.02 52.2702ZM246.54 52.2702C246.352 52.2642 246.165 52.3117 246.002 52.4073C245.84 52.5029 245.707 52.6425 245.62 52.8102C244.93 54.0102 245.38 56.9302 246.57 59.4702L246.79 59.1202C247.85 57.2902 248.49 54.3002 247.72 52.9402C247.607 52.7284 247.436 52.553 247.227 52.4344C247.019 52.3158 246.78 52.2589 246.54 52.2702Z" fill="white"/>
<path d="M262.985 82.7629L238.936 82.7041L238.924 87.4041L262.974 87.4628L262.985 82.7629Z" fill="#455A64"/>
<path d="M262.962 88.2228L238.912 88.1641L238.901 92.864L262.951 92.9228L262.962 88.2228Z" fill="#455A64"/>
<path d="M262.977 93.639L238.927 93.5845L238.916 98.2845L262.966 98.339L262.977 93.639Z" fill="#455A64"/>
<path d="M252.021 0C252.648 2.55737 252.607 5.23323 251.901 7.77C251.274 5.21258 251.315 2.53684 252.021 0Z" fill="#263238"/>
<path d="M230.21 5.33984C231.135 6.27114 231.92 7.33228 232.54 8.48985C233.197 9.62748 233.689 10.8532 234 12.1298C233.087 11.2027 232.312 10.1484 231.7 8.99985C231.029 7.85845 230.527 6.62557 230.21 5.33984Z" fill="#263238"/>
<path d="M214 20.8599C216.532 21.5935 218.83 22.9717 220.67 24.8599C219.401 24.5103 218.189 23.9817 217.07 23.2899C215.935 22.6316 214.901 21.8132 214 20.8599Z" fill="#263238"/>
<path d="M207.7 42.4002C210.258 41.7731 212.933 41.8144 215.47 42.5202C212.913 43.1473 210.237 43.1059 207.7 42.4002Z" fill="#263238"/>
<path d="M213.04 64.2102C213.971 63.2847 215.032 62.4998 216.19 61.8802C217.325 61.2201 218.552 60.7314 219.83 60.4302C217.924 62.2463 215.588 63.5472 213.04 64.2102Z" fill="#263238"/>
<path d="M288.12 65.8701C285.593 65.1261 283.297 63.7493 281.45 61.8701C283.982 62.6037 286.281 63.982 288.12 65.8701Z" fill="#263238"/>
<path d="M294.411 44.3198C293.138 44.6489 291.825 44.797 290.511 44.7598C289.2 44.7651 287.896 44.5764 286.641 44.1998C287.909 43.8663 289.22 43.7181 290.531 43.7598C291.844 43.7644 293.15 43.9529 294.411 44.3198Z" fill="#263238"/>
<path d="M289.08 22.52C288.146 23.4393 287.085 24.2205 285.93 24.84C284.794 25.5017 283.568 25.9935 282.29 26.3C283.223 25.3851 284.284 24.6104 285.44 24C286.576 23.3353 287.802 22.8369 289.08 22.52Z" fill="#263238"/>
<path d="M273.561 6.2998C272.827 8.83185 271.449 11.1301 269.561 12.9698C269.91 11.7045 270.439 10.4956 271.131 9.3798C271.791 8.24364 272.609 7.2067 273.561 6.2998Z" fill="#263238"/>
</svg>
