<svg width="500" height="500" viewBox="0 0 500 500" fill="none" xmlns="http://www.w3.org/2000/svg">
<path d="M85.2095 289.88L72.0795 290.16L65.4195 290.27C63.1995 290.32 60.9595 290.27 58.7295 290.32H58.2795V289.87L58.2295 278.68V278.18H58.7295L71.9695 278.24C76.3795 278.24 80.7895 278.35 85.2095 278.41H85.4795V278.68C85.4795 280.58 85.3895 282.47 85.3495 284.33L85.2095 289.88ZM85.2095 289.88L85.0695 284.23C85.0695 282.36 84.9495 280.52 84.9295 278.69L85.2095 278.96C80.7895 279.01 76.3795 279.12 71.9695 279.13L58.7295 279.19L59.2295 278.69L59.1695 289.88L58.7295 289.43C60.9095 289.43 63.0795 289.43 65.2695 289.49L71.8495 289.6L85.2095 289.88Z" fill="#EBEBEB"/>
<path d="M70.4398 304L57.3098 304.28L50.6498 304.39C48.4198 304.44 46.1898 304.39 43.9598 304.44H43.5098V304V292.81V292.31H43.9998L57.2398 292.37C61.6498 292.37 66.0598 292.48 70.4798 292.54H70.7498V292.81C70.7498 294.71 70.6598 296.6 70.6198 298.46L70.4398 304ZM70.4398 304L70.2898 298.34C70.2898 296.48 70.1798 294.64 70.1598 292.81L70.4398 293.08C66.0198 293.13 61.6098 293.24 57.1998 293.25L43.9998 293.3L44.4898 292.8L44.3998 304L43.9598 303.55C46.1398 303.55 48.3098 303.55 50.4998 303.61L57.0798 303.72L70.4398 304Z" fill="#EBEBEB"/>
<path d="M100 304L86.8701 304.28L80.2101 304.39C77.9901 304.44 75.7501 304.39 73.5201 304.44H73.0801V304V292.81V292.31H73.5801L86.8201 292.37C91.2301 292.37 95.6501 292.48 100.06 292.54H100.33V292.81C100.33 294.71 100.25 296.6 100.2 298.46L100 304ZM100 304L99.8601 298.34C99.8601 296.48 99.7401 294.64 99.7301 292.81L100 293.08C95.5901 293.13 91.1701 293.24 86.7601 293.25L73.5201 293.31L74.0201 292.81L73.9401 304L73.5001 303.55C75.6801 303.55 77.8601 303.55 80.0401 303.61L86.6201 303.72L100 304Z" fill="#EBEBEB"/>
<path d="M441.27 304L428.15 304.28L421.49 304.39C419.26 304.44 417.02 304.39 414.79 304.44H414.35V304L414.29 292.81V292.31H414.79L428.03 292.37C432.45 292.37 436.86 292.48 441.27 292.54H441.55V292.81C441.55 294.71 441.46 296.6 441.42 298.46L441.27 304ZM441.27 304L441.13 298.34C441.13 296.48 441.02 294.64 441 292.81L441.27 293.08C436.86 293.13 432.45 293.24 428.03 293.25L414.79 293.31L415.29 292.81L415.24 304L414.79 303.55C416.97 303.55 419.15 303.55 421.34 303.61L427.92 303.72L441.27 304Z" fill="#EBEBEB"/>
<path d="M441.27 85.77L428.15 86L421.49 86.12C419.26 86.12 417.02 86.12 414.79 86.12H414.35V85.68L414.29 74.49V73.98H414.79L428.03 74.04C432.45 74.04 436.86 74.15 441.27 74.2H441.55V74.47C441.55 76.36 441.46 78.25 441.42 80.12L441.27 85.77ZM441.27 85.77L441.13 80.11C441.13 78.25 441.02 76.41 441 74.58L441.27 74.85C436.86 74.9 432.45 75.01 428.03 75.01L414.79 75.07L415.29 74.58L415.24 85.77L414.79 85.32C416.97 85.32 419.15 85.32 421.34 85.37L427.92 85.49L441.27 85.77Z" fill="#EBEBEB"/>
<path d="M456 99.8799L442.88 100.15L436.22 100.27C433.99 100.27 431.76 100.27 429.52 100.27H429.08V99.8299L429.02 88.6399V88.1299H429.52L442.76 88.1899C447.18 88.1899 451.59 88.2999 456 88.3499H456.28V88.6199C456.28 90.5099 456.19 92.3999 456.15 94.2699L456 99.8799ZM456 99.8799L455.86 94.2199C455.86 92.3599 455.75 90.5199 455.73 88.6899L456 88.9999C451.59 89.0499 447.18 89.1599 442.76 89.1599L429.52 89.2199L430.02 88.7299L430 99.8799L429.55 99.4299C431.74 99.4299 433.91 99.4299 436.1 99.4299L442.68 99.5499L456 99.8799Z" fill="#EBEBEB"/>
<path d="M70.4398 85.7798L57.3098 86.0598L50.6498 86.1698C48.4198 86.1698 46.1898 86.1698 43.9598 86.1698H43.5098V85.7198V74.5298V74.0298H43.9998L57.2398 74.0898C61.6498 74.0898 66.0598 74.1998 70.4798 74.2498H70.7498V74.5198C70.7498 76.4198 70.6598 78.2998 70.6198 80.1698L70.4398 85.7798ZM70.4398 85.7798L70.2898 80.1198C70.2898 78.2598 70.1798 76.4198 70.1598 74.5898L70.4398 74.8598C66.0198 74.8598 61.6098 75.0198 57.1998 75.0198L43.9998 75.0898L44.4898 74.5898L44.3998 85.7798L43.9998 85.3298C46.1798 85.3298 48.3498 85.3298 50.5398 85.3898L57.1198 85.4998L70.4398 85.7798Z" fill="#EBEBEB"/>
<path d="M213.789 160.83L226.91 160.55L233.57 160.44C235.8 160.39 238.04 160.44 240.27 160.39H240.71V160.84L240.77 172.03V172.53H240.27L226.999 172.46C222.579 172.46 218.169 172.35 213.759 172.3H213.479V172C213.479 170.1 213.569 168.22 213.609 166.35L213.789 160.83ZM213.789 160.83L213.929 166.49C213.929 168.35 214.039 170.19 214.059 172.02L213.789 171.75C218.199 171.7 222.609 171.59 227.029 171.59L240.27 171.52L239.77 172.02V160.83L240.219 161.28C238.039 161.28 235.859 161.28 233.669 161.22L227.089 161.11L213.789 160.83Z" fill="#EBEBEB"/>
<path d="M228.56 146.72L241.68 146.44L248.34 146.33C250.57 146.28 252.81 146.33 255.04 146.28H255.48V146.73L255.54 157.92V158.42H255L241.76 158.36C237.35 158.36 232.93 158.25 228.52 158.2H228.24V157.93C228.24 156.03 228.32 154.15 228.37 152.28L228.56 146.72ZM228.56 146.72L228.7 152.38C228.75 154.24 228.81 156.08 228.83 157.91L228.56 157.64C232.97 157.64 237.39 157.48 241.8 157.48L255.04 157.41L254.54 157.91L254.59 146.72L255.04 147.17C252.86 147.17 250.68 147.17 248.49 147.11L241.91 147L228.56 146.72Z" fill="#EBEBEB"/>
<path d="M432.38 329.32H353.96V437.85H432.38V329.32Z" fill="#EBEBEB"/>
<path d="M436.18 325.3H350.16V329.33H436.18V325.3Z" fill="#DBDBDB"/>
<path d="M463.23 325.3H436.18V329.33H463.23V325.3Z" fill="#EBEBEB"/>
<path d="M458.95 329.32H432.38V437.85H458.95V329.32Z" fill="#DBDBDB"/>
<path d="M424 379.58H362.37V344.75H424V379.58ZM362.66 379.33H423.75V345H362.62L362.66 379.33Z" fill="#C7C7C7"/>
<path d="M396.56 354.94H384.58V361.83H396.56V354.94Z" fill="#C7C7C7"/>
<path d="M400.22 361.43H388V355.33H400.22V361.43ZM388.22 361.18H400V355.58H388.25L388.22 361.18Z" fill="#C7C7C7"/>
<path d="M424 423.27H362.37V388.44H424V423.27ZM362.62 423H423.71V388.69H362.62V423Z" fill="#C7C7C7"/>
<path d="M396.56 398.63H384.58V405.52H396.56V398.63Z" fill="#C7C7C7"/>
<path d="M400.22 405.12H388V399H400.22V405.12ZM388.22 404.87H400V399.28H388.25L388.22 404.87Z" fill="#C7C7C7"/>
<path d="M250 462.09C350.234 462.09 431.49 458.32 431.49 453.67C431.49 449.02 350.234 445.25 250 445.25C149.766 445.25 68.5098 449.02 68.5098 453.67C68.5098 458.32 149.766 462.09 250 462.09Z" fill="#EBEBEB"/>
<path d="M268.23 338.11H250.78V406.2H268.23V338.11Z" fill="#455A64"/>
<path d="M268.23 409.56H250.78V420.77H268.23V409.56Z" fill="#455A64"/>
<path d="M268.23 424.14H250.78V431.05H268.23V424.14Z" fill="#455A64"/>
<path d="M268.23 434.42H250.78V437.85H268.23V434.42Z" fill="#455A64"/>
<path d="M274.05 338.11H244.96L259.5 317.98L274.05 338.11Z" fill="#455A64"/>
<path d="M302.97 316.47H285.52V406.2H302.97V316.47Z" fill="#455A64"/>
<path d="M302.97 409.56H285.52V420.77H302.97V409.56Z" fill="#455A64"/>
<path d="M302.97 424.14H285.52V431.05H302.97V424.14Z" fill="#455A64"/>
<path d="M302.97 434.42H285.52V437.85H302.97V434.42Z" fill="#455A64"/>
<path d="M308.79 316.46H279.7L294.24 296.34L308.79 316.46Z" fill="#455A64"/>
<path d="M337.71 294.83H320.26V406.2H337.71V294.83Z" fill="#455A64"/>
<path d="M337.71 409.56H320.26V420.77H337.71V409.56Z" fill="#455A64"/>
<path d="M337.71 424.14H320.26V431.05H337.71V424.14Z" fill="#455A64"/>
<path d="M337.71 434.42H320.26V437.85H337.71V434.42Z" fill="#455A64"/>
<path d="M343.52 294.82H314.44L328.98 274.7L343.52 294.82Z" fill="#455A64"/>
<path d="M372.44 273.19H354.99V406.2H372.44V273.19Z" fill="#455A64"/>
<path d="M372.44 409.56H354.99V420.77H372.44V409.56Z" fill="#455A64"/>
<path d="M372.44 424.14H354.99V431.05H372.44V424.14Z" fill="#455A64"/>
<path d="M372.44 434.42H354.99V437.85H372.44V434.42Z" fill="#455A64"/>
<path d="M378.26 273.19H349.18L363.72 253.06L378.26 273.19Z" fill="#455A64"/>
<path d="M391 332.76C394.07 329.76 398 326.13 402.72 327.42C407.13 328.64 408.82 333.42 409.61 337.42C410.61 342.59 411.41 347.81 412.24 353.02C413.07 358.23 413.84 363.53 414.6 368.8C415.026 371.773 415.446 374.747 415.86 377.72C416.07 379.2 416.28 380.72 416.48 382.18C416.68 383.64 416.93 385.09 417.01 386.56C417.01 386.661 416.973 386.758 416.905 386.834C416.838 386.909 416.745 386.957 416.645 386.968C416.545 386.979 416.444 386.953 416.362 386.894C416.28 386.835 416.222 386.749 416.2 386.65C415.63 384.17 415.39 381.59 415.03 379.08C414.67 376.57 414.3 374.02 413.93 371.49C413.19 366.463 412.436 361.437 411.67 356.41C410.92 351.41 410.13 346.36 409.33 341.34C408.65 337.09 408.33 331.8 404.56 328.99C403.536 328.288 402.351 327.859 401.115 327.744C399.88 327.628 398.635 327.83 397.5 328.33C395.103 329.412 392.929 330.931 391.09 332.81C391.09 332.821 391.088 332.831 391.083 332.841C391.077 332.85 391.07 332.858 391.061 332.863C391.052 332.869 391.042 332.872 391.031 332.872C391.02 332.872 391.01 332.87 391.001 332.865C390.991 332.859 390.984 332.852 390.978 332.843C390.973 332.834 390.97 332.823 390.97 332.813C390.97 332.802 390.972 332.792 390.978 332.782C390.983 332.773 390.991 332.765 391 332.76Z" fill="#263238"/>
<path d="M395.22 329.69C395.22 329.69 401.49 327.43 404.58 332.01C407.67 336.59 403.97 348.22 375.44 354.78C376.282 345.866 378.6 337.153 382.3 329C388.42 315.64 399.32 320.7 395.22 329.69Z" fill="#FFA4BB"/>
<path d="M377.08 352.87C377.512 352.074 377.99 351.302 378.51 350.56C378.99 349.82 379.51 349.09 379.96 348.36C380.33 347.82 380.7 347.27 381.08 346.73C381.08 346.6 381.08 346.46 381.02 346.32L380.93 345.58C380.86 345.05 380.78 344.51 380.7 343.98C380.62 343.45 380.53 342.92 380.43 342.39C380.363 341.819 380.239 341.256 380.06 340.71C380.06 340.694 380.066 340.679 380.077 340.668C380.088 340.656 380.104 340.65 380.12 340.65C380.135 340.65 380.151 340.656 380.162 340.668C380.173 340.679 380.18 340.694 380.18 340.71C380.24 341.03 380.327 341.345 380.44 341.65C380.5 341.89 380.57 342.13 380.63 342.38C380.77 342.92 380.9 343.46 381.02 344C381.13 344.51 381.23 345 381.31 345.52C381.36 345.76 381.39 346.01 381.42 346.25C381.93 345.53 382.42 344.81 382.99 344.1C384.5 342.1 386.1 340.19 387.76 338.31C387.769 335.321 387.521 332.337 387.02 329.39C387.02 329.31 387.12 329.27 387.14 329.39C387.891 332.17 388.247 335.041 388.2 337.92L390.01 335.92C391.4 334.43 392.81 332.92 394.26 331.52C394.266 331.514 394.273 331.51 394.28 331.506C394.288 331.503 394.296 331.502 394.305 331.502C394.313 331.502 394.321 331.503 394.329 331.506C394.337 331.51 394.344 331.514 394.35 331.52C394.355 331.526 394.36 331.533 394.363 331.541C394.367 331.549 394.368 331.557 394.368 331.565C394.368 331.574 394.367 331.582 394.363 331.59C394.36 331.597 394.355 331.604 394.35 331.61C391.95 334.19 389.67 336.89 387.44 339.61C389.182 339.587 390.924 339.653 392.66 339.81C394.59 339.95 396.52 340.2 398.44 340.46C398.52 340.46 398.49 340.6 398.44 340.59C396.527 340.312 394.601 340.138 392.67 340.07C390.81 340 388.96 340.07 387.1 340.07C385.9 341.564 384.713 343.067 383.54 344.58H385.11C385.98 344.58 386.85 344.65 387.71 344.73C389.481 344.874 391.242 345.135 392.98 345.51C392.993 345.515 393.004 345.524 393.012 345.536C393.019 345.547 393.024 345.561 393.024 345.575C393.024 345.589 393.019 345.603 393.012 345.614C393.004 345.626 392.993 345.635 392.98 345.64C391.22 345.44 389.47 345.28 387.7 345.22C386.86 345.22 386.02 345.22 385.18 345.22C384.74 345.22 384.3 345.22 383.87 345.22C383.627 345.249 383.382 345.225 383.15 345.15L380.85 348.15C380.25 348.95 379.65 349.75 379.06 350.56C378.47 351.37 377.92 352.29 377.25 353.07C377.13 353 377.05 352.94 377.08 352.87Z" fill="#263238"/>
<path d="M392.49 336.17C393.501 336.04 394.521 335.99 395.54 336.02C396.54 336.02 397.54 336.02 398.6 336.09C398.69 336.09 398.68 336.22 398.6 336.22C397.6 336.14 396.53 336.12 395.5 336.14C394.47 336.16 393.5 336.25 392.5 336.22C392.46 336.22 392.46 336.18 392.49 336.17Z" fill="#263238"/>
<path d="M383.53 338.47C383.42 337.47 383.29 336.47 383.09 335.56C383.09 335.47 383.2 335.44 383.21 335.56C383.36 336.56 383.54 337.47 383.69 338.43C383.76 338.91 383.82 339.43 383.88 339.88C383.965 340.328 384.005 340.784 384 341.24C383.994 341.258 383.982 341.273 383.967 341.284C383.952 341.295 383.934 341.301 383.915 341.301C383.896 341.301 383.878 341.295 383.863 341.284C383.847 341.273 383.836 341.258 383.83 341.24C383.744 340.791 383.694 340.337 383.68 339.88C383.64 339.4 383.59 338.93 383.53 338.47Z" fill="#263238"/>
<path d="M422.57 385.55C422.72 383.75 422.9 381.96 423.09 380.16C423.46 376.61 423.9 373.06 424.37 369.52C424.84 365.98 425.3 362.45 425.87 358.93C426.083 357.296 426.448 355.686 426.96 354.12C427.145 353.45 427.481 352.831 427.942 352.311C428.403 351.791 428.977 351.384 429.62 351.12C432.98 349.97 435.25 353.45 436.62 355.91C436.62 355.98 436.55 356.04 436.51 355.97C435.7 354.81 433.45 351.53 430.91 351.68C429.19 351.79 427.82 353 427 357.27C424.95 367.92 423.1 389.53 422.89 390.94C422.77 391.69 422.24 391.66 422.24 390.85C422.21 389.08 422.41 387.31 422.57 385.55Z" fill="#263238"/>
<path d="M435.7 354.58C435.7 354.58 432.76 344.21 439.25 349.39C450.05 358.02 450.43 376.78 450.43 376.78C450.43 376.78 431.23 365.63 428.85 358.28C425.29 347.32 435.7 354.58 435.7 354.58Z" fill="#FFA4BB"/>
<path d="M432.06 359.66C433.57 359.97 435.06 360.17 436.62 360.39L438.78 360.69C439.26 360.76 439.78 360.8 440.25 360.86C438.82 358.86 437.37 356.93 436 354.92C435.95 354.84 436.07 354.76 436.13 354.83C437.268 356.002 438.34 357.237 439.34 358.53C439.62 357.73 439.91 356.93 440.19 356.12C440.543 355.203 440.846 354.269 441.1 353.32C441.1 353.24 441.25 353.27 441.23 353.32C440.96 354.27 440.78 355.24 440.53 356.2C440.28 357.16 440 358.02 439.67 358.92C440.38 359.83 441.05 360.77 441.67 361.71C442 360.77 442.41 359.87 442.67 358.92C442.67 358.84 442.82 358.92 442.79 358.92C442.45 359.98 442.26 361.07 441.94 362.13C442.38 362.77 442.82 363.41 443.24 364.06C444.02 365.26 444.75 366.48 445.46 367.71C445.515 367.735 445.561 367.776 445.591 367.828C445.622 367.88 445.635 367.94 445.63 368C446.84 370.1 448 372.23 449.13 374.37C449.13 374.45 449.06 374.51 449.02 374.44C447.88 372.32 446.61 370.25 445.3 368.22C445.096 368.152 444.884 368.112 444.67 368.1L444.01 367.95C443.51 367.85 443.01 367.72 442.53 367.6C441.53 367.35 440.59 367.12 439.6 366.95C439.52 366.95 439.6 366.82 439.6 366.83C440.76 367.05 441.93 367.18 443.1 367.32C443.66 367.38 444.21 367.45 444.76 367.54H444.84C444.15 366.54 443.45 365.45 442.74 364.43C442.03 363.41 441.33 362.43 440.61 361.43C439.94 361.33 439.28 361.16 438.61 361.03L436.38 360.6C434.9 360.31 433.38 359.97 431.92 359.73C431.94 359.77 432 359.65 432.06 359.66Z" fill="#263238"/>
<path d="M443.6 360.68C443.69 360.41 443.77 360.13 443.86 359.86C444.037 359.288 444.184 358.707 444.3 358.12C444.3 358.04 444.44 358.12 444.42 358.12C444.3 358.7 444.16 359.29 444.02 359.87C443.904 360.457 443.736 361.032 443.52 361.59C443.516 361.604 443.509 361.618 443.5 361.63C443.491 361.642 443.479 361.652 443.466 361.659C443.453 361.666 443.439 361.671 443.424 361.673C443.409 361.675 443.394 361.674 443.38 361.67C443.365 361.666 443.352 361.659 443.34 361.65C443.328 361.641 443.318 361.63 443.311 361.617C443.303 361.604 443.299 361.589 443.297 361.574C443.295 361.56 443.296 361.544 443.3 361.53C443.38 361.27 443.5 361 443.6 360.68Z" fill="#263238"/>
<path d="M430.1 357.26C430.97 357.39 431.86 357.46 432.74 357.53C433.62 357.6 434.5 357.73 435.38 357.87C435.38 357.87 435.43 357.95 435.38 357.94C434.5 357.88 433.62 357.81 432.74 357.7C431.86 357.59 430.99 357.45 430.11 357.39C430 357.39 430 357.25 430.1 357.26Z" fill="#263238"/>
<path d="M408.44 372.43C408.78 364.8 409.27 357.18 410.03 349.59C410.41 345.8 410.84 342.02 411.37 338.25C411.846 334.537 412.578 330.862 413.56 327.25C414.238 324.449 415.48 321.815 417.21 319.51C418.066 318.392 419.193 317.51 420.484 316.946C421.775 316.383 423.188 316.157 424.59 316.29C427.93 316.71 430.59 318.81 432.94 321.1C435.55 323.66 437.94 326.46 440.35 329.2C440.97 329.89 441.57 330.59 442.17 331.3C442.175 331.306 442.179 331.313 442.182 331.32C442.184 331.328 442.185 331.336 442.185 331.343C442.184 331.351 442.182 331.359 442.179 331.366C442.176 331.373 442.171 331.38 442.165 331.385C442.159 331.39 442.152 331.394 442.145 331.397C442.137 331.399 442.129 331.4 442.121 331.4C442.113 331.4 442.106 331.397 442.099 331.394C442.091 331.391 442.085 331.386 442.08 331.38C439.72 328.67 437.26 326.03 434.7 323.51C432.32 321.18 429.88 318.64 426.59 317.67C425.063 317.184 423.428 317.146 421.88 317.56C420.652 317.938 419.543 318.627 418.66 319.56C416.882 321.61 415.626 324.06 415 326.7C413 333.7 412.22 341.06 411.45 348.3C410.68 355.54 410.16 363.04 409.79 370.43C409.42 377.82 409.13 385.29 408.41 392.69C408.32 393.61 408.2 394.52 408.09 395.43C408.01 396.04 407.09 396.04 407.09 395.43C407.75 387.75 408.1 380.1 408.44 372.43Z" fill="#263238"/>
<path d="M433.36 322C433.36 322 429 313.94 434.15 311.35C439.3 308.76 456.53 328 461.56 356.12C461.56 356.12 433.73 343.81 424.29 331.54C414.85 319.27 425.55 316.53 433.36 322Z" fill="#FFA4BB"/>
<path d="M429.269 328.52C432.399 328.52 435.52 328.28 438.64 328.3L436.88 326.3C436.005 325.408 435.19 324.459 434.44 323.46C434.39 323.4 434.489 323.3 434.549 323.35C435.398 324.082 436.191 324.878 436.92 325.73C437.7 326.56 438.479 327.39 439.249 328.23C440.449 329.53 441.62 330.84 442.79 332.16C442.79 332.03 442.79 331.9 442.79 331.78C442.79 331.23 442.79 330.68 442.79 330.14V326.95C442.79 324.8 442.789 322.64 442.619 320.5C442.625 320.487 442.634 320.476 442.645 320.468C442.657 320.46 442.671 320.456 442.684 320.456C442.698 320.456 442.712 320.46 442.724 320.468C442.735 320.476 442.744 320.487 442.749 320.5C442.899 322.66 443.12 324.8 443.23 326.97C443.276 328.03 443.306 329.09 443.32 330.15C443.32 330.7 443.32 331.24 443.32 331.79C443.32 332.09 443.32 332.41 443.32 332.71L443.869 333.33C446.369 336.18 448.739 339.13 451.049 342.13C451.049 341.96 451.049 341.79 451.049 341.63C451.049 341.3 451.12 340.97 451.16 340.63C451.24 339.91 451.34 339.2 451.45 338.48C451.56 337.76 451.649 337.14 451.769 336.48C451.889 335.82 452.08 334.97 452.14 334.21C452.14 334.12 452.28 334.14 452.26 334.21C452.128 334.968 452.041 335.732 451.999 336.5C451.929 337.19 451.869 337.88 451.809 338.56C451.749 339.24 451.679 339.94 451.609 340.63C451.609 340.96 451.55 341.29 451.51 341.63C451.499 341.798 451.479 341.965 451.45 342.13C451.437 342.268 451.393 342.402 451.32 342.52L452.51 344.08C454.09 346.17 455.64 348.28 457.19 350.39C457.19 350.45 457.139 350.54 457.089 350.47C455.629 348.56 454.089 346.68 452.589 344.82C451.439 344.87 450.27 344.82 449.13 344.77H445.51C445.497 344.765 445.485 344.756 445.478 344.744C445.47 344.733 445.465 344.719 445.465 344.705C445.465 344.691 445.47 344.677 445.478 344.666C445.485 344.654 445.497 344.645 445.51 344.64C446.72 344.64 447.92 344.64 449.13 344.64C450.34 344.64 451.35 344.64 452.45 344.64C451.11 343.01 449.75 341.38 448.39 339.76L446.899 338C446.436 338.062 445.967 338.079 445.499 338.05H443.859C442.859 338.05 441.799 338.05 440.769 338.05C438.649 338.05 436.529 337.95 434.399 337.94C434.319 337.94 434.319 337.81 434.399 337.81C436.519 337.81 438.649 337.7 440.769 337.64C441.769 337.64 442.829 337.58 443.859 337.57H445.51C445.82 337.57 446.14 337.57 446.51 337.57L442.999 333.34C442.972 333.325 442.95 333.3 442.94 333.27C441.8 331.92 440.659 330.58 439.499 329.27L439.029 328.73C435.779 328.83 432.549 328.61 429.309 328.68C429.288 328.685 429.266 328.682 429.247 328.671C429.228 328.66 429.215 328.641 429.209 328.62C429.204 328.599 429.208 328.576 429.219 328.558C429.23 328.539 429.248 328.525 429.269 328.52Z" fill="#263238"/>
<path d="M430.87 334.05H431.63C431.646 334.05 431.661 334.056 431.673 334.067C431.684 334.079 431.69 334.094 431.69 334.11C431.69 334.126 431.684 334.141 431.673 334.152C431.661 334.164 431.646 334.17 431.63 334.17H430.88C430.869 334.165 430.86 334.156 430.853 334.146C430.846 334.136 430.842 334.125 430.841 334.113C430.84 334.101 430.842 334.088 430.847 334.077C430.852 334.066 430.86 334.057 430.87 334.05Z" fill="#263238"/>
<path d="M432.55 334.06L435.55 333.99H437.05C437.515 333.93 437.985 333.93 438.45 333.99C438.5 333.99 438.45 334.07 438.45 334.09C437.99 334.185 437.519 334.215 437.05 334.18H435.54H432.54C432.53 334.173 432.522 334.163 432.517 334.152C432.512 334.141 432.51 334.129 432.511 334.117C432.512 334.105 432.516 334.093 432.523 334.083C432.53 334.073 432.539 334.065 432.55 334.06Z" fill="#263238"/>
<path d="M441.3 343.45C443.333 343.109 445.389 342.922 447.45 342.89V342.94C445.45 343.13 443.36 343.24 441.33 343.57C441.25 343.59 441.22 343.46 441.3 343.45Z" fill="#263238"/>
<path d="M449.67 334.5L449.73 333.96C449.73 333.56 449.85 333.15 449.91 332.75C450.03 331.99 450.16 331.23 450.31 330.47C450.31 330.4 450.44 330.42 450.43 330.47C450.34 331.25 450.25 332.04 450.18 332.83C450.18 333.22 450.11 333.61 450.08 333.99C450.093 334.363 450.039 334.736 449.92 335.09C449.908 335.115 449.888 335.137 449.865 335.152C449.841 335.167 449.813 335.175 449.785 335.175C449.757 335.175 449.729 335.167 449.705 335.152C449.681 335.137 449.662 335.115 449.65 335.09C449.614 334.894 449.62 334.693 449.67 334.5Z" fill="#263238"/>
<path d="M408.72 311.61C409.72 309.75 410.98 307.3 413.46 307.46C415.52 307.59 416.46 309.68 416.88 311.46C418.24 316.82 418.33 322.46 418.6 327.95C419.15 339.55 419.66 351.16 419.73 362.78C419.73 366 419.73 369.217 419.73 372.43C419.73 375.72 419.73 379.02 419.5 382.3C419.488 382.357 419.457 382.407 419.413 382.444C419.368 382.48 419.312 382.5 419.255 382.5C419.197 382.5 419.141 382.48 419.096 382.444C419.052 382.407 419.021 382.357 419.01 382.3C419.01 379.5 419.1 376.69 419.11 373.88C419.12 371.07 419.11 368.4 419.05 365.66C418.963 360.113 418.816 354.563 418.61 349.01C418.4 343.5 418.16 338.01 417.93 332.47C417.81 329.72 417.7 326.96 417.57 324.21C417.44 321.46 417.34 318.87 417.03 316.21C416.86 314.73 416.64 313.21 416.33 311.77C416.178 310.674 415.736 309.638 415.05 308.77C414.575 308.301 413.948 308.018 413.283 307.97C412.617 307.922 411.956 308.114 411.42 308.51C410.285 309.323 409.394 310.429 408.84 311.71C408.79 311.75 408.68 311.68 408.72 311.61Z" fill="#263238"/>
<path d="M409.39 310.72C409.39 310.72 411.39 303.5 406.91 307.11C399.39 313.11 399.12 326.19 399.12 326.19C399.12 326.19 412.5 318.42 414.12 313.3C416.64 305.67 409.39 310.72 409.39 310.72Z" fill="#FFA4BB"/>
<path d="M401.94 320.83C402.06 320.63 402.19 320.44 402.32 320.24C402.3 320.034 402.3 319.826 402.32 319.62C402.32 319.31 402.32 319 402.32 318.69C402.32 318.077 402.3 317.467 402.26 316.86C402.26 316.78 402.38 316.78 402.39 316.86C402.39 317.45 402.44 318.05 402.46 318.65V319.55C402.46 319.67 402.46 319.8 402.46 319.93C402.98 319.12 403.52 318.31 404.08 317.52L404.57 316.84C404.64 316.055 404.64 315.265 404.57 314.48C404.57 313.64 404.57 312.8 404.52 311.96C404.52 311.88 404.65 311.89 404.65 311.96C404.65 312.83 404.72 313.7 404.76 314.57C404.795 315.193 404.795 315.817 404.76 316.44C406.06 314.69 407.43 312.99 408.81 311.31C408.86 311.25 408.96 311.31 408.91 311.39C408.05 312.48 407.23 313.59 406.42 314.72C408 314.35 409.6 314.14 411.2 313.91C411.28 313.91 411.31 314.02 411.2 314.03C409.5 314.29 407.84 314.71 406.2 315.08C405.56 315.98 404.93 316.89 404.3 317.8L403.54 318.91H403.61L404.13 318.84L405.24 318.74C406.01 318.68 406.79 318.64 407.56 318.6C407.64 318.6 407.64 318.72 407.56 318.73C406.8 318.73 406.05 318.8 405.29 318.88L404.1 319.03L403.57 319.09H403.42L402.13 320.99C401.38 322.1 400.71 323.3 399.9 324.38C399.891 324.393 399.877 324.402 399.861 324.405C399.845 324.408 399.828 324.404 399.815 324.395C399.802 324.386 399.793 324.372 399.79 324.356C399.787 324.34 399.791 324.323 399.8 324.31C400.445 323.11 401.16 321.948 401.94 320.83Z" fill="#263238"/>
<path d="M405.27 312.68C405.27 312.4 405.27 312.12 405.27 311.84C405.287 311.249 405.264 310.658 405.2 310.07C405.2 309.97 405.33 309.96 405.33 310.07C405.33 310.66 405.39 311.24 405.42 311.83C405.42 312.12 405.42 312.41 405.42 312.7C405.42 312.84 405.42 312.97 405.42 313.11C405.445 313.249 405.445 313.391 405.42 313.53C405.416 313.541 405.408 313.55 405.398 313.556C405.388 313.563 405.377 313.566 405.365 313.566C405.353 313.566 405.342 313.563 405.332 313.556C405.323 313.55 405.315 313.541 405.31 313.53C405.29 313.404 405.29 313.276 405.31 313.15C405.27 313 405.27 312.82 405.27 312.68Z" fill="#263238"/>
<path d="M406.92 315.67C407.42 315.58 407.92 315.56 408.43 315.51C408.94 315.46 409.53 315.42 410.08 315.35C410.091 315.346 410.102 315.344 410.114 315.346C410.125 315.347 410.136 315.351 410.145 315.357C410.155 315.364 410.163 315.372 410.168 315.382C410.173 315.393 410.176 315.404 410.176 315.415C410.176 315.427 410.173 315.438 410.168 315.448C410.163 315.458 410.155 315.467 410.145 315.473C410.136 315.48 410.125 315.484 410.114 315.485C410.102 315.486 410.091 315.484 410.08 315.48C409.08 315.54 407.98 315.73 406.92 315.77C406.907 315.77 406.894 315.765 406.885 315.756C406.875 315.746 406.87 315.733 406.87 315.72C406.87 315.707 406.875 315.694 406.885 315.685C406.894 315.675 406.907 315.67 406.92 315.67Z" fill="#263238"/>
<path d="M408.4 350.12C411.22 348.01 413.74 344.98 417.52 344.83C420.65 344.7 422.83 347.05 424.09 349.67C424.714 351.064 425.225 352.505 425.62 353.98C426.18 355.98 426.71 357.98 427.21 359.98C428.19 363.9 429.023 367.853 429.71 371.84C430.09 374.06 430.45 376.29 430.71 378.53C431.066 380.794 431.283 383.079 431.36 385.37C431.359 385.455 431.327 385.537 431.27 385.601C431.213 385.664 431.135 385.705 431.05 385.715C430.965 385.724 430.88 385.703 430.81 385.654C430.74 385.605 430.69 385.533 430.67 385.45C430.29 383.58 430.13 381.65 429.85 379.76C429.57 377.87 429.29 375.96 428.96 374.06C428.32 370.28 427.58 366.5 426.73 362.76C425.92 359.22 425.13 355.63 423.98 352.18C423.17 349.71 421.85 346.83 419.19 345.94C415.13 344.59 411.44 348.02 408.47 350.25C408.43 350.26 408.34 350.17 408.4 350.12Z" fill="#263238"/>
<path d="M411.31 348.1C411.31 348.1 413.91 340.7 410.16 339.25C404.54 337.07 389.83 353.64 392.71 379.02C399.648 375.135 406.254 370.683 412.46 365.71C420.85 358.71 423 349.47 419.31 347.1C415.62 344.73 411.31 348.1 411.31 348.1Z" fill="#FFA4BB"/>
<path d="M394.41 373.58C394.797 372.693 395.252 371.838 395.77 371.02C396.26 370.15 396.77 369.28 397.24 368.43C398.24 366.76 399.19 365.08 400.19 363.43L400.68 362.63L400.62 362.34C400.56 362.09 400.51 361.85 400.45 361.6C400.33 361.05 400.23 360.49 400.13 359.94C399.93 358.85 399.74 357.75 399.44 356.69C399.44 356.61 399.55 356.58 399.57 356.69C399.8 357.78 400.14 358.85 400.47 359.91C400.62 360.43 400.79 360.91 400.93 361.48C400.98 361.66 401.03 361.85 401.07 362.03C402.28 360.03 403.51 358.08 404.83 356.17C404.745 355.908 404.702 355.635 404.7 355.36C404.7 354.99 404.62 354.62 404.57 354.24C404.48 353.41 404.38 352.58 404.26 351.74C404.02 350.11 403.77 348.48 403.37 346.88C403.37 346.8 403.47 346.78 403.49 346.88C403.9 348.48 404.34 350.07 404.64 351.7C404.79 352.49 404.93 353.29 405.04 354.09C405.04 354.49 405.13 354.89 405.18 355.29C405.18 355.41 405.18 355.54 405.18 355.66C405.59 355.08 406 354.51 406.42 353.95C407.72 352.24 409.07 350.57 410.42 348.95C410.48 348.89 410.58 348.95 410.53 349.03C408.204 352.001 406.07 355.118 404.14 358.36L403.03 360.15H403.4C403.87 360.09 404.4 360.06 404.83 360.01L407.7 359.76C409.62 359.61 411.54 359.49 413.44 359.29C413.53 359.29 413.55 359.41 413.44 359.41C411.5 359.64 409.58 359.95 407.65 360.22C406.65 360.36 405.75 360.48 404.8 360.6C404.079 360.75 403.346 360.827 402.61 360.83L400.35 364.49C400.52 364.49 400.7 364.49 400.86 364.49H403.6C404.83 364.49 406.06 364.49 407.3 364.49C407.38 364.49 407.37 364.62 407.3 364.62C406.05 364.62 404.81 364.7 403.56 364.77L401.79 364.87L400.9 364.94C400.642 364.991 400.377 364.991 400.12 364.94L398.2 368.05C397.61 369.05 397.02 369.97 396.41 370.92C395.839 371.93 395.194 372.896 394.48 373.81C394.48 373.7 394.38 373.66 394.41 373.58Z" fill="#263238"/>
<path d="M399.82 353.06C399.935 353.877 400.106 354.686 400.33 355.48C400.54 356.3 400.78 357.11 401.05 357.92C401.057 357.941 401.055 357.964 401.045 357.984C401.034 358.003 401.017 358.018 400.995 358.025C400.974 358.032 400.951 358.029 400.931 358.019C400.912 358.009 400.897 357.991 400.89 357.97C400.64 357.17 400.42 356.36 400.22 355.55C400.02 354.74 399.89 353.9 399.7 353.09C399.68 353 399.81 353 399.82 353.06Z" fill="#263238"/>
<path d="M408.17 358C408.341 357.85 408.562 357.768 408.79 357.77L409.86 357.62L411.86 357.38C413.25 357.22 414.63 357.08 416.02 356.91C416.1 356.91 416.12 357.03 416.02 357.04C414.71 357.2 413.41 357.39 412.11 357.56C411.47 357.65 410.83 357.74 410.19 357.81L409.27 357.92C408.908 357.914 408.549 357.975 408.21 358.1C408.17 358.15 408.13 358.07 408.17 358Z" fill="#263238"/>
<path d="M399.84 369.18C400.5 369.13 401.16 369.1 401.84 369.08H402.84H403.32C403.526 369.1 403.734 369.1 403.94 369.08C404.03 369.08 404.04 369.23 403.94 369.21C403.747 369.19 403.553 369.19 403.36 369.21H402.85L401.85 369.27C401.19 369.27 400.53 369.35 399.85 369.35C399.839 369.351 399.828 369.349 399.817 369.346C399.806 369.342 399.797 369.336 399.788 369.329C399.78 369.321 399.773 369.312 399.768 369.302C399.763 369.292 399.761 369.281 399.76 369.27C399.759 369.259 399.761 369.248 399.764 369.237C399.768 369.227 399.774 369.217 399.781 369.209C399.789 369.2 399.798 369.193 399.808 369.188C399.818 369.184 399.829 369.181 399.84 369.18Z" fill="#263238"/>
<path d="M395.84 366.34C395.76 365.97 395.69 365.6 395.62 365.23C395.49 364.49 395.35 363.76 395.22 363.03C395.22 362.95 395.33 362.93 395.35 363.03L395.83 365.17C395.91 365.52 395.99 365.88 396.06 366.24C396.06 366.4 396.13 366.57 396.17 366.73C396.221 366.902 396.238 367.082 396.22 367.26C396.22 367.32 396.12 367.36 396.08 367.26C395.946 366.97 395.865 366.658 395.84 366.34Z" fill="#263238"/>
<path d="M399 388.21L399.35 398.62L401.5 437.92H436.5L438.64 398.62L438.99 388.21H399Z" fill="#37474F"/>
<path d="M399 388.21L399.35 398.62H438.64L438.99 388.21H399Z" fill="#263238"/>
<path d="M394.42 391.29H443.57V380.79H394.42V391.29Z" fill="#37474F"/>
<path d="M405.02 177.73L84.8999 437.85H43.8799V392.24H89.2599V355.36H134.65V318.49H180.03V281.61H225.41V244.73H270.81V207.85H316.19V170.97L361.57 134.1V134.09L364 132.12L405.02 177.73Z" fill="#FFA4BB"/>
<path opacity="0.1" d="M405.02 177.73L84.8999 437.85H43.8799V392.24H89.2599V355.36H134.65V318.49H180.03V281.61H225.41V244.73H270.81V207.85H316.19V170.97L361.57 134.1V134.09L364 132.12L405.02 177.73Z" fill="black"/>
<path d="M394.06 224.52L369.69 166.97L311.79 136.08L456.13 96.73L394.06 224.52Z" fill="#FFA4BB"/>
<g opacity="0.1">
<path d="M394.06 224.52L369.69 166.97L311.79 136.08L456.13 96.73L394.06 224.52Z" fill="black"/>
</g>
<g opacity="0.1">
<path d="M104.85 355.36H89.2598V392.23H104.85V355.36Z" fill="black"/>
<path d="M150.24 318.49H134.65V355.36H150.24V318.49Z" fill="black"/>
<path d="M195.63 281.61H180.04V318.48H195.63V281.61Z" fill="black"/>
<path d="M241.02 244.74H225.43V281.61H241.02V244.74Z" fill="black"/>
<path d="M286.41 207.87H270.82V244.74H286.41V207.87Z" fill="black"/>
<path d="M331.81 207.87H316.22V170.99L331.81 158.28V207.87Z" fill="black"/>
<path d="M59.4601 392.23H43.8701V437.85H59.4601V392.23Z" fill="black"/>
</g>
<path d="M127.43 90.8599C106.75 94.0499 86.3197 100.52 83.7197 106.37C80.2297 114.24 81.3097 134.57 82.8397 145.07C83.2897 148.15 107.23 144.16 106.75 140.86C106.17 136.86 102.85 116.3 102.92 115.86C103.06 115.01 123.27 101.94 128.17 98.9299C136.37 93.9999 136.61 89.4499 127.43 90.8599Z" fill="#D3766A"/>
<path d="M86.0002 160.7C83.5402 156.11 82.2802 144.8 83.0002 142C83.7202 139.2 102.92 136.37 105.09 138.47C107.26 140.57 114.18 156.65 113.17 161.84C112.16 167.03 88.4502 165.46 86.0002 160.7Z" fill="#D3766A"/>
<path d="M113.14 153.49C110.79 152.07 110.46 155.66 110.46 155.66C110.46 155.66 109.69 150.38 106.7 149.86C103.71 149.34 103.57 153.7 103.55 154.01C103.55 153.73 102.67 148.91 99.6102 148.69C96.5502 148.47 96.9402 152.87 96.9702 153.15C96.8502 152.9 95.1602 149.62 92.8002 149.98C88.7402 150.61 92.8002 159.11 91.5902 162.2C91.5902 162.2 86.1202 160.71 85.9502 160.7C85.9502 160.7 89.6702 168.87 93.9502 170.3C94.5662 170.519 95.2386 170.52 95.8554 170.304C96.4722 170.087 96.9962 169.666 97.3402 169.11C97.3402 169.11 98.2502 171.88 100.65 172.11C101.89 172.23 103.18 170.37 103.18 170.37C103.42 170.99 103.828 171.53 104.358 171.931C104.888 172.332 105.519 172.577 106.18 172.64C107.89 172.72 108.93 170.84 108.93 170.84C108.93 170.84 110.69 172.57 112.47 172.08C116 171.11 118.17 156.54 113.14 153.49Z" fill="#D3766A"/>
<path d="M109.1 170.59C109.1 170.59 109.15 170.66 109.17 170.59C111.137 165.791 111.601 160.508 110.5 155.44C110.5 155.28 110.18 155.28 110.19 155.44C110.562 160.516 110.195 165.619 109.1 170.59Z" fill="#263238"/>
<path d="M103.18 170.47C103.18 170.52 103.26 170.55 103.28 170.47C105.399 165.158 105.551 159.264 103.71 153.85C103.64 153.67 103.39 153.57 103.45 153.79C104.53 157.54 104.28 165.83 103.18 170.47Z" fill="#263238"/>
<path d="M96.7004 152.82C98.4504 158.13 98.3304 163.46 97.4104 168.92C97.4104 168.99 97.5004 169 97.5304 168.92C98.7004 166.37 98.9204 162.83 98.8604 160.06C98.8473 157.487 98.1575 154.962 96.8604 152.74C96.8304 152.67 96.6604 152.71 96.7004 152.82Z" fill="#263238"/>
<path d="M110.46 155.66C110.214 154.662 109.88 153.688 109.46 152.75C109.087 151.825 108.476 151.014 107.69 150.4C107.316 150.143 106.86 150.033 106.41 150.09C105.952 150.152 105.518 150.331 105.15 150.61C104.805 150.916 104.53 151.292 104.342 151.712C104.154 152.133 104.058 152.589 104.06 153.05L103.96 155.3L103.27 153.16C102.974 152.202 102.521 151.3 101.93 150.49C101.68 150.098 101.351 149.763 100.963 149.506C100.576 149.25 100.138 149.077 99.6799 149C99.2592 148.948 98.8332 149.039 98.4705 149.259C98.1077 149.478 97.8293 149.813 97.6799 150.21C97.3667 151.123 97.2876 152.099 97.4499 153.05L97.8099 155.69L96.6099 153.33C96.2728 152.672 95.8563 152.057 95.3699 151.5C94.9246 150.958 94.3301 150.558 93.66 150.35C93.3539 150.269 93.0313 150.276 92.729 150.37C92.4267 150.464 92.1567 150.641 91.9499 150.88C91.5651 151.476 91.3602 152.171 91.3599 152.88C91.3379 154.425 91.4348 155.97 91.6499 157.5C91.7299 158.28 91.8099 159.06 91.8599 159.84C91.9501 160.624 91.8717 161.419 91.6299 162.17C91.7796 161.407 91.7796 160.623 91.6299 159.86C91.5299 159.09 91.3899 158.32 91.2499 157.56C90.9178 156.011 90.7369 154.434 90.7099 152.85C90.6736 151.995 90.8929 151.149 91.3399 150.42C91.6243 150.047 92.0114 149.765 92.4537 149.609C92.896 149.452 93.3743 149.429 93.8299 149.54C94.677 149.779 95.4329 150.267 95.9999 150.94C96.5611 151.54 97.0387 152.213 97.4199 152.94L96.5799 153.22C96.3652 152.098 96.4479 150.94 96.8199 149.86C97.0449 149.266 97.469 148.767 98.0199 148.45C98.5685 148.158 99.1926 148.04 99.8099 148.11C100.391 148.202 100.946 148.415 101.438 148.735C101.931 149.056 102.351 149.476 102.67 149.97C103.316 150.88 103.8 151.895 104.1 152.97L103.31 153.07C103.331 152.498 103.477 151.937 103.738 151.428C103.999 150.918 104.368 150.472 104.82 150.12C105.292 149.797 105.84 149.6 106.41 149.55C106.977 149.505 107.541 149.665 108 150C108.818 150.702 109.421 151.621 109.74 152.65C110.09 153.624 110.331 154.633 110.46 155.66Z" fill="#263238"/>
<path d="M106.77 141C106.77 141 123.84 154.87 115.15 158.89C112.56 160.08 100.53 161.89 100.15 159.49C99.6202 156.38 104.5 154.68 107.73 154.1C107.73 154.1 101.26 150.2 102.64 144.89C102.906 143.925 103.432 143.052 104.16 142.366C104.889 141.68 105.791 141.208 106.77 141Z" fill="#D3766A"/>
<path d="M115.85 158.46C114.893 159.048 113.856 159.492 112.77 159.78C111.691 160.094 110.592 160.335 109.48 160.5C107.257 160.873 105.005 161.05 102.75 161.03C102.153 161.025 101.561 160.934 100.99 160.76C100.66 160.657 100.356 160.483 100.1 160.25C99.9585 160.125 99.8401 159.976 99.7501 159.81C99.6656 159.642 99.605 159.464 99.5701 159.28C99.4685 158.613 99.6105 157.931 99.9701 157.36C100.306 156.841 100.729 156.385 101.22 156.01C102.159 155.319 103.212 154.798 104.33 154.47C105.408 154.12 106.511 153.852 107.63 153.67L107.51 154.39C106.793 153.919 106.123 153.38 105.51 152.78C104.89 152.19 104.331 151.54 103.84 150.84C103.359 150.132 102.985 149.357 102.73 148.54C102.475 147.729 102.376 146.877 102.44 146.03C102.485 146.862 102.671 147.68 102.99 148.45C103.311 149.203 103.731 149.909 104.24 150.55C104.747 151.192 105.316 151.781 105.94 152.31C106.56 152.843 107.23 153.315 107.94 153.72L108.81 154.21L107.81 154.44C106.739 154.655 105.683 154.942 104.65 155.3C103.64 155.629 102.689 156.115 101.83 156.74C101.43 156.992 101.1 157.341 100.873 157.756C100.645 158.171 100.527 158.637 100.53 159.11C100.6 159.87 101.8 160.11 102.84 160.11C103.936 160.165 105.034 160.165 106.13 160.11C107.24 160.11 108.34 160.01 109.44 159.89C111.639 159.752 113.802 159.27 115.85 158.46Z" fill="#263238"/>
<path d="M107.56 140.08L80.6501 139.69C80.6501 139.69 78.6501 111.15 84.5001 104.8C88.4201 100.55 109.35 92.6299 123.8 90.7999C138.25 88.9699 138.09 93.5499 125.55 101.41C113.01 109.27 103.78 115.77 103.78 116.17C103.78 116.57 107.56 140.08 107.56 140.08Z" fill="#FFA4BB"/>
<path d="M104 112.81C103.56 111.561 103.56 110.199 104 108.95C104.453 110.197 104.453 111.563 104 112.81ZM81.4797 122.81C81.4927 122.151 81.3772 121.495 81.1397 120.88C80.6865 122.127 80.6865 123.493 81.1397 124.74C81.3648 124.116 81.4634 123.453 81.4297 122.79L81.4797 122.81ZM114.86 107.6C115.099 107.696 115.347 107.77 115.6 107.82L116.43 107.27C115.876 107.28 115.328 107.385 114.81 107.58L114.86 107.6ZM101.62 125.21C102.275 125.219 102.927 125.104 103.54 124.87C102.928 124.632 102.276 124.516 101.62 124.53C100.961 124.521 100.306 124.636 99.6897 124.87C100.293 125.086 100.929 125.195 101.57 125.19L101.62 125.21ZM85.3497 107.92C86.0058 107.934 86.6582 107.818 87.2697 107.58C86.6582 107.342 86.0058 107.226 85.3497 107.24C84.6906 107.23 84.0357 107.346 83.4197 107.58C84.037 107.81 84.691 107.925 85.3497 107.92ZM88.3497 132.34C87.8951 131.865 87.3514 131.485 86.7497 131.22C87.0203 131.821 87.4039 132.364 87.8797 132.82C88.3389 133.289 88.8814 133.669 89.4797 133.94C89.209 133.339 88.8254 132.796 88.3497 132.34ZM96.8997 101.76C96.4418 101.287 95.899 100.903 95.2997 100.63C95.5642 101.232 95.9448 101.776 96.4197 102.23C96.8756 102.706 97.4188 103.089 98.0197 103.36C97.7489 102.762 97.3691 102.219 96.8997 101.76ZM127.4 98.3301C127.605 98.8021 127.885 99.2378 128.23 99.6201C128.42 99.4901 128.6 99.3701 128.77 99.2401C128.368 98.8616 127.904 98.5539 127.4 98.3301ZM97.7797 138.62C97.3838 139.001 97.0468 139.44 96.7797 139.92H97.2097C97.5701 139.678 97.9051 139.4 98.2097 139.09C98.6832 138.634 99.0636 138.091 99.3297 137.49C98.7479 137.768 98.2224 138.151 97.7797 138.62ZM111.47 98.6801C110.994 99.1398 110.61 99.6863 110.34 100.29C111.536 99.7205 112.5 98.7565 113.07 97.5601C112.471 97.8309 111.929 98.2107 111.47 98.6801ZM91.4697 117.41C90.9948 117.865 90.6142 118.408 90.3497 119.01C91.5481 118.452 92.5112 117.488 93.0697 116.29C92.4658 116.556 91.9191 116.936 91.4597 117.41H91.4697Z" fill="white"/>
<path d="M105 135.11C105.08 135.11 105.08 134.98 105 134.97C97.5121 134.256 89.9919 133.932 82.4702 134C82.3902 134 82.3902 134.13 82.4702 134.14C89.9579 134.859 97.4783 135.182 105 135.11Z" fill="#263238"/>
<path opacity="0.1" d="M125.55 101.38C113 109.23 103.78 115.74 103.78 116.14C103.78 116.54 107.56 140.08 107.56 140.08L80.6501 139.69C80.6501 139.69 80.2901 134.58 80.3201 128.21L131.61 90.5C137.48 91.27 135.13 95.38 125.55 101.38Z" fill="black"/>
<path d="M192.49 318.77C190.65 319.38 138.24 318.97 136.25 317.68C135.49 317.21 141.12 270.68 141.12 270.68L174.85 271L168.7 300.53C168.7 300.53 188.7 309.66 190.7 311.3C192.7 312.94 194.32 318.18 192.49 318.77Z" fill="#D3766A"/>
<path d="M192.49 318.77C190.65 319.38 138.24 318.97 136.25 317.68C135.88 317.45 137.03 306.25 138.3 294.84H169.88L168.7 300.49C168.7 300.49 188.7 309.62 190.7 311.26C192.7 312.9 194.32 318.18 192.49 318.77Z" fill="#EBEBEB"/>
<path d="M193.26 319C191.39 319.63 137.99 319.61 135.96 318.31C135.18 317.83 137.38 300.18 137.38 300.08L168.91 299.97V300.56C168.91 300.56 189.35 309.71 191.43 311.37C193.51 313.03 195.13 318.37 193.26 319Z" fill="#FFA4BB"/>
<path d="M192.66 316.92C183.66 316.7 147.33 316.64 138.41 317.1C138.34 317.1 138.34 317.1 138.41 317.16C147.33 317.57 183.66 317.34 192.66 317.07C192.85 317.06 192.85 316.93 192.66 316.92Z" fill="#263238"/>
<path d="M172.74 300.06C169.2 299.4 164.87 299.94 162.16 302.46C162.05 302.56 162.16 302.71 162.31 302.67C165.696 301.581 169.189 300.856 172.73 300.51C172.782 300.5 172.829 300.473 172.863 300.433C172.897 300.393 172.916 300.342 172.917 300.289C172.919 300.236 172.902 300.185 172.869 300.143C172.837 300.101 172.791 300.072 172.74 300.06Z" fill="#263238"/>
<path d="M175.3 301.6C171.75 300.94 167.42 301.48 164.71 304C164.61 304.1 164.71 304.25 164.86 304.21C168.247 303.122 171.74 302.397 175.28 302.05C175.332 302.042 175.38 302.016 175.415 301.976C175.451 301.937 175.471 301.886 175.473 301.833C175.476 301.78 175.46 301.728 175.428 301.686C175.397 301.643 175.351 301.613 175.3 301.6Z" fill="#263238"/>
<path d="M177.85 303.15C174.31 302.48 169.98 303.02 167.27 305.55C167.16 305.64 167.27 305.79 167.42 305.76C170.806 304.668 174.3 303.94 177.84 303.59C177.899 303.591 177.955 303.569 177.997 303.529C178.039 303.489 178.064 303.433 178.065 303.375C178.067 303.316 178.045 303.26 178.004 303.218C177.964 303.176 177.909 303.151 177.85 303.15Z" fill="#263238"/>
<path d="M171.65 299.67L136.29 299.48C136.29 299.48 146.7 226.23 145.8 223.21C145.44 222.04 107.14 184.86 107.14 184.86C91.8798 169.81 96.4598 145.53 96.4598 145.53H140.46C140.46 145.53 138.46 156.26 140.73 158.6C143.51 161.44 176.73 197.28 181.05 208.7C186.86 224 171.65 299.67 171.65 299.67Z" fill="#37474F"/>
<path d="M171.2 292.66C165.76 292.31 167.33 292.32 161.88 292.04C159.22 291.91 141.72 291.04 139.21 291.45C139.16 291.45 139.15 291.57 139.21 291.59C141.68 292.19 159.21 292.68 161.86 292.75C167.3 292.9 165.74 292.75 171.19 292.86C171.29 292.86 171.3 292.67 171.2 292.66Z" fill="#263238"/>
<path d="M142.64 160.59L126 203.22C116.51 193.91 107.19 184.86 107.19 184.86C91.9296 169.81 96.5096 145.53 96.5096 145.53H140.51C140.51 145.53 138.51 156.26 140.78 158.6C141.06 158.91 141.71 159.59 142.64 160.59Z" fill="#263238"/>
<path d="M113.08 355.67C111.17 355.9 59.8999 344.97 58.2099 343.31C57.5599 342.69 58.7199 335.13 60.3799 326.03C60.3799 325.94 60.3799 325.84 60.3799 325.75C60.7199 323.87 69.7499 292.5 69.7499 292.5L103.16 300.37L93.5399 332.43L93.3999 332.99C93.3999 332.99 111.16 345.99 112.82 347.99C114.48 349.99 115 355.46 113.08 355.67Z" fill="#D3766A"/>
<path d="M113.08 355.67C111.17 355.9 59.8999 344.97 58.2099 343.31C57.5599 342.69 58.7199 335.13 60.3799 326.03C60.3799 325.94 60.3799 325.84 60.3799 325.75C60.4699 325.26 61.1599 322.75 62.1299 319.25L95.3199 326.49L93.5399 332.43L93.3999 332.99C93.3999 332.99 111.16 345.99 112.82 347.99C114.48 349.99 115 355.46 113.08 355.67Z" fill="#EBEBEB"/>
<path d="M113.57 355.88C111.57 356.1 59.4096 344.88 57.6996 343.15C57.0396 342.52 58.2296 334.82 59.9496 325.55V325.26L93.7096 332.15L93.5796 332.72C93.5796 332.72 111.68 346 113.37 348C115.06 350 115.52 355.66 113.57 355.88Z" fill="#FFA4BB"/>
<path d="M113.41 353.73C104.66 351.61 69.1599 343.91 60.3499 342.49C60.2699 342.49 60.2599 342.49 60.3499 342.54C68.9799 344.83 104.55 352.24 113.4 353.87C113.57 353.9 113.6 353.77 113.41 353.73Z" fill="#263238"/>
<path d="M97.4901 333.05C94.1701 331.66 89.8201 331.28 86.6401 333.17C86.5201 333.25 86.6401 333.42 86.7401 333.41C90.2794 333.056 93.8464 333.083 97.3801 333.49C97.4342 333.494 97.4882 333.479 97.5322 333.447C97.5763 333.415 97.6078 333.369 97.6209 333.316C97.6341 333.264 97.6282 333.208 97.6043 333.159C97.5803 333.11 97.5398 333.072 97.4901 333.05Z" fill="#263238"/>
<path d="M99.6597 335.1C96.3397 333.7 91.9897 333.32 88.8097 335.22C88.6897 335.29 88.8097 335.47 88.9197 335.46C92.4587 335.103 96.0257 335.127 99.5597 335.53C99.588 335.536 99.6172 335.537 99.6458 335.533C99.6744 335.528 99.7018 335.518 99.7264 335.502C99.751 335.487 99.7724 335.467 99.7892 335.443C99.8061 335.42 99.8182 335.393 99.8247 335.365C99.8313 335.337 99.8322 335.307 99.8275 335.279C99.8228 335.25 99.8124 335.223 99.7971 335.198C99.7818 335.174 99.7618 335.152 99.7382 335.135C99.7146 335.118 99.688 335.106 99.6597 335.1Z" fill="#263238"/>
<path d="M101.84 337.14C98.5202 335.75 94.1702 335.37 90.9902 337.26C90.8602 337.34 90.9902 337.51 91.0902 337.5C94.6295 337.147 98.1966 337.174 101.73 337.58C101.784 337.584 101.838 337.569 101.882 337.537C101.926 337.506 101.958 337.459 101.971 337.407C101.984 337.354 101.978 337.298 101.954 337.249C101.93 337.201 101.89 337.162 101.84 337.14Z" fill="#263238"/>
<path d="M132.06 145.53C132.06 145.53 134.92 170.04 129.86 175.62C129.86 175.62 120.86 232.06 117.7 248.32C113.47 269.78 96.46 331.88 96.46 331.88L59 325.55C59 325.55 81.07 245.06 81.25 243.66C82.25 235.73 91.25 180.66 90.76 179.29C86.07 165.29 92.84 145.53 92.84 145.53H132.06Z" fill="#37474F"/>
<path d="M140.49 145.53C140.49 145.53 136.92 171.43 129.86 175.62C129.86 175.62 120.86 232.06 117.7 248.32C113.47 269.78 96.46 331.88 96.46 331.88L59 325.55C59 325.55 81.07 245.06 81.25 243.66C82.25 235.73 91.25 180.66 90.76 179.29C86.07 165.29 92.84 145.53 92.84 145.53H140.49Z" fill="#37474F"/>
<path d="M96.3002 324.17C90.7602 322.94 92.3701 323.17 86.8201 322.03C84.1101 321.46 66.2601 317.74 63.6201 317.73C63.5601 317.73 63.5401 317.85 63.6201 317.87C66.0701 318.87 83.9901 322.23 86.7101 322.74C92.2901 323.74 90.7101 323.4 96.2901 324.37C96.3601 324.38 96.4002 324.2 96.3002 324.17Z" fill="#263238"/>
<path d="M135 172.81C131.054 174.242 127.239 176.016 123.6 178.11C123.569 178.125 123.544 178.151 123.532 178.184C123.52 178.217 123.521 178.253 123.535 178.285C123.55 178.317 123.577 178.342 123.609 178.354C123.642 178.366 123.679 178.365 123.71 178.35C127.55 176.7 131.46 175.12 135.21 173.26C135.263 173.228 135.301 173.178 135.319 173.119C135.336 173.06 135.331 172.997 135.306 172.942C135.28 172.886 135.234 172.842 135.178 172.818C135.122 172.794 135.059 172.791 135 172.81Z" fill="#263238"/>
<path d="M136.18 146.46C136.18 146.33 135.94 146.3 135.94 146.46C135.94 151.02 135.68 155.03 135.3 159.29C135.12 161.29 133.53 172.2 130.1 171.4C129.52 171.27 129.23 170.7 129.1 169.84C129.11 168.705 129.265 167.576 129.56 166.48C129.94 164.2 130.24 161.9 130.44 159.59C130.833 155.287 130.786 150.954 130.3 146.66C130.3 146.631 130.288 146.603 130.268 146.582C130.247 146.562 130.219 146.55 130.19 146.55C130.161 146.55 130.133 146.562 130.112 146.582C130.092 146.603 130.08 146.631 130.08 146.66C130.181 152.628 129.83 158.595 129.03 164.51C128.6 167.35 127.17 171.63 130.15 172.07C133.13 172.51 135.15 165.35 135.5 163.39C136.457 157.8 136.685 152.109 136.18 146.46Z" fill="#263238"/>
<path d="M130.19 171.67C129.884 172.409 129.627 173.167 129.42 173.94C129.196 174.534 129.087 175.165 129.1 175.8C129.1 175.92 129.27 175.93 129.33 175.8C129.691 175.243 129.961 174.632 130.13 173.99C130.39 173.29 130.67 172.59 130.91 171.89C130.924 171.799 130.905 171.707 130.857 171.629C130.808 171.551 130.733 171.493 130.645 171.466C130.558 171.439 130.463 171.445 130.379 171.483C130.296 171.52 130.228 171.587 130.19 171.67Z" fill="#263238"/>
<path d="M95.26 160.64C96.09 160.49 97.2599 160.79 100.92 160.54C101.932 160.458 102.935 160.294 103.92 160.05C104.91 159.897 105.851 159.517 106.67 158.94C107.979 157.706 109.044 156.237 109.81 154.61C110.769 152.935 111.508 151.143 112.01 149.28C112.01 149.16 112.2 149.22 112.18 149.33C111.99 150.33 111.88 151.44 111.6 152.48C111.341 153.461 111.007 154.42 110.6 155.35C109.941 157.183 108.83 158.82 107.37 160.11C105.74 161.34 103.47 161.56 101.5 161.7C100.36 161.78 95.8799 161.7 95.2799 161.02C95.0899 160.91 95.1 160.66 95.26 160.64Z" fill="#263238"/>
<path d="M141.61 155.62C140.61 156.32 92.3601 145.69 92.1701 145.31C91.6301 144.31 115.67 95.8299 129.44 89.0399C132.44 87.5799 139.83 90.6299 141.36 92.7599C142.31 94.0999 143.42 101.76 144.05 108.08C145.32 120.64 142.48 155 141.61 155.62Z" fill="#FFA4BB"/>
<path d="M128.77 116.14C128.317 114.893 128.317 113.527 128.77 112.28C129.223 113.527 129.223 114.893 128.77 116.14ZM140.34 136.2C140.355 135.541 140.239 134.885 140 134.27C139.76 134.885 139.645 135.541 139.66 136.2C139.656 136.855 139.771 137.506 140 138.12C140.233 137.507 140.349 136.856 140.34 136.2ZM113.78 134.49C113.793 133.832 113.681 133.177 113.45 132.56C112.996 133.803 112.996 135.167 113.45 136.41C113.68 135.797 113.792 135.145 113.78 134.49ZM116.78 107.92C117.436 107.934 118.088 107.818 118.7 107.58C118.088 107.342 117.436 107.226 116.78 107.24C116.121 107.23 115.466 107.346 114.85 107.58C115.454 107.805 116.094 107.92 116.74 107.92H116.78ZM114.85 149.17C115.509 149.183 116.165 149.068 116.78 148.83C115.533 148.377 114.166 148.377 112.92 148.83C113.522 149.064 114.164 149.18 114.81 149.17H114.85ZM102.47 124.57C102.37 124.77 102.26 124.97 102.14 125.16C102.617 125.134 103.086 125.029 103.53 124.85C103.178 124.707 102.807 124.613 102.43 124.57H102.47ZM140.32 91.73C139.799 91.7497 139.285 91.8579 138.8 92.05C139.414 92.2895 140.07 92.4051 140.73 92.39H141C140.774 92.1545 140.534 91.934 140.28 91.73H140.32ZM128.12 128.3C128.76 128.319 129.398 128.218 130 128C128.753 127.547 127.386 127.547 126.14 128C126.76 128.227 127.42 128.329 128.08 128.3H128.12ZM137.35 150.1C138.009 150.113 138.665 149.997 139.28 149.76C138.031 149.32 136.669 149.32 135.42 149.76C136.022 149.994 136.664 150.11 137.31 150.1H137.35ZM116.45 121.19C115.995 120.715 115.451 120.335 114.85 120.07C115.117 120.67 115.497 121.213 115.97 121.67C116.431 122.137 116.973 122.517 117.57 122.79C117.293 122.185 116.899 121.641 116.41 121.19H116.45ZM129 99.46C128.54 98.9841 127.993 98.6006 127.39 98.33C127.952 99.5318 128.918 100.498 130.12 101.06C129.849 100.462 129.469 99.9192 129 99.46ZM140.44 121.93C139.983 121.457 139.44 121.077 138.84 120.81C139.406 122.007 140.371 122.968 141.57 123.53C141.302 122.93 140.922 122.387 140.45 121.93H140.44ZM140 106.55C139.524 107.006 139.14 107.549 138.87 108.15C140.066 107.58 141.03 106.616 141.6 105.42C140.999 105.691 140.456 106.074 140 106.55ZM97.7997 138.62C97.3272 139.077 96.9469 139.62 96.6797 140.22C97.8781 139.661 98.8412 138.698 99.3997 137.5C98.7938 137.768 98.244 138.148 97.7797 138.62H97.7997ZM126.59 140C126.114 140.457 125.733 141.005 125.47 141.61C126.071 141.339 126.614 140.956 127.07 140.48C127.539 140.021 127.919 139.478 128.19 138.88C127.591 139.151 127.049 139.531 126.59 140Z" fill="white"/>
<path d="M139.52 98.0801C139.37 102.87 139.13 107.65 138.87 112.44C138.61 117.23 138.29 121.99 138 126.77C137.71 131.55 137.32 136.33 136.92 141.1L136.32 148.26C136.09 150.64 135.88 153.03 135.62 155.41C135.69 153.01 135.81 150.62 135.9 148.23L136.27 141.05C136.53 136.27 136.86 131.5 137.15 126.72C137.44 121.94 137.83 117.16 138.22 112.39C138.61 107.62 139 102.85 139.52 98.0801Z" fill="#263238"/>
<path d="M142.06 113C142.052 113.178 141.991 113.35 141.885 113.493C141.779 113.637 141.633 113.745 141.465 113.806C141.297 113.866 141.115 113.875 140.942 113.832C140.769 113.788 140.613 113.695 140.493 113.562C140.374 113.43 140.296 113.265 140.27 113.089C140.244 112.912 140.272 112.732 140.348 112.571C140.425 112.41 140.548 112.276 140.701 112.185C140.855 112.094 141.032 112.05 141.21 112.06C141.447 112.073 141.669 112.179 141.828 112.355C141.987 112.531 142.071 112.763 142.06 113Z" fill="#263238"/>
<path d="M141.25 122.2C141.242 122.378 141.182 122.549 141.076 122.693C140.971 122.836 140.825 122.945 140.658 123.005C140.491 123.066 140.309 123.076 140.136 123.033C139.964 122.991 139.807 122.898 139.687 122.767C139.567 122.636 139.489 122.472 139.462 122.296C139.435 122.12 139.46 121.94 139.536 121.779C139.611 121.617 139.732 121.482 139.884 121.39C140.036 121.298 140.212 121.252 140.39 121.26C140.508 121.265 140.625 121.294 140.732 121.344C140.839 121.394 140.935 121.464 141.015 121.552C141.095 121.639 141.157 121.741 141.197 121.853C141.238 121.964 141.256 122.082 141.25 122.2Z" fill="#263238"/>
<path d="M140.43 131.41C140.425 131.528 140.396 131.644 140.346 131.751C140.296 131.859 140.226 131.955 140.138 132.035C140.051 132.115 139.949 132.177 139.838 132.217C139.726 132.257 139.608 132.275 139.49 132.27C139.372 132.264 139.256 132.235 139.149 132.184C139.042 132.133 138.946 132.062 138.867 131.974C138.787 131.887 138.726 131.784 138.686 131.673C138.646 131.561 138.629 131.443 138.635 131.325C138.641 131.207 138.67 131.091 138.721 130.984C138.771 130.877 138.843 130.781 138.93 130.702C139.018 130.622 139.121 130.561 139.232 130.521C139.344 130.481 139.462 130.464 139.58 130.47C139.698 130.475 139.813 130.503 139.92 130.554C140.027 130.604 140.122 130.675 140.202 130.762C140.281 130.85 140.342 130.952 140.381 131.063C140.42 131.174 140.437 131.292 140.43 131.41Z" fill="#263238"/>
<path d="M139.62 140.63C139.612 140.808 139.551 140.98 139.445 141.123C139.339 141.267 139.193 141.375 139.025 141.436C138.857 141.496 138.676 141.505 138.503 141.461C138.33 141.418 138.173 141.324 138.054 141.192C137.934 141.06 137.857 140.895 137.831 140.719C137.805 140.542 137.832 140.362 137.909 140.201C137.986 140.04 138.109 139.906 138.262 139.815C138.415 139.723 138.592 139.68 138.77 139.69C138.888 139.695 139.004 139.723 139.11 139.774C139.217 139.824 139.313 139.895 139.392 139.982C139.471 140.07 139.532 140.172 139.571 140.283C139.61 140.394 139.627 140.512 139.62 140.63Z" fill="#263238"/>
<path d="M138.81 149.84C138.797 150.078 138.691 150.301 138.515 150.462C138.34 150.623 138.108 150.708 137.87 150.7C137.631 150.688 137.407 150.582 137.247 150.405C137.086 150.227 137.003 149.994 137.015 149.755C137.027 149.516 137.133 149.292 137.31 149.132C137.487 148.972 137.721 148.888 137.96 148.9C138.196 148.916 138.417 149.022 138.575 149.198C138.734 149.373 138.818 149.604 138.81 149.84Z" fill="#263238"/>
<path d="M137.09 99.0002C134.09 98.8902 130.41 93.2302 129.46 89.1902C129.4 88.9202 130.46 86.4802 131.62 83.4702C132.31 81.6402 133.04 79.5802 133.62 77.6602L144.88 83.9202C143.528 86.137 142.454 88.5114 141.68 90.9902C141.606 91.2546 141.559 91.5261 141.54 91.8002C141.54 91.8002 141.54 91.8802 141.54 91.9402C141.31 93.5202 140 99.1302 137.09 99.0002Z" fill="#D3766A"/>
<path d="M134.11 78C133.82 80.51 133.28 89.63 140.22 91.71C140.633 91.8304 141.054 91.9239 141.48 91.99C141.488 91.9437 141.488 91.8963 141.48 91.85C141.5 91.5768 141.544 91.3059 141.61 91.04C142.389 88.5618 143.467 86.1876 144.82 83.97L134.11 78Z" fill="#263238"/>
<path d="M133.49 65.6801C131.82 70.0101 133.22 82.9801 136.16 86.0601C140.42 90.5301 147.87 91.4801 151.78 86.2501C155.58 81.1801 153.46 64.3101 150.13 61.4601C145.23 57.2601 136 59.2901 133.49 65.6801Z" fill="#D3766A"/>
<path d="M145.35 74.4102C145.35 74.4102 145.28 74.4102 145.29 74.4902C145.4 75.3602 145.39 76.3802 144.63 76.7502C145.6 76.5602 145.6 75.2102 145.35 74.4102Z" fill="#263238"/>
<path d="M144.47 73.5701C143.06 73.5701 143.24 76.4401 144.55 76.4101C145.86 76.3801 145.66 73.5401 144.47 73.5701Z" fill="#263238"/>
<path d="M150.2 74.1201C150.2 74.1201 150.27 74.1201 150.28 74.1901C150.28 75.0701 150.48 76.0701 151.28 76.3101C150.31 76.2901 150.09 75.0001 150.2 74.1201Z" fill="#263238"/>
<path d="M150.93 73.1601C152.33 72.9601 152.62 75.78 151.32 75.96C150.02 76.14 149.75 73.3201 150.93 73.1601Z" fill="#263238"/>
<path d="M143.27 72.3502C143.635 72.2208 143.992 72.0706 144.34 71.9002C144.739 71.7905 145.091 71.5513 145.34 71.2202C145.398 71.1012 145.416 70.9666 145.39 70.8368C145.365 70.7069 145.298 70.5887 145.2 70.5002C144.97 70.3676 144.71 70.2979 144.445 70.2979C144.18 70.2979 143.92 70.3676 143.69 70.5002C143.181 70.6747 142.754 71.0306 142.49 71.5002C142.445 71.6121 142.433 71.7344 142.455 71.853C142.477 71.9716 142.531 72.0816 142.613 72.1704C142.694 72.2592 142.799 72.3232 142.916 72.355C143.032 72.3868 143.155 72.3851 143.27 72.3502Z" fill="#263238"/>
<path d="M151.93 71.6598C151.547 71.6067 151.166 71.5333 150.79 71.4398C150.374 71.4206 149.976 71.2622 149.66 70.9898C149.582 70.8844 149.539 70.7563 149.539 70.6248C149.539 70.4932 149.582 70.3652 149.66 70.2598C149.849 70.074 150.084 69.9417 150.34 69.8767C150.597 69.8117 150.866 69.8162 151.12 69.8898C151.662 69.9553 152.158 70.2233 152.51 70.6398C152.585 70.7395 152.629 70.8588 152.637 70.9832C152.645 71.1075 152.616 71.2314 152.554 71.3397C152.493 71.448 152.401 71.536 152.29 71.5928C152.179 71.6497 152.054 71.673 151.93 71.6598Z" fill="#263238"/>
<path d="M144.8 82.62C145.02 82.81 145.25 83.08 145.57 83.09C145.894 83.0553 146.21 82.9603 146.5 82.81C146.383 82.9901 146.221 83.1359 146.029 83.2326C145.838 83.3292 145.624 83.3732 145.41 83.36C145.23 83.3241 145.064 83.2356 144.934 83.1056C144.804 82.9757 144.716 82.8102 144.68 82.63C144.68 82.63 144.76 82.59 144.8 82.62Z" fill="#263238"/>
<path d="M145.55 79.9399C145.795 80.2724 146.106 80.5506 146.464 80.7571C146.822 80.9636 147.219 81.0939 147.63 81.1399C147.988 81.1949 148.352 81.1949 148.71 81.1399H148.91H149.1C149.146 81.127 149.186 81.0995 149.215 81.0616C149.244 81.0237 149.259 80.9775 149.26 80.9299C149.265 80.9001 149.265 80.8697 149.26 80.8399V80.7599C149.26 80.0899 149.11 79.0699 149.11 79.0699C149.36 79.1699 150.65 79.6599 150.61 79.3099C150.34 76.259 149.76 73.2435 148.88 70.3099C148.88 70.2099 148.7 70.2499 148.72 70.3099C148.95 73.1199 149.72 75.8699 149.96 78.6899C149.502 78.508 149.02 78.3935 148.53 78.3499C148.43 78.3499 148.82 80.3499 148.8 80.6199C148.25 80.7102 147.687 80.6885 147.146 80.5562C146.605 80.4239 146.096 80.1837 145.65 79.8499C145.56 79.8099 145.49 79.8699 145.55 79.9399Z" fill="#263238"/>
<path d="M148.2 81C147.813 81.4508 147.318 81.7951 146.76 82C146.435 82.1041 146.085 82.1041 145.76 82C145.07 81.8 145.07 81.16 145.21 80.62C145.285 80.3306 145.396 80.0517 145.54 79.79C146.27 80.4743 147.205 80.8994 148.2 81Z" fill="#263238"/>
<path d="M146.76 82.0001C146.435 82.1042 146.085 82.1042 145.76 82.0001C145.07 81.8001 145.07 81.1601 145.21 80.6201C145.589 80.6323 145.952 80.7772 146.235 81.0293C146.518 81.2815 146.704 81.625 146.76 82.0001Z" fill="#F291B8"/>
<path d="M152.54 66.5098C148.41 69.8498 142.07 65.7998 142.07 65.7998C141.775 66.7843 141.169 67.6472 140.344 68.2598C139.519 68.8725 138.518 69.2022 137.49 69.1998C137.49 69.1998 137.23 76.6598 135.28 76.7998C132.28 77.0198 130.58 67.0098 131.36 64.9498C131.681 64.2898 132.136 63.7037 132.695 63.2286C133.254 62.7535 133.906 62.3997 134.61 62.1898C134.788 60.9627 135.428 59.8502 136.4 59.0798C138.3 57.3698 145.47 58.8998 145.47 58.8998C145.798 57.9314 146.346 57.0518 147.07 56.3298C147.243 56.1511 147.451 56.009 147.68 55.912C147.909 55.8149 148.156 55.7649 148.405 55.7649C148.654 55.7649 148.9 55.8149 149.13 55.912C149.359 56.009 149.566 56.1511 149.74 56.3298C149.407 56.9075 149.212 57.5543 149.17 58.2198C148.99 60.4098 150.76 60.2198 150.59 58.2998C150.554 57.553 150.253 56.8435 149.74 56.2998C150.51 54.9498 151.9 54.4198 152.82 55.0398C154.49 56.2198 156 63.7298 152.54 66.5098Z" fill="#263238"/>
<path d="M136.32 76.0002C136.32 76.0002 133.64 71.7002 131.7 72.6402C129.76 73.5802 131.63 79.6402 133.79 80.6402C134.057 80.7807 134.348 80.8663 134.648 80.8919C134.948 80.9175 135.25 80.8827 135.537 80.7894C135.823 80.6962 136.088 80.5464 136.315 80.349C136.542 80.1516 136.728 79.9106 136.86 79.6402L136.32 76.0002Z" fill="#D3766A"/>
<path d="M132.28 74.3301C132.28 74.3301 132.28 74.3301 132.28 74.3901C132.97 74.7809 133.571 75.3121 134.043 75.9494C134.515 76.5868 134.848 77.316 135.02 78.0901C134.938 77.9307 134.822 77.7909 134.68 77.6803C134.539 77.5697 134.376 77.4908 134.201 77.4491C134.026 77.4073 133.845 77.4037 133.669 77.4384C133.493 77.473 133.326 77.5453 133.18 77.6501C133.18 77.6501 133.18 77.7501 133.18 77.7401C133.456 77.6681 133.747 77.6833 134.014 77.7836C134.281 77.8839 134.51 78.0643 134.67 78.3001C134.938 78.6982 135.163 79.124 135.34 79.5701C135.4 79.7101 135.66 79.6501 135.61 79.4901C135.77 77.4801 134.39 74.6401 132.28 74.3301Z" fill="#263238"/>
<path d="M141.48 92L139.13 97.78L129.75 88L127 90.83C127 90.83 135 106.01 135.12 105.35L139.34 99.2L142.58 103.86L142.92 94.56L141.48 92Z" fill="#FFA4BB"/>
<path d="M143 98.4301C143 96.6101 143.09 96.4301 143 94.6601C143 94.6001 142.9 94.5701 142.88 94.6601C142.42 96.3901 142.44 101.66 142.34 103.3C142.17 103.1 139.34 99.1901 139.34 99.2401C138.63 100.24 135.34 104.69 135.13 105.1C133.86 102.69 128.98 93.9001 127.44 91.6101C127.433 91.5955 127.421 91.5842 127.406 91.5786C127.391 91.5729 127.374 91.5735 127.36 91.5801C127.345 91.5868 127.334 91.5989 127.328 91.6139C127.322 91.6289 127.323 91.6455 127.33 91.6601C128.43 94.1901 134.88 106.01 134.99 105.99C136.594 103.925 138.058 101.753 139.37 99.4901C139.98 100.32 142.77 104.71 142.8 104.49C142.974 102.475 143.041 100.452 143 98.4301Z" fill="#263238"/>
<path d="M207.985 156.431L157.188 198.319L182.567 229.095L233.363 187.207L207.985 156.431Z" fill="#FFA4BB"/>
<path opacity="0.1" d="M207.981 156.429L157.185 198.317L169.133 212.806L219.929 170.918L207.981 156.429Z" fill="black"/>
<path d="M205.444 150.925L152.248 194.792L164.094 209.158L217.29 165.291L205.444 150.925Z" fill="#FFA4BB"/>
<path d="M183.29 155.44L190.05 163.64L186.19 166.81L182.35 162.15L167.66 174.27L171.5 178.93L167.65 182.11L160.89 173.91L183.29 155.44Z" fill="#263238"/>
<path d="M172.036 196.844L168.572 199.7L174.228 206.559L177.692 203.702L172.036 196.844Z" fill="#263238"/>
<path d="M207.164 167.881L203.7 170.737L209.356 177.596L212.82 174.739L207.164 167.881Z" fill="#263238"/>
<path d="M119.33 101.84C111 120.16 109 140 113 144.53C118.7 150.99 138.39 161.96 148.41 165.44C151.35 166.44 158.86 143.39 155.71 142.29C151.91 140.97 130.64 132.14 130.31 131.9C129.62 131.38 129.1 108.98 129.18 103.34C129.32 92.9999 123.85 91.8799 119.33 101.84Z" fill="#D3766A"/>
<path d="M184.93 154.56C184.902 155.318 184.644 156.049 184.19 156.657C183.737 157.264 183.108 157.719 182.39 157.96C183.074 159.05 183.353 160.345 183.18 161.62C182.77 163.85 179.1 164.19 179.1 164.19C179.572 165.471 179.649 166.865 179.32 168.19C178.71 170.29 175.05 171.19 175.05 171.19C174.835 172.599 174.126 173.886 173.05 174.82C170.05 177.19 164.55 175.21 161.05 173.99C157.55 172.77 148.74 165.99 146.93 164.91L154.57 142.33C154.57 142.33 171.85 143.33 175.77 145.33C179 147 184.92 151.66 184.93 154.56Z" fill="#D3766A"/>
<path d="M182.36 157.54C179.28 154.89 175.59 153.29 171.99 151.54C171.982 151.532 171.972 151.527 171.962 151.524C171.952 151.521 171.94 151.52 171.93 151.522C171.919 151.524 171.909 151.528 171.9 151.535C171.891 151.541 171.884 151.55 171.879 151.56C171.875 151.569 171.872 151.58 171.872 151.591C171.872 151.602 171.875 151.613 171.88 151.622C171.884 151.632 171.892 151.641 171.9 151.647C171.909 151.654 171.919 151.658 171.93 151.66C175.53 153.41 178.73 155.86 182.25 157.75C182.278 157.765 182.31 157.767 182.34 157.758C182.355 157.753 182.369 157.746 182.381 157.736C182.393 157.726 182.403 157.714 182.41 157.7C182.417 157.686 182.422 157.671 182.423 157.656C182.424 157.64 182.423 157.624 182.418 157.61C182.413 157.595 182.406 157.581 182.396 157.569C182.386 157.557 182.374 157.547 182.36 157.54Z" fill="#263238"/>
<path d="M179.12 163.87C178.367 163.329 177.542 162.895 176.67 162.58C175.77 162.18 174.87 161.8 173.96 161.44C172.14 160.7 170.3 160.01 168.44 159.37C168.36 159.37 168.29 159.47 168.38 159.5C170.19 160.23 172 160.99 173.78 161.8L176.45 163.04C177.258 163.489 178.114 163.848 179 164.11C179.03 164.115 179.06 164.111 179.087 164.097C179.114 164.084 179.136 164.062 179.15 164.035C179.163 164.008 179.167 163.977 179.162 163.948C179.157 163.918 179.142 163.891 179.12 163.87Z" fill="#263238"/>
<path d="M175 171.11C174.306 170.65 173.538 170.312 172.73 170.11L170.23 169.11C168.56 168.46 166.89 167.8 165.23 167.11C165.15 167.11 165.08 167.2 165.17 167.24C166.83 167.97 168.49 168.72 170.17 169.43C170.99 169.79 171.82 170.13 172.64 170.43C173.363 170.815 174.149 171.069 174.96 171.18C174.968 171.179 174.975 171.176 174.982 171.172C174.989 171.168 174.994 171.162 174.998 171.155C175.002 171.148 175.004 171.141 175.004 171.133C175.005 171.125 175.003 171.117 175 171.11Z" fill="#263238"/>
<path d="M155 141.78L140.66 164.84C140.66 164.84 112.39 148.68 110.93 143.09C109.47 137.5 111.69 116.8 118.02 103.68C124.35 90.5599 129.82 91.7999 129.55 106.6C129.28 121.4 130.35 131.39 130.69 131.6C131.03 131.81 155 141.78 155 141.78Z" fill="#FFA4BB"/>
<path d="M128.77 116.14C128.317 114.893 128.317 113.527 128.77 112.28C129.223 113.527 129.223 114.893 128.77 116.14ZM140.32 135.68L139.71 135.43C139.679 135.685 139.662 135.942 139.66 136.2C139.656 136.855 139.772 137.506 140 138.12C140.234 137.507 140.349 136.856 140.34 136.2C140.34 136 140.33 135.86 140.32 135.68ZM113.78 134.49C113.794 133.831 113.682 133.177 113.45 132.56C112.997 133.803 112.997 135.167 113.45 136.41C113.681 135.797 113.793 135.145 113.78 134.49ZM126.15 153.49C125.917 154.106 125.801 154.761 125.81 155.42C125.81 155.53 125.81 155.64 125.81 155.75L126.42 156.16C126.435 155.913 126.435 155.666 126.42 155.42C126.459 154.762 126.367 154.102 126.15 153.48V153.49ZM116.74 107.25H116.44C116.35 107.46 116.27 107.68 116.19 107.89H116.74C117.396 107.904 118.049 107.788 118.66 107.55C118.047 107.322 117.394 107.217 116.74 107.24V107.25ZM115.85 148.6L116.32 148.98C116.46 148.942 116.597 148.895 116.73 148.84C116.449 148.72 116.153 148.636 115.85 148.59V148.6ZM128.08 128.31C128.734 128.331 129.386 128.226 130 128C128.754 127.547 127.387 127.547 126.14 128C126.761 128.227 127.42 128.329 128.08 128.3V128.31ZM137.31 150.11C137.97 150.123 138.625 150.007 139.24 149.77C137.991 149.33 136.629 149.33 135.38 149.77C135.996 150.006 136.652 150.118 137.31 150.1V150.11ZM138.88 163.11C138.424 162.637 137.881 162.257 137.28 161.99C137.541 162.583 137.915 163.119 138.38 163.57L139.84 164.43C139.593 163.93 139.269 163.471 138.88 163.07V163.11ZM116.41 121.23C115.956 120.755 115.412 120.374 114.81 120.11C115.078 120.71 115.458 121.253 115.93 121.71C116.391 122.177 116.933 122.557 117.53 122.83C117.27 122.214 116.89 121.656 116.41 121.19V121.23ZM129.06 99.5599L129.01 99.5099C128.551 99.034 128.004 98.6505 127.4 98.3799C127.673 98.9822 128.057 99.5283 128.53 99.9899C128.746 100.202 128.977 100.4 129.22 100.58C129.18 100.18 129.12 99.8399 129.06 99.5199V99.5599ZM150.32 143.93C149.861 143.46 149.319 143.081 148.72 142.81C148.991 143.411 149.375 143.954 149.85 144.41C150.305 144.885 150.849 145.265 151.45 145.53C151.182 144.916 150.798 144.36 150.32 143.89V143.93ZM126.59 140C126.114 140.457 125.734 141.005 125.47 141.61C126.071 141.339 126.614 140.956 127.07 140.48C127.54 140.021 127.92 139.478 128.19 138.88C127.592 139.151 127.05 139.53 126.59 140Z" fill="white"/>
<path d="M148.72 141.27C148.72 141.2 148.65 141.13 148.6 141.19C144.407 147.032 140.535 153.098 137 159.36C137 159.43 137.07 159.5 137.12 159.44C141.313 153.598 145.185 147.533 148.72 141.27Z" fill="#263238"/>
<path d="M119.87 151.37C117.408 149.818 115.147 147.967 113.14 145.86C112.019 144.845 111.267 143.488 111 142C110.844 140.592 110.804 139.174 110.88 137.76C110.99 131.678 111.66 125.619 112.88 119.66C113.582 116.35 114.457 113.079 115.5 109.86C115.5 109.8 115.43 109.78 115.41 109.86C114.471 112.192 113.666 114.576 113 117C113.099 115.521 113.28 114.049 113.54 112.59C113.54 112.53 113.45 112.5 113.44 112.59C113.215 113.556 113.044 114.534 112.93 115.52C112.86 116.27 112.82 117.02 112.8 117.77C111.882 121.227 111.177 124.737 110.69 128.28C110.265 131.362 110.035 134.469 110 137.58C109.911 139.071 109.958 140.567 110.14 142.05C110.35 143.359 110.937 144.579 111.83 145.56C114.159 147.96 116.861 149.969 119.83 151.51C119.845 151.508 119.859 151.501 119.87 151.491C119.882 151.481 119.89 151.468 119.895 151.453C119.899 151.438 119.899 151.422 119.894 151.408C119.89 151.393 119.881 151.38 119.87 151.37Z" fill="#263238"/>
<path d="M143.59 136.91C139.59 135.06 135.59 133.36 131.49 131.7C131.304 131.636 131.126 131.549 130.96 131.44C130.833 131.309 130.736 131.151 130.675 130.979C130.615 130.806 130.593 130.622 130.61 130.44C130.56 129.9 130.52 129.37 130.48 128.83C130.39 127.71 130.31 126.6 130.23 125.48C130.09 123.29 129.99 121.1 129.88 118.91C129.88 118.8 129.88 118.68 129.88 118.57C130.09 117.17 130.32 115.76 130.43 114.35C130.43 114.334 130.424 114.319 130.413 114.308C130.402 114.296 130.386 114.29 130.37 114.29C130.354 114.29 130.339 114.296 130.328 114.308C130.317 114.319 130.31 114.334 130.31 114.35C130.1 115.41 129.96 116.5 129.84 117.58C129.73 115.5 129.63 113.43 129.53 111.35H129.47C129.33 116.08 129.47 120.79 129.78 125.51C129.86 126.66 129.94 127.82 130.03 128.97C130.08 129.55 130.12 130.13 130.18 130.71C130.183 131.013 130.266 131.31 130.42 131.57C130.694 131.856 131.039 132.064 131.42 132.17L133.13 132.89L136.32 134.21C138.73 135.21 141.15 136.14 143.6 137.04C143.62 137.09 143.67 137 143.59 136.91Z" fill="#263238"/>
</svg>
