<svg width="500" height="500" viewBox="0 0 500 500" fill="none" xmlns="http://www.w3.org/2000/svg">
<path d="M85.2095 289.88L72.0795 290.16L65.4195 290.27C63.1995 290.32 60.9595 290.27 58.7295 290.32H58.2795V289.87L58.2295 278.68V278.18H58.7295L71.9695 278.24C76.3795 278.24 80.7895 278.35 85.2095 278.41H85.4795V278.68C85.4795 280.58 85.3895 282.47 85.3495 284.33L85.2095 289.88ZM85.2095 289.88L85.0695 284.23C85.0695 282.36 84.9495 280.52 84.9295 278.69L85.2095 278.96C80.7895 279.01 76.3795 279.12 71.9695 279.13L58.7295 279.19L59.2295 278.69L59.1695 289.88L58.7295 289.43C60.9095 289.43 63.0795 289.43 65.2695 289.49L71.8495 289.6L85.2095 289.88Z" fill="#EBEBEB"/>
<path d="M70.4398 304L57.3098 304.28L50.6498 304.39C48.4198 304.44 46.1898 304.39 43.9598 304.44H43.5098V304V292.81V292.31H43.9998L57.2398 292.37C61.6498 292.37 66.0598 292.48 70.4798 292.54H70.7498V292.81C70.7498 294.71 70.6598 296.6 70.6198 298.46L70.4398 304ZM70.4398 304L70.2898 298.34C70.2898 296.48 70.1798 294.64 70.1598 292.81L70.4398 293.08C66.0198 293.13 61.6098 293.24 57.1998 293.25L43.9998 293.3L44.4898 292.8L44.3998 304L43.9598 303.55C46.1398 303.55 48.3098 303.55 50.4998 303.61L57.0798 303.72L70.4398 304Z" fill="#EBEBEB"/>
<path d="M100 304L86.8701 304.28L80.2101 304.39C77.9901 304.44 75.7501 304.39 73.5201 304.44H73.0801V304V292.81V292.31H73.5801L86.8201 292.37C91.2301 292.37 95.6501 292.48 100.06 292.54H100.33V292.81C100.33 294.71 100.25 296.6 100.2 298.46L100 304ZM100 304L99.8601 298.34C99.8601 296.48 99.7401 294.64 99.7301 292.81L100 293.08C95.5901 293.13 91.1701 293.24 86.7601 293.25L73.5201 293.31L74.0201 292.81L73.9401 304L73.5001 303.55C75.6801 303.55 77.8601 303.55 80.0401 303.61L86.6201 303.72L100 304Z" fill="#EBEBEB"/>
<path d="M441.27 304L428.15 304.28L421.49 304.39C419.26 304.44 417.02 304.39 414.79 304.44H414.35V304L414.29 292.81V292.31H414.79L428.03 292.37C432.45 292.37 436.86 292.48 441.27 292.54H441.55V292.81C441.55 294.71 441.46 296.6 441.42 298.46L441.27 304ZM441.27 304L441.13 298.34C441.13 296.48 441.02 294.64 441 292.81L441.27 293.08C436.86 293.13 432.45 293.24 428.03 293.25L414.79 293.31L415.29 292.81L415.24 304L414.79 303.55C416.97 303.55 419.15 303.55 421.34 303.61L427.92 303.72L441.27 304Z" fill="#EBEBEB"/>
<path d="M441.27 85.77L428.15 86L421.49 86.12C419.26 86.12 417.02 86.12 414.79 86.12H414.35V85.68L414.29 74.49V73.98H414.79L428.03 74.04C432.45 74.04 436.86 74.15 441.27 74.2H441.55V74.47C441.55 76.36 441.46 78.25 441.42 80.12L441.27 85.77ZM441.27 85.77L441.13 80.11C441.13 78.25 441.02 76.41 441 74.58L441.27 74.85C436.86 74.9 432.45 75.01 428.03 75.01L414.79 75.07L415.29 74.58L415.24 85.77L414.79 85.32C416.97 85.32 419.15 85.32 421.34 85.37L427.92 85.49L441.27 85.77Z" fill="#EBEBEB"/>
<path d="M456 99.8799L442.88 100.15L436.22 100.27C433.99 100.27 431.76 100.27 429.52 100.27H429.08V99.8299L429.02 88.6399V88.1299H429.52L442.76 88.1899C447.18 88.1899 451.59 88.2999 456 88.3499H456.28V88.6199C456.28 90.5099 456.19 92.3999 456.15 94.2699L456 99.8799ZM456 99.8799L455.86 94.2199C455.86 92.3599 455.75 90.5199 455.73 88.6899L456 88.9999C451.59 89.0499 447.18 89.1599 442.76 89.1599L429.52 89.2199L430.02 88.7299L430 99.8799L429.55 99.4299C431.74 99.4299 433.91 99.4299 436.1 99.4299L442.68 99.5499L456 99.8799Z" fill="#EBEBEB"/>
<path d="M70.4398 85.7798L57.3098 86.0598L50.6498 86.1698C48.4198 86.1698 46.1898 86.1698 43.9598 86.1698H43.5098V85.7198V74.5298V74.0298H43.9998L57.2398 74.0898C61.6498 74.0898 66.0598 74.1998 70.4798 74.2498H70.7498V74.5198C70.7498 76.4198 70.6598 78.2998 70.6198 80.1698L70.4398 85.7798ZM70.4398 85.7798L70.2898 80.1198C70.2898 78.2598 70.1798 76.4198 70.1598 74.5898L70.4398 74.8598C66.0198 74.8598 61.6098 75.0198 57.1998 75.0198L43.9998 75.0898L44.4898 74.5898L44.3998 85.7798L43.9998 85.3298C46.1798 85.3298 48.3498 85.3298 50.5398 85.3898L57.1198 85.4998L70.4398 85.7798Z" fill="#EBEBEB"/>
<path d="M213.789 160.83L226.91 160.55L233.57 160.44C235.8 160.39 238.04 160.44 240.27 160.39H240.71V160.84L240.77 172.03V172.53H240.27L226.999 172.46C222.579 172.46 218.169 172.35 213.759 172.3H213.479V172C213.479 170.1 213.569 168.22 213.609 166.35L213.789 160.83ZM213.789 160.83L213.929 166.49C213.929 168.35 214.039 170.19 214.059 172.02L213.789 171.75C218.199 171.7 222.609 171.59 227.029 171.59L240.27 171.52L239.77 172.02V160.83L240.219 161.28C238.039 161.28 235.859 161.28 233.669 161.22L227.089 161.11L213.789 160.83Z" fill="#EBEBEB"/>
<path d="M228.56 146.72L241.68 146.44L248.34 146.33C250.57 146.28 252.81 146.33 255.04 146.28H255.48V146.73L255.54 157.92V158.42H255L241.76 158.36C237.35 158.36 232.93 158.25 228.52 158.2H228.24V157.93C228.24 156.03 228.32 154.15 228.37 152.28L228.56 146.72ZM228.56 146.72L228.7 152.38C228.75 154.24 228.81 156.08 228.83 157.91L228.56 157.64C232.97 157.64 237.39 157.48 241.8 157.48L255.04 157.41L254.54 157.91L254.59 146.72L255.04 147.17C252.86 147.17 250.68 147.17 248.49 147.11L241.91 147L228.56 146.72Z" fill="#EBEBEB"/>
<path d="M432.38 329.32H353.96V437.85H432.38V329.32Z" fill="#EBEBEB"/>
<path d="M436.18 325.3H350.16V329.33H436.18V325.3Z" fill="#DBDBDB"/>
<path d="M463.23 325.3H436.18V329.33H463.23V325.3Z" fill="#EBEBEB"/>
<path d="M458.95 329.32H432.38V437.85H458.95V329.32Z" fill="#DBDBDB"/>
<path d="M424 379.58H362.37V344.75H424V379.58ZM362.66 379.33H423.75V345H362.62L362.66 379.33Z" fill="#C7C7C7"/>
<path d="M396.56 354.94H384.58V361.83H396.56V354.94Z" fill="#C7C7C7"/>
<path d="M400.22 361.43H388V355.33H400.22V361.43ZM388.22 361.18H400V355.58H388.25L388.22 361.18Z" fill="#C7C7C7"/>
<path d="M424 423.27H362.37V388.44H424V423.27ZM362.62 423H423.71V388.69H362.62V423Z" fill="#C7C7C7"/>
<path d="M396.56 398.63H384.58V405.52H396.56V398.63Z" fill="#C7C7C7"/>
<path d="M400.22 405.12H388V399H400.22V405.12ZM388.22 404.87H400V399.28H388.25L388.22 404.87Z" fill="#C7C7C7"/>
<path d="M250 462.09C350.234 462.09 431.49 458.32 431.49 453.67C431.49 449.02 350.234 445.25 250 445.25C149.766 445.25 68.5098 449.02 68.5098 453.67C68.5098 458.32 149.766 462.09 250 462.09Z" fill="#EBEBEB"/>
<path d="M268.23 338.11H250.78V406.2H268.23V338.11Z" fill="#455A64"/>
<path d="M268.23 409.56H250.78V420.77H268.23V409.56Z" fill="#455A64"/>
<path d="M268.23 424.14H250.78V431.05H268.23V424.14Z" fill="#455A64"/>
<path d="M268.23 434.42H250.78V437.85H268.23V434.42Z" fill="#455A64"/>
<path d="M274.05 338.11H244.96L259.5 317.98L274.05 338.11Z" fill="#455A64"/>
<path d="M302.97 316.47H285.52V406.2H302.97V316.47Z" fill="#455A64"/>
<path d="M302.97 409.56H285.52V420.77H302.97V409.56Z" fill="#455A64"/>
<path d="M302.97 424.14H285.52V431.05H302.97V424.14Z" fill="#455A64"/>
<path d="M302.97 434.42H285.52V437.85H302.97V434.42Z" fill="#455A64"/>
<path d="M308.79 316.46H279.7L294.24 296.34L308.79 316.46Z" fill="#455A64"/>
<path d="M337.71 294.83H320.26V406.2H337.71V294.83Z" fill="#455A64"/>
<path d="M337.71 409.56H320.26V420.77H337.71V409.56Z" fill="#455A64"/>
<path d="M337.71 424.14H320.26V431.05H337.71V424.14Z" fill="#455A64"/>
<path d="M337.71 434.42H320.26V437.85H337.71V434.42Z" fill="#455A64"/>
<path d="M343.52 294.82H314.44L328.98 274.7L343.52 294.82Z" fill="#455A64"/>
<path d="M372.44 273.19H354.99V406.2H372.44V273.19Z" fill="#455A64"/>
<path d="M372.44 409.56H354.99V420.77H372.44V409.56Z" fill="#455A64"/>
<path d="M372.44 424.14H354.99V431.05H372.44V424.14Z" fill="#455A64"/>
<path d="M372.44 434.42H354.99V437.85H372.44V434.42Z" fill="#455A64"/>
<path d="M378.26 273.19H349.18L363.72 253.06L378.26 273.19Z" fill="#455A64"/>
<path d="M405.02 177.73L84.8999 437.85H43.8799V392.24H89.2599V355.36H134.65V318.49H180.03V281.61H225.41V244.73H270.81V207.85H316.19V170.97L361.57 134.1V134.09L364 132.12L405.02 177.73Z" fill="#FFA4BB"/>
<path opacity="0.1" d="M405.02 177.73L84.8999 437.85H43.8799V392.24H89.2599V355.36H134.65V318.49H180.03V281.61H225.41V244.73H270.81V207.85H316.19V170.97L361.57 134.1V134.09L364 132.12L405.02 177.73Z" fill="black"/>
<path d="M394.06 224.52L369.69 166.97L311.79 136.08L456.13 96.73L394.06 224.52Z" fill="#FFA4BB"/>
<g opacity="0.1">
<path d="M394.06 224.52L369.69 166.97L311.79 136.08L456.13 96.73L394.06 224.52Z" fill="black"/>
</g>
<g opacity="0.1">
<path d="M104.85 355.36H89.2598V392.23H104.85V355.36Z" fill="black"/>
<path d="M150.24 318.49H134.65V355.36H150.24V318.49Z" fill="black"/>
<path d="M195.63 281.61H180.04V318.48H195.63V281.61Z" fill="black"/>
<path d="M241.02 244.74H225.43V281.61H241.02V244.74Z" fill="black"/>
<path d="M286.41 207.87H270.82V244.74H286.41V207.87Z" fill="black"/>
<path d="M331.81 207.87H316.22V170.99L331.81 158.28V207.87Z" fill="black"/>
<path d="M59.4601 392.23H43.8701V437.85H59.4601V392.23Z" fill="black"/>
</g>
<path d="M127.43 90.8599C106.75 94.0499 86.3197 100.52 83.7197 106.37C80.2297 114.24 81.3097 134.57 82.8397 145.07C83.2897 148.15 107.23 144.16 106.75 140.86C106.17 136.86 102.85 116.3 102.92 115.86C103.06 115.01 123.27 101.94 128.17 98.9299C136.37 93.9999 136.61 89.4499 127.43 90.8599Z" fill="#D3766A"/>
<path d="M86.0002 160.7C83.5402 156.11 82.2802 144.8 83.0002 142C83.7202 139.2 102.92 136.37 105.09 138.47C107.26 140.57 114.18 156.65 113.17 161.84C112.16 167.03 88.4502 165.46 86.0002 160.7Z" fill="#D3766A"/>
<path d="M113.14 153.49C110.79 152.07 110.46 155.66 110.46 155.66C110.46 155.66 109.69 150.38 106.7 149.86C103.71 149.34 103.57 153.7 103.55 154.01C103.55 153.73 102.67 148.91 99.6102 148.69C96.5502 148.47 96.9402 152.87 96.9702 153.15C96.8502 152.9 95.1602 149.62 92.8002 149.98C88.7402 150.61 92.8002 159.11 91.5902 162.2C91.5902 162.2 86.1202 160.71 85.9502 160.7C85.9502 160.7 89.6702 168.87 93.9502 170.3C94.5662 170.519 95.2386 170.52 95.8554 170.304C96.4722 170.087 96.9962 169.666 97.3402 169.11C97.3402 169.11 98.2502 171.88 100.65 172.11C101.89 172.23 103.18 170.37 103.18 170.37C103.42 170.99 103.828 171.53 104.358 171.931C104.888 172.332 105.519 172.577 106.18 172.64C107.89 172.72 108.93 170.84 108.93 170.84C108.93 170.84 110.69 172.57 112.47 172.08C116 171.11 118.17 156.54 113.14 153.49Z" fill="#D3766A"/>
<path d="M109.1 170.59C109.1 170.59 109.15 170.66 109.17 170.59C111.137 165.791 111.601 160.508 110.5 155.44C110.5 155.28 110.18 155.28 110.19 155.44C110.562 160.516 110.195 165.619 109.1 170.59Z" fill="#263238"/>
<path d="M103.18 170.47C103.18 170.52 103.26 170.55 103.28 170.47C105.399 165.158 105.551 159.264 103.71 153.85C103.64 153.67 103.39 153.57 103.45 153.79C104.53 157.54 104.28 165.83 103.18 170.47Z" fill="#263238"/>
<path d="M96.7004 152.82C98.4504 158.13 98.3304 163.46 97.4104 168.92C97.4104 168.99 97.5004 169 97.5304 168.92C98.7004 166.37 98.9204 162.83 98.8604 160.06C98.8473 157.487 98.1575 154.962 96.8604 152.74C96.8304 152.67 96.6604 152.71 96.7004 152.82Z" fill="#263238"/>
<path d="M110.46 155.66C110.214 154.662 109.88 153.688 109.46 152.75C109.087 151.825 108.476 151.014 107.69 150.4C107.316 150.143 106.86 150.033 106.41 150.09C105.952 150.152 105.518 150.331 105.15 150.61C104.805 150.916 104.53 151.292 104.342 151.712C104.154 152.133 104.058 152.589 104.06 153.05L103.96 155.3L103.27 153.16C102.974 152.202 102.521 151.3 101.93 150.49C101.68 150.098 101.351 149.763 100.963 149.506C100.576 149.25 100.138 149.077 99.6799 149C99.2592 148.948 98.8332 149.039 98.4705 149.259C98.1077 149.478 97.8293 149.813 97.6799 150.21C97.3667 151.123 97.2876 152.099 97.4499 153.05L97.8099 155.69L96.6099 153.33C96.2728 152.672 95.8563 152.057 95.3699 151.5C94.9246 150.958 94.3301 150.558 93.66 150.35C93.3539 150.269 93.0313 150.276 92.729 150.37C92.4267 150.464 92.1567 150.641 91.9499 150.88C91.5651 151.476 91.3602 152.171 91.3599 152.88C91.3379 154.425 91.4348 155.97 91.6499 157.5C91.7299 158.28 91.8099 159.06 91.8599 159.84C91.9501 160.624 91.8717 161.419 91.6299 162.17C91.7796 161.407 91.7796 160.623 91.6299 159.86C91.5299 159.09 91.3899 158.32 91.2499 157.56C90.9178 156.011 90.7369 154.434 90.7099 152.85C90.6736 151.995 90.8929 151.149 91.3399 150.42C91.6243 150.047 92.0114 149.765 92.4537 149.609C92.896 149.452 93.3743 149.429 93.8299 149.54C94.677 149.779 95.4329 150.267 95.9999 150.94C96.5611 151.54 97.0387 152.213 97.4199 152.94L96.5799 153.22C96.3652 152.098 96.4479 150.94 96.8199 149.86C97.0449 149.266 97.469 148.767 98.0199 148.45C98.5685 148.158 99.1926 148.04 99.8099 148.11C100.391 148.202 100.946 148.415 101.438 148.735C101.931 149.056 102.351 149.476 102.67 149.97C103.316 150.88 103.8 151.895 104.1 152.97L103.31 153.07C103.331 152.498 103.477 151.937 103.738 151.428C103.999 150.918 104.368 150.472 104.82 150.12C105.292 149.797 105.84 149.6 106.41 149.55C106.977 149.505 107.541 149.665 108 150C108.818 150.702 109.421 151.621 109.74 152.65C110.09 153.624 110.331 154.633 110.46 155.66Z" fill="#263238"/>
<path d="M106.77 141C106.77 141 123.84 154.87 115.15 158.89C112.56 160.08 100.53 161.89 100.15 159.49C99.6202 156.38 104.5 154.68 107.73 154.1C107.73 154.1 101.26 150.2 102.64 144.89C102.906 143.925 103.432 143.052 104.16 142.366C104.889 141.68 105.791 141.208 106.77 141Z" fill="#D3766A"/>
<path d="M115.85 158.46C114.893 159.048 113.856 159.492 112.77 159.78C111.691 160.094 110.592 160.335 109.48 160.5C107.257 160.873 105.005 161.05 102.75 161.03C102.153 161.025 101.561 160.934 100.99 160.76C100.66 160.657 100.356 160.483 100.1 160.25C99.9585 160.125 99.8401 159.976 99.7501 159.81C99.6656 159.642 99.605 159.464 99.5701 159.28C99.4685 158.613 99.6105 157.931 99.9701 157.36C100.306 156.841 100.729 156.385 101.22 156.01C102.159 155.319 103.212 154.798 104.33 154.47C105.408 154.12 106.511 153.852 107.63 153.67L107.51 154.39C106.793 153.919 106.123 153.38 105.51 152.78C104.89 152.19 104.331 151.54 103.84 150.84C103.359 150.132 102.985 149.357 102.73 148.54C102.475 147.729 102.376 146.877 102.44 146.03C102.485 146.862 102.671 147.68 102.99 148.45C103.311 149.203 103.731 149.909 104.24 150.55C104.747 151.192 105.316 151.781 105.94 152.31C106.56 152.843 107.23 153.315 107.94 153.72L108.81 154.21L107.81 154.44C106.739 154.655 105.683 154.942 104.65 155.3C103.64 155.629 102.689 156.115 101.83 156.74C101.43 156.992 101.1 157.341 100.873 157.756C100.645 158.171 100.527 158.637 100.53 159.11C100.6 159.87 101.8 160.11 102.84 160.11C103.936 160.165 105.034 160.165 106.13 160.11C107.24 160.11 108.34 160.01 109.44 159.89C111.639 159.752 113.802 159.27 115.85 158.46Z" fill="#263238"/>
<path d="M107.56 140.08L80.6501 139.69C80.6501 139.69 78.6501 111.15 84.5001 104.8C88.4201 100.55 109.35 92.6299 123.8 90.7999C138.25 88.9699 138.09 93.5499 125.55 101.41C113.01 109.27 103.78 115.77 103.78 116.17C103.78 116.57 107.56 140.08 107.56 140.08Z" fill="#FFA4BB"/>
<path d="M104 112.81C103.56 111.561 103.56 110.199 104 108.95C104.453 110.197 104.453 111.563 104 112.81ZM81.4797 122.81C81.4927 122.151 81.3772 121.495 81.1397 120.88C80.6865 122.127 80.6865 123.493 81.1397 124.74C81.3648 124.116 81.4634 123.453 81.4297 122.79L81.4797 122.81ZM114.86 107.6C115.099 107.696 115.347 107.77 115.6 107.82L116.43 107.27C115.876 107.28 115.328 107.385 114.81 107.58L114.86 107.6ZM101.62 125.21C102.275 125.219 102.927 125.104 103.54 124.87C102.928 124.632 102.276 124.516 101.62 124.53C100.961 124.521 100.306 124.636 99.6897 124.87C100.293 125.086 100.929 125.195 101.57 125.19L101.62 125.21ZM85.3497 107.92C86.0058 107.934 86.6582 107.818 87.2697 107.58C86.6582 107.342 86.0058 107.226 85.3497 107.24C84.6906 107.23 84.0357 107.346 83.4197 107.58C84.037 107.81 84.691 107.925 85.3497 107.92ZM88.3497 132.34C87.8951 131.865 87.3514 131.485 86.7497 131.22C87.0203 131.821 87.4039 132.364 87.8797 132.82C88.3389 133.289 88.8814 133.669 89.4797 133.94C89.209 133.339 88.8254 132.796 88.3497 132.34ZM96.8997 101.76C96.4418 101.287 95.899 100.903 95.2997 100.63C95.5642 101.232 95.9448 101.776 96.4197 102.23C96.8756 102.706 97.4188 103.089 98.0197 103.36C97.7489 102.762 97.3691 102.219 96.8997 101.76ZM127.4 98.3301C127.605 98.8021 127.885 99.2378 128.23 99.6201C128.42 99.4901 128.6 99.3701 128.77 99.2401C128.368 98.8616 127.904 98.5539 127.4 98.3301ZM97.7797 138.62C97.3838 139.001 97.0468 139.44 96.7797 139.92H97.2097C97.5701 139.678 97.9051 139.4 98.2097 139.09C98.6832 138.634 99.0636 138.091 99.3297 137.49C98.7479 137.768 98.2224 138.151 97.7797 138.62ZM111.47 98.6801C110.994 99.1398 110.61 99.6863 110.34 100.29C111.536 99.7205 112.5 98.7565 113.07 97.5601C112.471 97.8309 111.929 98.2107 111.47 98.6801ZM91.4697 117.41C90.9948 117.865 90.6142 118.408 90.3497 119.01C91.5481 118.452 92.5112 117.488 93.0697 116.29C92.4658 116.556 91.9191 116.936 91.4597 117.41H91.4697Z" fill="white"/>
<path d="M105 135.11C105.08 135.11 105.08 134.98 105 134.97C97.5121 134.256 89.9919 133.932 82.4702 134C82.3902 134 82.3902 134.13 82.4702 134.14C89.9579 134.859 97.4783 135.182 105 135.11Z" fill="#263238"/>
<path opacity="0.1" d="M125.55 101.38C113 109.23 103.78 115.74 103.78 116.14C103.78 116.54 107.56 140.08 107.56 140.08L80.6501 139.69C80.6501 139.69 80.2901 134.58 80.3201 128.21L131.61 90.5C137.48 91.27 135.13 95.38 125.55 101.38Z" fill="black"/>
<path d="M192.49 318.77C190.65 319.38 138.24 318.97 136.25 317.68C135.49 317.21 141.12 270.68 141.12 270.68L174.85 271L168.7 300.53C168.7 300.53 188.7 309.66 190.7 311.3C192.7 312.94 194.32 318.18 192.49 318.77Z" fill="#D3766A"/>
<path d="M192.49 318.77C190.65 319.38 138.24 318.97 136.25 317.68C135.88 317.45 137.03 306.25 138.3 294.84H169.88L168.7 300.49C168.7 300.49 188.7 309.62 190.7 311.26C192.7 312.9 194.32 318.18 192.49 318.77Z" fill="#EBEBEB"/>
<path d="M193.26 319C191.39 319.63 137.99 319.61 135.96 318.31C135.18 317.83 137.38 300.18 137.38 300.08L168.91 299.97V300.56C168.91 300.56 189.35 309.71 191.43 311.37C193.51 313.03 195.13 318.37 193.26 319Z" fill="#FFA4BB"/>
<path d="M192.66 316.92C183.66 316.7 147.33 316.64 138.41 317.1C138.34 317.1 138.34 317.1 138.41 317.16C147.33 317.57 183.66 317.34 192.66 317.07C192.85 317.06 192.85 316.93 192.66 316.92Z" fill="#263238"/>
<path d="M172.74 300.06C169.2 299.4 164.87 299.94 162.16 302.46C162.05 302.56 162.16 302.71 162.31 302.67C165.696 301.581 169.189 300.856 172.73 300.51C172.782 300.5 172.829 300.473 172.863 300.433C172.897 300.393 172.916 300.342 172.917 300.289C172.919 300.236 172.902 300.185 172.869 300.143C172.837 300.101 172.791 300.072 172.74 300.06Z" fill="#263238"/>
<path d="M175.3 301.6C171.75 300.94 167.42 301.48 164.71 304C164.61 304.1 164.71 304.25 164.86 304.21C168.247 303.122 171.74 302.397 175.28 302.05C175.332 302.042 175.38 302.016 175.415 301.976C175.451 301.937 175.471 301.886 175.473 301.833C175.476 301.78 175.46 301.728 175.428 301.686C175.397 301.643 175.351 301.613 175.3 301.6Z" fill="#263238"/>
<path d="M177.85 303.15C174.31 302.48 169.98 303.02 167.27 305.55C167.16 305.64 167.27 305.79 167.42 305.76C170.806 304.668 174.3 303.94 177.84 303.59C177.899 303.591 177.955 303.569 177.997 303.529C178.039 303.489 178.064 303.433 178.065 303.375C178.067 303.316 178.045 303.26 178.004 303.218C177.964 303.176 177.909 303.151 177.85 303.15Z" fill="#263238"/>
<path d="M171.65 299.67L136.29 299.48C136.29 299.48 146.7 226.23 145.8 223.21C145.44 222.04 107.14 184.86 107.14 184.86C91.8798 169.81 96.4598 145.53 96.4598 145.53H140.46C140.46 145.53 138.46 156.26 140.73 158.6C143.51 161.44 176.73 197.28 181.05 208.7C186.86 224 171.65 299.67 171.65 299.67Z" fill="#37474F"/>
<path d="M171.2 292.66C165.76 292.31 167.33 292.32 161.88 292.04C159.22 291.91 141.72 291.04 139.21 291.45C139.16 291.45 139.15 291.57 139.21 291.59C141.68 292.19 159.21 292.68 161.86 292.75C167.3 292.9 165.74 292.75 171.19 292.86C171.29 292.86 171.3 292.67 171.2 292.66Z" fill="#263238"/>
<path d="M142.64 160.59L126 203.22C116.51 193.91 107.19 184.86 107.19 184.86C91.9296 169.81 96.5096 145.53 96.5096 145.53H140.51C140.51 145.53 138.51 156.26 140.78 158.6C141.06 158.91 141.71 159.59 142.64 160.59Z" fill="#263238"/>
<path d="M113.08 355.67C111.17 355.9 59.8999 344.97 58.2099 343.31C57.5599 342.69 58.7199 335.13 60.3799 326.03C60.3799 325.94 60.3799 325.84 60.3799 325.75C60.7199 323.87 69.7499 292.5 69.7499 292.5L103.16 300.37L93.5399 332.43L93.3999 332.99C93.3999 332.99 111.16 345.99 112.82 347.99C114.48 349.99 115 355.46 113.08 355.67Z" fill="#D3766A"/>
<path d="M113.08 355.67C111.17 355.9 59.8999 344.97 58.2099 343.31C57.5599 342.69 58.7199 335.13 60.3799 326.03C60.3799 325.94 60.3799 325.84 60.3799 325.75C60.4699 325.26 61.1599 322.75 62.1299 319.25L95.3199 326.49L93.5399 332.43L93.3999 332.99C93.3999 332.99 111.16 345.99 112.82 347.99C114.48 349.99 115 355.46 113.08 355.67Z" fill="#EBEBEB"/>
<path d="M113.57 355.88C111.57 356.1 59.4096 344.88 57.6996 343.15C57.0396 342.52 58.2296 334.82 59.9496 325.55V325.26L93.7096 332.15L93.5796 332.72C93.5796 332.72 111.68 346 113.37 348C115.06 350 115.52 355.66 113.57 355.88Z" fill="#FFA4BB"/>
<path d="M113.41 353.73C104.66 351.61 69.1599 343.91 60.3499 342.49C60.2699 342.49 60.2599 342.49 60.3499 342.54C68.9799 344.83 104.55 352.24 113.4 353.87C113.57 353.9 113.6 353.77 113.41 353.73Z" fill="#263238"/>
<path d="M97.4901 333.05C94.1701 331.66 89.8201 331.28 86.6401 333.17C86.5201 333.25 86.6401 333.42 86.7401 333.41C90.2794 333.056 93.8464 333.083 97.3801 333.49C97.4342 333.494 97.4882 333.479 97.5322 333.447C97.5763 333.415 97.6078 333.369 97.6209 333.316C97.6341 333.264 97.6282 333.208 97.6043 333.159C97.5803 333.11 97.5398 333.072 97.4901 333.05Z" fill="#263238"/>
<path d="M99.6597 335.1C96.3397 333.7 91.9897 333.32 88.8097 335.22C88.6897 335.29 88.8097 335.47 88.9197 335.46C92.4587 335.103 96.0257 335.127 99.5597 335.53C99.588 335.536 99.6172 335.537 99.6458 335.533C99.6744 335.528 99.7018 335.518 99.7264 335.502C99.751 335.487 99.7724 335.467 99.7892 335.443C99.8061 335.42 99.8182 335.393 99.8247 335.365C99.8313 335.337 99.8322 335.307 99.8275 335.279C99.8228 335.25 99.8124 335.223 99.7971 335.198C99.7818 335.174 99.7618 335.152 99.7382 335.135C99.7146 335.118 99.688 335.106 99.6597 335.1Z" fill="#263238"/>
<path d="M101.84 337.14C98.5202 335.75 94.1702 335.37 90.9902 337.26C90.8602 337.34 90.9902 337.51 91.0902 337.5C94.6295 337.147 98.1966 337.174 101.73 337.58C101.784 337.584 101.838 337.569 101.882 337.537C101.926 337.506 101.958 337.459 101.971 337.407C101.984 337.354 101.978 337.298 101.954 337.249C101.93 337.201 101.89 337.162 101.84 337.14Z" fill="#263238"/>
<path d="M132.06 145.53C132.06 145.53 134.92 170.04 129.86 175.62C129.86 175.62 120.86 232.06 117.7 248.32C113.47 269.78 96.46 331.88 96.46 331.88L59 325.55C59 325.55 81.07 245.06 81.25 243.66C82.25 235.73 91.25 180.66 90.76 179.29C86.07 165.29 92.84 145.53 92.84 145.53H132.06Z" fill="#37474F"/>
<path d="M140.49 145.53C140.49 145.53 136.92 171.43 129.86 175.62C129.86 175.62 120.86 232.06 117.7 248.32C113.47 269.78 96.46 331.88 96.46 331.88L59 325.55C59 325.55 81.07 245.06 81.25 243.66C82.25 235.73 91.25 180.66 90.76 179.29C86.07 165.29 92.84 145.53 92.84 145.53H140.49Z" fill="#37474F"/>
<path d="M96.3002 324.17C90.7602 322.94 92.3701 323.17 86.8201 322.03C84.1101 321.46 66.2601 317.74 63.6201 317.73C63.5601 317.73 63.5401 317.85 63.6201 317.87C66.0701 318.87 83.9901 322.23 86.7101 322.74C92.2901 323.74 90.7101 323.4 96.2901 324.37C96.3601 324.38 96.4002 324.2 96.3002 324.17Z" fill="#263238"/>
<path d="M135 172.81C131.054 174.242 127.239 176.016 123.6 178.11C123.569 178.125 123.544 178.151 123.532 178.184C123.52 178.217 123.521 178.253 123.535 178.285C123.55 178.317 123.577 178.342 123.609 178.354C123.642 178.366 123.679 178.365 123.71 178.35C127.55 176.7 131.46 175.12 135.21 173.26C135.263 173.228 135.301 173.178 135.319 173.119C135.336 173.06 135.331 172.997 135.306 172.942C135.28 172.886 135.234 172.842 135.178 172.818C135.122 172.794 135.059 172.791 135 172.81Z" fill="#263238"/>
<path d="M136.18 146.46C136.18 146.33 135.94 146.3 135.94 146.46C135.94 151.02 135.68 155.03 135.3 159.29C135.12 161.29 133.53 172.2 130.1 171.4C129.52 171.27 129.23 170.7 129.1 169.84C129.11 168.705 129.265 167.576 129.56 166.48C129.94 164.2 130.24 161.9 130.44 159.59C130.833 155.287 130.786 150.954 130.3 146.66C130.3 146.631 130.288 146.603 130.268 146.582C130.247 146.562 130.219 146.55 130.19 146.55C130.161 146.55 130.133 146.562 130.112 146.582C130.092 146.603 130.08 146.631 130.08 146.66C130.181 152.628 129.83 158.595 129.03 164.51C128.6 167.35 127.17 171.63 130.15 172.07C133.13 172.51 135.15 165.35 135.5 163.39C136.457 157.8 136.685 152.109 136.18 146.46Z" fill="#263238"/>
<path d="M130.19 171.67C129.884 172.409 129.627 173.167 129.42 173.94C129.196 174.534 129.087 175.165 129.1 175.8C129.1 175.92 129.27 175.93 129.33 175.8C129.691 175.243 129.961 174.632 130.13 173.99C130.39 173.29 130.67 172.59 130.91 171.89C130.924 171.799 130.905 171.707 130.857 171.629C130.808 171.551 130.733 171.493 130.645 171.466C130.558 171.439 130.463 171.445 130.379 171.483C130.296 171.52 130.228 171.587 130.19 171.67Z" fill="#263238"/>
<path d="M95.26 160.64C96.09 160.49 97.2599 160.79 100.92 160.54C101.932 160.458 102.935 160.294 103.92 160.05C104.91 159.897 105.851 159.517 106.67 158.94C107.979 157.706 109.044 156.237 109.81 154.61C110.769 152.935 111.508 151.143 112.01 149.28C112.01 149.16 112.2 149.22 112.18 149.33C111.99 150.33 111.88 151.44 111.6 152.48C111.341 153.461 111.007 154.42 110.6 155.35C109.941 157.183 108.83 158.82 107.37 160.11C105.74 161.34 103.47 161.56 101.5 161.7C100.36 161.78 95.8799 161.7 95.2799 161.02C95.0899 160.91 95.1 160.66 95.26 160.64Z" fill="#263238"/>
<path d="M141.61 155.62C140.61 156.32 92.3601 145.69 92.1701 145.31C91.6301 144.31 115.67 95.8299 129.44 89.0399C132.44 87.5799 139.83 90.6299 141.36 92.7599C142.31 94.0999 143.42 101.76 144.05 108.08C145.32 120.64 142.48 155 141.61 155.62Z" fill="#FFA4BB"/>
<path d="M128.77 116.14C128.317 114.893 128.317 113.527 128.77 112.28C129.223 113.527 129.223 114.893 128.77 116.14ZM140.34 136.2C140.355 135.541 140.239 134.885 140 134.27C139.76 134.885 139.645 135.541 139.66 136.2C139.656 136.855 139.771 137.506 140 138.12C140.233 137.507 140.349 136.856 140.34 136.2ZM113.78 134.49C113.793 133.832 113.681 133.177 113.45 132.56C112.996 133.803 112.996 135.167 113.45 136.41C113.68 135.797 113.792 135.145 113.78 134.49ZM116.78 107.92C117.436 107.934 118.088 107.818 118.7 107.58C118.088 107.342 117.436 107.226 116.78 107.24C116.121 107.23 115.466 107.346 114.85 107.58C115.454 107.805 116.094 107.92 116.74 107.92H116.78ZM114.85 149.17C115.509 149.183 116.165 149.068 116.78 148.83C115.533 148.377 114.166 148.377 112.92 148.83C113.522 149.064 114.164 149.18 114.81 149.17H114.85ZM102.47 124.57C102.37 124.77 102.26 124.97 102.14 125.16C102.617 125.134 103.086 125.029 103.53 124.85C103.178 124.707 102.807 124.613 102.43 124.57H102.47ZM140.32 91.73C139.799 91.7497 139.285 91.8579 138.8 92.05C139.414 92.2895 140.07 92.4051 140.73 92.39H141C140.774 92.1545 140.534 91.934 140.28 91.73H140.32ZM128.12 128.3C128.76 128.319 129.398 128.218 130 128C128.753 127.547 127.386 127.547 126.14 128C126.76 128.227 127.42 128.329 128.08 128.3H128.12ZM137.35 150.1C138.009 150.113 138.665 149.997 139.28 149.76C138.031 149.32 136.669 149.32 135.42 149.76C136.022 149.994 136.664 150.11 137.31 150.1H137.35ZM116.45 121.19C115.995 120.715 115.451 120.335 114.85 120.07C115.117 120.67 115.497 121.213 115.97 121.67C116.431 122.137 116.973 122.517 117.57 122.79C117.293 122.185 116.899 121.641 116.41 121.19H116.45ZM129 99.46C128.54 98.9841 127.993 98.6006 127.39 98.33C127.952 99.5318 128.918 100.498 130.12 101.06C129.849 100.462 129.469 99.9192 129 99.46ZM140.44 121.93C139.983 121.457 139.44 121.077 138.84 120.81C139.406 122.007 140.371 122.968 141.57 123.53C141.302 122.93 140.922 122.387 140.45 121.93H140.44ZM140 106.55C139.524 107.006 139.14 107.549 138.87 108.15C140.066 107.58 141.03 106.616 141.6 105.42C140.999 105.691 140.456 106.074 140 106.55ZM97.7997 138.62C97.3272 139.077 96.9469 139.62 96.6797 140.22C97.8781 139.661 98.8412 138.698 99.3997 137.5C98.7938 137.768 98.244 138.148 97.7797 138.62H97.7997ZM126.59 140C126.114 140.457 125.733 141.005 125.47 141.61C126.071 141.339 126.614 140.956 127.07 140.48C127.539 140.021 127.919 139.478 128.19 138.88C127.591 139.151 127.049 139.531 126.59 140Z" fill="white"/>
<path d="M139.52 98.0801C139.37 102.87 139.13 107.65 138.87 112.44C138.61 117.23 138.29 121.99 138 126.77C137.71 131.55 137.32 136.33 136.92 141.1L136.32 148.26C136.09 150.64 135.88 153.03 135.62 155.41C135.69 153.01 135.81 150.62 135.9 148.23L136.27 141.05C136.53 136.27 136.86 131.5 137.15 126.72C137.44 121.94 137.83 117.16 138.22 112.39C138.61 107.62 139 102.85 139.52 98.0801Z" fill="#263238"/>
<path d="M142.06 113C142.052 113.178 141.991 113.35 141.885 113.493C141.779 113.637 141.633 113.745 141.465 113.806C141.297 113.866 141.115 113.875 140.942 113.832C140.769 113.788 140.613 113.695 140.493 113.562C140.374 113.43 140.296 113.265 140.27 113.089C140.244 112.912 140.272 112.732 140.348 112.571C140.425 112.41 140.548 112.276 140.701 112.185C140.855 112.094 141.032 112.05 141.21 112.06C141.447 112.073 141.669 112.179 141.828 112.355C141.987 112.531 142.071 112.763 142.06 113Z" fill="#263238"/>
<path d="M141.25 122.2C141.242 122.378 141.182 122.549 141.076 122.693C140.971 122.836 140.825 122.945 140.658 123.005C140.491 123.066 140.309 123.076 140.136 123.033C139.964 122.991 139.807 122.898 139.687 122.767C139.567 122.636 139.489 122.472 139.462 122.296C139.435 122.12 139.46 121.94 139.536 121.779C139.611 121.617 139.732 121.482 139.884 121.39C140.036 121.298 140.212 121.252 140.39 121.26C140.508 121.265 140.625 121.294 140.732 121.344C140.839 121.394 140.935 121.464 141.015 121.552C141.095 121.639 141.157 121.741 141.197 121.853C141.238 121.964 141.256 122.082 141.25 122.2Z" fill="#263238"/>
<path d="M140.43 131.41C140.425 131.528 140.396 131.644 140.346 131.751C140.296 131.859 140.226 131.955 140.138 132.035C140.051 132.115 139.949 132.177 139.838 132.217C139.726 132.257 139.608 132.275 139.49 132.27C139.372 132.264 139.256 132.235 139.149 132.184C139.042 132.133 138.946 132.062 138.867 131.974C138.787 131.887 138.726 131.784 138.686 131.673C138.646 131.561 138.629 131.443 138.635 131.325C138.641 131.207 138.67 131.091 138.721 130.984C138.771 130.877 138.843 130.781 138.93 130.702C139.018 130.622 139.121 130.561 139.232 130.521C139.344 130.481 139.462 130.464 139.58 130.47C139.698 130.475 139.813 130.503 139.92 130.554C140.027 130.604 140.122 130.675 140.202 130.762C140.281 130.85 140.342 130.952 140.381 131.063C140.42 131.174 140.437 131.292 140.43 131.41Z" fill="#263238"/>
<path d="M139.62 140.63C139.612 140.808 139.551 140.98 139.445 141.123C139.339 141.267 139.193 141.375 139.025 141.436C138.857 141.496 138.676 141.505 138.503 141.461C138.33 141.418 138.173 141.324 138.054 141.192C137.934 141.06 137.857 140.895 137.831 140.719C137.805 140.542 137.832 140.362 137.909 140.201C137.986 140.04 138.109 139.906 138.262 139.815C138.415 139.723 138.592 139.68 138.77 139.69C138.888 139.695 139.004 139.723 139.11 139.774C139.217 139.824 139.313 139.895 139.392 139.982C139.471 140.07 139.532 140.172 139.571 140.283C139.61 140.394 139.627 140.512 139.62 140.63Z" fill="#263238"/>
<path d="M138.81 149.84C138.797 150.078 138.691 150.301 138.515 150.462C138.34 150.623 138.108 150.708 137.87 150.7C137.631 150.688 137.407 150.582 137.247 150.405C137.086 150.227 137.003 149.994 137.015 149.755C137.027 149.516 137.133 149.292 137.31 149.132C137.487 148.972 137.721 148.888 137.96 148.9C138.196 148.916 138.417 149.022 138.575 149.198C138.734 149.373 138.818 149.604 138.81 149.84Z" fill="#263238"/>
<path d="M137.09 99.0002C134.09 98.8902 130.41 93.2302 129.46 89.1902C129.4 88.9202 130.46 86.4802 131.62 83.4702C132.31 81.6402 133.04 79.5802 133.62 77.6602L144.88 83.9202C143.528 86.137 142.454 88.5114 141.68 90.9902C141.606 91.2546 141.559 91.5261 141.54 91.8002C141.54 91.8002 141.54 91.8802 141.54 91.9402C141.31 93.5202 140 99.1302 137.09 99.0002Z" fill="#D3766A"/>
<path d="M134.11 78C133.82 80.51 133.28 89.63 140.22 91.71C140.633 91.8304 141.054 91.9239 141.48 91.99C141.488 91.9437 141.488 91.8963 141.48 91.85C141.5 91.5768 141.544 91.3059 141.61 91.04C142.389 88.5618 143.467 86.1876 144.82 83.97L134.11 78Z" fill="#263238"/>
<path d="M133.49 65.6801C131.82 70.0101 133.22 82.9801 136.16 86.0601C140.42 90.5301 147.87 91.4801 151.78 86.2501C155.58 81.1801 153.46 64.3101 150.13 61.4601C145.23 57.2601 136 59.2901 133.49 65.6801Z" fill="#D3766A"/>
<path d="M145.35 74.4102C145.35 74.4102 145.28 74.4102 145.29 74.4902C145.4 75.3602 145.39 76.3802 144.63 76.7502C145.6 76.5602 145.6 75.2102 145.35 74.4102Z" fill="#263238"/>
<path d="M144.47 73.5701C143.06 73.5701 143.24 76.4401 144.55 76.4101C145.86 76.3801 145.66 73.5401 144.47 73.5701Z" fill="#263238"/>
<path d="M150.2 74.1201C150.2 74.1201 150.27 74.1201 150.28 74.1901C150.28 75.0701 150.48 76.0701 151.28 76.3101C150.31 76.2901 150.09 75.0001 150.2 74.1201Z" fill="#263238"/>
<path d="M150.93 73.1601C152.33 72.9601 152.62 75.78 151.32 75.96C150.02 76.14 149.75 73.3201 150.93 73.1601Z" fill="#263238"/>
<path d="M143.27 72.3502C143.635 72.2208 143.992 72.0706 144.34 71.9002C144.739 71.7905 145.091 71.5513 145.34 71.2202C145.398 71.1012 145.416 70.9666 145.39 70.8368C145.365 70.7069 145.298 70.5887 145.2 70.5002C144.97 70.3676 144.71 70.2979 144.445 70.2979C144.18 70.2979 143.92 70.3676 143.69 70.5002C143.181 70.6747 142.754 71.0306 142.49 71.5002C142.445 71.6121 142.433 71.7344 142.455 71.853C142.477 71.9716 142.531 72.0816 142.613 72.1704C142.694 72.2592 142.799 72.3232 142.916 72.355C143.032 72.3868 143.155 72.3851 143.27 72.3502Z" fill="#263238"/>
<path d="M151.93 71.6598C151.547 71.6067 151.166 71.5333 150.79 71.4398C150.374 71.4206 149.976 71.2622 149.66 70.9898C149.582 70.8844 149.539 70.7563 149.539 70.6248C149.539 70.4932 149.582 70.3652 149.66 70.2598C149.849 70.074 150.084 69.9417 150.34 69.8767C150.597 69.8117 150.866 69.8162 151.12 69.8898C151.662 69.9553 152.158 70.2233 152.51 70.6398C152.585 70.7395 152.629 70.8588 152.637 70.9832C152.645 71.1075 152.616 71.2314 152.554 71.3397C152.493 71.448 152.401 71.536 152.29 71.5928C152.179 71.6497 152.054 71.673 151.93 71.6598Z" fill="#263238"/>
<path d="M144.8 82.62C145.02 82.81 145.25 83.08 145.57 83.09C145.894 83.0553 146.21 82.9603 146.5 82.81C146.383 82.9901 146.221 83.1359 146.029 83.2326C145.838 83.3292 145.624 83.3732 145.41 83.36C145.23 83.3241 145.064 83.2356 144.934 83.1056C144.804 82.9757 144.716 82.8102 144.68 82.63C144.68 82.63 144.76 82.59 144.8 82.62Z" fill="#263238"/>
<path d="M145.55 79.9399C145.795 80.2724 146.106 80.5506 146.464 80.7571C146.822 80.9636 147.219 81.0939 147.63 81.1399C147.988 81.1949 148.352 81.1949 148.71 81.1399H148.91H149.1C149.146 81.127 149.186 81.0995 149.215 81.0616C149.244 81.0237 149.259 80.9775 149.26 80.9299C149.265 80.9001 149.265 80.8697 149.26 80.8399V80.7599C149.26 80.0899 149.11 79.0699 149.11 79.0699C149.36 79.1699 150.65 79.6599 150.61 79.3099C150.34 76.259 149.76 73.2435 148.88 70.3099C148.88 70.2099 148.7 70.2499 148.72 70.3099C148.95 73.1199 149.72 75.8699 149.96 78.6899C149.502 78.508 149.02 78.3935 148.53 78.3499C148.43 78.3499 148.82 80.3499 148.8 80.6199C148.25 80.7102 147.687 80.6885 147.146 80.5562C146.605 80.4239 146.096 80.1837 145.65 79.8499C145.56 79.8099 145.49 79.8699 145.55 79.9399Z" fill="#263238"/>
<path d="M148.2 81C147.813 81.4508 147.318 81.7951 146.76 82C146.435 82.1041 146.085 82.1041 145.76 82C145.07 81.8 145.07 81.16 145.21 80.62C145.285 80.3306 145.396 80.0517 145.54 79.79C146.27 80.4743 147.205 80.8994 148.2 81Z" fill="#263238"/>
<path d="M146.76 82.0001C146.435 82.1042 146.085 82.1042 145.76 82.0001C145.07 81.8001 145.07 81.1601 145.21 80.6201C145.589 80.6323 145.952 80.7772 146.235 81.0293C146.518 81.2815 146.704 81.625 146.76 82.0001Z" fill="#F291B8"/>
<path d="M152.54 66.5098C148.41 69.8498 142.07 65.7998 142.07 65.7998C141.775 66.7843 141.169 67.6472 140.344 68.2598C139.519 68.8725 138.518 69.2022 137.49 69.1998C137.49 69.1998 137.23 76.6598 135.28 76.7998C132.28 77.0198 130.58 67.0098 131.36 64.9498C131.681 64.2898 132.136 63.7037 132.695 63.2286C133.254 62.7535 133.906 62.3997 134.61 62.1898C134.788 60.9627 135.428 59.8502 136.4 59.0798C138.3 57.3698 145.47 58.8998 145.47 58.8998C145.798 57.9314 146.346 57.0518 147.07 56.3298C147.243 56.1511 147.451 56.009 147.68 55.912C147.909 55.8149 148.156 55.7649 148.405 55.7649C148.654 55.7649 148.9 55.8149 149.13 55.912C149.359 56.009 149.566 56.1511 149.74 56.3298C149.407 56.9075 149.212 57.5543 149.17 58.2198C148.99 60.4098 150.76 60.2198 150.59 58.2998C150.554 57.553 150.253 56.8435 149.74 56.2998C150.51 54.9498 151.9 54.4198 152.82 55.0398C154.49 56.2198 156 63.7298 152.54 66.5098Z" fill="#263238"/>
<path d="M136.32 76.0002C136.32 76.0002 133.64 71.7002 131.7 72.6402C129.76 73.5802 131.63 79.6402 133.79 80.6402C134.057 80.7807 134.348 80.8663 134.648 80.8919C134.948 80.9175 135.25 80.8827 135.537 80.7894C135.823 80.6962 136.088 80.5464 136.315 80.349C136.542 80.1516 136.728 79.9106 136.86 79.6402L136.32 76.0002Z" fill="#D3766A"/>
<path d="M132.28 74.3301C132.28 74.3301 132.28 74.3301 132.28 74.3901C132.97 74.7809 133.571 75.3121 134.043 75.9494C134.515 76.5868 134.848 77.316 135.02 78.0901C134.938 77.9307 134.822 77.7909 134.68 77.6803C134.539 77.5697 134.376 77.4908 134.201 77.4491C134.026 77.4073 133.845 77.4037 133.669 77.4384C133.493 77.473 133.326 77.5453 133.18 77.6501C133.18 77.6501 133.18 77.7501 133.18 77.7401C133.456 77.6681 133.747 77.6833 134.014 77.7836C134.281 77.8839 134.51 78.0643 134.67 78.3001C134.938 78.6982 135.163 79.124 135.34 79.5701C135.4 79.7101 135.66 79.6501 135.61 79.4901C135.77 77.4801 134.39 74.6401 132.28 74.3301Z" fill="#263238"/>
<path d="M141.48 92L139.13 97.78L129.75 88L127 90.83C127 90.83 135 106.01 135.12 105.35L139.34 99.2L142.58 103.86L142.92 94.56L141.48 92Z" fill="#FFA4BB"/>
<path d="M143 98.4301C143 96.6101 143.09 96.4301 143 94.6601C143 94.6001 142.9 94.5701 142.88 94.6601C142.42 96.3901 142.44 101.66 142.34 103.3C142.17 103.1 139.34 99.1901 139.34 99.2401C138.63 100.24 135.34 104.69 135.13 105.1C133.86 102.69 128.98 93.9001 127.44 91.6101C127.433 91.5955 127.421 91.5842 127.406 91.5786C127.391 91.5729 127.374 91.5735 127.36 91.5801C127.345 91.5868 127.334 91.5989 127.328 91.6139C127.322 91.6289 127.323 91.6455 127.33 91.6601C128.43 94.1901 134.88 106.01 134.99 105.99C136.594 103.925 138.058 101.753 139.37 99.4901C139.98 100.32 142.77 104.71 142.8 104.49C142.974 102.475 143.041 100.452 143 98.4301Z" fill="#263238"/>
<path d="M207.985 156.431L157.188 198.319L182.567 229.095L233.363 187.207L207.985 156.431Z" fill="#FFA4BB"/>
<path opacity="0.1" d="M207.981 156.429L157.185 198.317L169.133 212.806L219.929 170.918L207.981 156.429Z" fill="black"/>
<path d="M205.444 150.925L152.248 194.792L164.094 209.158L217.29 165.291L205.444 150.925Z" fill="#FFA4BB"/>
<path d="M183.29 155.44L190.05 163.64L186.19 166.81L182.35 162.15L167.66 174.27L171.5 178.93L167.65 182.11L160.89 173.91L183.29 155.44Z" fill="#263238"/>
<path d="M172.036 196.844L168.572 199.7L174.228 206.559L177.692 203.702L172.036 196.844Z" fill="#263238"/>
<path d="M207.164 167.881L203.7 170.737L209.356 177.596L212.82 174.739L207.164 167.881Z" fill="#263238"/>
<path d="M119.33 101.84C111 120.16 109 140 113 144.53C118.7 150.99 138.39 161.96 148.41 165.44C151.35 166.44 158.86 143.39 155.71 142.29C151.91 140.97 130.64 132.14 130.31 131.9C129.62 131.38 129.1 108.98 129.18 103.34C129.32 92.9999 123.85 91.8799 119.33 101.84Z" fill="#D3766A"/>
<path d="M184.93 154.56C184.902 155.318 184.644 156.049 184.19 156.657C183.737 157.264 183.108 157.719 182.39 157.96C183.074 159.05 183.353 160.345 183.18 161.62C182.77 163.85 179.1 164.19 179.1 164.19C179.572 165.471 179.649 166.865 179.32 168.19C178.71 170.29 175.05 171.19 175.05 171.19C174.835 172.599 174.126 173.886 173.05 174.82C170.05 177.19 164.55 175.21 161.05 173.99C157.55 172.77 148.74 165.99 146.93 164.91L154.57 142.33C154.57 142.33 171.85 143.33 175.77 145.33C179 147 184.92 151.66 184.93 154.56Z" fill="#D3766A"/>
<path d="M182.36 157.54C179.28 154.89 175.59 153.29 171.99 151.54C171.982 151.532 171.972 151.527 171.962 151.524C171.952 151.521 171.94 151.52 171.93 151.522C171.919 151.524 171.909 151.528 171.9 151.535C171.891 151.541 171.884 151.55 171.879 151.56C171.875 151.569 171.872 151.58 171.872 151.591C171.872 151.602 171.875 151.613 171.88 151.622C171.884 151.632 171.892 151.641 171.9 151.647C171.909 151.654 171.919 151.658 171.93 151.66C175.53 153.41 178.73 155.86 182.25 157.75C182.278 157.765 182.31 157.767 182.34 157.758C182.355 157.753 182.369 157.746 182.381 157.736C182.393 157.726 182.403 157.714 182.41 157.7C182.417 157.686 182.422 157.671 182.423 157.656C182.424 157.64 182.423 157.624 182.418 157.61C182.413 157.595 182.406 157.581 182.396 157.569C182.386 157.557 182.374 157.547 182.36 157.54Z" fill="#263238"/>
<path d="M179.12 163.87C178.367 163.329 177.542 162.895 176.67 162.58C175.77 162.18 174.87 161.8 173.96 161.44C172.14 160.7 170.3 160.01 168.44 159.37C168.36 159.37 168.29 159.47 168.38 159.5C170.19 160.23 172 160.99 173.78 161.8L176.45 163.04C177.258 163.489 178.114 163.848 179 164.11C179.03 164.115 179.06 164.111 179.087 164.097C179.114 164.084 179.136 164.062 179.15 164.035C179.163 164.008 179.167 163.977 179.162 163.948C179.157 163.918 179.142 163.891 179.12 163.87Z" fill="#263238"/>
<path d="M175 171.11C174.306 170.65 173.538 170.312 172.73 170.11L170.23 169.11C168.56 168.46 166.89 167.8 165.23 167.11C165.15 167.11 165.08 167.2 165.17 167.24C166.83 167.97 168.49 168.72 170.17 169.43C170.99 169.79 171.82 170.13 172.64 170.43C173.363 170.815 174.149 171.069 174.96 171.18C174.968 171.179 174.975 171.176 174.982 171.172C174.989 171.168 174.994 171.162 174.998 171.155C175.002 171.148 175.004 171.141 175.004 171.133C175.005 171.125 175.003 171.117 175 171.11Z" fill="#263238"/>
<path d="M155 141.78L140.66 164.84C140.66 164.84 112.39 148.68 110.93 143.09C109.47 137.5 111.69 116.8 118.02 103.68C124.35 90.5599 129.82 91.7999 129.55 106.6C129.28 121.4 130.35 131.39 130.69 131.6C131.03 131.81 155 141.78 155 141.78Z" fill="#FFA4BB"/>
<path d="M128.77 116.14C128.317 114.893 128.317 113.527 128.77 112.28C129.223 113.527 129.223 114.893 128.77 116.14ZM140.32 135.68L139.71 135.43C139.679 135.685 139.662 135.942 139.66 136.2C139.656 136.855 139.772 137.506 140 138.12C140.234 137.507 140.349 136.856 140.34 136.2C140.34 136 140.33 135.86 140.32 135.68ZM113.78 134.49C113.794 133.831 113.682 133.177 113.45 132.56C112.997 133.803 112.997 135.167 113.45 136.41C113.681 135.797 113.793 135.145 113.78 134.49ZM126.15 153.49C125.917 154.106 125.801 154.761 125.81 155.42C125.81 155.53 125.81 155.64 125.81 155.75L126.42 156.16C126.435 155.913 126.435 155.666 126.42 155.42C126.459 154.762 126.367 154.102 126.15 153.48V153.49ZM116.74 107.25H116.44C116.35 107.46 116.27 107.68 116.19 107.89H116.74C117.396 107.904 118.049 107.788 118.66 107.55C118.047 107.322 117.394 107.217 116.74 107.24V107.25ZM115.85 148.6L116.32 148.98C116.46 148.942 116.597 148.895 116.73 148.84C116.449 148.72 116.153 148.636 115.85 148.59V148.6ZM128.08 128.31C128.734 128.331 129.386 128.226 130 128C128.754 127.547 127.387 127.547 126.14 128C126.761 128.227 127.42 128.329 128.08 128.3V128.31ZM137.31 150.11C137.97 150.123 138.625 150.007 139.24 149.77C137.991 149.33 136.629 149.33 135.38 149.77C135.996 150.006 136.652 150.118 137.31 150.1V150.11ZM138.88 163.11C138.424 162.637 137.881 162.257 137.28 161.99C137.541 162.583 137.915 163.119 138.38 163.57L139.84 164.43C139.593 163.93 139.269 163.471 138.88 163.07V163.11ZM116.41 121.23C115.956 120.755 115.412 120.374 114.81 120.11C115.078 120.71 115.458 121.253 115.93 121.71C116.391 122.177 116.933 122.557 117.53 122.83C117.27 122.214 116.89 121.656 116.41 121.19V121.23ZM129.06 99.5599L129.01 99.5099C128.551 99.034 128.004 98.6505 127.4 98.3799C127.673 98.9822 128.057 99.5283 128.53 99.9899C128.746 100.202 128.977 100.4 129.22 100.58C129.18 100.18 129.12 99.8399 129.06 99.5199V99.5599ZM150.32 143.93C149.861 143.46 149.319 143.081 148.72 142.81C148.991 143.411 149.375 143.954 149.85 144.41C150.305 144.885 150.849 145.265 151.45 145.53C151.182 144.916 150.798 144.36 150.32 143.89V143.93ZM126.59 140C126.114 140.457 125.734 141.005 125.47 141.61C126.071 141.339 126.614 140.956 127.07 140.48C127.54 140.021 127.92 139.478 128.19 138.88C127.592 139.151 127.05 139.53 126.59 140Z" fill="white"/>
<path d="M148.72 141.27C148.72 141.2 148.65 141.13 148.6 141.19C144.407 147.032 140.535 153.098 137 159.36C137 159.43 137.07 159.5 137.12 159.44C141.313 153.598 145.185 147.533 148.72 141.27Z" fill="#263238"/>
<path d="M119.87 151.37C117.408 149.818 115.147 147.967 113.14 145.86C112.019 144.845 111.267 143.488 111 142C110.844 140.592 110.804 139.174 110.88 137.76C110.99 131.678 111.66 125.619 112.88 119.66C113.582 116.35 114.457 113.079 115.5 109.86C115.5 109.8 115.43 109.78 115.41 109.86C114.471 112.192 113.666 114.576 113 117C113.099 115.521 113.28 114.049 113.54 112.59C113.54 112.53 113.45 112.5 113.44 112.59C113.215 113.556 113.044 114.534 112.93 115.52C112.86 116.27 112.82 117.02 112.8 117.77C111.882 121.227 111.177 124.737 110.69 128.28C110.265 131.362 110.035 134.469 110 137.58C109.911 139.071 109.958 140.567 110.14 142.05C110.35 143.359 110.937 144.579 111.83 145.56C114.159 147.96 116.861 149.969 119.83 151.51C119.845 151.508 119.859 151.501 119.87 151.491C119.882 151.481 119.89 151.468 119.895 151.453C119.899 151.438 119.899 151.422 119.894 151.408C119.89 151.393 119.881 151.38 119.87 151.37Z" fill="#263238"/>
<path d="M143.59 136.91C139.59 135.06 135.59 133.36 131.49 131.7C131.304 131.636 131.126 131.549 130.96 131.44C130.833 131.309 130.736 131.151 130.675 130.979C130.615 130.806 130.593 130.622 130.61 130.44C130.56 129.9 130.52 129.37 130.48 128.83C130.39 127.71 130.31 126.6 130.23 125.48C130.09 123.29 129.99 121.1 129.88 118.91C129.88 118.8 129.88 118.68 129.88 118.57C130.09 117.17 130.32 115.76 130.43 114.35C130.43 114.334 130.424 114.319 130.413 114.308C130.402 114.296 130.386 114.29 130.37 114.29C130.354 114.29 130.339 114.296 130.328 114.308C130.317 114.319 130.31 114.334 130.31 114.35C130.1 115.41 129.96 116.5 129.84 117.58C129.73 115.5 129.63 113.43 129.53 111.35H129.47C129.33 116.08 129.47 120.79 129.78 125.51C129.86 126.66 129.94 127.82 130.03 128.97C130.08 129.55 130.12 130.13 130.18 130.71C130.183 131.013 130.266 131.31 130.42 131.57C130.694 131.856 131.039 132.064 131.42 132.17L133.13 132.89L136.32 134.21C138.73 135.21 141.15 136.14 143.6 137.04C143.62 137.09 143.67 137 143.59 136.91Z" fill="#263238"/>
<path d="M377.876 49.6618C376.326 62.6223 367.994 64.9503 366.59 68.425C365.881 70.6 365.297 72.8135 364.839 75.0546H351.287C350.838 72.8122 350.255 70.5984 349.543 68.425C348.153 64.9503 339.814 62.5597 338.355 49.5854C337.375 41.0655 343.817 27.6255 358.153 27.6602C372.49 27.695 378.883 41.1489 377.876 49.6618Z" fill="#FFC727"/>
<path d="M351.103 54.3127L350.42 54.4385L354.389 76.0013L355.073 75.8755L351.103 54.3127Z" fill="white"/>
<path d="M365.112 54.3372L361.045 75.8818L361.728 76.0107L365.795 54.4661L365.112 54.3372Z" fill="white"/>
<path d="M358.105 61.5591C357.042 61.5591 355.972 60.7112 355.096 59.1754C355.054 59.1059 355.013 59.0365 354.978 58.967C354.838 59.1465 354.663 59.2953 354.463 59.4041C354.264 59.5129 354.044 59.5794 353.817 59.5994C351.788 59.5994 350.982 55.4298 350.954 55.2282L351.295 55.1657C351.295 55.2074 352.073 59.2449 353.817 59.2519C354.016 59.2241 354.207 59.1547 354.377 59.0481C354.547 58.9415 354.692 58.8002 354.804 58.6334C353.949 56.8683 353.47 54.5611 354.109 53.5117C354.2 53.3433 354.336 53.2031 354.502 53.1063C354.667 53.0095 354.856 52.9599 355.047 52.9627C355.275 52.9554 355.5 53.0113 355.697 53.1242C355.895 53.237 356.057 53.4025 356.166 53.6021C356.778 54.6653 356.326 56.8613 355.52 58.2442C355.434 58.3924 355.342 58.5362 355.242 58.6751C355.297 58.7863 355.36 58.8975 355.423 59.0017C355.895 59.8287 356.875 61.2116 358.133 61.2116C358.974 61.2116 359.814 60.5167 360.509 59.3561C360.57 59.2572 360.626 59.1551 360.676 59.0504C360.496 58.8352 360.337 58.6024 360.204 58.3554C359.363 56.8961 359.196 54.7348 359.835 53.6368C359.937 53.4315 360.093 53.2581 360.287 53.1356C360.481 53.0131 360.704 52.946 360.933 52.9419C361.111 52.9423 361.285 52.9918 361.435 53.0851C361.586 53.1783 361.708 53.3116 361.788 53.47C362.386 54.5124 362.052 56.9934 361.093 58.9461C361.276 59.1285 361.492 59.2727 361.731 59.3706C361.97 59.4684 362.225 59.5178 362.483 59.516C363.72 59.516 364.825 56.5625 365.145 55.4228L365.478 55.5131C365.43 55.6938 364.234 59.8634 362.483 59.8634C361.922 59.8621 361.382 59.6515 360.968 59.2727L360.843 59.4951C360.245 60.4541 359.342 61.5591 358.105 61.5591ZM360.885 53.3241C360.717 53.3271 360.553 53.3768 360.412 53.4677C360.271 53.5585 360.158 53.6869 360.086 53.8384C359.516 54.8252 359.689 56.8683 360.454 58.2095C360.554 58.3868 360.67 58.5543 360.801 58.7098C361.649 56.8891 361.969 54.6028 361.441 53.6785C361.391 53.573 361.312 53.4838 361.214 53.4211C361.115 53.3583 361.001 53.3247 360.885 53.3241ZM354.992 53.3241C354.861 53.3199 354.731 53.353 354.618 53.4194C354.505 53.4858 354.413 53.5828 354.352 53.6994C353.873 54.5333 354.186 56.5625 355.013 58.3276L355.165 58.0844C355.902 56.8127 356.347 54.7348 355.812 53.7897C355.733 53.6425 355.614 53.5206 355.469 53.4382C355.324 53.3558 355.158 53.3162 354.992 53.3241Z" fill="white"/>
<path d="M366.419 74.515L349.706 74.4741L349.698 77.7403L366.411 77.7811L366.419 74.515Z" fill="#455A64"/>
<path d="M366.404 78.3089L349.69 78.2681L349.682 81.5342L366.396 81.5751L366.404 78.3089Z" fill="#455A64"/>
<path d="M366.413 82.0731L349.7 82.0352L349.693 85.3013L366.406 85.3393L366.413 82.0731Z" fill="#455A64"/>
<path d="M358.799 17C359.236 18.7772 359.207 20.6367 358.716 22.3996C358.28 20.6224 358.309 18.7629 358.799 17Z" fill="#263238"/>
<path d="M343.643 20.7109C344.286 21.3581 344.831 22.0955 345.262 22.9C345.719 23.6906 346.06 24.5423 346.276 25.4295C345.642 24.7852 345.103 24.0526 344.678 23.2544C344.212 22.4612 343.863 21.6044 343.643 20.7109Z" fill="#263238"/>
<path d="M332.378 31.4966C334.138 32.0064 335.735 32.9642 337.013 34.2763C336.132 34.0334 335.289 33.666 334.511 33.1853C333.723 32.7278 333.004 32.1591 332.378 31.4966Z" fill="#263238"/>
<path d="M328 46.4656C329.777 46.0298 331.637 46.0585 333.4 46.549C331.622 46.9848 329.763 46.9561 328 46.4656Z" fill="#263238"/>
<path d="M331.711 61.6215C332.358 60.9783 333.096 60.4329 333.9 60.0023C334.689 59.5435 335.541 59.204 336.43 58.9946C335.105 60.2567 333.481 61.1608 331.711 61.6215Z" fill="#263238"/>
<path d="M383.886 62.7753C382.13 62.2583 380.534 61.3015 379.251 59.9956C381.011 60.5054 382.608 61.4632 383.886 62.7753Z" fill="#263238"/>
<path d="M388.258 47.7992C387.373 48.0279 386.461 48.1308 385.548 48.105C384.637 48.1087 383.731 47.9775 382.858 47.7158C383.74 47.4841 384.651 47.3811 385.562 47.4101C386.474 47.4132 387.382 47.5442 388.258 47.7992Z" fill="#263238"/>
<path d="M384.554 32.6499C383.904 33.2888 383.167 33.8317 382.365 34.2621C381.575 34.7219 380.723 35.0638 379.835 35.2768C380.484 34.641 381.221 34.1026 382.024 33.6784C382.814 33.2165 383.666 32.8701 384.554 32.6499Z" fill="#263238"/>
<path d="M373.769 21.3779C373.259 23.1375 372.301 24.7347 370.989 26.0131C371.232 25.1338 371.6 24.2937 372.08 23.5183C372.539 22.7288 373.108 22.0082 373.769 21.3779Z" fill="#263238"/>
</svg>
