<svg width="731" height="634" viewBox="0 0 731 634" fill="none" xmlns="http://www.w3.org/2000/svg">
<g clip-path="url(#clip0_329_434)">
<path d="M365.007 625.511C566.808 625.511 730.4 615.96 730.4 604.178C730.4 592.396 566.808 582.845 365.007 582.845C163.205 582.845 -0.386719 592.396 -0.386719 604.178C-0.386719 615.96 163.205 625.511 365.007 625.511Z" fill="#F5F5F5"/>
<path d="M356.47 262.831L359.636 266.751L58.6182 506.521L71.4519 522.407L73.2045 524.575L374.222 284.805L377.388 288.725L383.023 262.774L356.47 262.831Z" fill="#DA8DA0"/>
<path opacity="0.7" d="M356.47 262.831L359.636 266.751L58.6182 506.521L71.4519 522.407L73.2045 524.575L374.222 284.805L377.388 288.725L383.023 262.774L356.47 262.831Z" fill="white"/>
<path d="M14.3126 523.293C14.3176 520.666 15.3635 518.147 17.2214 516.289C19.0794 514.431 21.5978 513.385 24.2253 513.38C25.1904 513.378 26.1502 513.524 27.0709 513.814C26.9193 512.803 26.8437 511.783 26.8448 510.761C26.8448 508.005 27.3879 505.276 28.4432 502.73C29.4985 500.184 31.0452 497.871 32.9948 495.923C34.9445 493.975 37.259 492.43 39.806 491.377C42.353 490.324 45.0825 489.783 47.8385 489.786C49.1034 489.786 50.3654 489.906 51.6076 490.144C53.6902 486.781 56.8042 484.182 60.485 482.734C64.1658 481.287 68.2161 481.068 72.0314 482.111C75.8468 483.154 79.2226 485.402 81.6553 488.521C84.0879 491.64 85.4468 495.462 85.5293 499.416H86.0947C88.4309 499.225 90.7813 499.52 92.9976 500.283C95.214 501.045 97.2482 502.259 98.9719 503.848C100.696 505.436 102.071 507.364 103.012 509.511C103.953 511.658 104.439 513.976 104.439 516.32C104.439 518.664 103.953 520.983 103.012 523.129C102.071 525.276 100.696 527.205 98.9719 528.793C97.2482 530.381 95.214 531.595 92.9976 532.358C90.7813 533.121 88.4309 533.416 86.0947 533.225H23.9049C21.327 533.146 18.8816 532.064 17.0899 530.209C15.2981 528.354 14.3016 525.872 14.3126 523.293Z" fill="#DA8DA0"/>
<path opacity="0.8" d="M14.3126 523.293C14.3176 520.666 15.3635 518.147 17.2214 516.289C19.0794 514.431 21.5978 513.385 24.2253 513.38C25.1904 513.378 26.1502 513.524 27.0709 513.814C26.9193 512.803 26.8437 511.783 26.8448 510.761C26.8448 508.005 27.3879 505.276 28.4432 502.73C29.4985 500.184 31.0452 497.871 32.9948 495.923C34.9445 493.975 37.259 492.43 39.806 491.377C42.353 490.324 45.0825 489.783 47.8385 489.786C49.1034 489.786 50.3654 489.906 51.6076 490.144C53.6902 486.781 56.8042 484.182 60.485 482.734C64.1658 481.287 68.2161 481.068 72.0314 482.111C75.8468 483.154 79.2226 485.402 81.6553 488.521C84.0879 491.64 85.4468 495.462 85.5293 499.416H86.0947C88.4309 499.225 90.7813 499.52 92.9976 500.283C95.214 501.045 97.2482 502.259 98.9719 503.848C100.696 505.436 102.071 507.364 103.012 509.511C103.953 511.658 104.439 513.976 104.439 516.32C104.439 518.664 103.953 520.983 103.012 523.129C102.071 525.276 100.696 527.205 98.9719 528.793C97.2482 530.381 95.214 531.595 92.9976 532.358C90.7813 533.121 88.4309 533.416 86.0947 533.225H23.9049C21.327 533.146 18.8816 532.064 17.0899 530.209C15.2981 528.354 14.3016 525.872 14.3126 523.293Z" fill="white"/>
<path d="M645.332 414.725L652.851 424.035L512.924 537.051L543.341 574.704L547.506 579.867L687.414 466.833L694.933 476.142L708.313 414.593L645.332 414.725Z" fill="#DA8DA0"/>
<path opacity="0.5" d="M645.332 414.725L652.851 424.035L512.924 537.051L543.341 574.704L547.506 579.867L687.414 466.833L694.933 476.142L708.313 414.593L645.332 414.725Z" fill="white"/>
<path d="M569.687 532.999C566.801 528.367 562.774 524.555 557.991 521.926C553.209 519.297 547.832 517.941 542.375 517.986C536.919 518.031 531.565 519.477 526.827 522.185C522.089 524.893 518.126 528.772 515.318 533.451C512.775 532.706 510.093 532.567 507.487 533.045C504.881 533.524 502.423 534.606 500.311 536.206C498.198 537.805 496.49 539.877 495.322 542.256C494.155 544.634 493.561 547.254 493.589 549.903H484.581C483.425 549.849 482.27 550.03 481.185 550.435C480.101 550.84 479.11 551.46 478.273 552.259C477.436 553.058 476.769 554.019 476.314 555.083C475.858 556.147 475.624 557.292 475.624 558.449C475.624 559.607 475.858 560.752 476.314 561.816C476.769 562.88 477.436 563.841 478.273 564.64C479.11 565.439 480.101 566.059 481.185 566.464C482.27 566.869 483.425 567.05 484.581 566.996H515.77C518.345 571.062 521.806 574.493 525.896 577.03C529.985 579.568 534.596 581.147 539.382 581.65C544.169 582.152 549.007 581.564 553.534 579.93C558.061 578.296 562.159 575.659 565.522 572.216C566.062 572.245 566.603 572.245 567.142 572.216C572.16 572.225 576.992 570.325 580.659 566.901C584.326 563.476 586.552 558.785 586.886 553.779C587.219 548.772 585.635 543.827 582.454 539.947C579.274 536.066 574.736 533.542 569.762 532.886L569.687 532.999Z" fill="#DA8DA0"/>
<path opacity="0.8" d="M569.687 532.999C566.801 528.367 562.774 524.555 557.991 521.926C553.209 519.297 547.832 517.941 542.375 517.986C536.919 518.031 531.565 519.477 526.827 522.185C522.089 524.893 518.126 528.772 515.318 533.451C512.775 532.706 510.093 532.567 507.487 533.045C504.881 533.524 502.423 534.606 500.311 536.206C498.198 537.805 496.49 539.877 495.322 542.256C494.155 544.634 493.561 547.254 493.589 549.903H484.581C483.425 549.849 482.27 550.03 481.185 550.435C480.101 550.84 479.11 551.46 478.273 552.259C477.436 553.058 476.769 554.019 476.314 555.083C475.858 556.147 475.624 557.292 475.624 558.449C475.624 559.607 475.858 560.752 476.314 561.816C476.769 562.88 477.436 563.841 478.273 564.64C479.11 565.439 480.101 566.059 481.185 566.464C482.27 566.869 483.425 567.05 484.581 566.996H515.77C518.345 571.062 521.806 574.493 525.896 577.03C529.985 579.568 534.596 581.147 539.382 581.65C544.169 582.152 549.007 581.564 553.534 579.93C558.061 578.296 562.159 575.659 565.522 572.216C566.062 572.245 566.603 572.245 567.142 572.216C572.16 572.225 576.992 570.325 580.659 566.901C584.326 563.476 586.552 558.785 586.886 553.779C587.219 548.772 585.635 543.827 582.454 539.947C579.274 536.066 574.736 533.542 569.762 532.886L569.687 532.999Z" fill="white"/>
<path d="M359.617 150.588L356.903 147.667C356.544 147.288 356.095 147.007 355.597 146.848C355.099 146.69 354.57 146.661 354.058 146.763L349.93 147.667C349.285 147.795 348.697 148.122 348.247 148.602C347.798 149.082 347.51 149.691 347.424 150.343L345.351 167.304L351.645 169.735C359.334 166.381 358.939 156.242 358.939 156.242L360.032 154.225C360.356 153.653 360.491 152.993 360.416 152.339C360.342 151.686 360.062 151.073 359.617 150.588Z" fill="#FFB573"/>
<path d="M283.538 201.64C283.538 201.64 289.588 201.998 293.13 201.923C296.673 201.847 300.254 201.81 303.74 201.602C307.227 201.395 310.676 201.131 313.842 200.698C315.289 200.504 316.723 200.227 318.138 199.869L319.495 199.435C319.91 199.247 319.495 199.567 319.684 199.435C320.664 198.455 321.577 197.41 322.416 196.307C323.453 194.988 324.489 193.574 325.526 192.142C327.599 189.259 329.634 186.262 331.688 183.247L343.994 164.986L353.624 170.093C352.211 173.617 350.665 177.009 349.139 180.439C347.613 183.869 345.916 187.223 344.258 190.597C342.6 193.97 340.791 197.325 338.868 200.679C337.907 202.356 336.984 204.034 335.815 205.748C334.59 207.723 333.19 209.584 331.632 211.308C330.375 212.616 328.918 213.717 327.316 214.568C326.102 215.218 324.842 215.779 323.547 216.245C321.433 217.025 319.267 217.654 317.064 218.13C313.133 219.018 309.148 219.648 305.135 220.014C297.454 220.796 289.731 221.098 282.012 220.919L283.538 201.64Z" fill="#DA8DA0"/>
<path opacity="0.7" d="M353.699 170.131C352.286 173.636 350.759 177.028 349.233 180.458C347.706 183.888 346.01 187.242 344.333 190.635C342.656 194.027 340.884 197.344 338.962 200.698C338.001 202.375 337.078 204.053 335.89 205.767C334.679 207.747 333.284 209.608 331.726 211.327C330.438 212.636 328.949 213.73 327.316 214.568C326.104 215.228 324.844 215.795 323.547 216.264C321.436 217.033 319.276 217.663 317.083 218.149C313.15 219.028 309.166 219.657 305.154 220.033C303.476 220.203 301.818 220.335 300.178 220.467C294.129 220.9 288.174 221.051 282.03 220.919L282.332 216.962L283.519 201.753C283.519 201.753 289.55 202.13 293.093 202.036C296.635 201.942 300.216 201.923 303.721 201.716C307.227 201.508 310.656 201.263 313.822 200.811C315.272 200.632 316.707 200.355 318.119 199.982C318.581 199.868 319.034 199.723 319.476 199.549C319.891 199.36 319.476 199.699 319.665 199.549C320.645 198.569 321.558 197.524 322.397 196.42C323.434 195.101 324.47 193.688 325.488 192.255C327.561 189.372 329.615 186.376 331.669 183.36L343.975 165.099L353.699 170.131Z" fill="#A86363"/>
<path opacity="0.1" d="M300.197 220.354C294.148 220.787 288.193 220.938 282.049 220.806L282.351 216.848L283.821 213.381C289.975 213.504 295.844 216.002 300.197 220.354Z" fill="black"/>
<path d="M182.753 539.651C182.753 539.651 165.792 527.911 166.734 520.033C166.769 519.852 166.766 519.665 166.725 519.485C166.685 519.304 166.607 519.135 166.497 518.986C166.387 518.837 166.248 518.713 166.088 518.621C165.927 518.528 165.75 518.47 165.566 518.45L151.112 516.264C150.758 516.197 150.393 516.232 150.059 516.366C149.725 516.499 149.436 516.726 149.227 517.018L140.747 529.06L144.516 530.436L146.57 529.004L147.55 531.548C168.374 539.086 177.457 542.12 182.056 542.309C183.413 540.688 182.753 539.651 182.753 539.651Z" fill="black"/>
<path d="M278.827 318.03C278.827 318.03 277.96 320.291 276.433 324.211C274.794 328.451 272.382 334.632 269.479 341.982C267.595 346.882 265.39 352.309 263.072 358.02C252.424 384.403 238.667 417.213 229.565 433.74C212.133 465.363 166.716 525.423 166.716 525.423L148.567 518.79C148.567 518.79 181.245 456.939 197.735 425.599C203.986 412.945 209.498 399.938 214.244 386.646C216.976 379.353 219.69 371.758 222.309 364.239C223.497 360.846 224.665 357.454 225.796 354.119C228.792 345.299 231.6 336.8 234.069 329.224C234.371 328.282 234.672 327.339 234.974 326.435C235.972 323.325 236.858 320.385 237.763 317.672C241.306 306.515 243.511 299.165 243.586 298.826L259.774 307.646L278.827 318.03Z" fill="#263238"/>
<path opacity="0.3" d="M276.433 324.211C274.794 328.451 272.382 334.632 269.479 341.982C267.595 346.882 265.39 352.309 263.072 358.019C248.26 360.997 233.183 363.013 222.347 364.238C223.534 360.846 224.703 357.454 225.834 354.118C228.83 345.299 231.638 336.799 234.107 329.224C234.408 328.281 234.71 327.339 235.011 326.434C236.01 323.325 236.896 320.385 237.8 317.671C248.693 319.16 263.242 321.384 276.433 324.211Z" fill="black"/>
<path d="M220.839 211.742C223.448 221.216 225.121 230.924 225.833 240.726C226.493 248.547 226.738 256.236 226.776 263.152C226.813 270.068 226.587 276.249 226.361 280.961C226.06 287.029 225.701 290.742 225.701 290.742L282.954 293.7C300.141 231.51 283.519 201.659 283.519 201.659C278.419 201.213 273.295 201.093 268.179 201.301C267.124 201.301 266.031 201.414 264.938 201.509C256.32 202.5 247.768 203.997 239.327 205.994C237.8 206.333 236.255 206.729 234.747 207.125C227.284 209.16 220.839 211.742 220.839 211.742Z" fill="#DA8DA0"/>
<path opacity="0.7" d="M282.973 293.681L225.721 290.741C225.721 290.741 226.079 286.972 226.38 280.942C226.38 279.17 226.531 277.173 226.606 274.968C226.72 271.444 226.795 267.429 226.795 263.133C226.795 261.041 226.795 258.874 226.682 256.65C226.682 256.292 226.682 255.934 226.682 255.576C226.588 252.052 226.418 248.396 226.173 244.683C226.06 243.364 225.966 242.045 225.853 240.726C225.853 239.689 225.683 238.634 225.589 237.597C225.306 234.959 225.005 232.32 224.628 229.72C224.533 229.004 224.42 228.288 224.307 227.59C224.138 226.403 223.949 225.253 223.742 224.085C223.01 219.909 222.054 215.776 220.877 211.704C220.877 211.704 227.341 209.178 234.823 207.124C236.312 206.728 237.857 206.333 239.384 205.993C247.828 204.009 256.379 202.512 264.994 201.508C266.106 201.508 267.181 201.339 268.255 201.32C273.37 201.101 278.494 201.214 283.595 201.659C283.595 201.659 300.16 231.397 282.973 293.681Z" fill="#A86363"/>
<path d="M318.383 442.673C318.383 442.673 302.026 429.971 303.533 422.169C303.577 421.989 303.584 421.802 303.553 421.62C303.523 421.437 303.455 421.263 303.354 421.108C303.254 420.952 303.122 420.819 302.968 420.717C302.814 420.614 302.641 420.544 302.459 420.511L288.137 417.495C287.792 417.418 287.433 417.438 287.1 417.555C286.767 417.672 286.473 417.88 286.252 418.155L277.037 429.632L280.806 431.234L282.935 429.914L283.764 432.496C304.136 441.222 313.031 444.783 317.686 445.236C318.986 443.69 318.383 442.673 318.383 442.673Z" fill="black"/>
<path d="M253.103 342.321H254.441L323.095 352.309L283.972 417.156L303.533 424.694C303.533 424.694 374.297 348.408 358.486 331.014C345.483 316.71 281.785 308.004 281.785 308.004L283.877 293.078L225.004 281.469C199.808 336.535 244.679 341.775 253.103 342.321Z" fill="#263238"/>
<path d="M224.307 287.255L223.063 287.01L224.194 283.052L225.306 283.26L224.307 287.255Z" fill="#263238"/>
<path d="M270.648 296.225L245.489 291.363L246.469 287.368L271.534 292.23L270.648 296.225Z" fill="#263238"/>
<path d="M273.475 292.607L284.103 294.661L283.387 298.694L272.626 296.602L273.475 292.607Z" fill="#263238"/>
<path d="M227.247 283.637L244.547 286.991L243.529 290.968L226.286 287.632L227.247 283.637Z" fill="#263238"/>
<g opacity="0.2">
<path d="M224.307 287.255L223.063 287.01L224.194 283.052L225.306 283.26L224.307 287.255Z" fill="white"/>
<path d="M270.648 296.225L245.49 291.363L246.47 287.368L271.534 292.23L270.648 296.225Z" fill="white"/>
<path d="M273.475 292.607L284.104 294.661L283.388 298.694L272.627 296.602L273.475 292.607Z" fill="white"/>
<path d="M227.247 283.636L244.547 286.991L243.53 290.967L226.286 287.631L227.247 283.636Z" fill="white"/>
</g>
<path d="M262.375 295.057H262.149L255.854 293.926C255.678 293.899 255.51 293.834 255.36 293.736C255.211 293.639 255.084 293.511 254.987 293.361C254.887 293.214 254.819 293.047 254.79 292.871C254.761 292.695 254.77 292.515 254.818 292.343L255.44 289.818C255.516 289.493 255.716 289.211 255.998 289.031C256.28 288.851 256.62 288.789 256.947 288.857L263.185 290.063C263.359 290.091 263.524 290.156 263.671 290.253C263.817 290.351 263.941 290.479 264.033 290.628C264.129 290.774 264.193 290.938 264.222 291.11C264.252 291.282 264.245 291.458 264.203 291.627L263.637 294.058C263.57 294.342 263.408 294.595 263.179 294.776C262.95 294.958 262.667 295.056 262.375 295.057ZM256.721 289.912C256.678 289.914 256.636 289.93 256.603 289.957C256.569 289.984 256.544 290.021 256.533 290.063L255.911 292.588C255.9 292.612 255.895 292.638 255.895 292.664C255.895 292.69 255.9 292.715 255.911 292.739C255.932 292.748 255.954 292.752 255.977 292.752C255.999 292.752 256.022 292.748 256.043 292.739L262.337 293.87C262.386 293.872 262.434 293.859 262.475 293.832C262.516 293.805 262.547 293.765 262.563 293.719L263.128 291.288C263.14 291.264 263.146 291.239 263.146 291.212C263.146 291.186 263.14 291.161 263.128 291.137C263.111 291.127 263.092 291.122 263.072 291.122C263.052 291.122 263.033 291.127 263.015 291.137L256.778 289.912H256.721Z" fill="white"/>
<path d="M258.455 292.249H258.361L256.476 291.91C256.404 291.898 256.335 291.873 256.273 291.834C256.211 291.796 256.157 291.745 256.115 291.685C256.072 291.625 256.043 291.558 256.027 291.486C256.012 291.415 256.011 291.341 256.024 291.269C256.033 291.196 256.057 291.125 256.095 291.061C256.133 290.998 256.183 290.943 256.244 290.9C256.304 290.858 256.373 290.828 256.445 290.814C256.518 290.799 256.593 290.8 256.665 290.817L258.549 291.156C258.622 291.167 258.691 291.193 258.753 291.232C258.815 291.27 258.869 291.321 258.911 291.381C258.953 291.44 258.983 291.508 258.998 291.58C259.014 291.651 259.015 291.725 259.002 291.797C258.976 291.923 258.908 292.037 258.808 292.119C258.709 292.202 258.584 292.247 258.455 292.249Z" fill="white"/>
<path d="M245.282 179.987L260.226 192.387C258.775 198.455 261.319 204.052 264.259 205.089C264.259 205.089 266.445 210.29 262.243 211.157C253.706 212.929 243.981 204.674 243.981 204.674C248.504 199.831 246.865 187.732 245.282 179.987Z" fill="#EBB376"/>
<path opacity="0.2" d="M251.369 185.038L260.227 192.368C259.851 193.776 259.599 195.214 259.473 196.665C256.156 196.232 251.577 192.689 251.2 189.221C251.011 187.828 251.069 186.412 251.369 185.038Z" fill="black"/>
<path d="M258.493 155.488C262.111 157.749 267.011 164.552 260.924 166.192C254.837 167.832 252.255 151.606 258.493 155.488Z" fill="#263238"/>
<path d="M239.798 178.743C246.13 187.073 249.409 192.293 256.759 193.819C267.821 196.081 275.849 184.811 272.137 174.71C268.782 165.627 258.945 153.509 248.222 155.865C245.847 156.382 243.642 157.49 241.809 159.085C239.976 160.681 238.575 162.713 237.735 164.993C236.895 167.274 236.644 169.729 237.005 172.132C237.365 174.536 238.326 176.809 239.798 178.743Z" fill="#FFB573"/>
<path d="M241.664 169.641L234.126 160.784C234.126 160.784 224.081 168.171 228.642 172.637C225.645 179.704 237.574 189.598 248.015 187.563C249.24 181.174 239.93 170.282 239.93 170.282C240.518 170.097 241.097 169.883 241.664 169.641Z" fill="#263238"/>
<path d="M241.268 188.222C242.285 189.034 243.454 189.635 244.706 189.991C245.958 190.347 247.269 190.45 248.561 190.295C252.01 189.862 252.33 186.413 250.351 183.831C248.373 181.249 244.434 178.95 241.494 180.684C240.863 181.081 240.34 181.626 239.969 182.273C239.599 182.92 239.394 183.648 239.372 184.393C239.349 185.138 239.511 185.876 239.841 186.544C240.172 187.212 240.662 187.788 241.268 188.222Z" fill="#FFB573"/>
<path d="M254.554 172.166C255.025 172.864 255.798 173.184 256.25 172.882C256.702 172.581 256.702 171.733 256.25 170.998C255.798 170.263 255.025 169.98 254.554 170.282C254.083 170.583 254.083 171.525 254.554 172.166Z" fill="#263238"/>
<path d="M262.526 166.814C263.016 167.53 263.77 167.85 264.222 167.53C264.674 167.21 264.674 166.381 264.222 165.646C263.77 164.911 262.997 164.609 262.526 164.929C262.055 165.25 262.055 166.098 262.526 166.814Z" fill="#263238"/>
<path d="M260.227 168.887C262.495 170.396 264.962 171.582 267.557 172.411C267.067 174.296 264.58 175.257 264.58 175.257L260.227 168.887Z" fill="#ED893E"/>
<path d="M262.649 180.757C263.013 180.674 263.37 180.561 263.715 180.418C263.769 180.385 263.809 180.333 263.825 180.272C263.841 180.211 263.833 180.146 263.803 180.09C263.789 180.062 263.768 180.036 263.744 180.016C263.719 179.996 263.69 179.981 263.659 179.973C263.628 179.964 263.596 179.963 263.564 179.968C263.532 179.973 263.502 179.985 263.475 180.003C262.497 180.409 261.436 180.577 260.379 180.491C259.323 180.405 258.303 180.067 257.404 179.507C257.377 179.488 257.347 179.474 257.314 179.467C257.282 179.459 257.249 179.458 257.216 179.464C257.184 179.47 257.152 179.482 257.125 179.501C257.097 179.519 257.074 179.542 257.055 179.57C257.016 179.621 256.998 179.687 257.006 179.751C257.015 179.815 257.048 179.874 257.1 179.914C257.918 180.427 258.832 180.766 259.787 180.911C260.741 181.056 261.716 181.004 262.649 180.757Z" fill="#263238"/>
<path d="M249.108 169.905C249.196 169.91 249.285 169.892 249.364 169.852C249.443 169.812 249.511 169.753 249.56 169.679C249.892 169.149 250.342 168.703 250.875 168.376C251.408 168.049 252.009 167.85 252.632 167.794C252.699 167.797 252.765 167.786 252.827 167.761C252.889 167.736 252.945 167.698 252.992 167.65C253.038 167.602 253.074 167.545 253.096 167.482C253.118 167.419 253.127 167.352 253.122 167.285C253.122 167.155 253.07 167.031 252.978 166.939C252.886 166.847 252.762 166.795 252.632 166.795C251.835 166.855 251.065 167.103 250.383 167.519C249.701 167.935 249.129 168.507 248.712 169.189C248.641 169.302 248.617 169.438 248.645 169.568C248.673 169.699 248.751 169.813 248.863 169.886C248.941 169.917 249.026 169.924 249.108 169.905Z" fill="#263238"/>
<path d="M262.62 160.388C262.648 160.289 262.648 160.185 262.62 160.086C262.581 159.96 262.494 159.854 262.378 159.791C262.262 159.727 262.125 159.712 261.998 159.747C261.232 159.94 260.524 160.315 259.933 160.84C259.343 161.365 258.888 162.024 258.606 162.762C258.569 162.89 258.581 163.027 258.641 163.145C258.7 163.264 258.802 163.356 258.926 163.403C258.988 163.423 259.053 163.431 259.118 163.426C259.183 163.421 259.247 163.403 259.304 163.373C259.362 163.344 259.414 163.302 259.456 163.253C259.497 163.203 259.529 163.145 259.548 163.083C259.775 162.497 260.14 161.975 260.613 161.561C261.085 161.148 261.651 160.855 262.262 160.708C262.344 160.69 262.42 160.651 262.483 160.595C262.546 160.539 262.593 160.467 262.62 160.388Z" fill="#263238"/>
<path d="M239.873 170.282C239.873 170.282 259.774 161.914 260.999 152.378C262.224 142.843 253.8 146.725 253.8 146.725C253.8 146.725 257.701 146.461 257.324 149.288C257.324 149.288 250.596 144.708 244.132 148.647C245.008 148.648 245.873 148.843 246.665 149.218C247.457 149.592 248.156 150.138 248.712 150.814C244.03 151.996 239.638 154.118 235.803 157.052C229.037 162.14 216.769 180.251 239.873 170.282Z" fill="#263238"/>
<path opacity="0.3" d="M281.823 307.853L249.39 304.084C260.376 302.632 271.471 302.178 282.539 302.727L281.823 307.853Z" fill="black"/>
<path opacity="0.1" d="M226.154 244.683C226.041 243.364 225.946 242.045 225.833 240.726C225.833 239.689 225.664 238.634 225.57 237.597C225.287 234.959 224.985 232.321 224.608 229.72C224.514 229.004 224.401 228.288 224.288 227.591C225.182 226.883 226.134 226.253 227.134 225.706C228.167 232.029 227.833 238.5 226.154 244.683Z" fill="black"/>
<path d="M172.124 290.892L166.471 304.084L178.664 307.099C178.664 307.099 183.903 298.411 178.796 291.778L172.124 290.892Z" fill="#EBB376"/>
<path d="M167.356 314.392L176.986 314.468L178.682 307.212L166.489 304.197L167.356 314.392Z" fill="#EBB376"/>
<path d="M226.983 220.825C227.831 229.117 224.986 232.49 224.986 232.49C224.986 232.49 216.957 237.541 213.471 240.123C210.512 242.365 207.61 244.627 204.859 246.888C203.502 248.038 202.183 249.187 200.977 250.337C199.903 251.345 198.896 252.421 197.961 253.559C197.616 254.039 197.295 254.536 197 255.048C196.661 255.595 196.303 256.424 195.926 257.102C195.191 258.61 194.456 260.231 193.759 261.908C192.364 265.281 191.045 268.786 189.801 272.348C187.182 279.434 184.751 286.746 182.263 293.926L171.125 291.269C172.256 283.467 173.783 275.835 175.554 268.127C176.478 264.358 177.439 260.438 178.701 256.518C179.286 254.634 179.945 252.579 180.699 250.544C181.151 249.47 181.528 248.509 182.094 247.359C182.643 246.15 183.273 244.979 183.978 243.854C185.322 241.854 186.822 239.964 188.463 238.2C189.952 236.58 191.441 235.091 192.948 233.64C195.945 230.775 199.017 228.156 202.145 225.631C208.383 220.561 214.64 215.925 221.348 211.44C221.405 211.496 226.229 213.325 226.983 220.825Z" fill="#DA8DA0"/>
<path opacity="0.7" d="M226.983 220.825C227.831 229.117 224.986 232.49 224.986 232.49C224.986 232.49 216.957 237.541 213.471 240.123C210.512 242.365 207.61 244.627 204.859 246.888C203.502 248.038 202.183 249.187 200.977 250.337C199.903 251.345 198.896 252.421 197.961 253.559C197.616 254.039 197.295 254.536 197 255.048C196.661 255.595 196.303 256.424 195.926 257.102C195.191 258.61 194.456 260.231 193.759 261.908C192.364 265.281 191.045 268.786 189.801 272.348C187.182 279.434 184.751 286.746 182.263 293.926L171.125 291.269C172.256 283.467 173.783 275.835 175.554 268.127C176.478 264.358 177.439 260.438 178.701 256.518C179.286 254.634 179.945 252.579 180.699 250.544C181.151 249.47 181.528 248.509 182.094 247.359C182.643 246.15 183.273 244.979 183.978 243.854C185.322 241.854 186.822 239.964 188.463 238.2C189.952 236.58 191.441 235.091 192.948 233.64C195.945 230.775 199.017 228.156 202.145 225.631C208.383 220.561 214.64 215.925 221.348 211.44C221.405 211.496 226.229 213.325 226.983 220.825Z" fill="#A86363"/>
<path d="M252.293 209.706L256.476 216.283C256.476 216.283 241.871 233.998 213.905 239.84L212.02 245.493L217.975 247.058C217.975 247.058 248.128 239.237 260.227 216.585L266.446 209.649L259.115 207.181L252.293 209.706Z" fill="#1E1E1E"/>
<path d="M238.743 205.749L245.565 199.793L259.115 207.219L260.698 199.096L267.859 203.205L269.913 213.739L259.906 209.405L250.973 217.395L238.743 205.749Z" fill="#DA8DA0"/>
<path opacity="0.6" d="M267.814 203.236L269.845 213.655L259.926 209.359L259.897 209.346L259.873 209.368L250.974 217.327L238.817 205.75L245.571 199.854L259.09 207.262L259.151 207.295L259.164 207.228L260.733 199.173L267.814 203.236Z" fill="#A86363" stroke="black" stroke-width="0.1"/>
<path d="M425.67 87.8706C425.67 87.8706 412.987 103.588 400.135 102.287C387.282 100.987 380.705 106.207 380.705 106.207L379.442 112.483L386.34 111.54C386.34 111.54 386.34 106.565 399.758 107.131C413.176 107.696 423.239 96.1626 427.159 90.9236L425.67 87.8706Z" fill="black"/>
<path d="M516.693 61.7509L516.429 60.5071C516.316 59.8998 516.139 59.3061 515.901 58.7357C515.23 57.0331 514.179 55.5057 512.83 54.2693C511.156 52.7607 509.195 51.6067 507.063 50.8771C504.37 49.9232 501.574 49.2906 498.733 48.9926C496.227 48.7099 493.833 48.578 491.478 48.5214C486.785 48.3895 482.262 48.5214 477.796 48.8984C468.901 49.4892 460.044 50.5523 451.262 52.0832L454.503 70.646C462.625 69.3645 471.106 68.1772 479.304 67.3291C483.412 66.8957 487.501 66.6507 491.44 66.5188C493.325 66.5188 495.341 66.5188 497.094 66.5188C498.237 66.58 499.376 66.7059 500.505 66.8957C500.544 67.5862 500.544 68.2783 500.505 68.9687C500.261 72.5981 499.584 76.1854 498.488 79.6541C496.101 87.4915 493.056 95.1132 489.386 102.438L498.338 108.393C504.06 101.23 508.865 93.3794 512.641 85.025C514.707 80.4608 516.14 75.6357 516.9 70.6836C517.305 67.7139 517.235 64.6987 516.693 61.7509Z" fill="#DA8DA0"/>
<path opacity="0.7" d="M516.788 70.6646C516.186 74.7986 515.078 78.843 513.49 82.7068C513.188 83.4795 512.868 84.2521 512.547 85.0059C508.764 93.3552 503.953 101.199 498.225 108.355L489.386 102.438C493.093 95.1673 496.194 87.6036 498.658 79.8234C499.406 77.354 499.979 74.8351 500.373 72.2853C500.534 71.2619 500.635 70.2299 500.675 69.1946C500.714 68.5042 500.714 67.8121 500.675 67.1216C499.546 66.9318 498.407 66.806 497.264 66.7447C495.379 66.6317 493.495 66.6317 491.61 66.7447H491.177C487.408 66.8767 483.431 67.1405 479.455 67.5362C471.502 68.3654 463.323 69.4208 455.427 70.7588L454.673 70.8719L451.432 52.2903C460.209 50.7686 469.059 49.7055 477.947 49.1054C482.432 48.8228 486.955 48.5966 491.648 48.7285C494.003 48.7285 496.378 48.917 498.903 49.1997C501.743 49.5068 504.538 50.1392 507.233 51.0842C509.361 51.8208 511.322 52.974 513 54.4764C514.349 55.7128 515.4 57.2402 516.071 58.9427C516.299 59.5166 516.476 60.1094 516.599 60.7142L516.863 61.958C517.285 64.8468 517.26 67.7835 516.788 70.6646Z" fill="#A86363"/>
<path opacity="0.1" d="M491.007 66.632C487.238 66.7639 483.262 67.0277 479.285 67.4235C471.332 68.2527 463.154 69.308 455.257 70.6461C458.141 63.5602 461.099 56.3989 461.099 56.3989C471.606 57.9721 481.739 61.4393 491.007 66.632Z" fill="black"/>
<path opacity="0.1" d="M513.49 82.7067C513.188 83.4793 512.868 84.252 512.547 85.0058C508.764 93.355 503.953 101.199 498.225 108.355L489.386 102.438C493.093 95.1672 496.194 87.6034 498.658 79.8233C499.406 77.3539 499.979 74.8349 500.373 72.2852C505.013 75.408 509.399 78.8927 513.49 82.7067Z" fill="black"/>
<path d="M393.049 65.4824C393.576 66.1231 393.633 66.9335 393.218 67.3669C392.804 67.8003 392.031 67.3669 391.503 66.8015C390.976 66.2362 390.919 65.3316 391.353 65.0112C391.786 64.6909 392.54 64.7474 393.049 65.4824Z" fill="#263238"/>
<path d="M393.708 66.877C394.504 69.4873 394.936 72.1953 394.989 74.9239C395.687 74.8853 396.367 74.697 396.985 74.3718C397.603 74.0466 398.144 73.5922 398.57 73.0394L393.708 66.877Z" fill="#DE5753"/>
<path d="M392.577 59.9792C392.619 59.9339 392.651 59.8803 392.671 59.8218C392.69 59.7633 392.697 59.7013 392.691 59.64C392.688 59.5756 392.673 59.5124 392.646 59.4538C392.619 59.3953 392.581 59.3427 392.534 59.2989C392.487 59.2552 392.431 59.2211 392.371 59.1988C392.31 59.1765 392.246 59.1663 392.182 59.1688C391.409 59.1866 390.651 59.3892 389.973 59.7597C389.294 60.1302 388.714 60.6578 388.281 61.2984C388.217 61.4117 388.199 61.5451 388.231 61.6713C388.262 61.7975 388.341 61.9068 388.45 61.9768C388.561 62.0396 388.691 62.057 388.814 62.0253C388.937 61.9937 389.043 61.9155 389.11 61.8072C389.461 61.3014 389.929 60.887 390.473 60.5985C391.017 60.31 391.622 60.1558 392.238 60.1488C392.304 60.1468 392.368 60.1305 392.427 60.1013C392.485 60.072 392.537 60.0303 392.577 59.9792Z" fill="#263238"/>
<path d="M411.818 55.3247C418.056 59.8099 429.966 66.9146 436.732 64.2197C436.732 64.2197 442.819 69.2891 436.977 81.9909C430.551 95.9742 426.97 85.4962 426.97 85.4962C428.647 77.0158 422.899 74.6224 416.963 73.5105L411.818 55.3247Z" fill="#E4897B"/>
<path d="M413.703 46.9383C419.527 55.3245 423.371 59.9417 422.561 67.2348C421.373 78.2217 408.596 82.3111 400.38 75.8849C392.973 70.0428 384.681 57.3033 389.996 47.9371C391.159 45.8636 392.833 44.1219 394.859 42.8775C396.885 41.6331 399.196 40.9274 401.571 40.8273C403.947 40.7272 406.308 41.2361 408.432 42.3057C410.555 43.3753 412.37 44.97 413.703 46.9383Z" fill="#E4897B"/>
<path d="M423.069 60.7708C422.184 65.5387 406.109 72.078 398.928 61.7885C398.928 61.7885 389.807 61.7885 384.323 56.1349C378.839 50.4812 380.027 44.6957 384.926 41.4543C389.261 38.5898 400.455 17.5395 413.496 32.5593C427.649 32.0693 424.144 54.8534 423.069 60.7708Z" fill="#263238"/>
<path d="M396.026 39.2684C396.026 39.2684 387.621 38.8538 382.834 42.6983C378.048 46.5427 379.348 58.3777 381.214 60.6014C381.654 61.2144 382.216 61.73 382.864 62.1159C383.513 62.5018 384.234 62.7497 384.983 62.844C384.983 62.844 382.137 61.3552 382.137 59.0749C382.137 59.0749 383.381 61.996 389.091 62.844C388.645 62.4941 388.288 62.0436 388.049 61.5295C387.81 61.0153 387.695 60.4519 387.715 59.8853C387.715 59.8853 390.806 63.8993 397.967 59.8853C405.128 55.8712 396.026 39.2684 396.026 39.2684Z" fill="#263238"/>
<path d="M403.169 60.0169C404.606 62.1123 405.314 64.6219 405.185 67.1593C404.978 70.495 402.189 70.7588 399.984 68.6481C397.779 66.5374 395.744 62.7495 397.044 59.9604C398.344 57.1713 401.397 57.5293 403.169 60.0169Z" fill="#E4897B"/>
<path d="M419.903 87.8706C419.903 87.8706 418.339 68.8933 430.72 58.2456L445.476 59.6025C445.476 59.6025 436.977 80.3513 419.903 87.8706Z" fill="#DA8DA0"/>
<path opacity="0.6" d="M419.903 87.8706C419.903 87.8706 418.339 68.8933 430.72 58.2456L445.476 59.6025C445.476 59.6025 436.977 80.3513 419.903 87.8706Z" fill="#A86363"/>
<path d="M462.437 130.555C462.437 130.555 440.124 108.638 415.475 93.3167C415.475 93.3167 431.889 54.7402 452.694 51.2915C452.694 51.2915 506.46 67.5362 522.064 111.597L462.437 130.555Z" fill="#DA8DA0"/>
<path d="M465.264 264.169L455.653 268.259L445.231 246.379L454.861 242.29L465.264 264.169Z" fill="#E4897B"/>
<path d="M522.064 111.541L516.411 171.846C512.103 174.556 507.319 176.424 502.314 177.349C490.555 180.081 474.875 181.325 461.326 182.06C446.117 182.889 433.623 183.04 432.492 183.945C429.854 186.018 463.342 255.18 463.342 255.18L447.361 257.178C447.361 257.178 405.355 199.549 399.908 179.535C397.911 172.147 395.894 162.894 409.463 154.244C421.411 146.706 465.886 140.92 465.886 140.92L462.456 130.65L522.064 111.541Z" fill="#263238"/>
<path opacity="0.2" d="M502.295 177.292C490.536 180.025 474.856 181.268 461.307 182.003C459.422 159.766 470.729 138.433 470.729 138.433L486.635 134.362L502.295 177.292Z" fill="black"/>
<path d="M605.455 255.312L607.17 265.62L583.443 270.596L581.729 260.268L605.455 255.312Z" fill="#E4897B"/>
<path d="M607.66 265.997C607.621 265.969 607.575 265.955 607.528 265.955C607.48 265.955 607.434 265.969 607.396 265.997C607.351 266.016 607.313 266.047 607.286 266.087C607.259 266.128 607.245 266.175 607.245 266.223C607.245 266.412 607.396 270.614 608.696 271.877C608.936 272.117 609.261 272.253 609.601 272.254C609.795 272.271 609.99 272.228 610.159 272.13C610.328 272.033 610.462 271.885 610.543 271.707C610.826 271.01 610.298 269.823 609.601 268.673C609.037 267.724 608.387 266.828 607.66 265.997ZM607.773 266.883C609.035 268.39 610.411 270.652 610.091 271.406C610.091 271.519 609.94 271.651 609.601 271.67C609.387 271.665 609.184 271.577 609.035 271.425C608.922 271.314 608.827 271.187 608.753 271.048C608.164 269.734 607.831 268.321 607.773 266.883Z" fill="#DA8DA0"/>
<path d="M607.584 265.941C607.547 265.919 607.505 265.908 607.462 265.908C607.419 265.908 607.376 265.919 607.339 265.941C607.339 265.941 604.984 267.731 604.757 269.427C604.687 269.921 604.816 270.422 605.115 270.822C605.53 271.368 605.926 271.349 606.19 271.236C607.302 270.784 607.905 267.467 607.735 266.091C607.735 266.091 607.735 266.091 607.735 265.997C607.716 265.977 607.692 265.962 607.666 265.952C607.64 265.942 607.612 265.938 607.584 265.941ZM605.247 269.54C605.599 268.396 606.305 267.393 607.264 266.675C607.264 268.164 606.661 270.445 606.001 270.822C606.001 270.822 605.775 270.916 605.511 270.558C605.501 270.514 605.501 270.469 605.511 270.426C605.319 270.172 605.226 269.857 605.247 269.54Z" fill="#DA8DA0"/>
<path d="M605.869 265.865L599.877 256.141C599.773 255.959 599.732 255.749 599.759 255.541C599.786 255.334 599.881 255.141 600.027 254.992L606.849 248.358C607.015 248.198 607.215 248.077 607.434 248.005C607.653 247.933 607.886 247.912 608.114 247.943C608.343 247.974 608.561 248.056 608.754 248.183C608.946 248.311 609.107 248.48 609.224 248.678C611.335 252.221 614.256 257.404 616.969 261.87C620.135 267.034 623.17 271.293 626.882 277.361C629.144 281.017 626.072 284.296 624.79 283.015C618.967 276.984 615.368 271.406 607.829 267.675C607.024 267.261 606.346 266.636 605.869 265.865Z" fill="#263238"/>
<path d="M522.064 111.541C522.064 111.541 541.23 160.784 508.873 179.893C508.873 179.893 508.458 236.806 516.637 243.477C526.568 251.581 599.368 255.708 599.368 255.708L598.746 273.799C598.746 273.799 520.802 280.169 497.207 271.708C469.561 261.795 463.417 131.404 463.417 131.404L522.064 111.541Z" fill="#263238"/>
<path opacity="0.2" d="M499.921 141.768L511.549 138.263C512.378 143.347 512.907 148.476 513.132 153.622L507.742 158.258L502.635 156.637C502.014 151.633 501.108 146.669 499.921 141.768Z" fill="black"/>
<path d="M466.282 130.593L467.79 135.38L463.474 136.718L461.966 131.969L466.282 130.593Z" fill="#263238"/>
<path d="M486.126 124.223L487.747 129.179L469.938 134.701L468.355 129.914L486.126 124.223Z" fill="#263238"/>
<path d="M508.307 117.119L509.928 122.301L490.008 128.482L488.425 123.488L508.307 117.119Z" fill="#263238"/>
<path d="M524.514 117.778L512.246 121.585H512.227L510.587 116.383L522.762 112.482L524.514 117.778Z" fill="#263238"/>
<g opacity="0.2">
<path d="M466.282 130.593L467.79 135.379L463.474 136.718L461.966 131.968L466.282 130.593Z" fill="white"/>
<path d="M486.126 124.223L487.747 129.179L469.938 134.701L468.355 129.914L486.126 124.223Z" fill="white"/>
<path d="M508.307 117.118L509.928 122.301L490.008 128.482L488.425 123.488L508.307 117.118Z" fill="white"/>
<path d="M524.514 117.778L512.246 121.585H512.227L510.587 116.383L522.762 112.482L524.514 117.778Z" fill="white"/>
</g>
<path d="M452.694 265.206C452.742 265.192 452.785 265.166 452.818 265.129C452.851 265.092 452.874 265.047 452.883 264.998C452.892 264.946 452.885 264.892 452.861 264.844C452.837 264.797 452.798 264.758 452.751 264.734C452.6 264.734 448.887 262.661 447.097 263.17C446.77 263.261 446.492 263.478 446.324 263.773C446.213 263.934 446.154 264.125 446.154 264.32C446.154 264.515 446.213 264.706 446.324 264.866C446.777 265.451 448.077 265.601 449.415 265.564C450.517 265.548 451.615 265.428 452.694 265.206ZM451.884 264.847C449.999 265.168 447.304 265.224 446.795 264.565C446.795 264.471 446.664 264.32 446.795 264.018C446.841 263.926 446.907 263.846 446.989 263.783C447.07 263.721 447.166 263.679 447.267 263.66C447.422 263.632 447.582 263.632 447.738 263.66C449.184 263.782 450.592 264.185 451.884 264.847Z" fill="#DA8DA0"/>
<path d="M452.789 265.168C452.826 265.14 452.855 265.102 452.871 265.059C452.888 265.016 452.892 264.968 452.883 264.923C452.741 263.451 452.142 262.06 451.168 260.947C450.973 260.792 450.75 260.677 450.51 260.609C450.271 260.541 450.02 260.521 449.773 260.551C449.095 260.551 448.906 260.984 448.869 261.267C448.718 262.454 451.262 264.659 452.544 265.187H452.638L452.789 265.168ZM450.904 261.399C451.706 262.292 452.213 263.411 452.355 264.603C451.055 263.849 449.302 262.115 449.396 261.399C449.396 261.399 449.396 261.173 449.886 261.116H450.037C450.328 261.099 450.617 261.172 450.866 261.323L450.904 261.399Z" fill="#DA8DA0"/>
<path d="M453.712 263.717L465.132 263.453C465.341 263.444 465.546 263.509 465.712 263.636C465.877 263.764 465.993 263.946 466.037 264.15L468.336 273.385C468.386 273.608 468.386 273.839 468.336 274.062C468.286 274.285 468.188 274.494 468.047 274.675C467.906 274.855 467.727 275.002 467.523 275.105C467.319 275.207 467.095 275.264 466.866 275.269C462.739 275.269 456.784 275.269 451.62 275.269C445.552 275.401 440.313 275.853 433.246 276.023C428.949 276.136 427.592 271.82 429.477 271.387C437.618 269.389 444.289 269.05 451.262 264.527C451.993 264.045 452.838 263.766 453.712 263.717Z" fill="#263238"/>
<path opacity="0.7" d="M522.064 111.559L462.437 130.555C462.437 130.555 451.922 120.247 437.354 108.808C434.584 106.641 431.7 104.436 428.666 102.25C424.426 99.159 419.979 96.1249 415.475 93.3169C415.475 93.3169 431.908 54.7404 452.713 51.3105C452.694 51.3105 506.46 67.5364 522.064 111.559Z" fill="#A86363"/>
<path opacity="0.1" d="M437.354 108.808C434.584 106.641 431.701 104.436 428.667 102.25L429.835 98.7256C433.008 101.534 435.567 104.966 437.354 108.808Z" fill="black"/>
<path d="M351.212 148.157L347.103 149.137C346.602 149.253 346.146 149.516 345.794 149.891C345.441 150.267 345.208 150.739 345.125 151.247L344.201 156.901C344.103 157.487 344.208 158.089 344.5 158.607C344.791 159.124 345.251 159.527 345.803 159.747L348.818 160.934C348.818 160.934 357.487 167.191 364.818 163.158L361.652 154.771L355.452 149.118C354.875 148.627 354.188 148.284 353.45 148.117C352.712 147.949 351.944 147.963 351.212 148.157Z" fill="#E4897B"/>
<path d="M426.047 94.8996C427.637 96.0052 428.968 97.4449 429.944 99.118C430.921 100.791 431.52 102.657 431.7 104.586C431.7 104.586 427.554 115.893 425.161 121.415C423.521 125.184 421.825 128.953 419.847 132.722C417.805 136.857 415.356 140.778 412.535 144.425L411.875 145.198L411.121 146.027C410.524 146.638 409.895 147.217 409.237 147.761C408.834 148.099 408.412 148.414 407.974 148.703C407.559 148.986 406.956 149.382 406.787 149.457L405.185 150.286C403.112 151.323 401.171 152.171 399.23 152.943C395.348 154.526 391.522 155.921 387.677 157.24C379.951 159.822 372.281 162.178 364.403 164.156L360.634 154.074C367.701 150.456 374.9 147.026 381.93 143.502C385.454 141.749 388.959 139.997 392.313 138.225C393.972 137.339 395.63 136.341 397.062 135.549L398.08 134.908C398.212 134.795 398.212 134.776 398.382 134.531L398.608 134.249L398.872 133.853C400.695 131.009 402.283 128.022 403.621 124.92C405.109 121.528 406.617 118.004 407.993 114.405C410.725 107.243 413.345 99.7806 415.795 92.5439C419.385 92.0538 423.031 92.8915 426.047 94.8996Z" fill="#DA8DA0"/>
<path opacity="0.7" d="M426.047 94.8996C427.637 96.0052 428.968 97.4449 429.944 99.118C430.921 100.791 431.52 102.657 431.7 104.586C431.7 104.586 427.554 115.893 425.161 121.415C423.521 125.184 421.825 128.953 419.847 132.722C417.805 136.857 415.356 140.778 412.535 144.425L411.875 145.198L411.121 146.027C410.524 146.638 409.895 147.217 409.237 147.761C408.834 148.099 408.412 148.414 407.974 148.703C407.559 148.986 406.956 149.382 406.787 149.457L405.185 150.286C403.112 151.323 401.171 152.171 399.23 152.943C395.348 154.526 391.522 155.921 387.677 157.24C379.951 159.822 372.281 162.178 364.403 164.156L360.634 154.074C367.701 150.456 374.9 147.026 381.93 143.502C385.454 141.749 388.959 139.997 392.313 138.225C393.972 137.339 395.63 136.341 397.062 135.549L398.08 134.908C398.212 134.795 398.212 134.776 398.382 134.531L398.608 134.249L398.872 133.853C400.695 131.009 402.283 128.022 403.621 124.92C405.109 121.528 406.617 118.004 407.993 114.405C410.725 107.243 413.345 99.7806 415.795 92.5439C419.385 92.0538 423.031 92.8915 426.047 94.8996Z" fill="#A86363"/>
<path d="M81.4019 594.906H399.663L568.103 458.842L575.49 467.982H616.969L659.239 273.441L617.723 273.517L617.742 273.441L418.659 273.837L442.423 303.255L81.4019 594.906Z" fill="#DA8DA0"/>
<path opacity="0.2" d="M81.4019 594.906H358.184L551.708 438.565L575.49 467.982L617.742 273.441L418.659 273.837L442.423 303.255L81.4019 594.906Z" fill="white"/>
<path d="M74.9192 583.674H303.438C303.326 582.698 303.269 581.717 303.269 580.734C303.266 577.246 303.951 573.791 305.285 570.567C306.618 567.343 308.574 564.414 311.039 561.946C313.505 559.479 316.433 557.521 319.656 556.185C322.879 554.85 326.333 554.162 329.822 554.162H330.802C332.731 549.004 336.411 544.686 341.199 541.964C345.987 539.242 351.578 538.288 356.998 539.269C362.417 540.25 367.32 543.103 370.851 547.33C374.381 551.557 376.315 556.89 376.314 562.398C381.867 562.661 387.125 564.978 391.067 568.899C395.009 572.82 397.354 578.065 397.647 583.618H398.721C400.311 583.554 401.898 583.812 403.385 584.377C404.873 584.942 406.232 585.801 407.379 586.904C408.527 588.007 409.44 589.33 410.064 590.794C410.687 592.258 411.009 593.833 411.009 595.424C411.009 597.016 410.687 598.591 410.064 600.055C409.44 601.519 408.527 602.842 407.379 603.945C406.232 605.047 404.873 605.907 403.385 606.471C401.898 607.036 400.311 607.294 398.721 607.231H74.9192C73.329 607.294 71.7424 607.036 70.2546 606.471C68.7667 605.907 67.4082 605.047 66.2607 603.945C65.1131 602.842 64.2001 601.519 63.5765 600.055C62.9528 598.591 62.6313 597.016 62.6313 595.424C62.6313 593.833 62.9528 592.258 63.5765 590.794C64.2001 589.33 65.1131 588.007 66.2607 586.904C67.4082 585.801 68.7667 584.942 70.2546 584.377C71.7424 583.812 73.329 583.554 74.9192 583.618V583.674Z" fill="#DA8DA0"/>
<path opacity="0.7" d="M74.9192 583.674H303.438C303.326 582.698 303.269 581.717 303.269 580.734C303.266 577.246 303.951 573.791 305.285 570.567C306.618 567.343 308.574 564.414 311.039 561.946C313.505 559.479 316.433 557.521 319.656 556.185C322.879 554.85 326.333 554.162 329.822 554.162H330.802C332.731 549.004 336.411 544.686 341.199 541.964C345.987 539.242 351.578 538.288 356.998 539.269C362.417 540.25 367.32 543.103 370.851 547.33C374.381 551.557 376.315 556.89 376.314 562.398C381.867 562.661 387.125 564.978 391.067 568.899C395.009 572.82 397.354 578.065 397.647 583.618H398.721C400.311 583.554 401.898 583.812 403.385 584.377C404.873 584.942 406.232 585.801 407.379 586.904C408.527 588.007 409.44 589.33 410.064 590.794C410.687 592.258 411.009 593.833 411.009 595.424C411.009 597.016 410.687 598.591 410.064 600.055C409.44 601.519 408.527 602.842 407.379 603.945C406.232 605.047 404.873 605.907 403.385 606.471C401.898 607.036 400.311 607.294 398.721 607.231H74.9192C73.329 607.294 71.7424 607.036 70.2546 606.471C68.7667 605.907 67.4082 605.047 66.2607 603.945C65.1131 602.842 64.2001 601.519 63.5765 600.055C62.9528 598.591 62.6313 597.016 62.6313 595.424C62.6313 593.833 62.9528 592.258 63.5765 590.794C64.2001 589.33 65.1131 588.007 66.2607 586.904C67.4082 585.801 68.7667 584.942 70.2546 584.377C71.7424 583.812 73.329 583.554 74.9192 583.618V583.674Z" fill="white"/>
</g>
<defs>
<clipPath id="clip0_329_434">
<rect width="731" height="634" fill="white"/>
</clipPath>
</defs>
</svg>
