<svg width="1292" height="1292" viewBox="0 0 1292 1292" fill="none" xmlns="http://www.w3.org/2000/svg">
<g clip-path="url(#clip0_405_295)">
<path d="M213.413 628.067L179.511 628.791L162.301 629.075C156.539 629.204 150.751 629.075 144.988 629.204H143.851V628.041L143.696 599.126V597.834H144.988L179.2 597.99C190.622 597.99 202.017 598.274 213.413 598.429H214.136V599.126C214.136 604.036 213.904 608.92 213.8 613.726L213.413 628.067ZM213.413 628.067L213.051 613.442C213.051 608.636 212.767 603.881 212.715 599.152L213.413 599.85C202.017 599.979 190.622 600.263 179.2 600.289L144.988 600.444L146.28 599.152V628.067L145.117 626.904C150.751 626.904 156.384 626.904 162.043 627.06L179.045 627.344L213.413 628.067Z" fill="#EBEBEB"/>
<path d="M175.247 664.527L141.345 665.251L124.135 665.535C118.373 665.664 112.585 665.535 106.823 665.664H105.686V664.502L105.531 635.664V634.372H106.823L141.035 634.527C152.43 634.527 163.851 634.811 175.247 634.966H175.97V635.664C175.97 640.574 175.764 645.457 175.634 650.264L175.247 664.527ZM175.247 664.527L174.885 649.902C174.756 645.096 174.601 640.341 174.549 635.612L175.247 636.31C163.851 636.439 152.43 636.724 141.035 636.724L106.823 636.904L108.115 635.612L107.985 664.527L106.823 663.365C112.456 663.365 118.089 663.365 123.748 663.52L140.75 663.804L175.247 664.527Z" fill="#EBEBEB"/>
<path d="M1185.18 664.527L1151.25 665.251L1134.04 665.535C1128.3 665.664 1122.52 665.535 1116.75 665.664H1115.59V664.502L1115.46 635.664V634.372H1116.75L1150.97 634.527C1162.36 634.527 1173.78 634.811 1185.18 634.966H1185.87V635.664C1185.87 640.574 1185.67 645.457 1185.54 650.264L1185.18 664.527ZM1185.18 664.527L1184.82 649.902C1184.82 645.096 1184.51 640.341 1184.48 635.612L1185.18 636.31C1173.78 636.439 1162.36 636.724 1150.97 636.724L1116.75 636.904L1118.04 635.612L1117.89 664.527L1116.75 663.365C1122.39 663.365 1128.02 663.365 1133.65 663.52L1150.66 663.804L1185.18 664.527Z" fill="#EBEBEB"/>
<path d="M1147.01 151.681L1113.08 152.456L1095.87 152.74C1090.14 152.74 1084.35 152.74 1078.59 152.895H1077.53V151.681V122.766V121.448H1078.85L1113.06 121.629C1124.45 121.629 1135.85 121.913 1147.27 122.042H1147.97V122.74C1147.97 127.65 1147.74 132.533 1147.63 137.365L1147.01 151.681ZM1147.01 151.681L1146.65 137.081C1146.52 132.275 1146.34 127.495 1146.29 122.766L1147.01 123.489C1135.59 123.619 1124.2 123.877 1112.8 123.903L1078.59 124.032L1079.88 122.74L1079.72 151.655L1078.59 150.518C1084.22 150.518 1089.83 150.518 1095.49 150.647L1112.49 150.931L1147.01 151.681Z" fill="#EBEBEB"/>
<path d="M1185.18 188.141L1151.25 188.865L1134.04 189.149C1128.3 189.149 1122.52 189.149 1116.75 189.304H1115.59V188.141L1115.46 159.226V157.934H1116.75L1150.97 158.115C1162.36 158.115 1173.78 158.399 1185.18 158.528H1185.87V159.226C1185.87 164.136 1185.67 169.019 1185.54 173.852L1185.18 188.141ZM1185.18 188.141L1184.82 173.541C1184.82 168.735 1184.51 163.955 1184.48 159.226L1185.18 159.95C1173.78 160.079 1162.36 160.337 1150.97 160.363L1116.75 160.518L1118.04 159.226L1117.89 188.141L1116.75 187.004C1122.39 187.004 1128.02 187.004 1133.65 187.004L1150.66 187.288L1185.18 188.141Z" fill="#EBEBEB"/>
<path d="M213.413 151.681L179.511 152.456L162.301 152.74C156.539 152.74 150.751 152.74 144.988 152.895H143.851V151.681L143.696 122.766V121.448H144.988L179.2 121.629C190.622 121.629 202.017 121.913 213.413 122.042H214.136V122.74C214.136 127.65 213.904 132.533 213.8 137.365L213.413 151.681ZM213.413 151.681L213.051 137.081C213.051 132.275 212.767 127.495 212.715 122.766L213.413 123.489C202.017 123.619 190.622 123.877 179.2 123.903L144.988 124.032L146.28 122.74V151.655L145.117 150.518C150.751 150.518 156.384 150.518 162.043 150.647L179.045 150.931L213.413 151.681Z" fill="#EBEBEB"/>
<path d="M1196 737.629H1129.29V747.551H1196V737.629Z" fill="#EBEBEB"/>
<path d="M1040.65 826.88H1010.47V811.815H1040.65V826.88ZM1011.12 826.234H1040.01V812.461H1011.12V826.234Z" fill="#C7C7C7"/>
<path d="M1185.88 198.865H485.715V504.474H1185.88V198.865Z" fill="white"/>
<path d="M1185.85 385.016V509.539H896.338V299.589H945.899V359.822H958.69V325.739H1021.71V379.719H1030.09V253.025H1084.87V287.806H1112.98V331.036H1121.46V303.827H1171.28V385.016H1185.85Z" fill="#EBEBEB"/>
<path d="M910.808 307.16H902.41V318.659H910.808V307.16Z" fill="white"/>
<path d="M925.356 307.16H916.958V318.659H925.356V307.16Z" fill="white"/>
<path d="M939.904 307.16H931.506V318.659H939.904V307.16Z" fill="white"/>
<path d="M910.808 324.473H902.41V335.972H910.808V324.473Z" fill="white"/>
<path d="M925.356 324.473H916.958V335.972H925.356V324.473Z" fill="white"/>
<path d="M939.904 324.473H931.506V335.972H939.904V324.473Z" fill="white"/>
<path d="M910.808 341.812H902.41V353.336H910.808V341.812Z" fill="white"/>
<path d="M925.356 341.812H916.958V353.336H925.356V341.812Z" fill="white"/>
<path d="M939.904 341.812H931.506V353.336H939.904V341.812Z" fill="white"/>
<path d="M910.808 359.125H902.41V370.623H910.808V359.125Z" fill="white"/>
<path d="M925.356 359.125H916.958V370.623H925.356V359.125Z" fill="white"/>
<path d="M939.904 359.125H931.506V370.623H939.904V359.125Z" fill="white"/>
<path d="M1014.14 333.104H965.848V340.313H1014.14V333.104Z" fill="white"/>
<path d="M1014.14 347.057H965.848V354.267H1014.14V347.057Z" fill="white"/>
<path d="M1014.14 361.037H965.848V368.246H1014.14V361.037Z" fill="white"/>
<path d="M1014.14 375.016H965.848V382.225H1014.14V375.016Z" fill="white"/>
<path d="M1014.14 388.97H965.848V396.179H1014.14V388.97Z" fill="white"/>
<path d="M1014.14 402.949H965.848V410.159H1014.14V402.949Z" fill="white"/>
<path d="M1014.14 416.903H965.848V424.112H1014.14V416.903Z" fill="white"/>
<path d="M1014.14 430.882H965.848V438.091H1014.14V430.882Z" fill="white"/>
<path d="M1150.94 310.364H1136.03V317.315H1150.94V310.364Z" fill="white"/>
<path d="M1150.94 323.853H1136.03V330.804H1150.94V323.853Z" fill="white"/>
<path d="M1150.94 337.341H1136.03V344.292H1150.94V337.341Z" fill="white"/>
<path d="M1150.94 350.83H1136.03V357.781H1150.94V350.83Z" fill="white"/>
<path d="M1150.94 364.318H1136.03V371.269H1150.94V364.318Z" fill="white"/>
<path d="M1150.94 377.807H1136.03V384.758H1150.94V377.807Z" fill="white"/>
<path d="M1150.94 391.295H1136.03V398.246H1150.94V391.295Z" fill="white"/>
<path d="M1150.94 404.784H1136.03V411.735H1150.94V404.784Z" fill="white"/>
<path d="M1171.25 310.364H1156.34V317.315H1171.25V310.364Z" fill="white"/>
<path d="M1171.25 323.853H1156.34V330.804H1171.25V323.853Z" fill="white"/>
<path d="M1171.25 337.341H1156.34V344.292H1171.25V337.341Z" fill="white"/>
<path d="M1171.25 350.83H1156.34V357.781H1171.25V350.83Z" fill="white"/>
<path d="M1171.25 364.318H1156.34V371.269H1171.25V364.318Z" fill="white"/>
<path d="M1171.25 377.807H1156.34V384.758H1171.25V377.807Z" fill="white"/>
<path d="M1171.25 391.295H1156.34V398.246H1171.25V391.295Z" fill="white"/>
<path d="M1171.25 404.784H1156.34V411.735H1171.25V404.784Z" fill="white"/>
<path d="M1053.91 260.312H1038.38V271.268H1053.91V260.312Z" fill="white"/>
<path d="M1077.09 260.312H1061.56V271.268H1077.09V260.312Z" fill="white"/>
<path d="M1053.91 276.411H1038.38V287.367H1053.91V276.411Z" fill="white"/>
<path d="M1077.09 276.411H1061.56V287.367H1077.09V276.411Z" fill="white"/>
<path d="M1053.91 292.535H1038.38V303.491H1053.91V292.535Z" fill="white"/>
<path d="M1077.09 292.535H1061.56V303.491H1077.09V292.535Z" fill="white"/>
<path d="M1053.91 308.633H1038.38V319.589H1053.91V308.633Z" fill="white"/>
<path d="M1077.09 308.633H1061.56V319.589H1077.09V308.633Z" fill="white"/>
<path d="M1053.91 324.731H1038.38V335.688H1053.91V324.731Z" fill="white"/>
<path d="M1077.09 324.731H1061.56V335.688H1077.09V324.731Z" fill="white"/>
<path d="M1053.91 340.855H1038.38V351.812H1053.91V340.855Z" fill="white"/>
<path d="M1077.09 340.855H1061.56V351.812H1077.09V340.855Z" fill="white"/>
<path d="M1053.91 356.954H1038.38V367.91H1053.91V356.954Z" fill="white"/>
<path d="M1077.09 356.954H1061.56V367.91H1077.09V356.954Z" fill="white"/>
<path d="M1053.91 373.052H1038.38V384.008H1053.91V373.052Z" fill="white"/>
<path d="M1077.09 373.052H1061.56V384.008H1077.09V373.052Z" fill="white"/>
<path d="M1105.8 292.535H1090.27V303.491H1105.8V292.535Z" fill="white"/>
<path d="M1105.8 308.633H1090.27V319.589H1105.8V308.633Z" fill="white"/>
<path d="M1105.8 324.731H1090.27V335.688H1105.8V324.731Z" fill="white"/>
<path d="M1105.8 340.855H1090.27V351.812H1105.8V340.855Z" fill="white"/>
<path d="M1105.8 356.954H1090.27V367.91H1105.8V356.954Z" fill="white"/>
<path d="M1105.8 373.052H1090.27V384.008H1105.8V373.052Z" fill="white"/>
<path d="M1053.91 388.97H1038.38V399.926H1053.91V388.97Z" fill="white"/>
<path d="M1077.09 388.97H1061.56V399.926H1077.09V388.97Z" fill="white"/>
<path d="M1105.8 388.97H1090.27V399.926H1105.8V388.97Z" fill="white"/>
<path d="M1053.91 404.887H1038.38V415.843H1053.91V404.887Z" fill="white"/>
<path d="M1077.09 404.887H1061.56V415.843H1077.09V404.887Z" fill="white"/>
<path d="M1105.8 404.887H1090.27V415.843H1105.8V404.887Z" fill="white"/>
<path d="M1053.91 420.804H1038.38V431.761H1053.91V420.804Z" fill="white"/>
<path d="M1077.09 420.804H1061.56V431.761H1077.09V420.804Z" fill="white"/>
<path d="M1105.8 420.804H1090.27V431.761H1105.8V420.804Z" fill="white"/>
<path d="M1053.91 436.722H1038.38V447.678H1053.91V436.722Z" fill="white"/>
<path d="M1077.09 436.722H1061.56V447.678H1077.09V436.722Z" fill="white"/>
<path d="M1105.8 436.722H1090.27V447.678H1105.8V436.722Z" fill="white"/>
<path d="M1053.91 452.639H1038.38V463.596H1053.91V452.639Z" fill="white"/>
<path d="M1077.09 452.639H1061.56V463.596H1077.09V452.639Z" fill="white"/>
<path d="M1105.8 452.639H1090.27V463.596H1105.8V452.639Z" fill="white"/>
<path d="M896.338 509.565H482.407V299.589H531.994V359.796H544.733V325.713H607.783V379.693H616.129V253.025H670.936V287.78H699.024V331.062H707.525V303.853H757.345V385.016H771.918V319.047H817.474V268.891H848.431L884.271 269.072V366.98H896.338V509.565Z" fill="#EBEBEB"/>
<path d="M496.877 307.16H488.479V318.659H496.877V307.16Z" fill="white"/>
<path d="M511.425 307.16H503.027V318.659H511.425V307.16Z" fill="white"/>
<path d="M525.947 307.16H517.549V318.659H525.947V307.16Z" fill="white"/>
<path d="M496.877 324.473H488.479V335.972H496.877V324.473Z" fill="white"/>
<path d="M511.425 324.473H503.027V335.972H511.425V324.473Z" fill="white"/>
<path d="M525.947 324.473H517.549V335.972H525.947V324.473Z" fill="white"/>
<path d="M496.877 341.812H488.479V353.336H496.877V341.812Z" fill="white"/>
<path d="M511.425 341.812H503.027V353.336H511.425V341.812Z" fill="white"/>
<path d="M525.947 341.812H517.549V353.336H525.947V341.812Z" fill="white"/>
<path d="M496.877 359.125H488.479V370.623H496.877V359.125Z" fill="white"/>
<path d="M511.425 359.125H503.027V370.623H511.425V359.125Z" fill="white"/>
<path d="M525.947 359.125H517.549V370.623H525.947V359.125Z" fill="white"/>
<path d="M787.293 327.264H778.895V336.876H787.293V327.264Z" fill="white"/>
<path d="M801.841 327.264H793.443V336.876H801.841V327.264Z" fill="white"/>
<path d="M816.389 327.264H807.991V336.876H816.389V327.264Z" fill="white"/>
<path d="M787.293 341.708H778.895V351.321H787.293V341.708Z" fill="white"/>
<path d="M801.841 341.708H793.443V351.321H801.841V341.708Z" fill="white"/>
<path d="M816.389 341.708H807.991V351.321H816.389V341.708Z" fill="white"/>
<path d="M787.293 356.153H778.895V365.765H787.293V356.153Z" fill="white"/>
<path d="M801.841 356.153H793.443V365.765H801.841V356.153Z" fill="white"/>
<path d="M816.389 356.153H807.991V365.765H816.389V356.153Z" fill="white"/>
<path d="M787.293 370.597H778.895V380.21H787.293V370.597Z" fill="white"/>
<path d="M801.841 370.597H793.443V380.21H801.841V370.597Z" fill="white"/>
<path d="M816.389 370.597H807.991V380.21H816.389V370.597Z" fill="white"/>
<path d="M787.293 385.404H778.895V395.016H787.293V385.404Z" fill="white"/>
<path d="M801.841 385.404H793.443V395.016H801.841V385.404Z" fill="white"/>
<path d="M816.389 385.404H807.991V395.016H816.389V385.404Z" fill="white"/>
<path d="M787.293 400.21H778.895V409.822H787.293V400.21Z" fill="white"/>
<path d="M801.841 400.21H793.443V409.822H801.841V400.21Z" fill="white"/>
<path d="M816.389 400.21H807.991V409.822H816.389V400.21Z" fill="white"/>
<path d="M787.293 415.042H778.895V424.655H787.293V415.042Z" fill="white"/>
<path d="M801.841 415.042H793.443V424.655H801.841V415.042Z" fill="white"/>
<path d="M816.389 415.042H807.991V424.655H816.389V415.042Z" fill="white"/>
<path d="M787.293 429.849H778.895V439.461H787.293V429.849Z" fill="white"/>
<path d="M801.841 429.849H793.443V439.461H801.841V429.849Z" fill="white"/>
<path d="M816.389 429.849H807.991V439.461H816.389V429.849Z" fill="white"/>
<path d="M600.186 333.104H551.891V340.313H600.186V333.104Z" fill="white"/>
<path d="M600.186 347.057H551.891V354.267H600.186V347.057Z" fill="white"/>
<path d="M600.186 361.037H551.891V368.246H600.186V361.037Z" fill="white"/>
<path d="M600.186 375.016H551.891V382.225H600.186V375.016Z" fill="white"/>
<path d="M600.186 388.97H551.891V396.179H600.186V388.97Z" fill="white"/>
<path d="M600.186 402.949H551.891V410.159H600.186V402.949Z" fill="white"/>
<path d="M600.186 416.903H551.891V424.112H600.186V416.903Z" fill="white"/>
<path d="M600.186 430.882H551.891V438.091H600.186V430.882Z" fill="white"/>
<path d="M737.009 310.364H722.099V317.315H737.009V310.364Z" fill="white"/>
<path d="M737.009 323.853H722.099V330.804H737.009V323.853Z" fill="white"/>
<path d="M737.009 337.341H722.099V344.292H737.009V337.341Z" fill="white"/>
<path d="M737.009 350.83H722.099V357.781H737.009V350.83Z" fill="white"/>
<path d="M737.009 364.318H722.099V371.269H737.009V364.318Z" fill="white"/>
<path d="M737.009 377.807H722.099V384.758H737.009V377.807Z" fill="white"/>
<path d="M737.009 391.295H722.099V398.246H737.009V391.295Z" fill="white"/>
<path d="M737.009 404.784H722.099V411.735H737.009V404.784Z" fill="white"/>
<path d="M757.293 310.364H742.383V317.315H757.293V310.364Z" fill="white"/>
<path d="M757.293 323.853H742.383V330.804H757.293V323.853Z" fill="white"/>
<path d="M757.293 337.341H742.383V344.292H757.293V337.341Z" fill="white"/>
<path d="M757.293 350.83H742.383V357.781H757.293V350.83Z" fill="white"/>
<path d="M757.293 364.318H742.383V371.269H757.293V364.318Z" fill="white"/>
<path d="M757.293 377.807H742.383V384.758H757.293V377.807Z" fill="white"/>
<path d="M757.293 391.295H742.383V398.246H757.293V391.295Z" fill="white"/>
<path d="M757.293 404.784H742.383V411.735H757.293V404.784Z" fill="white"/>
<path d="M639.979 260.312H624.449V271.268H639.979V260.312Z" fill="white"/>
<path d="M663.132 260.312H647.602V271.268H663.132V260.312Z" fill="white"/>
<path d="M639.979 276.411H624.449V287.367H639.979V276.411Z" fill="white"/>
<path d="M663.132 276.411H647.602V287.367H663.132V276.411Z" fill="white"/>
<path d="M639.979 292.535H624.449V303.491H639.979V292.535Z" fill="white"/>
<path d="M663.132 292.535H647.602V303.491H663.132V292.535Z" fill="white"/>
<path d="M639.979 308.633H624.449V319.589H639.979V308.633Z" fill="white"/>
<path d="M663.132 308.633H647.602V319.589H663.132V308.633Z" fill="white"/>
<path d="M639.979 324.731H624.449V335.688H639.979V324.731Z" fill="white"/>
<path d="M663.132 324.731H647.602V335.688H663.132V324.731Z" fill="white"/>
<path d="M639.979 340.855H624.449V351.812H639.979V340.855Z" fill="white"/>
<path d="M663.132 340.855H647.602V351.812H663.132V340.855Z" fill="white"/>
<path d="M639.979 356.954H624.449V367.91H639.979V356.954Z" fill="white"/>
<path d="M663.132 356.954H647.602V367.91H663.132V356.954Z" fill="white"/>
<path d="M639.979 373.052H624.449V384.008H639.979V373.052Z" fill="white"/>
<path d="M663.132 373.052H647.602V384.008H663.132V373.052Z" fill="white"/>
<path d="M691.84 292.535H676.31V303.491H691.84V292.535Z" fill="white"/>
<path d="M691.84 308.633H676.31V319.589H691.84V308.633Z" fill="white"/>
<path d="M691.84 324.731H676.31V335.688H691.84V324.731Z" fill="white"/>
<path d="M691.84 340.855H676.31V351.812H691.84V340.855Z" fill="white"/>
<path d="M691.84 356.954H676.31V367.91H691.84V356.954Z" fill="white"/>
<path d="M691.84 373.052H676.31V384.008H691.84V373.052Z" fill="white"/>
<path d="M639.979 388.97H624.449V399.926H639.979V388.97Z" fill="white"/>
<path d="M663.132 388.97H647.602V399.926H663.132V388.97Z" fill="white"/>
<path d="M691.84 388.97H676.31V399.926H691.84V388.97Z" fill="white"/>
<path d="M639.979 404.887H624.449V415.843H639.979V404.887Z" fill="white"/>
<path d="M663.132 404.887H647.602V415.843H663.132V404.887Z" fill="white"/>
<path d="M691.84 404.887H676.31V415.843H691.84V404.887Z" fill="white"/>
<path d="M639.979 420.804H624.449V431.761H639.979V420.804Z" fill="white"/>
<path d="M663.132 420.804H647.602V431.761H663.132V420.804Z" fill="white"/>
<path d="M691.84 420.804H676.31V431.761H691.84V420.804Z" fill="white"/>
<path d="M639.979 436.722H624.449V447.678H639.979V436.722Z" fill="white"/>
<path d="M663.132 436.722H647.602V447.678H663.132V436.722Z" fill="white"/>
<path d="M691.84 436.722H676.31V447.678H691.84V436.722Z" fill="white"/>
<path d="M639.979 452.639H624.449V463.596H639.979V452.639Z" fill="white"/>
<path d="M663.132 452.639H647.602V463.596H663.132V452.639Z" fill="white"/>
<path d="M691.84 452.639H676.31V463.596H691.84V452.639Z" fill="white"/>
<path d="M832.203 275.971H823.805V285.584H832.203V275.971Z" fill="white"/>
<path d="M846.725 275.971H838.327V285.584H846.725V275.971Z" fill="white"/>
<path d="M832.203 290.416H823.805V300.028H832.203V290.416Z" fill="white"/>
<path d="M846.725 290.416H838.327V300.028H846.725V290.416Z" fill="white"/>
<path d="M832.203 304.86H823.805V314.473H832.203V304.86Z" fill="white"/>
<path d="M846.725 304.86H838.327V314.473H846.725V304.86Z" fill="white"/>
<path d="M832.203 319.305H823.805V328.917H832.203V319.305Z" fill="white"/>
<path d="M846.725 319.305H838.327V328.917H846.725V319.305Z" fill="white"/>
<path d="M832.203 334.111H823.805V343.724H832.203V334.111Z" fill="white"/>
<path d="M846.725 334.111H838.327V343.724H846.725V334.111Z" fill="white"/>
<path d="M832.203 348.943H823.805V358.556H832.203V348.943Z" fill="white"/>
<path d="M846.725 348.943H838.327V358.556H846.725V348.943Z" fill="white"/>
<path d="M832.203 363.75H823.805V373.362H832.203V363.75Z" fill="white"/>
<path d="M846.725 363.75H838.327V373.362H846.725V363.75Z" fill="white"/>
<path d="M832.203 378.556H823.805V388.169H832.203V378.556Z" fill="white"/>
<path d="M846.725 378.556H838.327V388.169H846.725V378.556Z" fill="white"/>
<path d="M832.203 393.518H823.805V403.13H832.203V393.518Z" fill="white"/>
<path d="M846.725 393.518H838.327V403.13H846.725V393.518Z" fill="white"/>
<path d="M832.203 408.479H823.805V418.091H832.203V408.479Z" fill="white"/>
<path d="M846.725 408.479H838.327V418.091H846.725V408.479Z" fill="white"/>
<path d="M832.203 423.44H823.805V433.053H832.203V423.44Z" fill="white"/>
<path d="M846.725 423.44H838.327V433.053H846.725V423.44Z" fill="white"/>
<path d="M832.203 438.402H823.805V448.014H832.203V438.402Z" fill="white"/>
<path d="M846.725 438.402H838.327V448.014H846.725V438.402Z" fill="white"/>
<path d="M863.289 275.971H854.891V285.584H863.289V275.971Z" fill="white"/>
<path d="M877.811 275.971H869.413V285.584H877.811V275.971Z" fill="white"/>
<path d="M863.289 290.416H854.891V300.028H863.289V290.416Z" fill="white"/>
<path d="M877.811 290.416H869.413V300.028H877.811V290.416Z" fill="white"/>
<path d="M863.289 304.86H854.891V314.473H863.289V304.86Z" fill="white"/>
<path d="M877.811 304.86H869.413V314.473H877.811V304.86Z" fill="white"/>
<path d="M863.289 319.305H854.891V328.917H863.289V319.305Z" fill="white"/>
<path d="M877.811 319.305H869.413V328.917H877.811V319.305Z" fill="white"/>
<path d="M863.289 334.111H854.891V343.724H863.289V334.111Z" fill="white"/>
<path d="M877.811 334.111H869.413V343.724H877.811V334.111Z" fill="white"/>
<path d="M863.289 348.943H854.891V358.556H863.289V348.943Z" fill="white"/>
<path d="M877.811 348.943H869.413V358.556H877.811V348.943Z" fill="white"/>
<path d="M863.289 363.75H854.891V373.362H863.289V363.75Z" fill="white"/>
<path d="M877.811 363.75H869.413V373.362H877.811V363.75Z" fill="white"/>
<path d="M863.289 378.556H854.891V388.169H863.289V378.556Z" fill="white"/>
<path d="M877.811 378.556H869.413V388.169H877.811V378.556Z" fill="white"/>
<path d="M863.289 393.518H854.891V403.13H863.289V393.518Z" fill="white"/>
<path d="M877.811 393.518H869.413V403.13H877.811V393.518Z" fill="white"/>
<path d="M863.289 408.479H854.891V418.091H863.289V408.479Z" fill="white"/>
<path d="M877.811 408.479H869.413V418.091H877.811V408.479Z" fill="white"/>
<path d="M863.289 423.44H854.891V433.053H863.289V423.44Z" fill="white"/>
<path d="M877.811 423.44H869.413V433.053H877.811V423.44Z" fill="white"/>
<path d="M863.289 438.402H854.891V448.014H863.289V438.402Z" fill="white"/>
<path d="M877.811 438.402H869.413V448.014H877.811V438.402Z" fill="white"/>
<path d="M475.456 188.632V514.655H1196V188.632H475.456ZM1185.75 504.397H485.792V198.968H1186.06L1185.75 504.397Z" fill="#DBDBDB"/>
<path d="M840.859 198.865H830.704V504.474H840.859V198.865Z" fill="#DBDBDB"/>
<path d="M171.242 -1.55029H169.407V251.036H171.242V-1.55029Z" fill="#C7C7C7"/>
<path d="M246.41 324.37L240.286 337.832H100.337L94.2385 324.37L153.826 283.129H186.823L246.41 324.37Z" fill="#EBEBEB"/>
<path d="M190.958 243.413L186.823 283.129H153.826L149.691 243.413H190.958Z" fill="#DBDBDB"/>
<path d="M246.41 324.37L240.286 337.832H100.337L94.2385 324.37H246.41Z" fill="#DBDBDB"/>
<path d="M334.602 -1.55029H332.768V181.81H334.602V-1.55029Z" fill="#C7C7C7"/>
<path d="M409.771 255.144L403.647 268.581H263.723L257.599 255.144L317.186 213.904H350.21L409.771 255.144Z" fill="#EBEBEB"/>
<path d="M354.344 174.162L350.21 213.904H317.186L313.052 174.162H354.344Z" fill="#DBDBDB"/>
<path d="M409.771 255.144L403.647 268.581H263.697L257.599 255.144H409.771Z" fill="#DBDBDB"/>
<path d="M646 1197.48C850.946 1197.48 1017.09 1180.15 1017.09 1158.77C1017.09 1137.39 850.946 1120.06 646 1120.06C441.053 1120.06 274.912 1137.39 274.912 1158.77C274.912 1180.15 441.053 1197.48 646 1197.48Z" fill="#EBEBEB"/>
<path d="M378.168 650.212H179.536V1015.15H378.168V650.212Z" fill="#455A64"/>
<path d="M378.168 650.212H179.536V674.011H378.168V650.212Z" fill="#263238"/>
<path d="M94.2126 650.212L821.247 650.212V631.013L94.2126 631.013V650.212Z" fill="#455A64"/>
<path d="M778.895 650.212L779.541 674.011L787.913 1015.15H803.081V650.212H778.895Z" fill="#455A64"/>
<path d="M803.081 650.212H778.895L779.541 674.011H803.081V650.212Z" fill="#263238"/>
<path d="M179.536 650.212H112.223V1015.15H179.536V650.212Z" fill="#37474F"/>
<path d="M179.536 650.212H112.223V674.011H179.536V650.212Z" fill="#263238"/>
<path d="M94.2385 1015.15L232.172 1014.53L370.106 1014.3L646 1013.88L921.894 1014.3L1059.83 1014.53L1197.76 1015.15L1059.83 1015.8L921.894 1016.03L646 1016.44L370.106 1016L232.172 1015.8L94.2385 1015.15Z" fill="#263238"/>
<path d="M668.352 1144.48C662.615 1146.34 499.462 1144.22 493.312 1140.19C490.934 1138.69 489.849 1114.92 489.384 1086.13V1085.28C489.384 1079.34 489.177 1073.24 489.177 1067.04C489.177 1066.18 489.177 1065.33 489.177 1064.45L497.084 979.801L606.232 980.912L595.457 1064.76V1068.07L594.785 1085.43V1087.22C594.785 1087.22 656.801 1115.98 663.184 1121.12C669.566 1126.26 674.088 1142.67 668.352 1144.48Z" fill="#D3766A"/>
<path d="M668.352 1144.48C662.615 1146.34 499.462 1144.22 493.312 1140.19C490.934 1138.69 489.849 1114.92 489.384 1086.13V1085.28C489.384 1079.34 489.177 1073.24 489.177 1067.04C489.177 1066.18 489.177 1065.33 489.177 1064.45L595.457 1064.76V1068.07L594.785 1085.44V1087.22C594.785 1087.22 656.801 1115.98 663.184 1121.12C669.566 1126.26 674.088 1142.67 668.352 1144.48Z" fill="#EBEBEB"/>
<path d="M669.437 1144.92C663.623 1146.78 498.247 1144.56 491.994 1140.5C489.59 1138.98 488.505 1114.87 488.04 1085.69L594.656 1086.8C594.656 1086.8 657.628 1115.98 663.985 1121.17C670.341 1126.37 675.225 1143.06 669.437 1144.92Z" fill="#455A64"/>
<path d="M569.074 1144.71C530.443 1143.83 494.81 1142.36 491.994 1140.5C489.616 1138.95 488.505 1114.87 488.04 1085.69L512.123 1085.95L569.074 1144.71Z" fill="#37474F"/>
<path d="M667.137 1138.25C639.437 1137.22 527.601 1135.67 500.082 1136.68C499.849 1136.68 499.849 1136.83 500.082 1136.83C527.55 1138.48 639.437 1139.18 667.163 1138.72C667.732 1138.72 667.732 1138.28 667.137 1138.25Z" fill="#263238"/>
<path d="M653.442 1115.07C650.357 1114.95 647.279 1115.47 644.405 1116.6C641.531 1117.73 638.924 1119.44 636.749 1121.64C632.811 1125.53 630.525 1130.8 630.367 1136.34C630.367 1136.52 630.677 1136.52 630.703 1136.34C631.736 1130.87 634.508 1125.88 638.605 1122.12C642.702 1118.35 647.906 1116.01 653.442 1115.44C653.49 1115.44 653.536 1115.42 653.57 1115.38C653.604 1115.35 653.623 1115.3 653.623 1115.25C653.623 1115.21 653.604 1115.16 653.57 1115.13C653.536 1115.09 653.49 1115.07 653.442 1115.07Z" fill="#263238"/>
<path d="M605.38 1089.7C594.294 1089.41 581.374 1093.16 574.372 1102.13C574.113 1102.49 574.604 1102.85 574.94 1102.7C584.713 1097.74 594.986 1093.84 605.586 1091.07C605.751 1091.02 605.892 1090.92 605.985 1090.78C606.078 1090.63 606.115 1090.46 606.089 1090.29C606.064 1090.12 605.978 1089.97 605.847 1089.86C605.716 1089.75 605.55 1089.69 605.38 1089.7Z" fill="#263238"/>
<path d="M613.907 1093.16C602.821 1092.85 589.901 1096.6 582.899 1105.59C582.64 1105.93 583.131 1106.31 583.467 1106.16C593.24 1101.2 603.514 1097.31 614.114 1094.53C614.278 1094.49 614.419 1094.38 614.512 1094.24C614.605 1094.09 614.642 1093.92 614.616 1093.75C614.591 1093.59 614.505 1093.43 614.374 1093.32C614.243 1093.21 614.077 1093.16 613.907 1093.16Z" fill="#263238"/>
<path d="M622.434 1096.62C611.323 1096.31 598.429 1100.06 591.426 1109.05C591.168 1109.39 591.658 1109.78 591.994 1109.6C601.796 1104.63 612.106 1100.74 622.744 1097.99C622.926 1097.95 623.083 1097.84 623.183 1097.68C623.282 1097.53 623.315 1097.33 623.274 1097.15C623.233 1096.97 623.121 1096.81 622.964 1096.71C622.806 1096.62 622.616 1096.58 622.434 1096.62Z" fill="#263238"/>
<path d="M630.961 1100.06C619.85 1099.78 606.93 1103.52 599.953 1112.49C599.669 1112.85 600.186 1113.21 600.496 1113.06C610.268 1108.1 620.542 1104.2 631.142 1101.43C631.304 1101.38 631.444 1101.28 631.536 1101.14C631.629 1101 631.668 1100.83 631.646 1100.67C631.624 1100.5 631.542 1100.35 631.417 1100.24C631.291 1100.12 631.129 1100.06 630.961 1100.06Z" fill="#263238"/>
<path d="M507.472 1110.42C495.043 1110.29 494.81 1129.65 507.291 1129.78C519.772 1129.91 519.953 1110.55 507.472 1110.42Z" fill="#263238"/>
<path d="M601.814 1085.77H484.319C484.319 1085.77 507.963 811.298 507.059 806.518C505.87 800.368 498.945 772.59 489.694 736.311C486.8 724.941 483.673 712.771 480.443 700.135C471.684 666 462.019 628.687 453.596 596.206C440.986 547.55 431.115 509.771 431.115 509.771H530.702C530.702 509.771 542.304 546.568 556.93 594.423C580.78 672.228 612.641 779.309 615.767 805.355C620.858 847.371 601.814 1085.77 601.814 1085.77Z" fill="#263238"/>
<path d="M596.62 1065.72C578.661 1065.36 583.829 1065.2 565.87 1065.02C557.085 1065.02 499.358 1064.45 491.167 1065.8C491.119 1065.8 491.073 1065.82 491.039 1065.85C491.005 1065.88 490.986 1065.93 490.986 1065.98C490.986 1066.03 491.005 1066.07 491.039 1066.11C491.073 1066.14 491.119 1066.16 491.167 1066.16C499.358 1067.53 557.085 1067.04 565.87 1066.93C583.829 1066.78 578.661 1066.62 596.62 1066.24C596.688 1066.24 596.754 1066.21 596.802 1066.16C596.851 1066.11 596.878 1066.05 596.878 1065.98C596.878 1065.91 596.851 1065.84 596.802 1065.79C596.754 1065.75 596.688 1065.72 596.62 1065.72Z" fill="#37474F"/>
<path d="M529.152 789.748C525.301 772.745 519.539 756.156 514.526 739.437C504.345 705.553 494.104 671.694 483.802 637.86C478.634 620.944 473.466 604.027 468.298 587.111C465.714 578.558 463.13 570.03 460.365 561.503C457.601 552.976 454.784 544.888 452.407 536.464C451.451 533.053 450.934 534.94 452.174 539.281C454.629 548.041 457.084 556.826 459.642 565.56C464.707 582.787 469.797 600.091 474.913 617.473C485.129 651.926 495.404 686.328 505.74 720.678C510.908 737.904 516.076 755.131 521.244 772.358C523.881 780.555 526.004 788.909 527.601 797.371C528.991 806.214 529.338 815.191 528.635 824.115C527.524 842.203 525.431 860.059 523.777 877.992C522.123 895.925 520.443 913.935 518.79 931.92C515.482 967.682 512.201 1003.45 508.945 1039.23C508.531 1043.78 508.144 1048.3 507.782 1052.85C507.782 1054.38 509.978 1054.25 510.133 1052.85C514.009 1017.48 516.955 981.972 520.288 946.545C523.622 911.118 526.903 876.054 530.185 840.808C531.012 831.945 531.968 823.082 531.968 814.193C531.95 805.964 531.006 797.765 529.152 789.748Z" fill="#37474F"/>
<path d="M519.384 509.771C512.459 563.26 499.281 663.545 489.668 736.311C467.213 648.145 431.089 509.771 431.089 509.771H519.384Z" fill="#37474F"/>
<path d="M543.855 1146.06C538.144 1147.94 374.964 1146.42 368.814 1142.41C366.437 1140.91 365.274 1117.14 364.68 1088.36V1087.45C364.68 1081.51 364.447 1075.41 364.422 1069.21C364.422 1068.35 364.422 1067.5 364.422 1066.62C364.034 1025.1 367.006 981.998 367.006 981.998L473.673 982.669L470.702 1066.55L470.546 1069.78L469.952 1087.14V1088.92C469.952 1088.92 532.149 1117.35 538.48 1122.52C544.811 1127.68 549.591 1144.22 543.855 1146.06Z" fill="#D3766A"/>
<path d="M543.855 1146.06C538.144 1147.94 374.964 1146.42 368.814 1142.41C366.437 1140.91 365.274 1117.14 364.68 1088.35V1087.45C364.68 1081.51 364.447 1075.41 364.422 1069.21C364.422 1068.35 364.422 1067.5 364.422 1066.62H470.727L470.547 1069.78L469.952 1087.14V1088.92C469.952 1088.92 532.149 1117.35 538.48 1122.52C544.811 1127.68 549.591 1144.22 543.855 1146.06Z" fill="#EBEBEB"/>
<path d="M545.767 1146.62C539.953 1148.48 374.577 1146.29 368.323 1142.23C365.946 1140.68 364.861 1116.57 364.37 1087.42L471.012 1088.54C471.012 1088.54 533.958 1117.68 540.34 1122.9C546.723 1128.12 551.581 1144.71 545.767 1146.62Z" fill="#455A64"/>
<path d="M543.493 1139.98C515.766 1138.92 403.957 1137.4 376.411 1138.38C376.179 1138.38 376.179 1138.56 376.411 1138.56C403.853 1140.19 515.741 1140.91 543.467 1140.45C544.061 1140.42 544.061 1140.01 543.493 1139.98Z" fill="#263238"/>
<path d="M529.72 1116.8C526.641 1116.68 523.57 1117.2 520.702 1118.33C517.833 1119.45 515.229 1121.16 513.053 1123.34C509.112 1127.25 506.819 1132.52 506.645 1138.07C506.645 1138.23 506.955 1138.25 506.981 1138.07C508.01 1132.6 510.779 1127.6 514.877 1123.83C518.974 1120.06 524.18 1117.71 529.72 1117.14C529.748 1117.15 529.777 1117.16 529.807 1117.15C529.836 1117.15 529.864 1117.14 529.889 1117.12C529.913 1117.11 529.933 1117.08 529.947 1117.06C529.961 1117.03 529.968 1117 529.968 1116.97C529.968 1116.94 529.961 1116.91 529.947 1116.89C529.933 1116.86 529.913 1116.84 529.889 1116.82C529.864 1116.81 529.836 1116.8 529.807 1116.79C529.777 1116.79 529.748 1116.79 529.72 1116.8Z" fill="#263238"/>
<path d="M481.735 1091.43C470.624 1091.12 457.704 1094.87 450.727 1103.86C450.443 1104.19 450.96 1104.58 451.27 1104.43C461.038 1099.46 471.313 1095.56 481.916 1092.8C482.078 1092.75 482.218 1092.65 482.311 1092.51C482.403 1092.37 482.442 1092.2 482.42 1092.04C482.398 1091.87 482.317 1091.72 482.191 1091.61C482.065 1091.49 481.903 1091.43 481.735 1091.43Z" fill="#263238"/>
<path d="M490.237 1094.89C479.151 1094.58 466.231 1098.33 459.229 1107.32C458.944 1107.66 459.435 1108.04 459.771 1107.86C469.54 1102.91 479.815 1099.02 490.418 1096.26C490.579 1096.22 490.719 1096.11 490.812 1095.97C490.904 1095.83 490.943 1095.67 490.921 1095.5C490.899 1095.33 490.818 1095.18 490.692 1095.07C490.566 1094.96 490.405 1094.89 490.237 1094.89Z" fill="#263238"/>
<path d="M498.712 1098.33C487.627 1098.04 474.707 1101.79 467.704 1110.76C467.446 1111.12 467.937 1111.48 468.272 1111.33C478.045 1106.37 488.319 1102.47 498.919 1099.7C499.083 1099.65 499.225 1099.55 499.317 1099.41C499.41 1099.26 499.447 1099.09 499.421 1098.92C499.396 1098.75 499.31 1098.6 499.179 1098.49C499.048 1098.38 498.882 1098.32 498.712 1098.33Z" fill="#263238"/>
<path d="M507.291 1101.79C496.206 1101.48 483.286 1105.23 476.283 1114.22C476.025 1114.56 476.516 1114.94 476.852 1114.79C486.619 1109.82 496.894 1105.92 507.498 1103.16C507.662 1103.12 507.804 1103.01 507.896 1102.87C507.989 1102.73 508.026 1102.55 508.001 1102.38C507.975 1102.22 507.889 1102.06 507.758 1101.95C507.628 1101.84 507.461 1101.79 507.291 1101.79Z" fill="#263238"/>
<path d="M527.498 509.772C527.498 509.772 525.198 557.421 514.294 595.044C513.415 598.17 512.459 601.245 511.451 604.191C501.449 608.217 491.839 613.156 482.743 618.946C482.743 618.946 481.58 657.266 480.443 700.031C479.177 747.835 477.859 801.143 478.118 812.461C479.125 854.761 472.82 1087.4 472.82 1087.4L355.326 1087.86C355.326 1087.86 376.566 828.069 376.437 812.591C376.205 787.681 382.122 677.577 386.773 597.266C389.564 547.808 391.941 509.668 391.941 509.668L527.498 509.772Z" fill="#263238"/>
<path d="M468.789 1066.6C450.856 1066.29 455.999 1066.13 438.066 1066.03C429.28 1066.03 371.554 1065.72 363.336 1067.11C363.288 1067.11 363.242 1067.13 363.209 1067.17C363.175 1067.2 363.156 1067.25 363.156 1067.3C363.156 1067.34 363.175 1067.39 363.209 1067.42C363.242 1067.46 363.288 1067.48 363.336 1067.48C371.528 1068.82 429.254 1068.07 438.04 1067.94C455.999 1067.68 450.831 1067.58 468.764 1067.11C468.798 1067.12 468.831 1067.11 468.863 1067.1C468.895 1067.09 468.925 1067.07 468.95 1067.05C468.975 1067.03 468.996 1067 469.01 1066.97C469.025 1066.94 469.033 1066.9 469.035 1066.87C469.037 1066.84 469.032 1066.8 469.02 1066.77C469.009 1066.74 468.991 1066.71 468.968 1066.68C468.946 1066.66 468.918 1066.64 468.887 1066.62C468.857 1066.61 468.823 1066.6 468.789 1066.6Z" fill="#37474F"/>
<path d="M401.657 526.8C399.487 592.33 397.187 657.886 394.267 723.417C391.347 788.947 387.368 854.865 381.864 920.447C378.789 957.088 375.895 1008.64 371.941 1045.2C371.941 1045.43 372.277 1045.54 372.329 1045.2C380.882 980.189 385.636 899.775 389.848 834.348C394.06 768.921 396.903 703.391 399.125 637.964C400.391 600.909 401.373 563.829 402.458 526.852C402.484 526.232 401.657 526.258 401.657 526.8Z" fill="#37474F"/>
<path d="M516.335 601.452C504.644 606.323 493.404 612.212 482.743 619.049C482.655 619.096 482.589 619.176 482.559 619.27C482.528 619.365 482.535 619.468 482.578 619.558C482.621 619.648 482.698 619.717 482.791 619.753C482.884 619.788 482.987 619.786 483.079 619.747C494.423 614.217 505.999 608.92 517.007 602.796C517.185 602.706 517.32 602.55 517.383 602.361C517.446 602.172 517.432 601.966 517.343 601.788C517.254 601.61 517.097 601.474 516.908 601.411C516.719 601.348 516.513 601.363 516.335 601.452Z" fill="#37474F"/>
<path d="M516.981 561.012C516.206 565.198 515.198 569.333 514.397 573.493C513.596 577.653 512.924 581.245 511.813 585.199C510.985 588.931 509.091 592.342 506.361 595.018C504.836 596.439 503.157 597.602 501.529 598.997C500.65 599.695 499.694 600.367 498.79 601.09L499.1 599.411C499.384 597.834 499.642 596.232 499.901 594.656C500.495 591.142 501.064 587.602 501.606 584.087C502.666 577.162 503.648 570.16 505.069 563.415C505.069 563.157 504.707 563.028 504.655 563.415C502.924 570.211 501.012 576.956 499.487 583.803C498.738 587.162 496.128 603.752 495.999 604.94C495.87 606.129 495.792 607.369 495.741 608.584C495.573 609.818 495.573 611.07 495.741 612.305C495.765 612.36 495.804 612.407 495.855 612.44C495.905 612.473 495.964 612.491 496.025 612.491C496.085 612.491 496.144 612.473 496.195 612.44C496.245 612.407 496.285 612.36 496.309 612.305C496.817 611.15 497.173 609.934 497.368 608.687C497.678 607.499 497.937 606.31 498.169 605.095C498.169 604.656 498.299 604.217 498.35 603.778C500.004 602.77 501.503 601.478 503.053 600.367C504.604 599.256 506.361 598.015 507.937 596.697C510.811 594.256 512.882 591.005 513.88 587.369C514.896 583.466 515.553 579.479 515.844 575.457C516.361 570.728 516.748 566 517.42 561.297C517.446 560.857 517.033 560.728 516.981 561.012Z" fill="#37474F"/>
<path d="M488.505 384.809C509.177 448.401 534.087 508.376 556.025 513.234C559.824 514.061 581.452 514.423 590.16 501.089C604.811 478.608 622.951 431.916 628.248 409.125C630.599 399.021 563.777 377.186 559.875 387.574C554.423 402.122 552.485 413.879 550.909 413.414C548.325 412.665 535.922 392.742 512.485 366.127C480.262 329.615 481.606 363.724 488.505 384.809Z" fill="#EFA89F"/>
<path d="M642.848 383.311C638.687 397.368 618.92 422.82 611.84 427.109C604.759 431.399 560.34 399.28 560.16 390.727C559.979 382.174 577.55 335.92 589.824 327.367C602.098 318.814 647.137 368.737 642.848 383.311Z" fill="#EFA89F"/>
<path d="M561.684 382.432C560.563 370.628 557.725 359.05 553.26 348.065C547.498 335.145 537.472 316.669 544.294 313.31C558.273 306.411 583.286 352.535 583.286 352.535C583.286 352.535 591.038 374.68 577.783 382.742C575.328 384.17 572.529 384.895 569.69 384.841C566.851 384.786 564.082 383.953 561.684 382.432Z" fill="#EFA89F"/>
<path d="M603.338 376.876L622.563 370.468L603.933 314.757L579.617 322.897L603.338 376.876Z" fill="#FFA4BB"/>
<path d="M579.617 322.897L588.661 343.491L603.338 376.902L622.563 370.468L603.933 314.757L579.617 322.897Z" fill="#FFA4BB"/>
<path opacity="0.1" d="M579.617 322.897L588.661 343.491L611.039 335.998L603.933 314.757L579.617 322.897Z" fill="black"/>
<path d="M580.057 331.865L610.347 321.736L602.652 298.725L572.362 308.854L580.057 331.865Z" fill="#FFA4BB"/>
<path d="M549.307 307.264L573.622 301.76L561.167 264.524L538.428 274.731L549.307 307.264Z" fill="#FFA4BB"/>
<path d="M570.806 253.103L589.178 308.039L630.212 299.563L733.262 302.638L689.153 170.725L608.687 235.196L570.806 253.103Z" fill="#FFA4BB"/>
<path d="M735.508 302.277C747.269 298.344 746.879 265.477 734.637 228.866C722.394 192.256 702.935 165.766 691.174 169.699C679.412 173.632 679.802 206.499 692.045 243.109C704.288 279.72 723.747 306.21 735.508 302.277Z" fill="#FFA4BB"/>
<path opacity="0.2" d="M696.621 240.312C707.499 272.819 724.115 296.566 733.753 293.336C743.391 290.106 742.383 261.165 731.505 228.736C720.626 196.307 704.037 172.405 694.399 175.712C684.76 179.02 685.768 207.805 696.621 240.312Z" fill="black"/>
<path d="M699.463 239.356C700.91 243.671 702.46 247.857 704.088 251.811C706.546 252.757 709.223 252.983 711.805 252.463C714.387 251.942 716.766 250.695 718.665 248.87C720.563 247.045 721.902 244.716 722.524 242.157C723.146 239.597 723.026 236.914 722.176 234.421L720.109 228.193C719.282 225.715 717.772 223.521 715.753 221.863C713.734 220.205 711.288 219.151 708.697 218.822C706.105 218.493 703.473 218.901 701.104 220.002C698.734 221.102 696.724 222.848 695.303 225.041C696.457 229.692 697.844 234.464 699.463 239.356Z" fill="#FFA4BB"/>
<path d="M568.893 318.194L615.896 307.548L591.839 235.557L547.885 255.325L568.893 318.194Z" fill="#FFA4BB"/>
<path opacity="0.2" d="M568.893 318.194L615.896 307.548L591.839 235.557L547.885 255.325L568.893 318.194Z" fill="black"/>
<path opacity="0.2" d="M686 181.836C684.214 186.807 683.339 192.059 683.416 197.34C683.373 202.59 683.745 207.834 684.527 213.025C684.838 215.609 685.38 218.193 685.845 220.777C686.31 223.361 686.982 225.945 687.628 228.529C688.274 231.113 688.946 233.697 689.721 236.1C690.497 238.503 691.246 241.268 692.099 243.62C695.381 253.58 699.576 263.217 704.631 272.405C707.2 276.958 710.156 281.281 713.468 285.325C716.731 289.448 720.825 292.838 725.484 295.274C721.007 292.64 717.113 289.123 714.037 284.938C710.871 280.817 708.062 276.434 705.639 271.837C700.755 262.562 696.692 252.878 693.494 242.896C690.066 233.072 687.473 222.975 685.742 212.715C684.83 207.595 684.329 202.411 684.243 197.211C683.939 192.023 684.533 186.822 686 181.836Z" fill="black"/>
<path d="M733.675 162.792C731.091 165.376 728.843 168.193 726.518 170.983C724.192 173.774 721.944 176.565 719.696 179.433C717.448 182.301 715.303 185.144 713.21 188.089L710.057 192.534C709.05 194.033 707.99 195.505 707.034 197.056C708.3 195.738 709.463 194.472 710.678 193.025L714.192 188.865C716.518 186.1 718.766 183.257 720.988 180.415C723.21 177.572 725.406 174.678 727.499 171.733C729.593 168.787 731.711 165.738 733.675 162.792Z" fill="#263238"/>
<path d="M729.334 270.364C733.417 270.777 737.474 271.036 741.556 271.268C745.639 271.501 749.696 271.63 753.779 271.759C757.861 271.889 761.944 271.914 766.027 271.759H772.151C774.192 271.759 776.208 271.759 778.275 271.501C776.234 271.268 774.192 271.139 772.151 270.958L766.053 270.597C761.97 270.338 757.887 270.235 753.83 270.106C749.773 269.976 745.665 269.951 741.582 270.106C737.499 270.261 733.417 270.106 729.334 270.364Z" fill="#263238"/>
<path d="M801.531 245.196C795.562 245.609 789.593 246.204 783.624 246.824C777.655 247.444 771.712 248.167 765.743 248.891C759.774 249.614 753.856 250.441 747.939 251.475L739.024 252.715C736.053 253.206 733.107 253.671 730.135 254.24C733.133 254.033 736.13 253.749 739.128 253.49L748.068 252.612C754.037 251.992 759.98 251.268 765.924 250.519C771.867 249.769 777.836 248.968 783.753 247.935C789.671 246.901 795.64 246.281 801.531 245.196Z" fill="#263238"/>
<path d="M766.957 158.916C762.384 162.947 757.913 167.081 753.469 171.242C749.024 175.402 744.657 179.614 740.316 183.852C735.975 188.089 731.66 192.379 727.396 196.772L720.936 203.283C718.869 205.506 716.75 207.702 714.709 209.95C717.009 207.96 719.231 205.893 721.505 203.852L728.197 197.65C732.642 193.49 736.983 189.278 741.35 185.014C745.717 180.751 750.006 176.487 754.27 172.094C758.533 167.702 762.849 163.412 766.957 158.916Z" fill="#263238"/>
<path d="M724.373 231.733C731.117 229.743 737.81 227.599 744.502 225.428C751.195 223.258 757.81 220.958 764.451 218.71C771.092 216.462 777.707 214.084 784.296 211.655L794.167 207.986C797.448 206.72 800.756 205.402 804.012 204.162C800.627 205.144 797.267 206.229 793.908 207.237L783.882 210.467C777.216 212.637 770.575 214.937 763.934 217.185C757.293 219.433 750.678 221.811 744.089 224.24C737.5 226.668 730.91 229.097 724.373 231.733Z" fill="#263238"/>
<path d="M573.493 344.318C575.457 351.838 583.183 345.223 583.183 345.223C583.183 345.223 574.346 357.445 579.384 364.396C584.423 371.347 593.312 362.768 593.958 362.174C593.493 362.82 585.689 374.267 591.374 380.753C597.059 387.238 605.044 377.548 605.535 376.902C605.276 377.652 602.227 387.626 607.757 391.554C617.214 398.298 625.69 372.975 634.269 369.15C634.269 369.15 642.434 382.949 642.77 383.311C643.106 383.672 651.323 359.383 645.509 348.091C644.687 346.436 643.324 345.111 641.647 344.336C639.969 343.561 638.077 343.381 636.284 343.827C636.284 343.827 639.902 336.411 635.509 331.191C633.261 328.607 626.956 329.719 626.956 329.719C627.656 328.016 627.881 326.156 627.608 324.336C627.335 322.516 626.574 320.804 625.406 319.383C622.072 315.842 616.258 317.625 616.258 317.625C616.258 317.625 616.103 310.623 611.529 308.116C602.382 302.897 569.281 328.168 573.493 344.318Z" fill="#EFA89F"/>
<path d="M627.137 329.512C627.292 329.512 627.137 329.202 626.982 329.279C612.22 335.874 600.305 347.533 593.39 362.148C593.157 362.664 593.39 363.362 593.777 362.768C598.92 353.078 615.793 336.773 627.137 329.512Z" fill="#263238"/>
<path d="M605.509 378.117C612.408 363.879 623.183 353.31 635.793 344.034C635.974 344.034 635.793 343.698 635.613 343.75C628.196 346.618 620.78 353.362 615.431 359.099C610.411 364.345 606.848 370.811 605.095 377.858C604.94 378.143 605.354 378.401 605.509 378.117Z" fill="#263238"/>
<path d="M582.925 345.248C582.64 345.713 583.648 345.61 583.39 346.101C582.253 348.168 576.568 361.166 580.392 364.499C583.467 367.083 589.178 364.835 591.012 363.104L595.638 358.737L592.821 364.344C591.517 366.869 590.643 369.594 590.237 372.406C589.974 373.691 589.988 375.016 590.277 376.295C590.567 377.574 591.126 378.776 591.917 379.822C592.657 380.791 593.708 381.476 594.894 381.763C596.079 382.05 597.327 381.921 598.429 381.398C600.855 380.213 602.943 378.436 604.501 376.23L608.971 370.132L606.749 377.316C606.129 379.312 605.765 381.378 605.664 383.466C605.499 385.447 605.922 387.433 606.878 389.176C607.34 389.939 608.006 390.558 608.8 390.964C609.594 391.37 610.485 391.548 611.374 391.476C613.34 391.014 615.132 390.001 616.542 388.556C619.64 385.468 622.491 382.141 625.07 378.608C626.439 376.876 627.809 375.145 629.256 373.44C630.649 371.654 632.412 370.191 634.424 369.15C632.614 370.391 631.061 371.971 629.85 373.801C628.558 375.584 627.266 377.419 626.103 379.254C623.713 383.036 620.971 386.583 617.912 389.848C616.295 391.649 614.183 392.935 611.839 393.543C610.529 393.742 609.189 393.552 607.985 392.996C606.782 392.44 605.768 391.543 605.069 390.417C603.811 388.298 603.225 385.847 603.39 383.388C603.44 381.059 603.805 378.746 604.475 376.515L606.723 377.6C604.954 380.306 602.503 382.499 599.617 383.957C598.002 384.709 596.177 384.883 594.449 384.448C592.764 383.943 591.263 382.954 590.134 381.605C589.137 380.271 588.433 378.741 588.068 377.116C587.702 375.49 587.685 373.806 588.015 372.174C588.505 369.098 589.491 366.122 590.935 363.362L592.744 364.706C590.341 366.851 584.242 370.106 578.945 366.592C572.614 360.985 581.167 347.574 582.925 345.248Z" fill="#263238"/>
<path d="M583.183 345.222C581.789 346.01 580.281 346.576 578.713 346.902C578.087 347.05 577.434 347.027 576.82 346.836C576.207 346.645 575.656 346.293 575.224 345.817C574.429 344.647 573.981 343.277 573.932 341.863C573.932 340.287 573.777 338.659 573.803 336.954C572.942 338.451 572.413 340.117 572.253 341.837C571.961 343.741 572.435 345.683 573.571 347.238C574.255 348.009 575.155 348.558 576.155 348.814C577.136 348.987 578.145 348.888 579.075 348.53C580.768 347.906 582.211 346.744 583.183 345.222Z" fill="#263238"/>
<path d="M636.258 429.513L560.134 385.016C560.134 385.016 551.555 411.373 550.573 411.373C549.591 411.373 530.211 380.365 505.456 357.548C479.978 333.982 479.616 360.571 485.689 383.621C492.278 408.815 527.937 503.337 549.436 513.596C567.524 522.278 587.628 509.41 593.183 502.149C600.858 492.149 636.258 429.513 636.258 429.513Z" fill="#FFA4BB"/>
<path d="M624.088 437.6C621.504 435.74 597.783 422.277 592.537 419.512L576.801 411.089C571.348 408.194 565.974 404.99 560.315 402.536C560.267 402.508 560.21 402.501 560.156 402.515C560.103 402.53 560.058 402.565 560.03 402.613C560.003 402.661 559.996 402.718 560.01 402.771C560.025 402.825 560.06 402.87 560.108 402.897C565.276 406.36 570.78 409.202 576.129 412.226C581.478 415.249 586.671 418.246 591.969 421.218C597.266 424.189 621.142 436.98 623.933 438.014C624.191 438.065 624.269 437.73 624.088 437.6Z" fill="#263238"/>
<path d="M550.728 411.502C549.436 415.791 548.402 420.158 547.472 424.422C546.542 428.686 545.689 433.208 544.888 437.626C544.087 442.045 543.596 446.463 543.209 450.934C542.791 455.4 542.618 459.886 542.692 464.371C543.054 462.148 543.26 459.926 543.648 457.73C544.035 455.533 544.268 453.311 544.604 451.115L546.671 437.885L548.712 424.68L549.72 418.039C550.108 416.024 550.392 413.724 550.728 411.502Z" fill="#263238"/>
<path opacity="0.1" d="M573.105 514.784C565.348 517.407 556.884 516.972 549.436 513.57C527.937 503.234 492.278 408.789 485.689 383.595C481.012 365.688 480.159 345.662 491.942 348.633C507.859 380.959 548.919 465.12 573.105 514.784Z" fill="black"/>
<path d="M383.879 570.676C384.293 571.141 550.03 567.472 551.658 565.508C553.906 562.924 520.935 390.494 499.823 354.034C493.389 342.923 466.231 331.605 450.882 353.569C423.544 392.768 382.432 568.997 383.879 570.676Z" fill="#FFA4BB"/>
<path d="M484.888 387.083L490.779 375.326L500.34 384.577L497.653 393.078L488.712 393.75L484.888 387.083Z" fill="#263238"/>
<path d="M488.712 393.75L481.839 492.872L499.151 524.888L513.673 492.33L497.653 393.078L488.712 393.75Z" fill="#263238"/>
<path d="M437.626 363.362C404.5 400.753 347.962 500.65 361.088 516.387C390.83 552.123 446.36 586 468.764 595.302C478.454 599.307 521.606 530.418 512.692 523.493C502.123 515.172 432.588 479.358 432.588 475.818C432.588 472.278 451.399 423.776 459.952 385.016C470.288 336.928 451.425 347.755 437.626 363.362Z" fill="#EFA89F"/>
<path d="M476.903 516.8C476.903 516.8 507.627 511.089 527.911 508.325C539.203 506.774 558.919 505.741 567.679 508.48C580.883 512.381 633.571 537.472 627.912 550.392C622.744 562.072 580.108 534.888 580.108 534.888C580.108 534.888 625.483 558.635 616.568 571.555C607.654 584.475 563.674 547.214 563.674 547.214C563.674 547.214 609.747 572.666 598.455 584.527C589.902 593.467 548.196 562.02 548.196 562.02C548.196 562.02 587.628 584.139 579.204 593.752C569.927 604.346 529.591 577.705 529.591 577.705C504.19 598.377 483.88 599.54 468.97 595.793C465.404 594.94 476.903 516.8 476.903 516.8Z" fill="#EFA89F"/>
<path d="M566.93 526.748C601.685 541.684 614.139 559.643 613.726 559.229C603.597 549.539 585.302 538.273 580.134 535.198C574.966 532.123 572.046 530.03 566.878 526.929C566.671 526.852 566.801 526.671 566.93 526.748Z" fill="#263238"/>
<path d="M553.39 544.061C567.714 549.416 580.963 557.293 592.511 567.317C592.951 567.731 592.666 567.782 592.175 567.472C585.69 563.39 559.953 547.834 553.415 544.216L553.39 544.061Z" fill="#263238"/>
<path d="M540.728 558.144C551.744 562.572 561.838 569.012 570.496 577.136C570.935 577.524 570.496 577.627 570.005 577.317C560.237 570.806 552.614 565.638 540.573 558.506C540.366 558.428 540.521 558.144 540.728 558.144Z" fill="#263238"/>
<path d="M492.717 508.376L442.045 587.266C442.045 587.266 357.445 528.273 356.954 508.04C356.23 479.616 419.874 380.106 438.272 360.907C456.231 342.173 468.04 344.938 463.156 372.509C458.712 397.6 436.515 472.898 436.644 473.983C436.774 475.068 492.717 508.376 492.717 508.376Z" fill="#FFA4BB"/>
<path d="M428.944 571.71C436.696 560.366 467.11 512.743 472.872 501.942C473.26 501.193 472.872 500.753 472.381 501.477C448.091 534.914 435.507 559.798 428.453 571.245C428.391 571.31 428.358 571.397 428.36 571.487C428.363 571.576 428.401 571.661 428.466 571.723C428.531 571.785 428.618 571.818 428.708 571.816C428.797 571.813 428.882 571.775 428.944 571.71Z" fill="#263238"/>
<path d="M458.376 393.698C458.376 393.362 459.048 393.466 458.996 393.698C458.298 397.135 457.11 402.174 455.637 408.091L456.102 407.135C457.208 404.706 458.191 402.222 459.048 399.693C459.048 399.409 459.539 399.564 459.461 399.822C458.609 402.406 457.756 404.99 456.748 407.574C456.117 409.28 455.384 410.945 454.552 412.562C448.273 437.239 438.453 472.562 438.557 473.441C438.763 474.913 483.983 501.865 493.157 507.808C493.493 508.014 491.71 510.392 491.503 510.702C491.478 510.762 491.432 510.81 491.373 510.837C491.315 510.865 491.248 510.869 491.186 510.849C491.125 510.83 491.073 510.788 491.04 510.732C491.008 510.676 490.998 510.61 491.012 510.547C491.224 509.854 491.492 509.18 491.813 508.531C483.053 503.751 436.825 475.947 436.05 474.474C435.275 473.001 455.12 404.215 458.376 393.698Z" fill="#263238"/>
<path d="M388.427 546.154C391.011 547.782 415.921 568.067 418.582 569.953C418.789 570.108 418.582 570.392 418.35 570.263C407.859 564.94 390.649 550.082 388.272 546.335L388.427 546.154Z" fill="#263238"/>
<path d="M489.694 374.292C480.547 375.223 465.301 358.246 460.753 346.437C460.443 345.636 462.665 337.832 464.913 328.349C466.257 322.509 467.497 315.997 468.402 309.951L505.069 324.214C501.891 331.471 499.617 339.091 498.299 346.902C498.217 347.761 498.217 348.626 498.299 349.486V349.925C498.376 354.551 498.557 373.414 489.694 374.292Z" fill="#EFA89F"/>
<path d="M494.319 349.409C495.609 349.627 496.914 349.739 498.221 349.744C498.221 349.564 498.221 349.434 498.221 349.305C498.14 348.446 498.14 347.581 498.221 346.721C499.538 338.904 501.803 331.277 504.965 324.008L469.487 310.209C470.004 319.124 473.079 346.101 494.319 349.409Z" fill="#263238"/>
<path d="M460.676 271.32C456.67 284.912 464.138 324.008 473.854 332.638C487.937 345.171 510.831 346.179 521.425 329.305C531.761 312.922 521.038 262.121 510.211 254.369C494.268 242.664 466.619 251.139 460.676 271.32Z" fill="#EFA89F"/>
<path d="M493.725 295.868C493.725 295.868 493.544 296.049 493.57 296.152C494.138 298.736 494.345 301.863 492.123 303.181C492.123 303.181 492.123 303.362 492.123 303.336C495.017 302.328 494.681 298.271 493.725 295.868Z" fill="#263238"/>
<path d="M490.96 293.568C486.645 294.033 487.911 302.586 491.89 302.147C495.87 301.708 494.448 293.181 490.96 293.568Z" fill="#263238"/>
<path d="M509.746 293.568C509.746 293.568 509.978 293.568 509.978 293.775C510.288 296.359 511.089 299.434 513.622 299.951V300.106C510.624 300.132 509.617 296.127 509.746 293.568Z" fill="#263238"/>
<path d="M511.632 290.442C515.844 289.486 517.446 298.013 513.518 298.891C509.591 299.77 508.169 291.243 511.632 290.442Z" fill="#263238"/>
<path d="M486.903 290.131C487.977 289.642 489.021 289.09 490.03 288.478C491.216 288.055 492.232 287.256 492.924 286.204C493.082 285.825 493.107 285.404 492.994 285.01C492.881 284.615 492.638 284.271 492.304 284.033C491.591 283.66 490.792 283.483 489.989 283.519C489.185 283.555 488.406 283.804 487.73 284.24C486.218 284.919 485.012 286.134 484.345 287.651C484.209 288.005 484.181 288.392 484.262 288.762C484.344 289.133 484.533 289.471 484.806 289.735C485.078 289.999 485.422 290.178 485.795 290.248C486.168 290.318 486.553 290.278 486.903 290.131Z" fill="#263238"/>
<path d="M514.397 285.635C513.211 285.58 512.029 285.459 510.857 285.274C509.591 285.3 508.35 284.919 507.317 284.188C507.043 283.892 506.874 283.514 506.837 283.112C506.799 282.71 506.895 282.308 507.11 281.966C507.634 281.351 508.313 280.888 509.076 280.625C509.84 280.361 510.66 280.307 511.451 280.467C513.109 280.53 514.68 281.223 515.844 282.405C516.106 282.68 516.28 283.027 516.344 283.401C516.408 283.775 516.36 284.16 516.205 284.506C516.049 284.852 515.795 285.145 515.473 285.346C515.151 285.547 514.776 285.648 514.397 285.635Z" fill="#263238"/>
<path d="M494.758 320.416C495.482 320.959 496.231 321.708 497.213 321.656C498.203 321.5 499.146 321.129 499.978 320.571C499.674 321.146 499.221 321.629 498.666 321.97C498.112 322.311 497.476 322.497 496.826 322.509C496.266 322.442 495.738 322.214 495.307 321.851C494.875 321.488 494.559 321.008 494.397 320.468C494.448 320.416 494.655 320.416 494.758 320.416Z" fill="#263238"/>
<path d="M496.386 312.018C497.212 312.971 498.226 313.743 499.365 314.285C500.503 314.828 501.741 315.129 503.001 315.17C504.097 315.214 505.194 315.101 506.257 314.834C506.471 314.814 506.68 314.761 506.877 314.679L507.446 314.499C507.587 314.457 507.709 314.366 507.789 314.243C507.869 314.12 507.904 313.973 507.885 313.827C507.885 313.827 507.885 313.672 507.885 313.568V313.336C507.653 311.294 506.981 308.168 506.981 308.168C507.782 308.426 511.839 309.589 511.632 308.529C510.009 299.336 507.455 290.332 504.009 281.656C504.009 281.594 503.985 281.535 503.941 281.491C503.898 281.448 503.838 281.423 503.777 281.423C503.715 281.423 503.656 281.448 503.612 281.491C503.569 281.535 503.544 281.594 503.544 281.656C504.965 290.157 507.859 298.323 509.41 306.824C507.968 306.389 506.471 306.162 504.965 306.152C504.681 306.152 506.335 312.07 506.361 313C504.713 313.411 503 313.488 501.323 313.226C499.645 312.964 498.037 312.369 496.593 311.475C496.386 311.63 496.128 311.837 496.386 312.018Z" fill="#263238"/>
<path d="M504.914 313.982C504.011 315.606 502.702 316.968 501.115 317.935C500.237 318.433 499.224 318.64 498.221 318.53C495.999 318.297 495.637 316.359 495.818 314.628C495.904 313.747 496.095 312.88 496.387 312.044C498.952 313.577 501.938 314.255 504.914 313.982Z" fill="#263238"/>
<path d="M501.115 317.832C500.237 318.329 499.224 318.537 498.221 318.426C495.999 318.194 495.637 316.256 495.818 314.525C496.941 314.423 498.066 314.691 499.023 315.288C499.979 315.885 500.714 316.778 501.115 317.832Z" fill="#FF98B9"/>
<path d="M464.448 304.912C464.448 304.912 451.683 282.638 453.234 269.976C453.931 264.266 461.838 260.597 461.838 260.597C461.295 258.245 461.42 255.789 462.201 253.505C462.982 251.222 464.387 249.202 466.257 247.677C473.182 241.449 489.513 243.284 489.513 243.284C489.513 243.284 500.521 228.142 515.353 234.627C530.185 241.113 520.056 257.883 520.056 257.883C520.056 257.883 525.405 265.842 511.735 271.656C498.454 277.315 471.709 270.778 471.709 270.778C472.733 280.056 472.367 289.436 470.624 298.607C470.268 300.121 469.504 301.509 468.415 302.621C467.327 303.732 465.955 304.525 464.448 304.912Z" fill="#263238"/>
<path d="M492.175 243.542C488.849 242.091 485.26 241.343 481.632 241.346C478.388 241.221 475.146 241.649 472.045 242.612C469.26 243.326 466.723 244.786 464.706 246.835C462.689 248.884 461.269 251.444 460.598 254.24C460.346 255.696 460.386 257.189 460.714 258.63C461.042 260.072 461.653 261.434 462.51 262.638C462.717 262.638 462.51 262.638 462.51 262.638C459.151 258.219 461.141 251.552 464.81 248.038C469.315 244.321 475.02 242.373 480.857 242.56C484.597 242.589 488.32 243.075 491.942 244.007C492.004 244.038 492.075 244.043 492.141 244.021C492.206 243.999 492.26 243.952 492.291 243.891C492.322 243.829 492.327 243.758 492.305 243.692C492.283 243.627 492.236 243.573 492.175 243.542Z" fill="#263238"/>
<path d="M526.128 242.147C525.477 240.13 524.34 238.304 522.817 236.831C521.294 235.357 519.432 234.281 517.394 233.697C512.745 232.17 507.72 232.225 503.105 233.852C498.477 235.539 494.383 238.429 491.244 242.224C491.244 242.224 491.244 242.431 491.399 242.353C494.223 239.014 497.895 236.497 502.029 235.069C506.163 233.641 510.605 233.355 514.888 234.24C516.883 234.582 518.773 235.375 520.417 236.557C522.06 237.739 523.412 239.279 524.371 241.061C525.1 242.855 525.425 244.788 525.322 246.722C525.22 248.656 524.692 250.543 523.777 252.25C521.417 256.274 517.981 259.558 513.854 261.733C513.854 261.914 513.854 261.733 513.854 261.733C517.748 259.931 521.132 257.186 523.699 253.749C524.899 252.095 525.735 250.207 526.154 248.207C526.573 246.208 526.564 244.143 526.128 242.147Z" fill="#263238"/>
<path d="M515.146 272.509C509.081 274.794 502.596 275.755 496.128 275.325C489.4 274.971 482.73 273.897 476.231 272.121C472.459 271.113 468.712 269.951 464.991 268.736C464.991 268.736 464.81 268.736 464.991 268.917C471.478 271.885 478.26 274.163 485.224 275.713C491.706 277.086 498.394 277.182 504.914 275.997C508.489 275.325 511.962 274.196 515.25 272.638C515.25 272.638 515.224 272.457 515.146 272.509Z" fill="#263238"/>
<path d="M469.306 303.026C469.306 303.026 460.107 290.623 454.448 293.956C448.789 297.289 455.973 315.429 462.795 317.729C463.647 318.089 464.564 318.273 465.489 318.268C466.415 318.263 467.33 318.069 468.178 317.7C469.027 317.33 469.791 316.791 470.425 316.116C471.059 315.442 471.548 314.645 471.864 313.775L469.306 303.026Z" fill="#EFA89F"/>
<path d="M456.645 299.098V299.279C461.425 301.062 464.035 305.377 465.895 309.873C465.609 309.407 465.225 309.008 464.769 308.705C464.313 308.402 463.797 308.202 463.256 308.119C462.715 308.035 462.163 308.07 461.637 308.221C461.111 308.373 460.624 308.637 460.21 308.995C460.081 308.995 460.21 309.279 460.21 309.253C461.035 308.961 461.929 308.931 462.771 309.167C463.613 309.402 464.361 309.893 464.913 310.571C465.814 311.719 466.593 312.958 467.239 314.266C467.472 314.68 468.221 314.447 468.04 313.956C468.066 307.832 463.13 299.512 456.645 299.098Z" fill="#263238"/>
<path d="M498.35 347.445L489.642 370.132L461.218 342.018L453.466 351.295C453.466 351.295 481.58 396.231 481.735 394.189L490.728 374.603L504.345 387.91L502.64 354.008L498.35 347.445Z" fill="#FFA4BB"/>
<path d="M504.397 371.088C503.957 365.481 503.647 359.848 502.95 354.266C502.95 354.086 502.588 354.008 502.562 354.266C501.529 359.693 503.363 381.063 503.415 386.205C502.846 385.636 490.779 374.499 490.676 374.68C488.712 377.781 482.097 392.045 481.658 393.362C477.213 386.205 458.402 358.091 453.234 351.372C453.2 351.344 453.159 351.326 453.115 351.322C453.071 351.319 453.027 351.329 452.99 351.352C452.952 351.375 452.923 351.41 452.907 351.451C452.89 351.491 452.887 351.536 452.898 351.579C456.851 359.124 481.192 396.231 481.528 396.127C485.016 389.402 488.156 382.503 490.934 375.455C493.001 377.91 505.172 390.494 505.198 389.641C505.271 383.447 505.004 377.253 504.397 371.088Z" fill="#263238"/>
<path d="M319.098 222.87C319.065 232.483 321.713 241.915 326.745 250.105C331.777 258.296 338.995 264.92 347.585 269.234C356.176 273.549 365.799 275.381 375.374 274.526C384.949 273.671 394.096 270.163 401.786 264.395L427.135 270.881L416.593 247.263C420.256 240.336 422.296 232.666 422.558 224.834C422.82 217.003 421.298 209.214 418.107 202.057C414.916 194.9 410.139 188.563 404.137 183.524C398.136 178.486 391.067 174.878 383.466 172.973C375.865 171.069 367.93 170.918 360.262 172.532C352.594 174.146 345.394 177.483 339.205 182.29C333.016 187.097 328.002 193.248 324.541 200.278C321.08 207.309 319.263 215.034 319.227 222.87H319.098Z" fill="white"/>
<path d="M319.098 222.87C319.15 232.429 321.832 241.789 326.85 249.924C328.113 251.933 329.494 253.866 330.985 255.713C332.53 257.536 334.187 259.262 335.946 260.881C339.445 264.083 343.387 266.763 347.651 268.839C351.905 270.926 356.427 272.413 361.088 273.258C363.409 273.68 365.759 273.922 368.117 273.981C370.468 274.132 372.827 274.089 375.171 273.852C384.56 272.949 393.51 269.441 401.011 263.723L401.347 263.465H401.786L427.187 269.718L425.869 271.294L415.223 247.728L414.965 247.185L415.249 246.643C418.861 239.87 420.894 232.367 421.194 224.696C421.494 217.026 420.053 209.387 416.98 202.353C413.835 195.323 409.207 189.056 403.414 183.981C397.554 178.936 390.615 175.302 383.13 173.36C375.616 171.394 367.755 171.147 360.132 172.637C348.54 174.973 338.111 181.246 330.614 190.391C323.117 199.537 319.012 210.993 318.995 222.818L319.098 222.87ZM319.098 222.87C319.09 214.993 320.87 207.216 324.303 200.126C327.736 193.037 332.733 186.818 338.918 181.939C348.368 174.449 360.113 170.449 372.171 170.615C384.229 170.78 395.86 175.101 405.101 182.848C414.342 190.595 420.627 201.294 422.895 213.137C425.163 224.981 423.274 237.244 417.549 247.857V246.772L427.885 270.415L428.841 272.586L426.567 271.966L401.269 265.299L402.045 265.144C394.187 270.867 384.89 274.285 375.197 275.015C372.797 275.196 370.387 275.196 367.988 275.015C365.583 274.882 363.191 274.58 360.83 274.111C351.404 272.202 342.686 267.732 335.636 261.191C333.905 259.495 332.274 257.701 330.752 255.816C329.269 253.942 327.897 251.984 326.644 249.95C321.692 241.787 319.082 232.418 319.098 222.87Z" fill="#263238"/>
<path d="M382.432 208.942C382.432 211.253 381.746 213.512 380.462 215.434C379.177 217.355 377.352 218.852 375.216 219.735C373.08 220.618 370.731 220.848 368.464 220.396C366.198 219.943 364.117 218.828 362.484 217.192C360.852 215.556 359.742 213.472 359.294 211.205C358.846 208.938 359.081 206.588 359.969 204.455C360.857 202.321 362.358 200.499 364.282 199.218C366.206 197.938 368.467 197.257 370.778 197.262C372.311 197.262 373.828 197.565 375.244 198.152C376.66 198.739 377.945 199.6 379.028 200.685C380.11 201.77 380.968 203.058 381.552 204.475C382.137 205.891 382.436 207.41 382.432 208.942Z" fill="#455A64"/>
<path d="M390.985 241.087V245.48H350.649V241.087C350.836 235.863 353.043 230.916 356.804 227.286C360.566 223.656 365.59 221.628 370.817 221.628C376.044 221.628 381.068 223.656 384.83 227.286C388.591 230.916 390.798 235.863 390.985 241.087Z" fill="#455A64"/>
<path d="M918.896 834.632H761.272L766.208 734.941H859.102L918.896 834.632ZM774.787 821.712H896.054L851.738 747.81H778.456L774.787 821.712Z" fill="#FFA4BB"/>
<path opacity="0.5" d="M918.896 834.632H761.272L766.208 734.941H859.102L918.896 834.632ZM774.787 821.712H896.054L851.738 747.81H778.456L774.787 821.712Z" fill="black"/>
<path d="M910.291 834.632H752.667L757.603 734.941H850.498L910.291 834.632ZM766.182 821.712H887.449L843.133 747.81H769.825L766.182 821.712Z" fill="#FFA4BB"/>
<path opacity="0.3" d="M910.291 834.632H752.667L757.603 734.941H850.498L910.291 834.632ZM766.182 821.712H887.449L843.133 747.81H769.825L766.182 821.712Z" fill="black"/>
<path d="M718.197 852.436H739.773V837.113H718.197V852.436Z" fill="#A6A6A6"/>
<path d="M709.489 989.879H748.507V852.436H709.489V989.879Z" fill="#C7C7C7"/>
<path d="M748.481 936.545H765.639V929.31H748.481V936.545Z" fill="#A6A6A6"/>
<path d="M765.613 940.369H800.497V925.486H765.613V940.369Z" fill="#C7C7C7"/>
<path d="M704.424 1035.23H754.709V989.879H704.424V1035.23Z" fill="#C7C7C7"/>
<path d="M723.882 1139.7H734.373L740.239 1009.72H718.016L723.882 1139.7Z" fill="#A6A6A6"/>
<path d="M866.596 1117.22L875.898 1110.09L754.735 1003.01V1035.23L866.596 1117.22Z" fill="#A6A6A6"/>
<path d="M592.589 1117.22L583.26 1110.09L704.45 1003.01V1035.23L592.589 1117.22Z" fill="#A6A6A6"/>
<path d="M709.489 989.853H748.507V977.967H709.489V989.853Z" fill="#A6A6A6"/>
<path d="M867.009 1163.73C881.081 1163.73 892.488 1152.32 892.488 1138.25C892.488 1124.18 881.081 1112.77 867.009 1112.77C852.938 1112.77 841.531 1124.18 841.531 1138.25C841.531 1152.32 852.938 1163.73 867.009 1163.73Z" fill="#263238"/>
<path d="M855.02 1138.25C855.02 1140.62 855.723 1142.94 857.04 1144.91C858.358 1146.88 860.23 1148.42 862.421 1149.33C864.612 1150.24 867.023 1150.47 869.349 1150.01C871.674 1149.55 873.811 1148.41 875.488 1146.73C877.164 1145.05 878.306 1142.92 878.769 1140.59C879.232 1138.27 878.994 1135.85 878.087 1133.66C877.179 1131.47 875.642 1129.6 873.671 1128.28C871.699 1126.97 869.381 1126.26 867.01 1126.26C865.434 1126.26 863.873 1126.57 862.417 1127.17C860.961 1127.77 859.638 1128.65 858.524 1129.77C857.41 1130.88 856.527 1132.2 855.925 1133.66C855.324 1135.12 855.016 1136.68 855.02 1138.25Z" fill="white"/>
<path d="M592.046 1163.73C606.117 1163.73 617.524 1152.32 617.524 1138.25C617.524 1124.18 606.117 1112.77 592.046 1112.77C577.975 1112.77 566.568 1124.18 566.568 1138.25C566.568 1152.32 577.975 1163.73 592.046 1163.73Z" fill="#263238"/>
<path d="M580.056 1138.25C580.056 1140.62 580.759 1142.94 582.077 1144.91C583.394 1146.88 585.267 1148.42 587.458 1149.33C589.649 1150.24 592.059 1150.47 594.385 1150.01C596.711 1149.55 598.847 1148.41 600.524 1146.73C602.201 1145.05 603.343 1142.92 603.805 1140.59C604.268 1138.27 604.031 1135.85 603.123 1133.66C602.216 1131.47 600.679 1129.6 598.707 1128.28C596.735 1126.97 594.417 1126.26 592.046 1126.26C590.47 1126.26 588.91 1126.57 587.454 1127.17C585.997 1127.77 584.674 1128.65 583.56 1129.77C582.446 1130.88 581.563 1132.2 580.962 1133.66C580.361 1135.12 580.053 1136.68 580.056 1138.25Z" fill="white"/>
<path d="M721.427 1173.6H737.422V1131.69H721.427V1173.6Z" fill="#263238"/>
<path d="M568.764 837.087H920.782V810.343H788.998L744.709 542.33H582.201L568.764 837.087Z" fill="#FFA4BB"/>
<path opacity="0.1" d="M788.999 810.343H592.77L604.475 542.33H744.709L788.999 810.343Z" fill="black"/>
<path opacity="0.3" d="M920.783 810.343H715.716V837.113H920.783V810.343Z" fill="white"/>
<path d="M730.471 834.632H572.847L577.757 734.941H670.781L730.471 834.632ZM586.387 821.712H707.654L663.339 747.81H590.031L586.387 821.712Z" fill="#FFA4BB"/>
<path opacity="0.5" d="M730.471 834.632H572.847L577.757 734.941H670.781L730.471 834.632ZM586.387 821.712H707.654L663.339 747.81H590.031L586.387 821.712Z" fill="black"/>
<path d="M721.866 834.632H564.242L569.152 734.941H662.176L721.866 834.632ZM577.782 821.712H699.049L654.734 747.81H581.4L577.782 821.712Z" fill="#FFA4BB"/>
<path opacity="0.3" d="M721.866 834.632H564.242L569.152 734.941H662.176L721.866 834.632ZM577.782 821.712H699.049L654.734 747.81H581.4L577.782 821.712Z" fill="black"/>
<path d="M773.337 611.273L559.393 652.24L573.578 726.321L787.522 685.354L773.337 611.273Z" fill="#455A64"/>
<path d="M605.612 695.561C605.508 695.494 605.395 695.442 605.276 695.406C605.276 695.406 605.276 695.406 605.276 695.277C605.179 695.223 605.092 695.153 605.018 695.07C604.953 694.958 604.865 694.861 604.759 694.786L589.85 672.331C589.507 671.817 589.383 671.188 589.504 670.582C589.625 669.976 589.982 669.443 590.496 669.101C591.01 668.758 591.639 668.634 592.244 668.755C592.85 668.876 593.383 669.233 593.726 669.747L605.586 687.525L609.824 666.672C609.974 666.086 610.345 665.581 610.858 665.261C611.371 664.941 611.988 664.831 612.58 664.954C613.172 665.077 613.694 665.424 614.038 665.922C614.381 666.42 614.519 667.031 614.424 667.628L608.765 693.985C608.788 694.113 608.788 694.244 608.765 694.372C608.765 694.372 608.765 694.579 608.61 694.682C608.622 694.725 608.622 694.769 608.61 694.812C608.549 694.904 608.479 694.99 608.403 695.07L608.119 695.354C608.004 695.379 607.897 695.432 607.808 695.509H607.395H606.982H606.542L606.103 695.328L605.612 695.561Z" fill="white"/>
<path d="M635.457 683.132L625.302 685.07L624.294 690.91C624.197 691.371 623.966 691.793 623.631 692.123C623.295 692.454 622.87 692.679 622.408 692.77C622.135 692.821 621.854 692.821 621.581 692.77C620.96 692.663 620.406 692.315 620.039 691.803C619.671 691.29 619.52 690.654 619.617 690.031L624.139 663.648C624.236 663.176 624.472 662.743 624.818 662.407C625.163 662.07 625.602 661.846 626.077 661.762C626.562 661.649 627.07 661.687 627.532 661.872C627.994 662.057 628.388 662.379 628.661 662.796L642.589 685.638C642.914 686.181 643.012 686.829 642.862 687.444C642.712 688.058 642.326 688.588 641.788 688.92C641.56 689.065 641.305 689.162 641.039 689.204C640.574 689.3 640.091 689.249 639.656 689.06C639.221 688.87 638.856 688.55 638.61 688.145L635.457 683.132ZM632.873 678.868L627.705 670.522L626.026 680.16L632.873 678.868Z" fill="white"/>
<path d="M643.003 673.235C642.284 669.188 643.188 665.021 645.519 661.636C647.85 658.251 651.42 655.92 655.457 655.147C658.965 654.45 662.604 654.951 665.793 656.568C666.331 656.886 666.727 657.397 666.902 657.996C667.076 658.595 667.016 659.239 666.732 659.795C666.449 660.352 665.965 660.779 665.378 660.991C664.79 661.203 664.144 661.183 663.571 660.935C661.379 659.767 658.844 659.41 656.414 659.928C653.619 660.479 651.136 662.067 649.463 664.372C647.924 666.643 647.331 669.423 647.809 672.124C648.065 673.48 648.591 674.77 649.354 675.92C650.118 677.069 651.103 678.054 652.253 678.817C654.656 680.338 657.546 680.892 660.341 680.367C662.776 680.011 665.012 678.824 666.672 677.008C667.121 676.568 667.715 676.307 668.343 676.274C668.971 676.24 669.59 676.437 670.083 676.827C670.53 677.27 670.801 677.861 670.844 678.489C670.887 679.117 670.699 679.739 670.315 680.238C667.967 682.915 664.794 684.733 661.297 685.406C659.297 685.813 657.235 685.82 655.232 685.428C653.228 685.036 651.321 684.252 649.622 683.121C647.922 681.99 646.462 680.535 645.326 678.838C644.19 677.142 643.401 675.238 643.003 673.235Z" fill="white"/>
<path d="M692.357 672.227L682.202 674.191L681.194 680.005C681.098 680.469 680.868 680.895 680.533 681.23C680.198 681.566 679.772 681.795 679.308 681.892C679.034 681.93 678.755 681.93 678.481 681.892C677.859 681.778 677.307 681.424 676.945 680.907C676.582 680.389 676.438 679.75 676.543 679.127L681.065 652.77C681.17 652.304 681.408 651.878 681.751 651.545C682.093 651.213 682.526 650.987 682.995 650.897C683.464 650.806 683.949 650.855 684.391 651.036C684.833 651.217 685.213 651.523 685.484 651.917L699.437 674.76C699.754 675.3 699.848 675.942 699.698 676.55C699.549 677.159 699.168 677.684 698.636 678.016C698.397 678.156 698.134 678.253 697.861 678.3C697.4 678.397 696.92 678.348 696.489 678.157C696.057 677.967 695.697 677.646 695.458 677.24L692.357 672.227ZM689.773 667.964L684.605 659.643L682.951 669.256L689.773 667.964Z" fill="white"/>
<path d="M709.902 673.649C710.036 673.971 710.096 674.319 710.077 674.668C710.058 675.016 709.961 675.356 709.792 675.661C709.624 675.967 709.39 676.231 709.106 676.434C708.822 676.637 708.496 676.773 708.152 676.832C707.808 676.892 707.455 676.873 707.12 676.778C706.784 676.683 706.474 676.513 706.213 676.282C705.952 676.051 705.746 675.764 705.611 675.442C705.475 675.12 705.414 674.772 705.432 674.424L700.781 650.16C700.69 649.794 700.693 649.41 700.787 649.045C700.882 648.68 701.066 648.344 701.323 648.067C701.762 647.639 702.351 647.4 702.964 647.4C703.577 647.4 704.166 647.639 704.605 648.067L721.659 664.165L718.352 646.879C718.294 646.301 718.454 645.723 718.801 645.258C719.147 644.793 719.655 644.474 720.225 644.364C720.794 644.253 721.385 644.36 721.88 644.663C722.375 644.966 722.738 645.443 722.9 646L727.551 670.264C727.665 670.873 727.533 671.503 727.185 672.016C726.836 672.529 726.299 672.884 725.69 673.003C725.363 673.06 725.028 673.046 724.706 672.961C724.385 672.876 724.086 672.723 723.83 672.512C723.733 672.448 723.646 672.369 723.572 672.279L706.595 656.336L709.902 673.649Z" fill="white"/>
<path d="M750.73 642.692L744.089 643.958L748.352 666.284C748.443 666.598 748.467 666.928 748.424 667.252C748.38 667.577 748.269 667.888 748.098 668.167C747.927 668.446 747.699 668.686 747.43 668.872C747.161 669.058 746.856 669.186 746.535 669.247C746.213 669.308 745.883 669.302 745.564 669.228C745.245 669.155 744.945 669.015 744.683 668.819C744.422 668.623 744.204 668.374 744.043 668.089C743.883 667.804 743.784 667.488 743.753 667.163L739.489 644.837L732.874 646.103C732.57 646.159 732.259 646.155 731.957 646.09C731.655 646.026 731.368 645.903 731.114 645.727C730.859 645.552 730.642 645.329 730.474 645.069C730.306 644.81 730.191 644.521 730.135 644.217C730.072 643.914 730.07 643.602 730.129 643.299C730.189 642.996 730.31 642.708 730.483 642.452C730.657 642.196 730.88 641.978 731.14 641.811C731.4 641.644 731.691 641.53 731.996 641.478L749.825 638.067C750.128 638.003 750.44 638.002 750.743 638.061C751.046 638.121 751.334 638.242 751.59 638.415C751.846 638.589 752.064 638.812 752.231 639.072C752.398 639.332 752.512 639.623 752.564 639.927C752.679 640.536 752.552 641.166 752.209 641.683C751.866 642.199 751.335 642.562 750.73 642.692Z" fill="white"/>
<path d="M579.152 608.945C576.568 616.542 573.467 623.855 570.211 631.09C566.966 638.321 563.344 645.377 559.358 652.227C561.972 644.699 564.964 637.308 568.325 630.082C571.571 622.857 575.185 615.802 579.152 608.945Z" fill="#263238"/>
<path d="M1073.08 638.248C1073.08 638.248 1020.16 630.832 1032.54 566.955C1032.54 566.955 1091.66 580.237 1073.08 638.248Z" fill="#FFA4BB"/>
<path opacity="0.1" d="M1073.08 638.248C1073.08 638.248 1020.16 630.832 1032.54 566.955C1032.54 566.955 1091.66 580.237 1073.08 638.248Z" fill="black"/>
<path d="M1070.4 624.914C1069.36 621.684 1068.15 618.506 1066.8 615.379C1066.8 614.966 1066.8 614.578 1066.68 614.165L1066.44 611.581L1066.05 605.87C1065.85 602.046 1065.59 598.248 1065.54 594.423C1065.54 594.382 1065.52 594.343 1065.49 594.314C1065.46 594.285 1065.42 594.268 1065.38 594.268C1065.34 594.268 1065.3 594.285 1065.27 594.314C1065.24 594.343 1065.23 594.382 1065.23 594.423C1065.23 598.248 1065.23 602.175 1065.23 605.896C1065.23 607.808 1065.41 609.695 1065.54 611.607V612.873C1062.57 606.533 1059.02 600.478 1054.94 594.785C1053.11 592.201 1051.2 589.798 1049.16 587.446C1047.11 585.095 1044.81 582.744 1042.7 580.366C1042.66 580.335 1042.62 580.318 1042.58 580.318C1042.54 580.318 1042.49 580.335 1042.46 580.366C1042.43 580.397 1042.41 580.439 1042.41 580.483C1042.41 580.526 1042.43 580.568 1042.46 580.599C1046.25 584.799 1049.66 589.33 1052.64 594.139C1054.27 596.568 1055.77 599.074 1057.22 601.607L1056.73 601.426L1054.84 600.651L1050.53 599.023L1042.02 595.87C1041.84 595.87 1041.74 596.103 1041.89 596.155C1044.71 597.291 1047.5 598.454 1050.27 599.669L1054.38 601.426L1056.44 602.279C1056.89 602.488 1057.36 602.652 1057.84 602.77C1058.92 604.682 1059.98 606.62 1060.94 608.584C1063.4 613.528 1065.56 618.619 1067.4 623.829L1067.79 624.914C1066.39 624.108 1064.94 623.409 1063.45 622.821L1057.97 620.237C1054.27 618.532 1050.58 616.827 1047.04 614.811C1046.86 614.811 1046.67 614.992 1046.88 615.095C1050.5 617.085 1054.07 619.178 1057.71 621.168C1059.52 622.15 1061.35 623.106 1063.21 624.01C1064.76 624.934 1066.44 625.606 1068.2 626C1069.97 630.842 1071.13 635.885 1071.66 641.013C1072.26 648.248 1072.18 655.509 1072.36 662.77H1072.54C1073.08 656.207 1073.37 649.592 1073.39 643.002C1073.37 636.851 1072.36 630.743 1070.4 624.914Z" fill="#263238"/>
<path d="M1062.26 587.343C1061.75 591.076 1061.58 594.846 1061.74 598.609H1061.89C1062.1 594.862 1062.15 591.142 1062.57 587.421C1062.59 587.214 1062.28 587.136 1062.26 587.343Z" fill="#263238"/>
<path d="M1047.14 590.547C1044.77 589.637 1042.49 588.513 1040.32 587.188C1040.16 587.188 1040.01 587.369 1040.16 587.472C1042.28 588.9 1044.6 590.006 1047.04 590.754C1047.17 590.806 1047.27 590.599 1047.14 590.547Z" fill="#263238"/>
<path d="M1074.76 739.644C1074.76 733.778 1074.61 727.939 1074.56 722.099C1074.43 702.667 1074.27 683.339 1073.94 663.855C1073.64 648.351 1073.28 632.934 1072.85 617.602C1072.85 617.602 1072.85 617.602 1072.72 617.421V604.785C1072.72 604.785 1072.59 604.63 1072.49 604.63C1072.39 604.63 1072.23 604.63 1072.23 604.785V617.447C1072.23 617.447 1072.1 617.447 1072.1 617.628C1071.33 645.07 1070.63 672.486 1070.47 699.928C1070.47 705.509 1070.47 711.091 1070.47 716.672C1070.27 734.554 1070.2 752.444 1070.27 770.342V778.869C1070.27 795.252 1070.45 811.609 1070.45 827.965C1070.45 828.844 1071.43 829.283 1072.46 829.309C1073.5 829.335 1074.92 828.895 1074.92 827.888C1074.92 809.8 1075.05 791.712 1075.05 773.624C1074.94 762.28 1074.94 751.014 1074.76 739.644Z" fill="#263238"/>
<path d="M1052.67 721.866C1052.67 721.866 1027.22 703.029 1003.08 715.768C978.948 728.507 975.124 777.603 975.124 777.603C975.124 777.603 1010.6 782.771 1032.93 761.427C1054.45 740.936 1052.67 721.866 1052.67 721.866Z" fill="#FFA4BB"/>
<path d="M1059.62 723.029C1054.94 721.182 1049.87 720.525 1044.87 721.117C1043.83 720.936 1042.79 720.832 1041.74 720.807L1038.17 720.548C1035.59 720.342 1033.21 720.187 1030.73 720.006C1025.72 719.644 1020.68 719.334 1015.67 718.817C1015.51 718.817 1015.46 719.127 1015.67 719.153C1020.63 719.773 1025.56 720.497 1030.55 720.988C1033.13 721.246 1035.72 721.505 1038.3 721.685L1040.16 721.866L1037.89 722.435C1033.9 723.596 1030.04 725.163 1026.36 727.112C1024.38 727.474 1022.36 728.042 1020.4 728.507C1017.24 729.256 1014.12 730.058 1010.99 730.884C1004.81 732.487 998.69 734.321 992.566 736.052C992.359 736.052 992.566 736.414 992.566 736.363C998.69 734.864 1004.84 733.468 1010.99 732.021L1019.93 729.877L1022.28 729.334C1015.44 733.56 1009.33 738.876 1004.19 745.071C999.225 751.152 995 757.806 991.61 764.89C991.61 765.071 991.791 765.252 991.894 765.071C996.065 757.778 1001.17 751.063 1007.09 745.096C1007.09 745.432 1006.88 745.768 1006.75 746.104L1005.36 750.6C1004.4 753.598 1003.44 756.595 1002.57 759.619C1002.57 759.799 1002.8 759.877 1002.88 759.619C1003.93 756.707 1004.96 753.787 1005.98 750.859C1006.49 749.438 1006.98 747.991 1007.5 746.569C1007.76 745.82 1008.02 745.071 1008.25 744.321C1008.25 744.089 1008.43 743.882 1008.51 743.649C1011.34 740.87 1014.35 738.281 1017.53 735.897C1021.73 732.814 1026.26 730.214 1031.04 728.145C1031.04 728.611 1030.86 729.05 1030.78 729.463C1030.52 730.626 1030.27 731.789 1030.03 732.952C1029.54 735.355 1029.08 737.758 1028.59 740.187C1027.63 745.096 1027.04 750.084 1026.13 755.019C1026.13 755.06 1026.15 755.1 1026.18 755.129C1026.21 755.158 1026.25 755.174 1026.29 755.174C1026.33 755.174 1026.37 755.158 1026.4 755.129C1026.43 755.1 1026.44 755.06 1026.44 755.019C1027.58 750.058 1029.03 745.2 1030.16 740.239C1030.71 737.655 1031.27 735.277 1031.79 732.771L1032.49 729.282C1032.62 728.636 1032.77 727.99 1032.85 727.344C1033.32 727.164 1033.75 726.931 1034.22 726.776C1040.89 723.901 1048.21 722.892 1055.41 723.856C1058.77 724.488 1061.92 725.939 1064.59 728.08C1067.26 730.22 1069.36 732.985 1070.71 736.13C1070.94 736.698 1071.82 736.337 1071.69 735.768C1070.8 732.855 1069.25 730.189 1067.15 727.978C1065.06 725.767 1062.48 724.073 1059.62 723.029Z" fill="#263238"/>
<path d="M996.054 752.202C992.799 753.856 989.672 755.717 986.287 757.06C986.054 757.06 986.287 757.448 986.416 757.345C989.737 755.839 992.98 754.166 996.132 752.332C996.132 752.332 996.132 752.151 996.054 752.202Z" fill="#263238"/>
<path d="M1058.41 687.344C1058.41 687.344 1027.4 689.334 1012.82 668.817C998.251 648.3 1001.61 619.023 1001.61 619.023C1001.61 619.023 1034.27 623.002 1047.24 637.731C1060.22 652.46 1058.41 687.344 1058.41 687.344Z" fill="#FFA4BB"/>
<path d="M1073.01 717.938C1071.92 714.605 1070.58 711.323 1069.34 708.042C1068.1 704.76 1066.75 701.814 1065.46 698.739C1062.68 692.469 1059.57 686.353 1056.13 680.419C1053.94 676.62 1051.58 672.951 1049.16 669.333C1049.16 668.791 1049 668.248 1048.92 667.68C1048.85 667.111 1048.64 665.767 1048.48 664.811C1048.17 662.822 1047.84 660.858 1047.5 658.894C1046.78 654.605 1045.9 650.341 1045.23 645.974C1045.23 645.767 1044.87 645.767 1044.89 645.974C1045.54 650.212 1045.95 654.475 1046.55 658.739C1046.83 660.806 1047.11 662.899 1047.42 664.992C1047.42 665.742 1047.66 666.491 1047.79 667.24C1043 660.3 1037.83 653.639 1032.28 647.292C1031.56 646.439 1030.78 645.586 1030.03 644.708C1029.95 644.46 1029.84 644.219 1029.72 643.984C1029.52 643.39 1029.28 642.796 1029.05 642.201C1028.61 640.961 1028.15 639.617 1027.71 638.506C1026.83 635.922 1026.05 633.597 1025.38 631.09C1025.38 630.909 1025.05 631.09 1025.1 631.09C1025.72 633.674 1026.36 636.258 1027.11 638.842C1027.48 640.057 1027.89 641.271 1028.3 642.46L1028.54 643.054C1024.56 638.713 1020.42 634.553 1016.24 630.418C1016.2 630.387 1016.16 630.37 1016.12 630.37C1016.08 630.37 1016.03 630.387 1016 630.418C1015.97 630.449 1015.95 630.491 1015.95 630.535C1015.95 630.578 1015.97 630.62 1016 630.651C1024.03 639.07 1031.4 648.098 1038.04 657.654C1037.29 657.41 1036.52 657.212 1035.74 657.059C1033.34 656.594 1030.94 656.258 1028.51 655.948C1023.34 655.302 1018.38 654.682 1013.34 653.881C1013.3 653.881 1013.26 653.897 1013.23 653.926C1013.2 653.956 1013.19 653.995 1013.19 654.036C1013.19 654.077 1013.2 654.117 1013.23 654.146C1013.26 654.175 1013.3 654.191 1013.34 654.191C1018.15 655.147 1022.93 656.232 1027.73 657.318C1029.98 657.835 1032.26 658.274 1034.53 658.739C1036.38 659.137 1038.2 659.655 1039.98 660.289C1040.47 661.013 1041.02 661.71 1041.51 662.434C1043.78 665.776 1045.99 669.152 1048.12 672.563L1044.94 671.943C1042.54 671.478 1040.14 671.039 1037.71 670.651C1032.98 669.876 1028.23 669.049 1023.55 668.067C1023.51 668.067 1023.47 668.084 1023.44 668.113C1023.41 668.142 1023.39 668.181 1023.39 668.222C1023.39 668.263 1023.41 668.303 1023.44 668.332C1023.47 668.361 1023.51 668.377 1023.55 668.377C1028.3 669.488 1033.01 670.78 1037.73 672.047C1040.01 672.641 1042.31 673.209 1044.61 673.726L1048.07 674.45C1048.53 674.569 1049 674.655 1049.47 674.708C1053.99 682.072 1058.28 689.618 1062.2 697.292C1063.94 700.677 1065.62 704.114 1067.24 707.628C1068.87 711.142 1070.32 714.76 1071.84 718.352C1072.1 718.998 1073.24 718.714 1073.01 717.938Z" fill="#263238"/>
<path d="M1041.17 646.465C1040.58 643.493 1039.93 640.522 1039.28 637.576C1039.28 637.369 1038.92 637.576 1038.97 637.576C1039.57 640.47 1040.14 643.39 1040.65 646.336C1041.17 649.282 1041.61 652.201 1042.41 655.044C1042.2 652.159 1041.79 649.292 1041.17 646.465Z" fill="#263238"/>
<path d="M1023.01 645.586C1021.58 644.863 1020.06 644.294 1018.54 643.7L1016.18 642.77L1015 642.305C1014.54 642.163 1014.1 641.972 1013.68 641.736C1013.44 641.555 1013.29 641.969 1013.52 641.995C1013.99 642.126 1014.44 642.308 1014.87 642.537L1016.03 643.08L1018.3 644.088C1019.8 644.771 1021.34 645.374 1022.9 645.897C1022.92 645.903 1022.94 645.906 1022.97 645.905C1022.99 645.903 1023.01 645.897 1023.03 645.888C1023.05 645.878 1023.06 645.865 1023.08 645.849C1023.09 645.832 1023.1 645.814 1023.11 645.793C1023.12 645.773 1023.12 645.751 1023.12 645.73C1023.12 645.709 1023.11 645.688 1023.1 645.668C1023.09 645.649 1023.08 645.632 1023.06 645.618C1023.04 645.604 1023.03 645.593 1023.01 645.586Z" fill="#263238"/>
<path d="M1090.24 662.796C1090.24 662.796 1109.05 627.628 1137.68 622.175C1166.31 616.723 1183.86 646.207 1183.86 646.207C1183.86 646.207 1162.98 672.873 1136.7 677.525C1110.42 682.176 1090.24 662.796 1090.24 662.796Z" fill="#FFA4BB"/>
<path d="M1156.88 637.938C1149.42 636.938 1141.86 637.025 1134.43 638.196L1135.69 637.524L1142.05 634.243C1146.44 631.969 1150.89 629.54 1155.51 627.679C1155.72 627.679 1155.51 627.292 1155.36 627.395C1150.89 629.488 1146.24 631.22 1141.77 633.287C1139.52 634.32 1137.3 635.406 1135.1 636.568C1133.7 637.318 1132.13 638.015 1130.73 638.92C1124.48 640.195 1118.41 642.226 1112.64 644.966L1116.24 641.065C1118.82 638.145 1121.4 635.07 1124.45 632.408C1124.61 632.279 1124.45 632.046 1124.22 632.201C1121.22 634.915 1118.07 637.369 1115.15 640.264C1113.73 641.633 1112.39 643.054 1111.07 644.527C1110.43 645.251 1109.78 646 1109.13 646.775C1096.59 653.587 1086.2 663.75 1079.1 676.129C1075.15 683.142 1072.33 690.739 1070.76 698.636C1070.76 698.817 1070.99 698.946 1071.07 698.636C1075.09 685.231 1082.31 673.004 1092.1 663.003C1102.61 652.275 1115.84 644.61 1130.37 640.832C1139.02 638.627 1147.96 637.815 1156.86 638.429C1157.22 638.532 1157.24 637.99 1156.88 637.938Z" fill="#263238"/>
<path opacity="0.1" d="M1183.86 646.207C1183.86 646.207 1162.98 672.874 1136.68 677.525C1116.65 681.091 1100.14 670.626 1093.45 665.483L1092 663.106C1092 663.106 1105.56 651.685 1131.2 645.018C1156.83 638.351 1183.86 646.207 1183.86 646.207Z" fill="black"/>
<path d="M1140.24 625.328C1138.05 626.612 1135.93 628.009 1133.89 629.514C1131.9 631.071 1130.06 632.8 1128.38 634.682C1128.35 634.713 1128.33 634.755 1128.33 634.798C1128.33 634.842 1128.35 634.884 1128.38 634.915C1128.41 634.945 1128.45 634.963 1128.5 634.963C1128.54 634.963 1128.58 634.945 1128.61 634.915C1130.53 633.261 1132.44 631.607 1134.4 630.057C1136.31 628.475 1138.32 627.024 1140.42 625.716C1140.47 625.692 1140.51 625.648 1140.53 625.595C1140.55 625.542 1140.55 625.483 1140.53 625.431C1140.5 625.38 1140.46 625.34 1140.41 625.321C1140.35 625.301 1140.29 625.304 1140.24 625.328Z" fill="#263238"/>
<path d="M1155.98 631.349L1152.77 632.615L1149.57 633.959C1149.34 633.959 1149.57 634.424 1149.7 634.32L1152.88 633.028C1153.96 632.589 1155 632.098 1156.06 631.659C1156.26 631.581 1156.16 631.271 1155.98 631.349Z" fill="#263238"/>
<path d="M1086.47 707.034C1086.47 707.034 1091.64 741.918 1117.74 754.114C1143.83 766.311 1175.93 754.114 1175.93 754.114C1175.93 754.114 1163.37 678.662 1086.47 707.034Z" fill="#FFA4BB"/>
<path d="M1157.86 731.427C1155.44 731.143 1153.03 730.755 1150.66 730.316L1147.12 729.644L1145.28 729.282C1144.58 728.61 1143.89 727.938 1143.16 727.292C1138.18 722.931 1132.81 719.038 1127.11 715.664C1124.01 713.836 1120.8 712.188 1117.5 710.729H1117.99C1120.86 710.858 1123.76 710.962 1126.62 711.117C1132.39 711.375 1138.15 711.504 1143.89 711.866C1144.09 711.866 1144.09 711.556 1143.89 711.556C1138.12 711.168 1132.36 710.522 1126.6 710.031L1118.23 709.282L1113.88 708.894H1112.77C1111.3 708.326 1109.78 707.809 1108.25 707.344C1101.11 704.873 1093.43 704.444 1086.06 706.104C1079.44 707.809 1072.85 712.124 1071.15 719.024C1071.15 719.256 1071.46 719.437 1071.56 719.179C1074.14 713.365 1080.47 710.445 1086.31 709.23C1090.23 708.494 1094.24 708.415 1098.17 708.998C1098.46 710.801 1098.91 712.575 1099.52 714.295C1100.24 716.724 1100.94 719.205 1101.69 721.634C1103.19 726.543 1104.82 731.401 1106.26 736.311C1106.26 736.492 1106.62 736.311 1106.57 736.311C1105.36 731.427 1104.32 726.466 1103.16 721.582L1101.38 714.347C1101.03 712.675 1100.58 711.027 1100.03 709.411C1102.34 709.799 1104.62 710.334 1106.86 711.013C1110.91 712.194 1114.88 713.645 1118.74 715.354C1119.13 717.938 1119.67 720.316 1120.24 722.77C1120.97 725.845 1121.77 728.895 1122.83 731.892C1122.82 731.916 1122.81 731.941 1122.81 731.967C1122.82 731.993 1122.82 732.017 1122.84 732.039C1122.85 732.06 1122.87 732.078 1122.89 732.09C1122.92 732.103 1122.94 732.109 1122.97 732.109C1122.99 732.109 1123.02 732.103 1123.04 732.09C1123.06 732.078 1123.08 732.06 1123.1 732.039C1123.11 732.017 1123.12 731.993 1123.12 731.967C1123.12 731.941 1123.12 731.916 1123.11 731.892C1123.11 731.711 1123.11 731.504 1123.11 731.324C1122.54 728.455 1121.9 725.613 1121.3 722.77C1120.81 720.471 1120.37 718.171 1119.88 715.871C1123.15 717.316 1126.34 718.929 1129.44 720.703C1129.44 721.427 1129.67 722.15 1129.78 722.796C1129.96 723.985 1130.19 725.174 1130.4 726.362C1130.89 729.075 1131.43 731.737 1132.08 734.398C1133.26 739.542 1134.76 744.608 1136.57 749.567C1136.57 749.567 1136.57 749.722 1136.57 749.773L1136.73 749.954C1136.75 749.979 1136.78 749.995 1136.82 749.999C1136.85 750.004 1136.89 749.996 1136.92 749.978C1136.95 749.96 1136.97 749.933 1136.98 749.901C1137 749.868 1137 749.832 1136.99 749.799C1135.77 744.631 1134.4 739.463 1133.26 734.295C1132.7 731.711 1132.13 729.127 1131.61 726.543C1131.35 725.251 1131.09 723.959 1130.86 722.641C1130.86 722.28 1130.73 721.892 1130.68 721.478C1134.21 723.554 1137.62 725.832 1140.89 728.3C1146.55 732.537 1151.78 737.314 1156.52 742.564C1156.7 742.771 1157.09 742.564 1156.91 742.254C1154.96 739.559 1152.88 736.972 1150.66 734.502C1149.34 733.081 1148.07 731.711 1146.57 730.367H1147.01L1150.71 730.936C1153.14 731.246 1155.56 731.504 1157.99 731.763C1157.99 731.763 1158.07 731.453 1157.86 731.427Z" fill="#263238"/>
<path d="M1139.54 743.262L1139.39 742.357C1139.39 741.97 1139.13 741.608 1139.08 741.22C1138.54 738.895 1138.1 736.543 1137.66 734.192C1137.66 734.011 1137.37 734.063 1137.37 734.192C1137.55 737.312 1138.23 740.384 1139.39 743.287H1139.57L1139.54 743.262Z" fill="#263238"/>
<path d="M1117.48 742.693C1117.48 742.693 1117.48 742.564 1117.32 742.538C1116.6 739.463 1115.87 736.362 1115.25 733.261C1114.92 731.634 1114.56 729.98 1114.25 728.352C1114.09 727.473 1113.91 726.595 1113.76 725.768C1113.69 724.995 1113.51 724.236 1113.21 723.52C1113.2 723.493 1113.17 723.471 1113.15 723.456C1113.12 723.44 1113.09 723.432 1113.06 723.432C1113.03 723.432 1113 723.44 1112.97 723.456C1112.94 723.471 1112.92 723.493 1112.9 723.52C1112.89 725.104 1113.11 726.681 1113.58 728.197C1113.89 729.902 1114.22 731.582 1114.58 733.365C1115.36 736.802 1116.21 740.238 1117.17 743.701C1117.17 743.882 1117.53 743.83 1117.5 743.701L1117.48 742.693Z" fill="#263238"/>
<path d="M1155.46 721.375C1150.68 720.729 1145.9 720.032 1141.09 719.463C1140.89 719.463 1140.81 719.747 1141.09 719.773C1145.87 720.471 1150.68 721.065 1155.46 721.711C1155.59 721.737 1155.67 721.401 1155.46 721.375Z" fill="#263238"/>
<path d="M1073.03 625.328C1073.03 625.328 1056.99 554.914 1132.64 526.412C1132.64 526.335 1153.6 619.023 1073.03 625.328Z" fill="#FFA4BB"/>
<path d="M1089.36 585.302L1090.19 584.811L1094.45 582.433L1103.24 577.524C1109 574.294 1114.71 570.935 1120.53 567.756C1120.71 567.756 1120.53 567.395 1120.34 567.498C1114.53 570.65 1108.59 573.622 1102.75 576.723L1094.07 581.4L1090.53 583.286C1093.11 578.48 1095.69 573.803 1098.72 569.281C1102.67 563.26 1106.99 557.498 1111.51 551.891C1111.56 551.839 1111.58 551.771 1111.58 551.701C1111.58 551.63 1111.55 551.564 1111.49 551.516C1111.44 551.468 1111.37 551.442 1111.3 551.445C1111.23 551.447 1111.17 551.477 1111.12 551.529C1104.49 557.982 1098.63 565.179 1093.65 572.976V572.252C1093.65 570.495 1093.78 568.738 1093.83 567.084C1093.83 563.648 1093.7 560.211 1093.83 556.748C1093.83 556.707 1093.82 556.668 1093.79 556.639C1093.76 556.61 1093.72 556.593 1093.68 556.593C1093.64 556.593 1093.6 556.61 1093.57 556.639C1093.54 556.668 1093.52 556.707 1093.52 556.748C1093.37 560.134 1092.95 563.519 1092.77 566.904C1092.77 568.583 1092.59 570.263 1092.54 572.072C1092.54 572.976 1092.54 574.01 1092.54 575.017C1090.99 577.601 1089.49 580.004 1088.07 582.563C1085.55 587.15 1083.3 591.878 1081.33 596.723C1081.33 594.992 1081.15 593.235 1081.04 591.555C1080.81 587.705 1080.34 583.803 1080.16 580.004C1080.16 579.963 1080.15 579.924 1080.12 579.895C1080.09 579.866 1080.05 579.849 1080.01 579.849C1079.97 579.849 1079.93 579.866 1079.9 579.895C1079.87 579.924 1079.85 579.963 1079.85 580.004C1079.85 583.88 1079.85 587.756 1079.85 591.581C1079.85 593.519 1079.85 595.431 1080.09 597.369C1080.09 598.067 1080.09 598.79 1080.22 599.514C1077.81 605.805 1075.9 612.277 1074.5 618.868C1073.2 625.904 1072.26 633.002 1071.69 640.134C1072.5 633.719 1073.85 627.384 1075.72 621.193C1076.65 617.86 1077.63 614.553 1078.69 611.271C1081.84 609.798 1084.87 607.937 1087.89 606.258L1097.4 601.09C1103.7 597.627 1110.01 594.113 1116.52 591.038C1116.7 591.038 1116.52 590.702 1116.34 590.78C1109.75 593.751 1103.11 596.594 1096.62 599.85C1093.42 601.478 1090.24 603.209 1087.09 605.018C1084.5 606.516 1081.77 607.989 1079.34 609.695C1080.06 607.498 1080.84 605.328 1081.66 603.157C1083.88 596.904 1086.49 590.961 1089.36 585.302Z" fill="#263238"/>
<path d="M1082.98 569.203C1082.98 569.162 1082.96 569.123 1082.93 569.094C1082.91 569.065 1082.87 569.048 1082.82 569.048C1082.78 569.048 1082.74 569.065 1082.72 569.094C1082.69 569.123 1082.67 569.162 1082.67 569.203C1082.95 573.209 1083.08 577.214 1083.5 581.219C1083.5 581.267 1083.52 581.313 1083.55 581.347C1083.58 581.381 1083.63 581.4 1083.68 581.4C1083.73 581.4 1083.77 581.381 1083.81 581.347C1083.84 581.313 1083.86 581.267 1083.86 581.219C1083.73 577.214 1083.29 573.234 1082.98 569.203Z" fill="#263238"/>
<path d="M1119.26 582.666C1114.53 584.552 1109.75 586.361 1105.05 588.351C1105.05 588.351 1105.05 588.609 1105.05 588.558C1109.83 586.775 1114.56 584.811 1119.31 582.976C1119.54 582.899 1119.47 582.589 1119.26 582.666Z" fill="#263238"/>
<path d="M1126.44 550.185C1121.82 552.311 1117.33 554.718 1113.01 557.395C1112.97 557.403 1112.95 557.418 1112.92 557.439C1112.9 557.46 1112.88 557.487 1112.87 557.517C1112.85 557.547 1112.85 557.58 1112.85 557.612C1112.85 557.644 1112.86 557.676 1112.88 557.703C1112.9 557.731 1112.92 557.754 1112.95 557.771C1112.98 557.788 1113.01 557.798 1113.04 557.801C1113.07 557.804 1113.1 557.799 1113.13 557.786C1113.16 557.774 1113.19 557.755 1113.21 557.73C1117.61 555.146 1122.08 552.718 1126.62 550.444C1126.8 550.392 1126.62 550.108 1126.44 550.185Z" fill="#263238"/>
<path d="M1125.31 777.5H1016.21V892.488H1125.31V777.5Z" fill="#455A64"/>
<path d="M1014.3 818.198H1008.72V1015.18H1014.3V818.198Z" fill="#263238"/>
<path d="M1132.23 818.198H1126.65V1015.18H1132.23V818.198Z" fill="#263238"/>
<path d="M1076.24 818.198H1070.65V1015.18H1076.24V818.198Z" fill="#263238"/>
<path d="M1129.41 885.123H1011.48V901.041H1129.41V885.123Z" fill="#263238"/>
</g>
<defs>
<clipPath id="clip0_405_295">
<rect width="1292" height="1292" fill="white"/>
</clipPath>
</defs>
</svg>
