<svg width="269" height="207" viewBox="0 0 269 207" fill="none" xmlns="http://www.w3.org/2000/svg">
<path d="M48.6407 158C49.6719 161.745 46.0813 172.49 45.0128 180.349C44.5158 184.057 41.8571 189.325 41.2855 190.96C39.7946 195.61 35.6822 206.253 35.6822 206.253C35.6822 206.253 20.1395 207.813 6.21196 206.424C3.86378 200.588 -0.488281 188.349 1.51172 177.849L9.82469 162L48.6407 158Z" fill="#455A64"/>
<path d="M75.0129 158C76.0441 161.745 77.08 172.49 76.0115 180.349C76.0115 185.849 75.5844 196.714 75.0129 198.349C75.0129 203.849 75.0128 206.253 75.0128 206.253C75.0128 206.253 50.1395 207.813 36.212 206.424C33.8638 200.588 30.3247 188.166 30.3247 177L39.8247 162L75.0129 158Z" fill="#455A64"/>
<path d="M72.4744 64.0218C68.2044 57.8518 61.2444 55.7918 51.2744 57.4218L75.6444 107.582C76.6004 99.9503 77.1379 92.2721 77.2544 84.5818C77.2844 75.3518 76.7444 70.1918 72.4744 64.0218Z" fill="#37474F"/>
<path d="M76.9645 167.472C63.3645 191.722 13.5745 192.152 1.01452 176.202C2.70759 164.957 3.81576 153.632 4.33452 142.272C4.72452 132.522 -0.39548 115.782 0.0245197 103.502C0.44452 91.2218 5.26452 83.3518 5.26452 83.3518C5.26452 83.3518 22.1445 66.1818 33.5145 61.5718C52.5145 53.8618 61.0145 59.2518 61.0145 59.2518C66.0145 60.7218 77.2445 78.3418 77.2445 91.4818C77.2445 108.322 76.9645 167.472 76.9645 167.472Z" fill="#FFA4BB"/>
<path d="M28.095 18.2218C26.4779 17.3089 24.652 16.83 22.795 16.8318C20.745 16.8318 20.045 16.8318 18.205 18.1418C17.1585 18.8809 16.4047 19.9638 16.075 21.2018C15.5912 22.9029 15.7258 24.7205 16.455 26.3318C17.035 27.8518 16.235 29.0518 15.735 30.4918C15.4096 31.3734 15.3393 32.3288 15.5321 33.2486C15.7249 34.1683 16.173 35.015 16.825 35.6918C18.025 36.9018 19.715 37.9218 20.395 39.5518C21.215 41.4818 20.985 43.6518 21.795 45.6418C22.4905 47.2254 23.4547 48.6768 24.645 49.9318C25.4095 50.8915 26.0793 51.923 26.645 53.0118C27.255 54.0118 28.545 54.4518 29.415 55.1418C29.715 55.3818 30.415 56.3718 30.845 56.2518C31.475 56.0918 31.095 54.1518 31.085 53.7218C31.085 52.0418 31.085 50.3618 30.975 48.7218L30.645 42.1718C30.645 42.1718 34.835 36.4818 35.305 31.8118C35.905 25.8118 34.645 23.3418 34.645 23.3418C32.525 21.7418 30.445 19.5518 28.095 18.2218Z" fill="#263238"/>
<path d="M34.4546 27.802C34.2652 30.9452 34.9249 34.0815 36.3647 36.882C37.6147 39.282 39.8746 42.542 42.5746 43.412C43.5615 43.6959 44.5629 43.9262 45.5746 44.102C48.9624 44.7456 52.4477 44.6706 55.8047 43.882C58.3047 43.312 60.8046 42.452 62.5646 40.482C63.753 39.2688 64.8028 37.9272 65.6947 36.482C65.9647 35.952 65.9846 35.382 66.2646 34.852C66.9346 33.602 68.1647 32.492 68.5847 31.132C68.806 29.905 68.8632 28.654 68.7547 27.412C68.7547 26.042 69.6747 25.042 69.7547 23.702C69.9066 22.4925 69.6114 21.2691 68.9246 20.262C68.5425 19.6378 68.1147 19.0429 67.6446 18.482C66.8915 17.8179 66.0375 17.2778 65.1147 16.882C64.2947 16.412 63.5747 15.782 62.7547 15.322C60.7478 14.2223 58.6291 13.3406 56.4346 12.692C53.3146 11.7902 50.0266 11.6326 46.8347 12.232C43.5447 12.842 40.2847 15.482 38.2447 18.022C36.0089 20.8165 34.6858 24.2306 34.4546 27.802Z" fill="#263238"/>
<path d="M22.6445 51.3718C26.4745 52.8718 28.2045 50.4319 28.2045 50.4319L26.8945 66.6318C31.3945 72.3818 42.1345 79.4318 50.0345 78.3918C54.2745 77.8318 54.9045 74.0918 50.7845 68.4718L51.5145 63.1618C53.7227 63.3751 55.9463 63.3751 58.1545 63.1618C62.4345 62.5018 65.7645 59.3819 67.0545 54.7519C69.1245 47.3019 68.4045 34.0618 66.0545 19.8818C61.2745 16.1518 43.0545 17.4218 32.9945 23.7818C34.1045 29.8718 34.1745 31.6318 33.5245 35.3518C32.8745 39.0718 31.5245 40.7818 30.4045 40.9418C28.3545 41.2418 28.0445 39.0218 26.7345 37.6418C25.4245 36.2618 20.4145 35.4518 18.2745 39.9618C16.1345 44.4718 19.7145 50.2218 22.6445 51.3718Z" fill="#C8856A"/>
<path d="M51.5248 63.1619C44.7048 62.4719 36.1048 59.2619 33.9248 56.1619C32.6675 54.4125 31.658 52.4977 30.9248 50.4719C30.9248 50.4719 31.0448 54.7319 32.6948 57.4719C34.3448 60.2119 40.4848 64.9619 51.1748 65.7019L51.5248 63.1619Z" fill="#AF6152"/>
<path d="M65.6451 9.0419C64.9811 8.74333 64.4282 8.24292 64.0651 7.6119C63.4651 6.4919 63.2351 5.2819 62.3651 4.3019C61.7736 3.56525 61.0269 2.9682 60.1782 2.55335C59.3295 2.13849 58.3996 1.91605 57.4551 1.9019C55.6951 1.9019 54.0351 2.9719 52.2951 3.2419C50.4051 3.5419 49.6151 2.6719 48.1651 1.7719C46.3451 0.641897 43.3251 0.661899 41.2951 1.2819C40.3704 1.542 39.5115 1.99532 38.7751 2.6119C38.1051 3.2319 37.7751 4.1619 36.8951 4.6119C35.4051 5.4319 33.0851 4.4419 31.4751 4.3119C28.6451 4.0719 26.3651 4.9519 25.7751 7.3119C25.5251 8.3119 25.5051 9.1219 25.2651 10.0419C25.1474 10.4254 24.954 10.7814 24.6964 11.0889C24.4387 11.3963 24.1221 11.649 23.7651 11.8319C23.1088 12.1409 22.5217 12.5791 22.0389 13.1204C21.556 13.6616 21.1874 14.2948 20.9551 14.9819C20.6529 15.9277 20.623 16.9395 20.8688 17.9015C21.1146 18.8636 21.6262 19.737 22.3451 20.4219C23.7151 21.5619 26.1651 22.4219 27.9851 21.9219C28.2151 23.5019 30.1551 24.6319 31.6751 24.8119C32.5295 24.987 33.4106 24.987 34.2651 24.8119C34.5651 24.7319 36.8651 23.7319 36.6151 23.2819C37.0676 24.0442 37.7035 24.6814 38.4649 25.1355C39.2264 25.5895 40.0892 25.8461 40.9751 25.8819C42.0437 25.967 43.1157 25.7642 44.0794 25.2947C45.0431 24.8251 45.8635 24.1059 46.4551 23.2119C46.0051 23.9219 47.2051 24.9819 47.6951 25.3219C48.5255 25.8268 49.4735 26.106 50.4451 26.1319C51.2746 26.1745 52.1005 25.9961 52.8385 25.6148C53.5764 25.2335 54.1999 24.6631 54.6451 23.9619C55.0128 23.4319 55.5286 23.0221 56.128 22.7838C56.7274 22.5454 57.3838 22.4891 58.0151 22.6219C59.2029 22.9813 60.4343 23.1765 61.6751 23.2019C62.5099 23.1943 63.3262 22.9545 64.0326 22.5095C64.7391 22.0645 65.3077 21.4317 65.6751 20.6819C66.0915 19.6847 66.1411 18.5722 65.8151 17.5419C66.8851 19.2419 70.2051 19.9019 70.5251 17.3419C70.4083 17.4501 70.2646 17.5251 70.109 17.5589C69.9533 17.5927 69.7915 17.5841 69.6403 17.5341C69.4892 17.484 69.3542 17.3943 69.2495 17.2743C69.1448 17.1543 69.0742 17.0085 69.0451 16.8519C68.8851 15.9719 69.8051 15.0619 69.9851 14.2319C70.1327 13.4046 70.0079 12.5517 69.6291 11.8015C69.2504 11.0513 68.6384 10.4443 67.8851 10.0719C67.2151 9.6719 66.3951 9.4119 65.6451 9.0419Z" fill="#263238"/>
<path d="M49.2446 36.5519C49.225 36.9426 49.0913 37.319 48.86 37.6345C48.6287 37.95 48.3099 38.1907 47.9432 38.3269C47.5764 38.463 47.1778 38.4886 46.7967 38.4005C46.4155 38.3124 46.0686 38.1145 45.7988 37.8312C45.529 37.5479 45.3482 37.1918 45.2788 36.8068C45.2094 36.4218 45.2544 36.0249 45.4083 35.6652C45.5622 35.3056 45.8181 34.9989 46.1445 34.7833C46.4709 34.5676 46.8534 34.4524 47.2446 34.4519C47.7875 34.4676 48.3022 34.6971 48.6767 35.0904C49.0513 35.4836 49.2554 36.0089 49.2446 36.5519Z" fill="#263238"/>
<path d="M47.6453 29.2418L42.9753 30.7718C42.7809 30.1352 42.8411 29.4479 43.1433 28.8548C43.4455 28.2616 43.966 27.8089 44.5953 27.5918C44.9037 27.4911 45.2294 27.4541 45.5525 27.4833C45.8756 27.5125 46.1894 27.6071 46.4748 27.7615C46.7602 27.9159 47.0111 28.1268 47.2123 28.3813C47.4136 28.6358 47.5609 28.9286 47.6453 29.2418Z" fill="#263238"/>
<path d="M65.4453 29.792L60.6953 28.392C60.7687 28.0758 60.9065 27.7782 61.1 27.5177C61.2936 27.2572 61.5389 27.0395 61.8204 26.8781C62.102 26.7166 62.4138 26.615 62.7364 26.5796C63.059 26.5441 63.3854 26.5756 63.6953 26.672C64.3309 26.8693 64.8666 27.3028 65.1922 27.8832C65.5177 28.4636 65.6083 29.1468 65.4453 29.792Z" fill="#263238"/>
<path d="M65.1249 35.592C65.1073 35.9832 64.9752 36.3607 64.745 36.6775C64.5148 36.9944 64.1966 37.2366 63.83 37.3743C63.4633 37.512 63.0643 37.539 62.6825 37.4519C62.3006 37.3649 61.9528 37.1677 61.682 36.8847C61.4112 36.6018 61.2295 36.2455 61.1593 35.8602C61.0891 35.4749 61.1337 35.0775 61.2873 34.7172C61.441 34.357 61.697 34.0498 62.0237 33.8338C62.3504 33.6177 62.7333 33.5024 63.1249 33.502C63.3953 33.5017 63.663 33.5562 63.9117 33.6623C64.1604 33.7684 64.385 33.9238 64.5719 34.1192C64.7589 34.3145 64.9043 34.5458 64.9993 34.7989C65.0944 35.0521 65.1371 35.3218 65.1249 35.592Z" fill="#263238"/>
<path d="M47.9246 48.2219L54.5446 50.8019C54.3937 51.2466 54.1549 51.6563 53.8424 52.0068C53.5299 52.3572 53.1501 52.6412 52.7255 52.8418C52.301 53.0424 51.8404 53.1555 51.3713 53.1744C50.9021 53.1934 50.4339 53.1177 49.9946 52.9519C49.1045 52.5847 48.3915 51.8866 48.0054 51.0045C47.6194 50.1224 47.5904 49.125 47.9246 48.2219Z" fill="#AF6152"/>
<path d="M47.7248 49.252C47.6621 50.0297 47.8481 50.8072 48.2562 51.4723C48.6642 52.1374 49.2731 52.6555 49.9948 52.952C50.7617 53.2414 51.6079 53.2414 52.3748 52.952C52.0398 51.952 51.4224 51.0705 50.5972 50.4139C49.7721 49.7574 48.7744 49.3538 47.7248 49.252Z" fill="#F28F8F"/>
<path d="M59.6449 40.312C58.624 38.5259 57.4209 36.8503 56.0549 35.312C55.9849 35.232 55.9049 35.172 55.8449 35.102C55.841 35.0904 55.8344 35.0799 55.8257 35.0712C55.8171 35.0625 55.8065 35.0559 55.7949 35.052C55.0159 34.1531 53.9609 33.5376 52.7949 33.302L53.1949 36.702L54.3349 46.242L61.7249 43.992C61.0349 42.702 60.3449 41.462 59.6449 40.312Z" fill="#AF6152"/>
<path d="M71.5243 115.672C71.5243 115.672 34.4143 93.522 27.6443 89.722C19.1343 84.922 12.3543 80.862 8.34432 84.582C4.78432 87.882 2.96432 91.762 3.79432 101.192C4.32432 107.192 7.02433 111.272 14.9943 117.502C22.9643 123.732 55.9343 137.422 62.3243 139.152C75.9043 142.822 76.7343 143.082 84.7143 136.212" fill="#C8856A"/>
<path d="M7.27424 81.3718C10.4742 79.6318 15.5842 81.2618 23.2042 86.0518C30.8242 90.8418 57.2042 107.112 57.2042 107.112C57.8551 113.232 56.7011 119.409 53.8842 124.882C49.2042 133.882 46.5942 134.462 46.5942 134.462C46.5942 134.462 16.3442 121.182 12.9742 119.332C9.60424 117.482 3.64424 113.472 1.64424 107.052C-0.355765 100.632 -2.23576 88.0218 7.27424 81.3718Z" fill="#37474F"/>
<path d="M168.793 154.882C167.961 158.627 170.859 169.372 171.721 177.231C172.122 180.938 174.268 186.207 174.729 187.842C175.932 192.492 179.251 203.135 179.251 203.135C179.251 203.135 191.794 204.695 203.034 203.306C204.929 197.47 211.556 189.178 206.573 184.215L214.645 156.567L168.793 154.882Z" fill="#455A64"/>
<path d="M220.824 161.942L174.645 161.882C176.16 164.77 186.872 184.388 189.261 187.703C191.651 191.018 202.131 204.018 202.131 204.018C202.131 204.018 204.611 204.991 212.481 204.872C221.326 204.737 224.739 203.848 224.739 203.848C224.739 203.848 226.456 196.859 226.626 192.76C226.819 190.172 225.49 187.591 222.681 185.099C222.681 185.099 223.855 177.625 223.825 172.618C223.795 167.611 223.675 166.026 220.824 161.942Z" fill="#455A64"/>
<path d="M236.824 161.942L190.645 161.882C192.16 164.77 202.872 184.388 205.261 187.703C207.651 191.018 218.131 204.018 218.131 204.018C218.131 204.018 220.611 204.991 228.481 204.872C237.326 204.737 240.739 203.848 240.739 203.848C240.739 203.848 242.456 196.859 242.626 192.76C242.819 190.172 241.49 187.591 238.681 185.099C238.681 185.099 239.855 177.625 239.825 172.618C239.795 167.611 239.675 166.026 236.824 161.942Z" fill="#455A64"/>
<path d="M189.115 54.3718C182.355 55.1118 173.645 61.7218 161.655 77.1118C150.045 92.0118 142.475 101.672 142.475 101.672L161.355 119.582L184.405 92.0318L189.115 54.3718Z" fill="#FFA8A7"/>
<path d="M197.974 54.1918C188.244 52.0318 180.834 54.3718 174.364 61.2718C166.924 69.2118 148.364 93.6618 148.364 93.6618C152.538 95.9682 156.416 98.772 159.914 102.012C164.474 106.572 166.814 113.342 166.814 113.342L184.814 90.6518L197.974 54.1918Z" fill="#37474F"/>
<path d="M168.644 88.0219C168.694 74.8819 180.644 57.2119 185.334 55.7419C185.334 55.7419 193.334 50.3419 211.164 58.0619C221.834 62.6719 239.624 75.5619 239.624 75.5619C241.251 83.616 242.254 91.7835 242.624 99.9919C243.014 112.262 238.204 128.992 238.624 138.762C239.044 148.532 239.844 158.362 241.734 172.682C229.944 188.632 181.134 187.762 168.364 163.522C168.434 144.222 168.644 102.082 168.644 88.0219Z" fill="#FFA4BB"/>
<path d="M175.855 28.7219C173.715 24.0919 175.485 16.3619 175.485 16.3619C174.423 17.9105 173.716 19.674 173.414 21.5267C173.112 23.3795 173.221 25.2762 173.735 27.0819C169.305 21.9619 170.155 11.6619 179.115 5.84191C190.975 -1.85809 214.115 -3.27809 219.115 13.2919C222.965 13.8719 225.195 18.2919 224.845 27.4719C224.495 36.6519 219.255 48.4719 220.185 52.7519C221.115 57.0319 222.405 58.1119 222.405 58.1119C221.199 57.9198 220.058 57.4358 219.082 56.702C218.106 55.9683 217.324 55.007 216.805 53.9019C217.246 55.7909 217.869 57.6328 218.665 59.4019H186.215L175.855 28.7219Z" fill="#263238"/>
<path d="M231.585 13.5719C231.746 12.4626 231.583 11.3304 231.115 10.3119C230.646 9.29616 230.015 8.36387 229.245 7.55186C228.478 6.66492 227.552 5.92898 226.515 5.38186C226.299 5.2756 226.075 5.18536 225.845 5.11186C223.395 1.32186 218.845 -1.32814 214.695 0.701864C205.095 5.70186 216.945 20.3819 225.055 15.9419C225.796 15.4121 226.411 14.7266 226.858 13.9337C227.306 13.1408 227.574 12.2596 227.645 11.3519C227.899 11.5971 228.13 11.8649 228.335 12.1519C228.65 12.6019 228.909 13.0889 229.105 13.6019C229.466 14.4909 229.714 15.4214 229.845 16.3719C230.142 14.9377 230.118 13.4557 229.775 12.0319C229.425 10.6347 228.584 9.4101 227.405 8.58186C228.427 9.05329 229.332 9.74527 230.055 10.6081C230.777 11.4709 231.3 12.483 231.585 13.5719Z" fill="#263238"/>
<path d="M219.785 48.7718C215.995 50.1518 214.485 47.7718 214.485 47.7718L215.765 63.6518C211.215 69.1718 200.515 76.3618 192.765 75.1418C188.635 74.4818 188.115 70.7818 192.295 65.3818L191.645 60.2818C189.097 60.3929 186.545 60.2218 184.035 59.7718C181.926 59.2106 180.025 58.0507 178.561 56.4323C177.097 54.8139 176.132 52.8062 175.785 50.6518C174.855 45.5518 174.875 33.2818 177.025 21.6518C177.505 19.0618 179.195 15.2218 181.175 13.5518C181.705 15.7718 181.945 17.8018 187.835 18.4418C194.335 19.1518 204.265 12.1418 208.745 17.2018C207.747 17.9805 206.953 18.9896 206.43 20.1426C205.908 21.2956 205.673 22.558 205.745 23.8218C205.825 27.4118 208.745 31.1218 209.065 33.3618C209.615 37.0418 210.905 38.7218 211.975 38.9118C213.975 39.2618 214.345 37.0918 215.665 35.7718C216.985 34.4518 221.915 33.7718 223.895 38.2618C225.875 42.7518 222.695 47.7118 219.785 48.7718Z" fill="#FFA8A7"/>
<path d="M209.245 55.1118C210.935 52.4718 211.155 48.3018 211.155 48.3018C210.397 50.2673 209.371 52.1183 208.104 53.8018C205.894 56.8018 198.304 59.8018 191.604 60.2818L191.935 62.6518C201.645 61.8818 207.645 57.6418 209.245 55.1118Z" fill="#F28F8F"/>
<path d="M181.135 41.2719L188.415 43.3719L189.725 30.6619C186.815 31.0119 183.955 35.8819 181.135 41.2719Z" fill="#F28F8F"/>
<path d="M194.034 34.282C194.034 34.6775 194.151 35.0642 194.371 35.3931C194.591 35.722 194.903 35.9784 195.269 36.1297C195.634 36.2811 196.036 36.3207 196.424 36.2436C196.812 36.1664 197.169 35.9759 197.448 35.6962C197.728 35.4165 197.919 35.0601 197.996 34.6722C198.073 34.2842 198.033 33.8821 197.882 33.5166C197.731 33.1512 197.474 32.8388 197.145 32.619C196.816 32.3993 196.43 32.282 196.034 32.282C195.504 32.282 194.995 32.4927 194.62 32.8678C194.245 33.2428 194.034 33.7515 194.034 34.282Z" fill="#263238"/>
<path d="M195.765 27.1419L200.315 28.7219C200.514 28.101 200.465 27.4268 200.178 26.8413C199.891 26.2557 199.388 25.8043 198.775 25.5819C198.475 25.4786 198.157 25.4372 197.841 25.4603C197.525 25.4835 197.217 25.5707 196.935 25.7165C196.654 25.8624 196.405 26.064 196.204 26.309C196.002 26.554 195.853 26.8374 195.765 27.1419Z" fill="#263238"/>
<path d="M178.275 27.3718L182.955 26.0818C182.886 25.7729 182.755 25.4811 182.57 25.2244C182.385 24.9676 182.15 24.7512 181.879 24.5884C181.607 24.4256 181.306 24.3197 180.992 24.2773C180.678 24.235 180.36 24.2569 180.055 24.3418C179.427 24.5244 178.894 24.9398 178.563 25.5032C178.232 26.0665 178.129 26.735 178.275 27.3718Z" fill="#263238"/>
<path d="M178.494 33.0718C178.494 33.4673 178.611 33.854 178.831 34.1829C179.051 34.5118 179.363 34.7682 179.729 34.9195C180.094 35.0709 180.496 35.1105 180.884 35.0333C181.272 34.9562 181.629 34.7657 181.908 34.486C182.188 34.2063 182.379 33.8499 182.456 33.462C182.533 33.074 182.493 32.6719 182.342 32.3064C182.191 31.941 181.934 31.6286 181.605 31.4088C181.276 31.1891 180.89 31.0718 180.494 31.0718C179.964 31.0718 179.455 31.2825 179.08 31.6576C178.705 32.0326 178.494 32.5413 178.494 33.0718Z" fill="#263238"/>
<path d="M194.584 45.6919L188.034 48.0519C188.17 48.4916 188.393 48.8995 188.689 49.2511C188.986 49.6026 189.351 49.8907 189.762 50.0979C190.173 50.3052 190.621 50.4275 191.08 50.4574C191.539 50.4872 192 50.4242 192.434 50.2719C193.316 49.9363 194.034 49.271 194.435 48.4165C194.836 47.562 194.89 46.5851 194.584 45.6919Z" fill="#B16668"/>
<path d="M194.754 46.7119C194.798 47.4753 194.597 48.2327 194.18 48.8733C193.762 49.514 193.15 50.0041 192.434 50.2719C191.687 50.5573 190.861 50.5573 190.114 50.2719C190.454 49.2894 191.075 48.4284 191.9 47.7956C192.725 47.1627 193.717 46.7859 194.754 46.7119Z" fill="#F28F8F"/>
<path d="M231.645 81.1318C236.895 74.9018 240.845 74.4518 248.135 89.2118C257.635 108.432 260.645 114.012 265.965 128.562C269.965 139.562 270.055 140.282 265.675 149.562C263.235 154.722 248.885 181.212 244.515 186.072C241.615 189.312 237.745 195.492 234.685 198.072C234.685 198.072 227.505 198.432 225.185 185.562C225.185 185.562 223.335 184.022 219.275 185.842C216.465 187.102 212.795 187.642 210.905 186.112C209.015 184.582 213.005 183.332 214.965 181.872C217.781 179.509 221.087 177.801 224.645 176.872C229.725 175.552 230.715 174.222 234.645 168.222C239.375 160.952 244.265 142.612 244.265 142.612L232.645 119.022C221.645 96.8818 226.405 87.3618 231.645 81.1318Z" fill="#FFA8A7"/>
<path d="M225.105 89.6519C227.405 78.3319 235.595 74.9919 238.635 75.2919C241.675 75.5919 246.445 81.0119 249.345 87.4719C253.795 97.3519 263.105 119.802 263.105 119.802C260.962 124.666 257.208 128.643 252.475 131.062C244.365 135.352 239.905 135.792 239.905 135.792C239.905 135.792 236.365 129.622 231.795 120.152C227.225 110.682 223.325 98.4319 225.105 89.6519Z" fill="#37474F"/>
<path d="M244.255 142.542C245.673 140.803 247.435 139.377 249.432 138.353C251.428 137.329 253.615 136.729 255.855 136.592C251.445 135.012 246.285 136.882 243.225 140.482L244.255 142.542Z" fill="#F28F8F"/>
<path d="M120.004 81.3718C119.774 83.1218 121.094 85.2618 123.714 87.4818C127.154 90.4018 145.394 100.902 145.394 100.902L161.394 119.582C159.262 122.075 156.957 124.414 154.494 126.582C151.664 129.002 148.584 130.012 141.004 125.492C129.794 118.882 99.4141 88.8818 99.4141 88.8818L102.414 84.6118L120.004 81.3718Z" fill="#FFA8A7"/>
<path d="M84.7444 136.212C92.2944 129.112 94.7444 125.662 104.474 112.282C108.952 106.247 112.989 99.8968 116.554 93.2819C118.324 90.2119 122.004 82.8819 121.984 81.3919C121.859 77.0434 121.509 72.7042 120.934 68.3919C120.882 67.814 120.667 67.2627 120.314 66.8019C119.624 65.9719 118.374 65.8019 117.564 65.1219C116.754 64.4419 116.564 63.4719 115.904 62.8319C115.014 62.1712 113.906 61.8744 112.804 62.0019C112.467 62.0369 112.126 61.9994 111.804 61.8919C111.498 61.7165 111.218 61.4975 110.974 61.2419C109.054 59.5619 106.354 60.7619 104.974 62.5319L107.644 65.0619C105.069 65.4204 102.551 66.1129 100.154 67.1219L102.414 84.6119L99.4144 88.8819C92.3544 96.6519 71.5244 115.662 71.5244 115.662" fill="#C8856A"/>
<path d="M97.7641 67.2418C100.871 66.9492 104.002 67.0163 107.094 67.4418C108.844 67.8318 108.654 70.2118 106.314 71.0018C110.314 71.0018 112.594 71.4118 113.844 72.2218C114.158 72.456 114.374 72.7993 114.448 73.1842C114.522 73.5691 114.449 73.9678 114.244 74.3018C113.504 74.9367 112.599 75.3493 111.634 75.4918C112.194 75.5618 114.454 75.7218 114.544 77.2518C114.644 79.0018 111.444 79.2518 109.254 79.4818C111.194 79.7918 111.634 82.6618 108.104 83.3918C104.574 84.1218 102.404 84.6218 102.404 84.6218L99.4041 88.8918C99.0989 88.8227 98.813 88.6863 98.5673 88.4925C98.3216 88.2988 98.1224 88.0525 97.9841 87.7718C97.9004 87.4647 97.7865 87.1666 97.6441 86.8818C97.2741 86.3118 96.5241 86.1018 96.0741 85.5818C95.6141 84.8797 95.4455 84.0261 95.6041 83.2018C95.7629 82.381 95.6358 81.5305 95.2441 80.7918C94.7941 80.1618 93.9641 79.8818 93.5441 79.2318C93.2212 78.5242 93.1404 77.73 93.3141 76.9718C93.4013 76.5943 93.4063 76.2025 93.3286 75.8228C93.251 75.4432 93.0925 75.0848 92.8641 74.7718C92.6041 74.5118 92.2641 74.3618 92.0341 74.0818C91.8427 73.7315 91.7578 73.3329 91.7898 72.935C91.8218 72.5371 91.9692 72.1571 92.2141 71.8418C92.9212 70.6905 93.7977 69.6522 94.8141 68.7618C95.5793 67.9126 96.6283 67.3721 97.7641 67.2418Z" fill="#FFA8A7"/>
<path d="M106.315 71.0019C105.315 71.1419 104.195 71.2119 103.135 71.2719C102.075 71.3319 101.015 71.3419 99.9747 71.4419C99.7334 71.4545 99.4947 71.4982 99.2646 71.5719C99.0359 71.6685 98.818 71.7892 98.6147 71.9319C98.1647 72.2019 97.7447 72.5219 97.3147 72.8319L94.7646 74.7319C95.4926 73.9524 96.2638 73.2146 97.0746 72.5219C97.4846 72.1719 97.9047 71.8519 98.3447 71.5219C98.5783 71.3601 98.8259 71.2195 99.0847 71.1019C99.3563 71.0099 99.6386 70.9528 99.9247 70.9319C100.993 70.857 102.064 70.837 103.135 70.8719C104.195 70.8819 105.255 70.9419 106.315 71.0019Z" fill="#F28F8F"/>
<path d="M111.645 75.492C109.095 75.732 106.545 75.7921 103.995 75.8621H102.995C102.852 75.8443 102.708 75.8443 102.565 75.8621C102.419 75.9011 102.276 75.9478 102.135 76.0021C101.555 76.2221 100.985 76.512 100.405 76.772L96.9648 78.452C98.0189 77.7283 99.1104 77.0607 100.235 76.452C100.798 76.1316 101.379 75.8444 101.975 75.592L102.445 75.4321C102.618 75.3868 102.796 75.3632 102.975 75.3621H103.975C106.515 75.3521 109.075 75.322 111.645 75.492Z" fill="#F28F8F"/>
<path d="M109.234 79.372C108.234 79.512 107.234 79.582 106.304 79.662C105.374 79.742 104.304 79.782 103.394 79.912C102.945 80.0094 102.52 80.1965 102.144 80.462L100.884 81.212C100.054 81.722 99.2243 82.212 98.3643 82.742C99.0905 82.0818 99.8516 81.4609 100.644 80.882C101.034 80.582 101.454 80.312 101.864 80.042C102.293 79.7418 102.775 79.5247 103.284 79.402C104.28 79.2932 105.282 79.2498 106.284 79.272C107.274 79.282 108.254 79.312 109.234 79.372Z" fill="#F28F8F"/>
<path d="M98.1748 67.2218C98.9848 65.8318 100.435 63.1218 101.435 62.7218C103.015 62.3004 104.627 62.0094 106.255 61.8519C107.035 61.7719 109.165 62.6418 110.255 62.9518C111.345 63.2618 110.895 64.9518 108.185 65.4118C105.475 65.8718 103.585 65.9219 102.885 66.1419C102.185 66.3619 100.175 67.1419 100.175 67.1419L98.1748 67.2218Z" fill="#F28F8F"/>
<path d="M108.628 47.44C108.363 47.44 108.109 47.3346 107.921 47.1471C107.734 46.9596 107.628 46.7052 107.628 46.44L106.988 34C106.988 33.7348 107.094 33.4804 107.281 33.2929C107.469 33.1054 107.723 33 107.988 33C108.243 32.9995 108.489 33.0966 108.675 33.2714C108.861 33.4461 108.973 33.6853 108.988 33.94L109.608 46.45C109.609 46.7068 109.51 46.9538 109.333 47.14C109.156 47.3262 108.915 47.4372 108.658 47.45L108.628 47.44Z" fill="#FFC727"/>
<path d="M98.2184 50.7901C98.0487 50.7943 97.8806 50.7551 97.7302 50.6764C97.5797 50.5977 97.4518 50.4819 97.3584 50.3401L90.4484 39.6501C90.3769 39.5398 90.3277 39.4164 90.3038 39.2871C90.2799 39.1578 90.2817 39.0251 90.3091 38.8965C90.3365 38.7679 90.3889 38.6459 90.4635 38.5376C90.538 38.4292 90.6331 38.3366 90.7434 38.2651C90.8537 38.1935 90.9771 38.1444 91.1064 38.1204C91.2357 38.0965 91.3684 38.0983 91.497 38.1257C91.6256 38.1531 91.7476 38.2056 91.8559 38.2801C91.9643 38.3546 92.0568 38.4498 92.1284 38.5601L99.0284 49.2501C99.1713 49.473 99.2199 49.7434 99.1637 50.0021C99.1074 50.2608 98.9509 50.4866 98.7284 50.6301C98.5783 50.7333 98.4006 50.789 98.2184 50.7901Z" fill="#FFC727"/>
<path d="M90.8687 58.91C90.706 58.907 90.5458 58.8695 90.3987 58.8L79.5187 53.22C79.2907 53.0948 79.1204 52.8858 79.0441 52.6371C78.9677 52.3885 78.9912 52.1199 79.1096 51.8883C79.228 51.6567 79.432 51.4804 79.6782 51.3967C79.9245 51.313 80.1937 51.3286 80.4287 51.44L91.3187 57C91.5524 57.1217 91.7288 57.3307 91.8093 57.5816C91.8898 57.8325 91.868 58.1051 91.7487 58.34C91.6691 58.5072 91.5447 58.649 91.3894 58.7496C91.234 58.8503 91.0537 58.9058 90.8687 58.91Z" fill="#FFC727"/>
<path d="M139.448 83.8201C139.286 83.818 139.125 83.7805 138.978 83.7101L127.978 78.0801C127.742 77.9581 127.564 77.7473 127.484 77.4941C127.403 77.241 127.426 76.9661 127.548 76.7301C127.67 76.494 127.881 76.3161 128.134 76.2355C128.387 76.1548 128.662 76.1781 128.898 76.3001L139.898 81.9301C140.132 82.0517 140.308 82.2607 140.389 82.5116C140.47 82.7626 140.448 83.0351 140.328 83.2701C140.246 83.4335 140.12 83.5712 139.965 83.6682C139.81 83.7651 139.631 83.8177 139.448 83.8201Z" fill="#FFC727"/>
<path d="M130.799 67.4899C130.542 67.4902 130.295 67.3918 130.109 67.2149C129.923 67.0381 129.812 66.7964 129.799 66.5399C129.799 66.2831 129.897 66.0361 130.074 65.8499C130.251 65.6638 130.492 65.5528 130.749 65.5399L143.579 64.8899C143.714 64.8831 143.85 64.904 143.977 64.9512C144.104 64.9984 144.22 65.071 144.318 65.1645C144.417 65.2581 144.495 65.3706 144.548 65.4953C144.602 65.62 144.629 65.7543 144.629 65.8899C144.629 66.1551 144.523 66.4095 144.336 66.597C144.148 66.7846 143.894 66.8899 143.629 66.8899L130.799 67.5299V67.4899Z" fill="#FFC727"/>
<path d="M127.449 57.0801C127.278 57.0832 127.109 57.0426 126.959 56.9621C126.808 56.8815 126.681 56.7638 126.589 56.6201C126.446 56.3972 126.397 56.1268 126.453 55.8681C126.51 55.6094 126.666 55.3836 126.889 55.2401L137.329 48.4901C137.552 48.3416 137.824 48.2877 138.087 48.3402C138.349 48.3927 138.58 48.5473 138.729 48.7701C138.877 48.9929 138.931 49.2656 138.879 49.5281C138.826 49.7907 138.672 50.0216 138.449 50.1701L128.009 56.9201C127.841 57.0252 127.647 57.0807 127.449 57.0801Z" fill="#FFC727"/>
<path d="M119.329 49.74C119.166 49.7423 119.004 49.7045 118.859 49.63C118.741 49.5707 118.636 49.4886 118.55 49.3884C118.464 49.2883 118.399 49.1722 118.358 49.0467C118.317 48.9212 118.301 48.7888 118.312 48.6572C118.322 48.5256 118.359 48.3974 118.419 48.28L124.219 37C124.279 36.883 124.362 36.779 124.462 36.694C124.563 36.609 124.679 36.5446 124.805 36.5047C124.93 36.4647 125.062 36.4499 125.193 36.4612C125.325 36.4724 125.452 36.5094 125.569 36.57C125.805 36.6899 125.983 36.8981 126.065 37.1492C126.148 37.4003 126.128 37.6738 126.009 37.91L120.199 49.2C120.116 49.3601 119.992 49.4948 119.838 49.5898C119.685 49.6849 119.509 49.7368 119.329 49.74Z" fill="#FFC727"/>
</svg>
