<svg width="549" height="391" viewBox="0 0 549 391" fill="none" xmlns="http://www.w3.org/2000/svg">
<path d="M194.568 338.73C195.6 342.475 192.009 353.221 190.941 361.079C190.444 364.787 187.785 370.055 187.213 371.69C185.722 376.341 181.61 386.983 181.61 386.983C181.61 386.983 166.067 388.543 152.14 387.155C149.792 381.318 145.439 369.079 147.439 358.579L155.752 342.73L194.568 338.73Z" fill="#455A64"/>
<path d="M220.941 338.73C221.972 342.475 223.008 353.221 221.939 361.079C221.939 366.579 221.512 377.444 220.941 379.079C220.941 384.579 220.941 386.983 220.941 386.983C220.941 386.983 196.067 388.543 182.14 387.155C179.792 381.318 176.252 368.897 176.252 357.73L185.752 342.73L220.941 338.73Z" fill="#455A64"/>
<path d="M217.769 249.219C213.499 243.049 206.539 240.989 196.569 242.619L220.939 292.779C221.895 285.148 222.433 277.469 222.549 269.779C222.579 260.549 222.039 255.389 217.769 249.219Z" fill="#37474F"/>
<path d="M222.259 352.669C208.659 376.919 158.869 377.349 146.309 361.399C148.003 350.154 149.111 338.829 149.629 327.469C150.019 317.719 144.899 300.979 145.319 288.699C145.739 276.419 150.559 268.549 150.559 268.549C150.559 268.549 167.439 251.379 178.809 246.769C197.809 239.059 206.309 244.449 206.309 244.449C211.309 245.919 222.539 263.539 222.539 276.679C222.539 293.519 222.259 352.669 222.259 352.669Z" fill="#FFA4BB"/>
<path d="M173.39 203.419C171.773 202.506 169.947 202.027 168.09 202.029C166.04 202.029 165.34 202.029 163.5 203.339C162.453 204.078 161.7 205.161 161.37 206.399C160.886 208.1 161.021 209.918 161.75 211.529C162.33 213.049 161.53 214.249 161.03 215.689C160.705 216.571 160.634 217.526 160.827 218.446C161.02 219.366 161.468 220.212 162.12 220.889C163.32 222.099 165.01 223.119 165.69 224.749C166.51 226.679 166.28 228.849 167.09 230.839C167.785 232.423 168.75 233.874 169.94 235.129C170.704 236.089 171.374 237.12 171.94 238.209C172.55 239.209 173.84 239.649 174.71 240.339C175.01 240.579 175.71 241.569 176.14 241.449C176.77 241.289 176.39 239.349 176.38 238.919C176.38 237.239 176.38 235.559 176.27 233.919L175.94 227.369C175.94 227.369 180.13 221.679 180.6 217.009C181.2 211.009 179.94 208.539 179.94 208.539C177.82 206.939 175.74 204.749 173.39 203.419Z" fill="#263238"/>
<path d="M179.75 212.999C179.56 216.142 180.22 219.279 181.66 222.079C182.91 224.479 185.17 227.739 187.87 228.609C188.856 228.893 189.858 229.123 190.87 229.299C194.257 229.943 197.743 229.868 201.1 229.079C203.6 228.509 206.1 227.649 207.86 225.679C209.048 224.466 210.098 223.124 210.99 221.679C211.26 221.149 211.28 220.579 211.56 220.049C212.23 218.799 213.46 217.689 213.88 216.329C214.101 215.102 214.158 213.851 214.05 212.609C214.05 211.239 214.97 210.239 215.05 208.899C215.201 207.69 214.906 206.466 214.22 205.459C213.837 204.835 213.41 204.24 212.94 203.679C212.186 203.015 211.332 202.475 210.41 202.079C209.59 201.609 208.87 200.979 208.05 200.519C206.043 199.42 203.924 198.538 201.73 197.889C198.61 196.987 195.322 196.83 192.13 197.429C188.84 198.039 185.58 200.679 183.54 203.219C181.304 206.014 179.981 209.428 179.75 212.999Z" fill="#263238"/>
<path d="M167.939 236.569C171.769 238.069 173.499 235.629 173.499 235.629L172.189 251.829C176.689 257.579 187.429 264.629 195.329 263.589C199.569 263.029 200.199 259.289 196.079 253.669L196.809 248.359C199.018 248.572 201.241 248.572 203.449 248.359C207.729 247.699 211.059 244.579 212.349 239.949C214.419 232.499 213.699 219.259 211.349 205.079C206.569 201.349 188.349 202.619 178.289 208.979C179.399 215.069 179.469 216.829 178.819 220.549C178.169 224.269 176.819 225.979 175.699 226.139C173.649 226.439 173.339 224.219 172.029 222.839C170.719 221.459 165.709 220.649 163.569 225.159C161.429 229.669 165.009 235.419 167.939 236.569Z" fill="#C8856A"/>
<path d="M196.82 248.359C190 247.669 181.4 244.459 179.22 241.359C177.962 239.61 176.953 237.695 176.22 235.669C176.22 235.669 176.34 239.929 177.99 242.669C179.64 245.409 185.78 250.159 196.47 250.899L196.82 248.359Z" fill="#AF6152"/>
<path d="M210.94 194.239C210.276 193.941 209.723 193.44 209.36 192.809C208.76 191.689 208.53 190.479 207.66 189.499C207.069 188.763 206.322 188.165 205.473 187.751C204.624 187.336 203.695 187.113 202.75 187.099C200.99 187.099 199.33 188.169 197.59 188.439C195.7 188.739 194.91 187.869 193.46 186.969C191.64 185.839 188.62 185.859 186.59 186.479C185.665 186.739 184.806 187.193 184.07 187.809C183.4 188.429 183.07 189.359 182.19 189.809C180.7 190.629 178.38 189.639 176.77 189.509C173.94 189.269 171.66 190.149 171.07 192.509C170.82 193.509 170.8 194.319 170.56 195.239C170.442 195.623 170.249 195.979 169.991 196.286C169.734 196.594 169.417 196.846 169.06 197.029C168.404 197.338 167.817 197.776 167.334 198.318C166.851 198.859 166.482 199.492 166.25 200.179C165.948 201.125 165.918 202.137 166.164 203.099C166.41 204.061 166.921 204.934 167.64 205.619C169.01 206.759 171.46 207.619 173.28 207.119C173.51 208.699 175.45 209.829 176.97 210.009C177.824 210.184 178.706 210.184 179.56 210.009C179.86 209.929 182.16 208.929 181.91 208.479C182.363 209.242 182.998 209.879 183.76 210.333C184.521 210.787 185.384 211.043 186.27 211.079C187.339 211.164 188.411 210.961 189.374 210.492C190.338 210.022 191.158 209.303 191.75 208.409C191.3 209.119 192.5 210.179 192.99 210.519C193.82 211.024 194.768 211.303 195.74 211.329C196.57 211.372 197.395 211.193 198.133 210.812C198.871 210.431 199.495 209.86 199.94 209.159C200.308 208.629 200.824 208.219 201.423 207.981C202.022 207.743 202.679 207.686 203.31 207.819C204.498 208.179 205.729 208.374 206.97 208.399C207.805 208.392 208.621 208.152 209.328 207.707C210.034 207.262 210.603 206.629 210.97 205.879C211.386 204.882 211.436 203.769 211.11 202.739C212.18 204.439 215.5 205.099 215.82 202.539C215.703 202.647 215.559 202.722 215.404 202.756C215.248 202.79 215.086 202.781 214.935 202.731C214.784 202.681 214.649 202.592 214.544 202.472C214.44 202.352 214.369 202.206 214.34 202.049C214.18 201.169 215.1 200.259 215.28 199.429C215.428 198.602 215.303 197.749 214.924 196.999C214.545 196.249 213.933 195.642 213.18 195.269C212.51 194.869 211.69 194.609 210.94 194.239Z" fill="#263238"/>
<path d="M194.54 221.749C194.52 222.14 194.386 222.516 194.155 222.832C193.924 223.147 193.605 223.388 193.238 223.524C192.871 223.66 192.473 223.686 192.092 223.598C191.71 223.51 191.364 223.312 191.094 223.028C190.824 222.745 190.643 222.389 190.574 222.004C190.504 221.619 190.549 221.222 190.703 220.862C190.857 220.503 191.113 220.196 191.439 219.981C191.766 219.765 192.148 219.65 192.54 219.649C193.082 219.665 193.597 219.894 193.972 220.288C194.346 220.681 194.55 221.206 194.54 221.749Z" fill="#263238"/>
<path d="M192.94 214.439L188.27 215.969C188.076 215.332 188.136 214.645 188.438 214.052C188.74 213.459 189.261 213.006 189.89 212.789C190.199 212.688 190.524 212.651 190.847 212.681C191.171 212.71 191.484 212.804 191.77 212.959C192.055 213.113 192.306 213.324 192.507 213.579C192.708 213.833 192.856 214.126 192.94 214.439Z" fill="#263238"/>
<path d="M210.74 214.989L205.99 213.589C206.064 213.273 206.201 212.975 206.395 212.715C206.589 212.455 206.834 212.237 207.115 212.075C207.397 211.914 207.709 211.812 208.031 211.777C208.354 211.741 208.68 211.773 208.99 211.869C209.626 212.067 210.162 212.5 210.487 213.08C210.813 213.661 210.903 214.344 210.74 214.989Z" fill="#263238"/>
<path d="M210.42 220.789C210.402 221.18 210.27 221.558 210.04 221.875C209.81 222.192 209.492 222.434 209.125 222.572C208.758 222.709 208.359 222.736 207.977 222.649C207.596 222.562 207.248 222.365 206.977 222.082C206.706 221.799 206.524 221.443 206.454 221.057C206.384 220.672 206.429 220.275 206.582 219.914C206.736 219.554 206.992 219.247 207.319 219.031C207.645 218.815 208.028 218.7 208.42 218.699C208.69 218.699 208.958 218.753 209.207 218.86C209.455 218.966 209.68 219.121 209.867 219.316C210.054 219.512 210.199 219.743 210.294 219.996C210.389 220.249 210.432 220.519 210.42 220.789Z" fill="#263238"/>
<path d="M193.22 233.419L199.84 235.999C199.689 236.444 199.45 236.854 199.137 237.204C198.825 237.554 198.445 237.838 198.02 238.039C197.596 238.24 197.135 238.353 196.666 238.372C196.197 238.391 195.729 238.315 195.29 238.149C194.399 237.782 193.686 237.084 193.3 236.202C192.914 235.32 192.885 234.322 193.22 233.419Z" fill="#AF6152"/>
<path d="M193.02 234.449C192.957 235.227 193.143 236.004 193.551 236.67C193.959 237.335 194.568 237.853 195.29 238.149C196.057 238.439 196.903 238.439 197.67 238.149C197.335 237.149 196.717 236.268 195.892 235.611C195.067 234.955 194.069 234.551 193.02 234.449Z" fill="#F28F8F"/>
<path d="M204.94 225.509C203.919 223.723 202.716 222.048 201.35 220.509C201.28 220.429 201.2 220.369 201.14 220.299C201.136 220.288 201.129 220.277 201.121 220.268C201.112 220.26 201.101 220.253 201.09 220.249C200.311 219.35 199.256 218.735 198.09 218.499L198.49 221.899L199.63 231.439L207.02 229.189C206.33 227.899 205.64 226.659 204.94 225.509Z" fill="#AF6152"/>
<path d="M216.819 300.869C216.819 300.869 179.709 278.719 172.939 274.919C164.429 270.119 157.649 266.059 153.639 269.779C150.079 273.079 148.259 276.959 149.089 286.389C149.619 292.389 152.319 296.469 160.289 302.699C168.259 308.929 201.229 322.619 207.619 324.349C221.199 328.019 222.029 328.279 230.009 321.409" fill="#C8856A"/>
<path d="M152.569 266.569C155.769 264.829 160.879 266.459 168.499 271.249C176.119 276.039 202.499 292.309 202.499 292.309C203.15 298.429 201.996 304.607 199.179 310.079C194.499 319.079 191.889 319.659 191.889 319.659C191.889 319.659 161.639 306.379 158.269 304.529C154.899 302.679 148.939 298.669 146.939 292.249C144.939 285.829 143.059 273.219 152.569 266.569Z" fill="#37474F"/>
<path d="M314.088 340.079C313.256 343.824 316.153 354.57 317.016 362.428C317.417 366.136 319.562 371.404 320.024 373.039C321.227 377.689 324.546 388.332 324.546 388.332C324.546 388.332 337.089 389.892 348.329 388.503C350.224 382.667 356.851 374.375 351.868 369.413L359.939 341.764L314.088 340.079Z" fill="#455A64"/>
<path d="M366.119 347.139L319.939 347.079C321.455 349.967 332.167 369.585 334.556 372.9C336.945 376.215 347.426 389.215 347.426 389.215C347.426 389.215 349.906 390.189 357.776 390.069C366.621 389.934 370.034 389.045 370.034 389.045C370.034 389.045 371.75 382.056 371.921 377.957C372.114 375.369 370.785 372.789 367.976 370.296C367.976 370.296 369.15 362.823 369.12 357.815C369.09 352.808 368.97 351.223 366.119 347.139Z" fill="#455A64"/>
<path d="M382.119 347.139L335.939 347.079C337.455 349.967 348.167 369.585 350.556 372.9C352.945 376.215 363.426 389.215 363.426 389.215C363.426 389.215 365.906 390.189 373.776 390.069C382.621 389.934 386.034 389.045 386.034 389.045C386.034 389.045 387.75 382.056 387.921 377.957C388.114 375.369 386.785 372.789 383.976 370.296C383.976 370.296 385.15 362.823 385.12 357.815C385.09 352.808 384.97 351.223 382.119 347.139Z" fill="#455A64"/>
<path d="M334.41 239.569C327.65 240.309 318.94 246.919 306.95 262.309C295.34 277.209 287.77 286.869 287.77 286.869L306.65 304.779L329.7 277.229L334.41 239.569Z" fill="#FFA8A7"/>
<path d="M343.269 239.389C333.539 237.229 326.129 239.569 319.659 246.469C312.219 254.409 293.659 278.859 293.659 278.859C297.832 281.165 301.711 283.969 305.209 287.209C309.769 291.769 312.109 298.539 312.109 298.539L330.109 275.849L343.269 239.389Z" fill="#37474F"/>
<path d="M313.939 273.219C313.989 260.079 325.939 242.409 330.629 240.939C330.629 240.939 338.629 235.539 356.459 243.259C367.129 247.869 384.919 260.759 384.919 260.759C386.546 268.813 387.549 276.981 387.919 285.189C388.309 297.459 383.499 314.189 383.919 323.959C384.339 333.729 385.139 343.559 387.029 357.879C375.239 373.829 326.429 372.959 313.659 348.719C313.729 329.419 313.939 287.279 313.939 273.219Z" fill="#FFA4BB"/>
<path d="M321.149 213.919C319.009 209.289 320.779 201.559 320.779 201.559C319.718 203.108 319.011 204.871 318.709 206.724C318.406 208.577 318.516 210.473 319.029 212.279C314.599 207.159 315.45 196.859 324.41 191.039C336.27 183.339 359.41 181.919 364.41 198.489C368.26 199.069 370.49 203.489 370.14 212.669C369.79 221.849 364.55 233.669 365.48 237.949C366.41 242.229 367.7 243.309 367.7 243.309C366.494 243.117 365.353 242.633 364.377 241.899C363.401 241.166 362.619 240.204 362.1 239.099C362.541 240.988 363.164 242.83 363.959 244.599H331.51L321.149 213.919Z" fill="#263238"/>
<path d="M376.88 198.769C377.041 197.66 376.878 196.528 376.41 195.509C375.941 194.493 375.31 193.561 374.54 192.749C373.773 191.862 372.847 191.126 371.81 190.579C371.594 190.473 371.37 190.383 371.14 190.309C368.69 186.519 364.14 183.869 359.99 185.899C350.39 190.899 362.24 205.579 370.35 201.139C371.09 200.609 371.706 199.924 372.153 199.131C372.601 198.338 372.869 197.457 372.94 196.549C373.194 196.794 373.425 197.062 373.63 197.349C373.945 197.799 374.204 198.286 374.4 198.799C374.761 199.688 375.009 200.619 375.14 201.569C375.437 200.135 375.413 198.653 375.07 197.229C374.72 195.832 373.879 194.607 372.7 193.779C373.722 194.251 374.627 194.943 375.35 195.805C376.072 196.668 376.595 197.68 376.88 198.769Z" fill="#263238"/>
<path d="M365.08 233.969C361.29 235.349 359.78 232.969 359.78 232.969L361.06 248.849C356.51 254.369 345.81 261.559 338.06 260.339C333.93 259.679 333.41 255.979 337.59 250.579L336.94 245.479C334.392 245.59 331.84 245.419 329.33 244.969C327.221 244.408 325.319 243.248 323.855 241.63C322.391 240.011 321.427 238.003 321.08 235.849C320.15 230.749 320.17 218.479 322.32 206.849C322.8 204.259 324.49 200.419 326.47 198.749C327 200.969 327.24 202.999 333.13 203.639C339.63 204.349 349.56 197.339 354.04 202.399C353.042 203.178 352.248 204.187 351.725 205.34C351.203 206.493 350.967 207.755 351.04 209.019C351.12 212.609 354.04 216.319 354.36 218.559C354.91 222.239 356.2 223.919 357.27 224.109C359.27 224.459 359.64 222.289 360.96 220.969C362.28 219.649 367.21 218.969 369.19 223.459C371.17 227.949 367.99 232.909 365.08 233.969Z" fill="#FFA8A7"/>
<path d="M354.539 240.309C356.229 237.669 356.449 233.499 356.449 233.499C355.692 235.465 354.666 237.316 353.399 238.999C351.189 241.999 343.599 244.999 336.899 245.479L337.229 247.849C346.939 247.079 352.939 242.839 354.539 240.309Z" fill="#F28F8F"/>
<path d="M326.43 226.469L333.71 228.569L335.02 215.859C332.11 216.209 329.25 221.079 326.43 226.469Z" fill="#F28F8F"/>
<path d="M339.329 219.479C339.329 219.875 339.446 220.261 339.666 220.59C339.886 220.919 340.198 221.176 340.564 221.327C340.929 221.478 341.331 221.518 341.719 221.441C342.107 221.364 342.464 221.173 342.743 220.893C343.023 220.614 343.213 220.257 343.291 219.869C343.368 219.481 343.328 219.079 343.177 218.714C343.025 218.348 342.769 218.036 342.44 217.816C342.111 217.597 341.725 217.479 341.329 217.479C340.799 217.479 340.29 217.69 339.915 218.065C339.54 218.44 339.329 218.949 339.329 219.479Z" fill="#263238"/>
<path d="M341.06 212.339L345.61 213.919C345.809 213.298 345.76 212.624 345.473 212.039C345.186 211.453 344.683 211.002 344.07 210.779C343.77 210.676 343.452 210.634 343.136 210.658C342.82 210.681 342.512 210.768 342.23 210.914C341.949 211.06 341.7 211.261 341.498 211.506C341.297 211.751 341.148 212.035 341.06 212.339Z" fill="#263238"/>
<path d="M323.57 212.569L328.25 211.279C328.181 210.97 328.05 210.678 327.865 210.422C327.68 210.165 327.445 209.948 327.174 209.786C326.902 209.623 326.601 209.517 326.287 209.475C325.973 209.432 325.654 209.454 325.35 209.539C324.722 209.722 324.189 210.137 323.858 210.7C323.527 211.264 323.424 211.932 323.57 212.569Z" fill="#263238"/>
<path d="M323.789 218.269C323.789 218.665 323.906 219.051 324.126 219.38C324.346 219.709 324.658 219.965 325.024 220.117C325.389 220.268 325.791 220.308 326.179 220.231C326.567 220.153 326.924 219.963 327.203 219.683C327.483 219.404 327.673 219.047 327.751 218.659C327.828 218.271 327.788 217.869 327.637 217.504C327.485 217.138 327.229 216.826 326.9 216.606C326.571 216.386 326.185 216.269 325.789 216.269C325.259 216.269 324.75 216.48 324.375 216.855C324 217.23 323.789 217.739 323.789 218.269Z" fill="#263238"/>
<path d="M339.879 230.889L333.329 233.249C333.465 233.689 333.688 234.097 333.984 234.448C334.281 234.8 334.646 235.088 335.057 235.295C335.468 235.502 335.916 235.625 336.375 235.655C336.834 235.685 337.295 235.621 337.729 235.469C338.611 235.134 339.329 234.468 339.73 233.614C340.131 232.759 340.185 231.782 339.879 230.889Z" fill="#B16668"/>
<path d="M340.049 231.909C340.093 232.673 339.892 233.43 339.474 234.071C339.057 234.711 338.445 235.201 337.729 235.469C336.982 235.755 336.156 235.755 335.409 235.469C335.749 234.487 336.37 233.626 337.195 232.993C338.02 232.36 339.012 231.983 340.049 231.909Z" fill="#F28F8F"/>
<path d="M376.939 266.329C382.189 260.099 386.139 259.649 393.429 274.409C402.929 293.629 405.939 299.209 411.259 313.759C415.259 324.759 415.349 325.479 410.969 334.759C408.529 339.919 394.179 366.409 389.809 371.269C386.909 374.509 383.039 380.689 379.979 383.269C379.979 383.269 372.799 383.629 370.479 370.759C370.479 370.759 368.629 369.219 364.569 371.039C361.759 372.299 358.089 372.839 356.199 371.309C354.309 369.779 358.299 368.529 360.259 367.069C363.076 364.706 366.382 362.999 369.939 362.069C375.019 360.749 376.009 359.419 379.939 353.419C384.669 346.149 389.559 327.809 389.559 327.809L377.939 304.219C366.939 282.079 371.699 272.559 376.939 266.329Z" fill="#FFA8A7"/>
<path d="M370.4 274.849C372.7 263.529 380.89 260.189 383.93 260.489C386.97 260.789 391.74 266.209 394.64 272.669C399.09 282.549 408.4 304.999 408.4 304.999C406.257 309.863 402.503 313.84 397.77 316.259C389.66 320.549 385.2 320.989 385.2 320.989C385.2 320.989 381.66 314.819 377.09 305.349C372.52 295.879 368.62 283.629 370.4 274.849Z" fill="#37474F"/>
<path d="M389.55 327.739C390.968 326 392.73 324.574 394.727 323.55C396.723 322.526 398.91 321.926 401.15 321.789C396.74 320.209 391.58 322.079 388.52 325.679L389.55 327.739Z" fill="#F28F8F"/>
<path d="M265.299 266.569C265.069 268.319 266.389 270.459 269.009 272.679C272.449 275.599 290.689 286.099 290.689 286.099L306.689 304.779C304.557 307.273 302.252 309.612 299.789 311.779C296.959 314.199 293.879 315.209 286.299 310.689C275.089 304.079 244.709 274.079 244.709 274.079L247.709 269.809L265.299 266.569Z" fill="#FFA8A7"/>
<path d="M230.039 321.409C237.589 314.309 240.039 310.859 249.769 297.479C254.247 291.444 258.284 285.094 261.849 278.479C263.619 275.409 267.299 268.079 267.279 266.589C267.154 262.241 266.804 257.902 266.229 253.589C266.177 253.011 265.962 252.46 265.609 251.999C264.919 251.169 263.669 250.999 262.859 250.319C262.049 249.639 261.859 248.669 261.199 248.029C260.309 247.368 259.201 247.072 258.099 247.199C257.762 247.234 257.421 247.197 257.099 247.089C256.793 246.914 256.513 246.695 256.269 246.439C254.349 244.759 251.649 245.959 250.269 247.729L252.939 250.259C250.364 250.618 247.846 251.31 245.449 252.319L247.709 269.809L244.709 274.079C237.649 281.849 216.819 300.859 216.819 300.859" fill="#C8856A"/>
<path d="M243.059 252.439C246.166 252.146 249.297 252.214 252.389 252.639C254.139 253.029 253.949 255.409 251.609 256.199C255.609 256.199 257.889 256.609 259.139 257.419C259.453 257.653 259.669 257.997 259.743 258.381C259.817 258.766 259.744 259.165 259.539 259.499C258.799 260.134 257.894 260.547 256.929 260.689C257.489 260.759 259.749 260.919 259.839 262.449C259.939 264.199 256.739 264.449 254.549 264.679C256.489 264.989 256.929 267.859 253.399 268.589C249.869 269.319 247.699 269.819 247.699 269.819L244.699 274.089C244.394 274.02 244.108 273.884 243.862 273.69C243.617 273.496 243.417 273.25 243.279 272.969C243.195 272.662 243.081 272.364 242.939 272.079C242.569 271.509 241.819 271.299 241.369 270.779C240.909 270.077 240.74 269.223 240.899 268.399C241.058 267.578 240.931 266.728 240.539 265.989C240.089 265.359 239.259 265.079 238.839 264.429C238.516 263.721 238.435 262.927 238.609 262.169C238.696 261.792 238.701 261.4 238.624 261.02C238.546 260.64 238.387 260.282 238.159 259.969C237.899 259.709 237.559 259.559 237.329 259.279C237.138 258.929 237.053 258.53 237.085 258.132C237.117 257.734 237.264 257.354 237.509 257.039C238.216 255.888 239.093 254.849 240.109 253.959C240.874 253.11 241.923 252.569 243.059 252.439Z" fill="#FFA8A7"/>
<path d="M251.61 256.199C250.61 256.339 249.49 256.409 248.43 256.469C247.37 256.529 246.31 256.539 245.27 256.639C245.028 256.652 244.79 256.695 244.56 256.769C244.331 256.866 244.113 256.986 243.91 257.129C243.46 257.399 243.04 257.719 242.61 258.029L240.06 259.929C240.787 259.15 241.559 258.412 242.37 257.719C242.78 257.369 243.2 257.049 243.64 256.719C243.873 256.557 244.121 256.417 244.38 256.299C244.651 256.207 244.934 256.15 245.22 256.129C246.288 256.054 247.359 256.034 248.43 256.069C249.49 256.079 250.55 256.139 251.61 256.199Z" fill="#F28F8F"/>
<path d="M256.94 260.689C254.39 260.929 251.84 260.989 249.29 261.059H248.29C248.147 261.042 248.003 261.042 247.86 261.059C247.714 261.098 247.571 261.145 247.43 261.199C246.85 261.419 246.28 261.709 245.7 261.969L242.26 263.649C243.314 262.926 244.405 262.258 245.53 261.649C246.092 261.329 246.673 261.042 247.27 260.789L247.74 260.629C247.913 260.584 248.091 260.561 248.27 260.559H249.27C251.81 260.549 254.37 260.519 256.94 260.689Z" fill="#F28F8F"/>
<path d="M254.529 264.569C253.529 264.709 252.529 264.779 251.599 264.859C250.669 264.939 249.599 264.979 248.689 265.109C248.24 265.207 247.815 265.394 247.439 265.659L246.179 266.409C245.349 266.919 244.519 267.409 243.659 267.939C244.385 267.279 245.147 266.658 245.939 266.079C246.329 265.779 246.749 265.509 247.159 265.239C247.588 264.939 248.07 264.722 248.579 264.599C249.575 264.49 250.577 264.447 251.579 264.469C252.569 264.479 253.549 264.509 254.529 264.569Z" fill="#F28F8F"/>
<path d="M243.47 252.419C244.28 251.029 245.73 248.319 246.73 247.919C248.31 247.498 249.922 247.207 251.55 247.049C252.33 246.969 254.46 247.839 255.55 248.149C256.64 248.459 256.19 250.149 253.48 250.609C250.77 251.069 248.88 251.119 248.18 251.339C247.48 251.559 245.47 252.339 245.47 252.339L243.47 252.419Z" fill="#F28F8F"/>
<path d="M253.341 238.779C253.076 238.779 252.822 238.674 252.634 238.486C252.447 238.298 252.341 238.044 252.341 237.779L251.701 225.339C251.701 225.074 251.807 224.819 251.994 224.632C252.182 224.444 252.436 224.339 252.701 224.339C252.956 224.338 253.202 224.435 253.388 224.61C253.574 224.785 253.686 225.024 253.701 225.279L254.321 237.789C254.322 238.046 254.223 238.293 254.046 238.479C253.869 238.665 253.628 238.776 253.371 238.789L253.341 238.779Z" fill="#FFC727"/>
<path d="M242.931 242.129C242.762 242.133 242.594 242.094 242.443 242.015C242.293 241.937 242.165 241.821 242.071 241.679L235.161 230.989C235.09 230.879 235.041 230.755 235.017 230.626C234.993 230.497 234.995 230.364 235.022 230.235C235.049 230.107 235.102 229.985 235.176 229.876C235.251 229.768 235.346 229.676 235.456 229.604C235.567 229.532 235.69 229.483 235.819 229.459C235.949 229.435 236.081 229.437 236.21 229.465C236.339 229.492 236.46 229.544 236.569 229.619C236.677 229.693 236.77 229.789 236.841 229.899L243.741 240.589C243.884 240.812 243.933 241.082 243.877 241.341C243.82 241.6 243.664 241.825 243.441 241.969C243.291 242.072 243.114 242.128 242.931 242.129Z" fill="#FFC727"/>
<path d="M235.582 250.249C235.419 250.246 235.259 250.208 235.112 250.139L224.232 244.559C224.004 244.434 223.833 244.225 223.757 243.976C223.681 243.727 223.704 243.459 223.823 243.227C223.941 242.996 224.145 242.819 224.391 242.736C224.637 242.652 224.907 242.667 225.142 242.779L236.032 248.339C236.265 248.461 236.442 248.67 236.522 248.92C236.603 249.171 236.581 249.444 236.462 249.679C236.382 249.846 236.258 249.988 236.102 250.088C235.947 250.189 235.767 250.245 235.582 250.249Z" fill="#FFC727"/>
<path d="M284.161 275.159C283.998 275.157 283.838 275.119 283.691 275.049L272.691 269.419C272.455 269.297 272.277 269.086 272.197 268.833C272.116 268.58 272.139 268.305 272.261 268.069C272.383 267.833 272.594 267.655 272.847 267.574C273.1 267.494 273.375 267.517 273.611 267.639L284.611 273.269C284.845 273.391 285.021 273.6 285.102 273.851C285.182 274.101 285.161 274.374 285.041 274.609C284.959 274.772 284.833 274.91 284.678 275.007C284.523 275.104 284.344 275.157 284.161 275.159Z" fill="#FFC727"/>
<path d="M275.512 258.829C275.255 258.829 275.008 258.731 274.822 258.554C274.636 258.377 274.525 258.135 274.512 257.879C274.511 257.622 274.61 257.375 274.787 257.189C274.964 257.003 275.205 256.892 275.462 256.879L288.292 256.229C288.427 256.222 288.563 256.243 288.69 256.29C288.817 256.337 288.933 256.41 289.031 256.503C289.13 256.597 289.208 256.709 289.261 256.834C289.314 256.959 289.342 257.093 289.342 257.229C289.342 257.494 289.236 257.748 289.049 257.936C288.861 258.123 288.607 258.229 288.342 258.229L275.512 258.869V258.829Z" fill="#FFC727"/>
<path d="M272.162 248.419C271.991 248.422 271.822 248.381 271.672 248.301C271.521 248.22 271.394 248.103 271.302 247.959C271.159 247.736 271.11 247.466 271.166 247.207C271.223 246.948 271.379 246.722 271.602 246.579L282.042 239.829C282.264 239.68 282.537 239.627 282.8 239.679C283.062 239.732 283.293 239.886 283.442 240.109C283.59 240.332 283.644 240.604 283.592 240.867C283.539 241.13 283.384 241.36 283.162 241.509L272.722 248.259C272.554 248.364 272.36 248.42 272.162 248.419Z" fill="#FFC727"/>
<path d="M264.042 241.079C263.879 241.081 263.717 241.043 263.572 240.969C263.454 240.91 263.349 240.827 263.263 240.727C263.177 240.627 263.112 240.511 263.071 240.386C263.03 240.26 263.014 240.128 263.025 239.996C263.035 239.864 263.072 239.736 263.132 239.619L268.932 228.339C268.992 228.222 269.075 228.118 269.175 228.033C269.276 227.948 269.392 227.884 269.518 227.844C269.643 227.804 269.775 227.789 269.906 227.8C270.037 227.811 270.165 227.848 270.282 227.909C270.517 228.029 270.696 228.237 270.778 228.488C270.861 228.739 270.841 229.013 270.722 229.249L264.912 240.539C264.829 240.699 264.704 240.834 264.551 240.929C264.398 241.024 264.222 241.076 264.042 241.079Z" fill="#FFC727"/>
<path d="M113.79 206.005C113.209 207.011 112.295 207.771 111.249 208.116C110.204 208.461 109.112 208.364 108.214 207.846L64.7087 185.966C63.8111 185.448 63.1811 184.551 62.9573 183.473C62.7334 182.395 62.9342 181.224 63.5152 180.217C64.0727 179.248 64.9396 178.505 65.9383 178.141C66.9371 177.777 67.9922 177.82 68.8877 178.259L112.586 200.351C113.456 200.852 114.077 201.708 114.319 202.743C114.562 203.778 114.408 204.912 113.889 205.911L113.79 206.005Z" fill="#FFC727"/>
<path d="M102.32 252.057C101.962 252.71 101.461 253.271 100.865 253.688C100.269 254.105 99.5969 254.365 98.9122 254.442L47.5918 259.776C47.0617 259.832 46.5366 259.778 46.0466 259.616C45.5566 259.454 45.1112 259.188 44.736 258.832C44.3607 258.477 44.0629 258.04 43.8595 257.545C43.6561 257.051 43.5512 256.509 43.5506 255.95C43.5501 255.392 43.654 254.828 43.8564 254.29C44.0588 253.753 44.3557 253.253 44.7302 252.818C45.1047 252.384 45.5494 252.023 46.039 251.758C46.5286 251.492 47.0535 251.327 47.5836 251.271L98.8821 245.974C99.9495 245.868 100.971 246.211 101.724 246.93C102.476 247.649 102.897 248.685 102.895 249.809C102.916 250.581 102.715 251.364 102.32 252.057Z" fill="#FFC727"/>
<path d="M113.698 295.817C113.331 296.428 112.853 296.963 112.295 297.386L69.5716 327.771C68.6483 328.392 67.5676 328.629 66.5588 328.433C65.55 328.237 64.6924 327.623 64.168 326.721C63.6436 325.82 63.4937 324.701 63.75 323.603C64.0063 322.505 64.6487 321.514 65.5409 320.84L108.219 290.377C109.143 289.727 110.237 289.467 111.262 289.652C112.288 289.836 113.163 290.452 113.696 291.364C114.088 291.992 114.295 292.741 114.295 293.527C114.296 294.314 114.089 295.106 113.698 295.817Z" fill="#FFC727"/>
<path d="M187.65 153.42C187.286 154.074 186.779 154.635 186.177 155.049C185.575 155.463 184.897 155.716 184.209 155.785C183.141 155.892 182.12 155.548 181.367 154.829C180.615 154.11 180.193 153.075 180.195 151.95L180.224 99.1407C180.21 98.0051 180.625 96.8649 181.378 95.9712C182.131 95.0774 183.16 94.5032 184.239 94.3749C185.319 94.2466 186.36 94.5747 187.133 95.287C187.907 95.9993 188.35 97.0375 188.364 98.1732L188.335 150.982C188.323 151.825 188.086 152.67 187.65 153.42Z" fill="#FFC727"/>
<path d="M145.018 169.894C144.667 170.518 144.186 171.056 143.616 171.462C143.156 171.794 142.648 172.032 142.121 172.163C141.594 172.293 141.057 172.315 140.543 172.224C140.029 172.134 139.546 171.935 139.124 171.638C138.702 171.341 138.348 170.952 138.082 170.494L112.613 126.442C112.349 125.984 112.178 125.467 112.111 124.92C112.043 124.372 112.08 123.805 112.22 123.251C112.36 122.697 112.599 122.167 112.924 121.691C113.249 121.215 113.654 120.803 114.116 120.478C115.037 119.819 116.133 119.548 117.164 119.726C118.194 119.904 119.075 120.515 119.615 121.427L145.096 165.537C145.456 166.164 145.639 166.9 145.625 167.667C145.611 168.434 145.401 169.203 145.018 169.894Z" fill="#FFC727"/>
<path d="M423.58 199.214C424.303 200.124 425.318 200.741 426.403 200.929C427.488 201.117 428.554 200.86 429.366 200.216L469.186 172.184C469.998 171.54 470.489 170.56 470.553 169.461C470.616 168.362 470.245 167.233 469.522 166.322C468.829 165.446 467.862 164.838 466.821 164.625C465.779 164.412 464.742 164.608 463.921 165.174L423.94 193.445C423.154 194.068 422.666 195.006 422.578 196.065C422.49 197.125 422.808 198.224 423.468 199.135L423.58 199.214Z" fill="#FFC727"/>
<path d="M441.689 243.083C442.139 243.675 442.717 244.157 443.368 244.482C444.019 244.807 444.721 244.965 445.41 244.941L496.957 242.68C497.49 242.658 498.001 242.527 498.462 242.295C498.923 242.063 499.325 241.734 499.644 241.327C499.963 240.921 500.193 240.445 500.322 239.925C500.45 239.406 500.474 238.855 500.393 238.302C500.311 237.75 500.126 237.207 499.847 236.705C499.568 236.204 499.2 235.752 498.766 235.377C498.332 235.003 497.839 234.712 497.316 234.521C496.792 234.33 496.249 234.244 495.716 234.266L444.196 236.561C443.125 236.612 442.165 237.102 441.526 237.924C440.887 238.745 440.623 239.831 440.79 240.944C440.883 241.71 441.196 242.455 441.689 243.083Z" fill="#FFC727"/>
<path d="M436.86 288.039C437.313 288.59 437.864 289.049 438.477 289.385L485.2 313.166C486.205 313.645 487.309 313.721 488.278 313.379C489.247 313.037 490.005 312.303 490.391 311.334C490.777 310.365 490.762 309.237 490.347 308.188C489.932 307.14 489.151 306.254 488.169 305.718L441.48 281.854C440.471 281.347 439.351 281.249 438.363 281.583C437.376 281.916 436.601 282.653 436.207 283.634C435.912 284.313 435.817 285.084 435.932 285.862C436.048 286.64 436.369 287.394 436.86 288.039Z" fill="#FFC727"/>
<path d="M231.372 143.011C231.554 143.737 231.899 144.41 232.374 144.965C232.848 145.521 233.437 145.941 234.084 146.186C235.088 146.565 236.164 146.498 237.076 145.998C237.989 145.498 238.664 144.607 238.953 143.52L252.594 92.5031C252.902 91.4099 252.796 90.2012 252.3 89.143C251.804 88.0848 250.958 87.2638 249.949 86.8605C248.939 86.4572 247.849 86.5046 246.917 86.9924C245.986 87.4802 245.289 88.3685 244.981 89.4617L231.341 140.479C231.135 141.296 231.146 142.174 231.372 143.011Z" fill="#FFC727"/>
<path d="M323.048 142.769C323.568 143.306 324.203 143.717 324.892 143.96C325.581 144.204 326.301 144.274 326.984 144.162C328.043 143.989 328.941 143.392 329.481 142.503C330.022 141.614 330.161 140.505 329.868 139.419L316.172 88.4168C315.892 87.3161 315.196 86.3222 314.238 85.6538C313.279 84.9853 312.136 84.6972 311.06 84.8526C309.985 85.0081 309.064 85.5944 308.501 86.4826C307.938 87.3709 307.779 88.4883 308.059 89.589L321.755 140.591C321.985 141.402 322.433 142.157 323.048 142.769Z" fill="#FFC727"/>
<path d="M387.388 168.081C387.826 168.647 388.381 169.109 389.005 169.427C389.508 169.687 390.045 169.848 390.586 169.9C391.127 169.952 391.66 169.894 392.156 169.729C392.651 169.565 393.099 169.297 393.473 168.941C393.847 168.585 394.141 168.149 394.336 167.656L413.059 120.341C413.253 119.85 413.346 119.313 413.333 118.762C413.319 118.21 413.199 117.655 412.98 117.127C412.76 116.6 412.445 116.111 412.054 115.688C411.662 115.265 411.201 114.917 410.697 114.663C409.689 114.146 408.565 114.039 407.572 114.367C406.578 114.694 405.797 115.428 405.397 116.409L386.67 163.783C386.406 164.456 386.333 165.211 386.459 165.968C386.586 166.724 386.906 167.454 387.388 168.081Z" fill="#FFC727"/>
</svg>
