<svg width="442" height="446" viewBox="0 0 442 446" fill="none" xmlns="http://www.w3.org/2000/svg">
<path d="M221 416.624C277.541 416.624 323.376 409.96 323.376 401.739C323.376 393.518 277.541 386.854 221 386.854C164.459 386.854 118.624 393.518 118.624 401.739C118.624 409.96 164.459 416.624 221 416.624Z" fill="#EBEBEB"/>
<path d="M248.28 229.66L244.708 230.325L243.913 234.09L243.117 230.325L239.555 229.66L243.1 228.792L243.913 225.23L244.726 228.792L248.28 229.66Z" fill="white"/>
<path d="M187.532 61.5772L183.96 62.2417L183.165 66.0072L182.369 62.2417L178.807 61.5772L182.351 60.7089L183.165 57.1472L183.978 60.7089L187.532 61.5772Z" fill="white"/>
<path d="M144.746 182.525L141.174 183.181L140.379 186.946L139.583 183.181L136.021 182.525L139.565 181.657L140.379 178.095L141.192 181.657L144.746 182.525Z" fill="white"/>
<path d="M246.017 167.348L242.455 168.012L241.659 171.778L240.863 168.012L237.292 167.348L240.846 166.48L241.659 162.918L242.472 166.48L246.017 167.348Z" fill="white"/>
<path d="M292.091 152.472L290.102 152.835L289.651 154.944L289.209 152.835L287.22 152.472L289.2 151.984L289.651 149.991L290.11 151.984L292.091 152.472Z" fill="white"/>
<path d="M168.551 145.534L166.562 145.907L166.12 148.015L165.67 145.907L163.681 145.534L165.661 145.047L166.12 143.062L166.571 145.047L168.551 145.534Z" fill="white"/>
<path d="M230.308 75.4519L228.311 75.824L227.869 77.9239L227.427 75.824L225.429 75.4519L227.418 74.9646L227.869 72.98L228.319 74.9646L230.308 75.4519Z" fill="white"/>
<path d="M276.789 186.53L274.8 186.893L274.358 189.002L273.907 186.893L271.918 186.53L273.898 186.042L274.358 184.049L274.809 186.042L276.789 186.53Z" fill="white"/>
<path d="M260.585 190.579L258.587 190.942L258.145 193.051L257.694 190.942L255.705 190.579L257.685 190.091L258.145 188.098L258.596 190.091L260.585 190.579Z" fill="white"/>
<path d="M260.585 106.719L258.587 107.091L258.145 109.2L257.694 107.091L255.705 106.719L257.685 106.231L258.145 104.247L258.596 106.231L260.585 106.719Z" fill="white"/>
<path d="M174.077 103.706L172.079 104.07L171.637 106.178L171.186 104.07L169.197 103.706L171.186 103.219L171.637 101.226L172.088 103.219L174.077 103.706Z" fill="white"/>
<path d="M124.979 101.527L122.99 101.899L122.539 104.008L122.097 101.899L120.108 101.527L122.089 101.04L122.539 99.0549L122.999 101.04L124.979 101.527Z" fill="white"/>
<path d="M151.764 200.564L149.775 200.936L149.333 203.036L148.883 200.936L146.894 200.564L148.874 200.077L149.333 198.092L149.784 200.077L151.764 200.564Z" fill="white"/>
<path d="M252.364 199.988C252.211 199.988 252.065 200.049 251.957 200.157C251.85 200.265 251.789 200.411 251.789 200.564C251.789 200.717 251.85 200.863 251.957 200.971C252.065 201.079 252.211 201.14 252.364 201.14C252.516 201.14 252.662 201.079 252.77 200.971C252.878 200.863 252.938 200.717 252.938 200.564C252.938 200.411 252.878 200.265 252.77 200.157C252.662 200.049 252.516 199.988 252.364 199.988Z" fill="white"/>
<path d="M261.142 118.786C261 118.804 260.87 118.872 260.776 118.979C260.682 119.086 260.63 119.224 260.63 119.366C260.63 119.509 260.682 119.647 260.776 119.754C260.87 119.861 261 119.929 261.142 119.947C261.283 119.929 261.413 119.861 261.507 119.754C261.601 119.647 261.653 119.509 261.653 119.366C261.653 119.224 261.601 119.086 261.507 118.979C261.413 118.872 261.283 118.804 261.142 118.786Z" fill="white"/>
<path d="M159.473 69.1082C159.331 69.1257 159.201 69.1943 159.107 69.3012C159.013 69.4081 158.961 69.5458 158.961 69.6885C158.961 69.8311 159.013 69.9689 159.107 70.0757C159.201 70.1826 159.331 70.2513 159.473 70.2688C159.614 70.2513 159.744 70.1826 159.838 70.0757C159.932 69.9689 159.984 69.8311 159.984 69.6885C159.984 69.5458 159.932 69.4081 159.838 69.3012C159.744 69.1943 159.614 69.1257 159.473 69.1082Z" fill="white"/>
<path d="M115.388 105.567C115.236 105.567 115.09 105.628 114.982 105.736C114.874 105.844 114.813 105.99 114.813 106.143C114.813 106.296 114.874 106.442 114.982 106.55C115.09 106.658 115.236 106.719 115.388 106.719C115.54 106.719 115.687 106.658 115.794 106.55C115.902 106.442 115.963 106.296 115.963 106.143C115.963 105.99 115.902 105.844 115.794 105.736C115.687 105.628 115.54 105.567 115.388 105.567Z" fill="white"/>
<path d="M149.334 162.918C149.193 162.935 149.063 163.004 148.969 163.111C148.874 163.218 148.822 163.356 148.822 163.498C148.822 163.641 148.874 163.779 148.969 163.885C149.063 163.992 149.193 164.061 149.334 164.079C149.475 164.061 149.605 163.992 149.7 163.885C149.794 163.779 149.846 163.641 149.846 163.498C149.846 163.356 149.794 163.218 149.7 163.111C149.605 163.004 149.475 162.935 149.334 162.918Z" fill="white"/>
<path d="M132.228 152.33C132.12 152.33 132.017 152.373 131.94 152.449C131.864 152.526 131.821 152.63 131.821 152.738C131.821 152.846 131.864 152.949 131.94 153.026C132.017 153.102 132.12 153.145 132.228 153.145C132.336 153.145 132.439 153.102 132.515 153.026C132.592 152.949 132.635 152.846 132.635 152.738C132.635 152.63 132.592 152.526 132.515 152.449C132.439 152.373 132.336 152.33 132.228 152.33Z" fill="white"/>
<path d="M164.017 83.2842C163.909 83.2842 163.806 83.3271 163.729 83.4035C163.653 83.48 163.61 83.5836 163.61 83.6917C163.61 83.7998 163.653 83.9035 163.729 83.9799C163.806 84.0564 163.909 84.0993 164.017 84.0993C164.125 84.0993 164.228 84.0564 164.305 83.9799C164.381 83.9035 164.424 83.7998 164.424 83.6917C164.424 83.5836 164.381 83.48 164.305 83.4035C164.228 83.3271 164.125 83.2842 164.017 83.2842Z" fill="white"/>
<path d="M176.136 140.803C176.038 140.818 175.947 140.867 175.882 140.943C175.817 141.019 175.781 141.115 175.781 141.215C175.781 141.315 175.817 141.412 175.882 141.487C175.947 141.563 176.038 141.613 176.136 141.627C176.235 141.613 176.325 141.563 176.39 141.487C176.455 141.412 176.491 141.315 176.491 141.215C176.491 141.115 176.455 141.019 176.39 140.943C176.325 140.867 176.235 140.818 176.136 140.803Z" fill="white"/>
<path d="M138.443 214.961C138.344 214.976 138.254 215.026 138.189 215.101C138.124 215.177 138.088 215.273 138.088 215.373C138.088 215.473 138.124 215.57 138.189 215.646C138.254 215.721 138.344 215.771 138.443 215.785C138.542 215.771 138.632 215.721 138.697 215.646C138.762 215.57 138.798 215.473 138.798 215.373C138.798 215.273 138.762 215.177 138.697 215.101C138.632 215.026 138.542 214.976 138.443 214.961Z" fill="white"/>
<path d="M240.076 205.685C239.799 205.71 239.541 205.838 239.353 206.044C239.166 206.249 239.062 206.518 239.062 206.797C239.062 207.076 239.166 207.345 239.353 207.55C239.541 207.756 239.799 207.884 240.076 207.909C240.353 207.884 240.611 207.756 240.799 207.55C240.987 207.345 241.091 207.076 241.091 206.797C241.091 206.518 240.987 206.249 240.799 206.044C240.611 205.838 240.353 205.71 240.076 205.685Z" fill="white"/>
<path d="M306.65 141.76C306.357 141.76 306.076 141.877 305.869 142.084C305.661 142.292 305.545 142.574 305.545 142.868C305.545 143.161 305.661 143.443 305.869 143.651C306.076 143.858 306.357 143.975 306.65 143.975C306.943 143.975 307.224 143.858 307.431 143.651C307.639 143.443 307.755 143.161 307.755 142.868C307.755 142.574 307.639 142.292 307.431 142.084C307.224 141.877 306.943 141.76 306.65 141.76Z" fill="white"/>
<path d="M194.877 53.7449C194.6 53.7697 194.342 53.8976 194.154 54.1034C193.966 54.3091 193.862 54.5779 193.862 54.8568C193.862 55.1357 193.966 55.4045 194.154 55.6102C194.342 55.816 194.6 55.9439 194.877 55.9687C195.154 55.9439 195.412 55.816 195.6 55.6102C195.788 55.4045 195.892 55.1357 195.892 54.8568C195.892 54.5779 195.788 54.3091 195.6 54.1034C195.412 53.8976 195.154 53.7697 194.877 53.7449Z" fill="white"/>
<path d="M180.336 97.9739C180.059 97.9987 179.801 98.1266 179.613 98.3324C179.425 98.5382 179.321 98.8069 179.321 99.0858C179.321 99.3647 179.425 99.6335 179.613 99.8392C179.801 100.045 180.059 100.173 180.336 100.198C180.613 100.173 180.871 100.045 181.059 99.8392C181.247 99.6335 181.351 99.3647 181.351 99.0858C181.351 98.8069 181.247 98.5382 181.059 98.3324C180.871 98.1266 180.613 97.9987 180.336 97.9739Z" fill="white"/>
<path d="M143.667 211.196C143.39 211.221 143.132 211.349 142.944 211.554C142.756 211.76 142.652 212.029 142.652 212.308C142.652 212.587 142.756 212.856 142.944 213.061C143.132 213.267 143.39 213.395 143.667 213.42C143.944 213.395 144.202 213.267 144.39 213.061C144.578 212.856 144.682 212.587 144.682 212.308C144.682 212.029 144.578 211.76 144.39 211.554C144.202 211.349 143.944 211.221 143.667 211.196Z" fill="white"/>
<path d="M336.76 126.48C332.08 132.11 315.84 142.67 311.76 143.24C307.68 143.81 293.62 120.33 295.18 116.36C296.74 112.39 313.95 94.6399 321.27 93.1299C328.59 91.6199 341.61 120.64 336.76 126.48Z" fill="#EB9481"/>
<path d="M211.74 339L240.2 376.59C245.68 383.75 250.35 390.12 252.46 393.64C252.46 393.64 252.46 393.64 252.46 393.7C253.044 394.469 253.445 395.362 253.63 396.31C253.63 396.31 253.63 396.37 253.63 396.39C252.63 399.46 196.7 444.89 194.21 445.82C191.72 446.75 188.89 439.75 189.65 436.25C190.41 432.75 204.05 405.78 204.05 405.78L176 367.92L211.74 339Z" fill="#EB9481"/>
<path d="M234.359 368.84L240.199 376.55C245.679 383.71 250.349 390.08 252.459 393.6C252.459 393.6 252.459 393.6 252.459 393.66C252.946 394.483 253.339 395.359 253.629 396.27C253.629 396.27 253.629 396.33 253.629 396.35C252.629 399.42 196.699 444.85 194.209 445.78C191.719 446.71 188.889 439.71 189.649 436.21C190.409 432.71 204.049 405.74 204.049 405.74L197.999 398L234.359 368.84Z" fill="#EBEBEB"/>
<path d="M194.23 445.78C196.72 444.86 252.62 399.43 253.65 396.35C254.06 395.18 247.92 386.65 240.2 376.56L239.95 376.24L203.56 405.15L204.07 405.75C204.07 405.75 190.45 432.75 189.67 436.22C188.89 439.69 191.75 446.72 194.23 445.78Z" fill="#FFA4BB"/>
<path d="M193.1 443.1C202.34 435.21 240.33 404.27 250.1 397.17C250.18 397.11 250.23 397.17 250.15 397.23C241.15 405.23 202.92 435.89 193.27 443.23C193 443.41 192.91 443.27 193.1 443.1Z" fill="#263238"/>
<path d="M201.129 408.32C204.269 404.61 209.269 401.5 214.249 401.84C214.449 401.84 214.419 402.12 214.249 402.18C209.776 403.919 205.502 406.132 201.499 408.78C201.438 408.803 201.371 408.807 201.307 408.79C201.244 408.773 201.188 408.736 201.147 408.685C201.105 408.634 201.082 408.571 201.078 408.505C201.075 408.44 201.093 408.375 201.129 408.32Z" fill="#263238"/>
<path d="M199.76 412.11C202.91 408.4 207.91 405.29 212.89 405.63C213.08 405.63 213.06 405.91 212.89 405.97C208.417 407.705 204.142 409.915 200.14 412.56C200.079 412.594 200.008 412.606 199.94 412.593C199.871 412.581 199.809 412.545 199.764 412.492C199.719 412.438 199.694 412.371 199.693 412.302C199.693 412.232 199.716 412.164 199.76 412.11Z" fill="#263238"/>
<path d="M198.399 415.9C201.539 412.19 206.539 409.07 211.519 409.41C211.709 409.41 211.689 409.7 211.519 409.76C207.048 411.5 202.774 413.709 198.769 416.35C198.709 416.379 198.64 416.387 198.575 416.372C198.509 416.358 198.451 416.322 198.408 416.27C198.366 416.218 198.342 416.153 198.34 416.086C198.338 416.019 198.359 415.954 198.399 415.9Z" fill="#263238"/>
<path d="M238.089 371.63L199.139 404.27C199.139 404.27 154.319 347 144.209 318.13C137.019 297.56 170.209 194.62 170.209 194.62L212.679 191.75C212.679 191.75 185.189 290.89 188.239 300.52C191.999 312.25 238.089 371.63 238.089 371.63Z" fill="#37474F"/>
<path d="M194.81 394.9C200.86 389.9 199.05 391.23 205.17 386.28C208.17 383.85 227.82 367.93 231.01 366.15C231.08 366.15 231.16 366.22 231.11 366.28C228.66 368.98 208.72 384.56 205.69 386.93C199.48 391.77 201.21 390.31 194.95 395.08C194.938 395.089 194.924 395.096 194.91 395.1C194.895 395.104 194.88 395.105 194.866 395.103C194.851 395.101 194.836 395.096 194.823 395.089C194.81 395.082 194.799 395.072 194.79 395.06C194.78 395.048 194.774 395.035 194.77 395.02C194.766 395.006 194.765 394.991 194.767 394.976C194.768 394.961 194.773 394.947 194.781 394.934C194.788 394.921 194.798 394.909 194.81 394.9Z" fill="#263238"/>
<path d="M225.16 364.56C217.9 355.52 210.846 346.3 204 336.9C197.2 327.58 190.49 318.12 184.39 308.33C182.92 306.131 181.74 303.751 180.88 301.25C180.086 298.398 179.983 295.399 180.58 292.5C181.53 286.71 182.74 280.95 183.95 275.21C186.39 263.69 189.163 252.243 192.27 240.87C195.37 229.51 198.84 218.25 202.51 207.06C202.96 205.69 203.42 204.31 203.88 202.93C203.95 202.73 203.63 202.65 203.56 202.85C199.44 214.063 195.74 225.417 192.46 236.91C189.18 248.403 186.256 259.92 183.69 271.46C182.41 277.28 181.22 283.127 180.12 289C179.439 291.856 179.103 294.784 179.12 297.72C179.319 300.278 180.03 302.771 181.21 305.05C182.473 307.497 183.907 309.853 185.5 312.1C187.113 314.527 188.746 316.947 190.4 319.36C193.733 324.22 197.133 329.03 200.6 333.79C207.5 343.23 214.6 352.58 222.23 361.45C223.16 362.54 224.1 363.62 225.03 364.7C225.06 364.8 225.24 364.66 225.16 364.56Z" fill="#263238"/>
<path d="M212.72 191.75C212.72 191.75 204.72 220.67 197.8 248.75C190.07 232.75 176.89 205.19 172.46 194.43L212.72 191.75Z" fill="#263238"/>
<path d="M263.229 257.67L288.609 224.31C294.529 217.52 299.839 211.66 302.869 208.89C302.886 208.884 302.903 208.884 302.919 208.89C304.059 207.89 304.869 207.24 305.249 207.23C305.249 207.23 305.299 207.23 305.319 207.23C308.539 207.62 364.229 253.32 365.629 255.57C367.029 257.82 360.739 262 357.159 261.95C353.579 261.9 324.429 253.95 324.429 253.95L297.429 287.32L263.229 257.67Z" fill="#EB9481"/>
<path d="M305.249 207.19H305.319C308.539 207.59 364.229 253.29 365.629 255.54C367.029 257.79 360.739 261.97 357.169 261.92C353.599 261.87 324.429 253.92 324.429 253.92L319.569 260.61C310.389 253.18 293.649 239.61 283.489 231.08C286.319 227.08 288.609 224.36 288.619 224.35C294.529 217.55 299.829 211.7 302.859 208.94L302.919 208.89C304.059 207.8 304.869 207.2 305.249 207.19Z" fill="#EBEBEB"/>
<path d="M365.629 255.52C364.229 253.27 308.539 207.57 305.319 207.18C304.099 207.01 296.969 214.73 288.619 224.31L288.359 224.62L323.999 254.5L324.489 253.88C324.489 253.88 353.629 261.88 357.219 261.88C360.809 261.88 367.049 257.76 365.629 255.52Z" fill="#FFA4BB"/>
<path d="M363.23 257.16C353.66 249.69 315.74 218.64 306.84 210.53C306.77 210.46 306.84 210.41 306.89 210.47C316.54 217.67 354.21 249.02 363.36 257.01C363.55 257.17 363.43 257.32 363.23 257.16Z" fill="#263238"/>
<path d="M327.55 256.25C323.29 253.91 319.23 249.63 318.55 244.68C318.55 244.49 318.8 244.46 318.89 244.59C321.485 248.625 324.502 252.373 327.89 255.77C327.937 255.82 327.966 255.886 327.971 255.955C327.976 256.024 327.956 256.092 327.916 256.149C327.876 256.206 327.818 256.247 327.751 256.265C327.684 256.283 327.613 256.278 327.55 256.25Z" fill="#263238"/>
<path d="M331.529 256.83C327.269 254.49 323.219 250.21 322.529 245.26C322.529 245.07 322.769 245.04 322.859 245.18C325.454 249.212 328.471 252.957 331.859 256.35C331.896 256.402 331.916 256.464 331.917 256.527C331.917 256.591 331.898 256.653 331.862 256.705C331.826 256.758 331.775 256.798 331.715 256.82C331.656 256.842 331.591 256.846 331.529 256.83Z" fill="#263238"/>
<path d="M335.51 257.41C331.26 255.07 327.2 250.79 326.51 245.85C326.51 245.65 326.76 245.62 326.85 245.76C329.442 249.794 332.459 253.539 335.85 256.93C335.888 256.982 335.909 257.046 335.91 257.111C335.91 257.176 335.89 257.239 335.853 257.292C335.815 257.346 335.762 257.385 335.7 257.407C335.639 257.428 335.572 257.429 335.51 257.41Z" fill="#263238"/>
<path d="M171 194.53V194.58C171.25 195.44 175.15 209.01 179 220.64C181.82 229.13 184.64 236.57 186 237.27C187.55 238.05 195.06 240.79 197.58 241.64C197.58 241.64 213.74 297.55 227.2 315.74C231.81 321.98 252.81 328.22 263.08 321.48C287.18 305.68 322.87 264.59 322.87 264.59L281.29 230.59L251.85 269.59C244.56 256.06 240.6 228.75 240.6 228.75C240.6 228.75 238.95 201.75 229.05 190.54L171 194.53Z" fill="#37474F"/>
<path d="M312.85 269.55C306.59 264.79 308.32 266.24 302.11 261.41C299.11 259.04 279.11 243.49 276.67 240.78C276.661 240.766 276.657 240.75 276.657 240.734C276.658 240.717 276.663 240.702 276.673 240.689C276.683 240.676 276.697 240.666 276.712 240.661C276.728 240.656 276.744 240.655 276.76 240.66C279.95 242.43 299.63 258.33 302.63 260.75C308.74 265.7 306.93 264.35 312.99 269.37C313.002 269.379 313.012 269.391 313.019 269.404C313.026 269.417 313.031 269.431 313.033 269.446C313.035 269.461 313.034 269.476 313.03 269.49C313.026 269.505 313.019 269.518 313.01 269.53C313.001 269.542 312.989 269.552 312.976 269.559C312.963 269.566 312.949 269.571 312.934 269.573C312.919 269.575 312.904 269.574 312.89 269.57C312.875 269.566 312.862 269.559 312.85 269.55Z" fill="#263238"/>
<path d="M227.839 222.13C226.499 221.88 225.089 221.87 223.739 221.75C222.639 221.65 221.549 221.53 220.459 221.37C218.382 221.146 216.38 220.463 214.599 219.37C212.649 218.06 211.599 215.93 210.519 213.88C209.899 212.67 209.269 211.46 208.629 210.26L207.679 208.52C207.254 207.846 206.867 207.148 206.519 206.43C206.519 206.33 206.309 206.43 206.359 206.49C206.58 206.984 206.771 207.492 206.929 208.01C207.149 208.6 207.359 209.2 207.589 209.79C207.989 210.79 208.389 211.89 208.819 212.94C209.489 214.869 210.385 216.712 211.489 218.43C213.679 221.43 217.309 222.48 220.879 222.69C221.879 222.74 222.929 222.75 223.949 222.74C225.244 222.775 226.539 222.695 227.819 222.5C227.868 222.503 227.916 222.486 227.953 222.453C227.99 222.42 228.012 222.374 228.014 222.325C228.017 222.276 228 222.228 227.967 222.191C227.934 222.155 227.888 222.133 227.839 222.13Z" fill="#263238"/>
<path d="M182 235.6C187.334 237.145 192.524 239.153 197.51 241.6C197.531 241.608 197.55 241.62 197.567 241.635C197.583 241.65 197.596 241.669 197.606 241.689C197.615 241.71 197.62 241.732 197.621 241.754C197.622 241.776 197.618 241.799 197.61 241.82C197.602 241.841 197.59 241.86 197.575 241.877C197.559 241.893 197.541 241.906 197.521 241.915C197.5 241.925 197.478 241.93 197.456 241.931C197.433 241.931 197.411 241.928 197.39 241.92C192.18 240.09 186.88 238.36 181.77 236.24C181.685 236.209 181.616 236.146 181.577 236.065C181.539 235.983 181.534 235.89 181.565 235.805C181.595 235.72 181.658 235.651 181.74 235.612C181.822 235.574 181.915 235.569 182 235.6Z" fill="#263238"/>
<path d="M178.16 201C178.16 200.82 178.47 200.76 178.48 200.95C178.85 206.95 179.59 212.23 180.48 217.81C180.9 220.41 183.97 234.68 188.42 233.32C189.17 233.09 189.5 232.32 189.55 231.17C189.427 229.679 189.125 228.208 188.65 226.79C187.94 223.79 187.33 220.79 186.87 217.79C185.948 212.15 185.612 206.429 185.87 200.72C185.878 200.688 185.897 200.66 185.923 200.639C185.95 200.619 185.982 200.608 186.015 200.608C186.048 200.608 186.08 200.619 186.106 200.639C186.133 200.66 186.151 200.688 186.16 200.72C186.563 208.601 187.566 216.441 189.16 224.17C189.98 227.88 192.25 233.4 188.37 234.24C184.49 235.08 181.19 225.82 180.53 223.24C178.783 215.96 177.987 208.484 178.16 201Z" fill="#263238"/>
<path d="M188.32 233.74C188.788 234.686 189.195 235.662 189.54 236.66C189.882 237.424 190.082 238.244 190.13 239.08C190.124 239.113 190.109 239.144 190.087 239.169C190.064 239.194 190.035 239.212 190.003 239.221C189.971 239.231 189.936 239.231 189.904 239.222C189.872 239.213 189.843 239.195 189.82 239.17C189.298 238.464 188.89 237.682 188.61 236.85C188.2 235.95 187.77 235.06 187.39 234.15C187.348 234.029 187.354 233.897 187.405 233.78C187.456 233.663 187.55 233.569 187.667 233.518C187.784 233.466 187.916 233.46 188.037 233.501C188.158 233.543 188.259 233.628 188.32 233.74Z" fill="#263238"/>
<path d="M276.9 245.22C270.513 254.407 263.736 263.333 256.57 272C254.63 274.32 252.656 276.613 250.65 278.88C244.14 269.88 240.97 259.12 238.44 248.4C237.79 245.65 237.18 242.89 236.55 240.13C235.769 237.197 235.139 234.227 234.66 231.23C234.27 228.12 234.44 224.95 234.16 221.82C233.873 218.793 233.395 215.787 232.73 212.82C231.211 206.097 228.915 199.573 225.89 193.38C225.89 193.3 225.71 193.38 225.74 193.44C228.194 199.145 230.2 205.033 231.74 211.05C232.483 214.11 233.037 217.212 233.4 220.34C233.76 223.49 233.72 226.64 233.93 229.8C234.254 232.796 234.815 235.762 235.61 238.67C236.24 241.42 236.85 244.18 237.48 246.93C238.665 252.364 240.147 257.728 241.92 263C243.872 268.886 246.722 274.435 250.37 279.45C250.398 279.487 250.434 279.517 250.476 279.538C250.517 279.559 250.563 279.57 250.61 279.57C250.656 279.57 250.702 279.559 250.744 279.538C250.786 279.517 250.822 279.487 250.85 279.45C258.19 271.02 265.2 262.29 271.69 253.15C273.543 250.55 275.36 247.923 277.14 245.27C277.23 245.21 277 245.08 276.9 245.22Z" fill="#263238"/>
<path d="M252.16 269.37C251.912 269.761 251.685 270.165 251.48 270.58L251.269 270.74C251.132 270.84 251.004 270.954 250.89 271.08C250.667 271.339 250.473 271.62 250.309 271.92C250.011 272.544 249.861 273.228 249.869 273.92C249.964 273.268 250.188 272.643 250.529 272.08C250.682 271.804 250.859 271.543 251.059 271.3C251.118 271.238 251.172 271.171 251.219 271.1C251.219 271.18 251.139 271.25 251.109 271.34C250.854 272.084 250.674 272.851 250.57 273.63C250.47 274.366 250.47 275.113 250.57 275.85C250.645 276.579 250.789 277.298 250.999 278H251.049C251.049 277.26 250.959 276.53 251.049 275.78C251.139 275.03 251.28 274.34 251.38 273.62C251.477 272.916 251.613 272.218 251.79 271.53C251.96 270.83 252.099 270.1 252.309 269.4C252.329 269.34 252.21 269.3 252.16 269.37Z" fill="#263238"/>
<path d="M206.369 126.68C198.519 132.34 161.839 147.25 148.469 140.51C134.849 133.63 121.359 96.6799 118.679 93.5099C111.329 84.7299 142.939 72.2898 145.829 78.3798C150.659 88.5498 160.919 115.71 165.629 116.3C175.539 117.54 184.629 116.25 200.129 116.06C210.999 115.91 214.999 120.43 206.369 126.68Z" fill="#EB9481"/>
<path d="M149.15 85.0898C149.15 85.0898 162.01 114.09 164.91 114.89C169.74 116.27 195.91 115.36 205.31 115.52C214.71 115.68 223.76 124 201.5 132.31C179.24 140.62 160.5 144.95 148.39 142.23C140.87 140.53 120.22 107.93 120.22 107.93L149.15 85.0898Z" fill="#FFA4BB"/>
<path opacity="0.1" d="M149.15 85.0898C149.15 85.0898 162.01 114.09 164.91 114.89C169.74 116.27 195.91 115.36 205.31 115.52C214.71 115.68 223.76 124 201.5 132.31C179.24 140.62 160.5 144.95 148.39 142.23C140.87 140.53 120.22 107.93 120.22 107.93L149.15 85.0898Z" fill="black"/>
<path d="M125.819 113.24C136.129 103.52 148.389 94.9599 150.419 93.3099C150.519 93.2299 150.629 93.4 150.529 93.48C148.449 94.99 135.469 106.38 125.929 113.48C125.819 113.51 125.719 113.33 125.819 113.24Z" fill="#263238"/>
<path opacity="0.1" d="M215.33 122.15C214.93 125.09 211.18 128.7 201.5 132.31C179.25 140.63 160.5 144.95 148.4 142.23C146.9 141.89 144.87 140.32 142.59 138.01C159.74 134.31 201.09 125.41 215.33 122.15Z" fill="black"/>
<path d="M120.709 96.8098C123.809 99.1198 145.709 86.2298 146.209 82.2998C146.257 80.9556 146.129 79.6109 145.829 78.2998C145.829 78.2998 147.369 69.5998 151.229 62.8098C154.459 57.1098 159.909 49.0098 156.909 47.1598C152.539 44.4398 144.419 53.8598 140.079 59.5398C138.539 55.9698 136.889 53.0498 135.289 51.6898C129.999 47.2398 106.999 68.2998 108.319 75.2198C109.609 81.8998 117.609 94.5098 120.709 96.8098Z" fill="#EB9481"/>
<path d="M142.06 60.2799C140.82 63.6599 137.54 60.2799 137.54 60.2799C137.54 60.2799 141.08 66.2799 138.45 69.2799C135.82 72.2799 132.1 67.9199 131.82 67.6199C132 67.9399 135.11 73.5599 132.16 76.2999C129.21 79.0399 125.99 74.2199 125.79 73.8999C125.87 74.2599 126.84 78.9999 124.12 80.5699C119.45 83.2599 116.65 71.1999 112.86 69.0499C112.86 69.0499 108.48 75.0499 108.31 75.2199C108.31 75.2199 105.41 63.7999 108.6 58.8399C109.051 58.1095 109.738 57.5555 110.548 57.2699C111.357 56.9843 112.24 56.9843 113.05 57.2699C113.05 57.2699 111.71 53.6899 113.96 51.4699C115.12 50.3299 117.96 51.1699 117.96 51.1699C117.96 51.1699 116.96 48.2599 119.13 46.3999C120.83 44.9099 123.43 45.9899 123.43 45.9899C123.43 45.9899 123.81 42.7699 126.04 41.8199C130.54 39.8799 144.71 52.9999 142.06 60.2799Z" fill="#EB9481"/>
<path d="M123.89 46.0999C123.89 46.0999 123.89 45.9799 123.94 46.0099C129.895 49.3027 134.707 54.3283 137.74 60.4199C137.83 60.6199 137.55 60.8499 137.41 60.6599C133.632 55.1774 129.078 50.2728 123.89 46.0999Z" fill="#263238"/>
<path d="M117.939 51.0698C117.879 51.0698 117.939 50.9298 118.019 50.9698C123.899 54.2898 129.709 60.3698 132.099 67.6298C132.179 67.8798 131.999 68.1798 131.889 67.8998C129.929 63.1998 122.859 54.9198 117.939 51.0698Z" fill="#263238"/>
<path d="M125.78 74.4599C123.22 67.5899 118.72 62.2299 113.3 57.3899C113.23 57.3299 113.3 57.2399 113.4 57.2699C116.69 58.9199 119.83 62.3599 122.04 65.2699C124.142 67.9153 125.52 71.0614 126.04 74.3999C126 74.5099 125.84 74.6099 125.78 74.4599Z" fill="#263238"/>
<path d="M137.659 60.2798C137.769 60.5198 137.309 60.4198 137.409 60.6598C137.839 61.6598 139.889 67.9198 137.979 69.2798C136.439 70.3698 133.909 69.0598 133.139 68.1698L131.189 65.9998L132.249 68.7698C132.727 69.9935 133.001 71.2874 133.059 72.5998C133.123 73.2057 133.058 73.8184 132.869 74.3975C132.679 74.9766 132.369 75.509 131.959 75.9598C131.573 76.3736 131.056 76.6421 130.496 76.7204C129.935 76.7986 129.364 76.6819 128.879 76.3898C127.804 75.7183 126.919 74.7817 126.309 73.6698L124.509 70.6698L125.219 74.0798C125.416 75.0298 125.493 76.0006 125.449 76.9698C125.438 77.8906 125.156 78.7877 124.639 79.5498C124.392 79.8822 124.057 80.1389 123.672 80.2909C123.287 80.4429 122.867 80.484 122.459 80.4098C121.573 80.1054 120.79 79.5579 120.199 78.8298C118.909 77.2552 117.743 75.5836 116.709 73.8298C116.149 72.9698 115.599 72.0998 114.999 71.2598C114.449 70.3842 113.719 69.6346 112.859 69.0598C113.639 69.7167 114.284 70.518 114.759 71.4198C115.289 72.2898 115.759 73.1898 116.259 74.0998C117.194 75.9506 118.302 77.7085 119.569 79.3498C120.238 80.2613 121.159 80.9566 122.219 81.3498C122.816 81.4955 123.442 81.4643 124.021 81.2601C124.6 81.0559 125.106 80.6874 125.479 80.1998C126.158 79.2682 126.539 78.1522 126.569 76.9998C126.639 75.9186 126.569 74.8328 126.359 73.7698L125.279 74.1798C125.976 75.5055 127.011 76.6233 128.279 77.4198C128.994 77.8492 129.837 78.0122 130.659 77.8798C131.459 77.7271 132.195 77.3368 132.769 76.7598C133.292 76.1922 133.688 75.5194 133.929 74.7863C134.171 74.0533 134.253 73.2771 134.169 72.5098C134.075 71.0634 133.737 69.6434 133.169 68.3098L132.279 68.8498C133.279 69.9398 135.969 71.7098 138.559 70.3298C141.729 67.9998 138.359 61.4398 137.659 60.2798Z" fill="#263238"/>
<path d="M137.54 60.2599C138.153 60.6921 138.827 61.0292 139.54 61.2599C139.822 61.3575 140.125 61.3775 140.417 61.3176C140.709 61.2578 140.979 61.1204 141.2 60.9199C141.624 60.4179 141.892 59.8025 141.97 59.1499C142.09 58.4299 142.19 57.6699 142.25 56.8899C142.583 57.6214 142.753 58.4163 142.75 59.2199C142.776 59.661 142.714 60.103 142.569 60.5201C142.423 60.9372 142.195 61.3212 141.9 61.6499C141.538 61.9801 141.085 62.1928 140.6 62.2599C140.138 62.2941 139.676 62.2044 139.26 61.9999C138.516 61.6182 137.913 61.0085 137.54 60.2599Z" fill="#263238"/>
<path d="M234.34 206C234.13 206.16 169.62 199 169.09 198.17C168.35 196.95 187.57 130.08 202.33 116.35C206.02 112.92 216.23 114.45 220.33 118.88C240.69 140.87 235.07 205.43 234.34 206Z" fill="#EBEBEB"/>
<path d="M201.77 116.37L177 206.67L164.33 197.58C164.33 197.58 185 139.08 191 129.77C197 120.46 201.77 116.37 201.77 116.37Z" fill="#FFA4BB"/>
<path opacity="0.1" d="M201.77 116.37L177 206.67L164.33 197.58C164.33 197.58 185 139.08 191 129.77C197 120.46 201.77 116.37 201.77 116.37Z" fill="black"/>
<path d="M216.36 115.73C216.36 115.73 215.36 150.47 215.36 158.63C215.36 166.79 213.47 211.35 213.47 211.35L242.82 206C242.82 206 237.46 162.79 235.6 152.81C233.74 142.83 225.88 118.67 216.36 115.73Z" fill="#FFA4BB"/>
<path opacity="0.1" d="M216.36 115.73C216.36 115.73 215.36 150.47 215.36 158.63C215.36 166.79 213.47 211.35 213.47 211.35L242.82 206C242.82 206 237.46 162.79 235.6 152.81C233.74 142.83 225.88 118.67 216.36 115.73Z" fill="black"/>
<path d="M223.32 135.26C240.38 152.73 262.99 171.42 275.56 168.75C286.93 166.33 303.27 153 321.1 138.63C324.64 135.78 301.01 109.4 297.54 112.82C290.71 119.55 276.69 136.73 271.46 138.63C269.22 139.44 244.14 126.91 227.7 120.63C207.74 113 216.52 128.3 223.32 135.26Z" fill="#EB9481"/>
<path d="M294.07 116.19C294.07 116.19 273.39 137.28 270.37 137.09C265.37 136.77 234.98 122.36 226.07 119.36C217.16 116.36 207.61 118.13 221.69 134.77C237.58 153.54 255.37 170.26 273.76 170.28C283.67 170.28 314.53 148.74 314.53 148.74L294.07 116.19Z" fill="#FFA4BB"/>
<path opacity="0.1" d="M294.07 116.19C294.07 116.19 273.39 137.28 270.37 137.09C265.37 136.77 234.98 122.36 226.07 119.36C217.16 116.36 207.61 118.13 221.69 134.77C237.58 153.54 255.37 170.26 273.76 170.28C283.67 170.28 314.53 148.74 314.53 148.74L294.07 116.19Z" fill="black"/>
<path d="M306.63 150.53C300.17 137.91 291.49 125.75 290.12 123.53C290.06 123.42 289.9 123.53 289.97 123.65C291.42 125.77 299.84 140.85 306.46 150.65C306.54 150.78 306.7 150.65 306.63 150.53Z" fill="#263238"/>
<path d="M234.88 149.06C234.411 148.565 233.97 148.045 233.56 147.5C233.07 146.97 232.56 146.44 232.09 145.91C231.09 144.91 230.18 143.91 229.23 142.84C227.34 140.79 225.33 138.84 223.37 136.84C225.16 139 226.92 141.17 228.86 143.2L228.99 143.34L227.85 142.57C227.06 142.04 226.27 141.51 225.49 140.97C225.49 140.97 225.39 141.02 225.43 141.05C226.16 141.65 226.91 142.22 227.7 142.75C228.1 143.02 228.5 143.28 228.92 143.53L229.5 143.87L231.69 146.14C232.19 146.65 232.69 147.14 233.21 147.66C233.73 148.18 234.35 148.56 234.81 149.11C234.83 149.25 235 149.13 234.88 149.06Z" fill="#263238"/>
<path d="M203.92 128.61C206.98 129.35 214.52 124.83 217.98 120.46C218.21 120.16 218.29 116.59 218.6 112.26C218.79 109.63 219.07 106.71 219.52 104.06L202.24 105.29C202.625 108.758 202.585 112.261 202.12 115.72C202.056 116.086 201.955 116.444 201.82 116.79C201.82 116.84 201.82 116.9 201.82 116.97C201.08 119 199.13 127.45 203.92 128.61Z" fill="#EB9481"/>
<path d="M201.83 116.79C201.801 116.847 201.78 116.907 201.77 116.97C202.322 117.143 202.887 117.27 203.46 117.35C212.94 118.73 217.19 107.61 218.27 104.15L202.27 105.28C202.661 108.754 202.628 112.264 202.17 115.73C202.085 116.092 201.971 116.446 201.83 116.79Z" fill="#263238"/>
<path d="M227.19 84.1899C227.44 90.4199 220.01 106.31 214.93 108.95C207.56 112.78 197.67 110.74 194.93 102.38C192.31 94.2699 202.35 73.7399 207.83 71.5699C215.93 68.3599 226.82 74.9999 227.19 84.1899Z" fill="#EB9481"/>
<path d="M213.25 87.58C212.847 87.2479 212.463 86.894 212.1 86.52C211.63 86.2114 211.277 85.7534 211.1 85.22C211.08 85.0421 211.119 84.8627 211.212 84.7092C211.304 84.5557 211.443 84.4366 211.61 84.37C211.956 84.2908 212.318 84.3056 212.657 84.4128C212.997 84.52 213.301 84.7158 213.54 84.98C214.106 85.4372 214.481 86.0901 214.59 86.81C214.6 86.9707 214.566 87.1312 214.49 87.2732C214.414 87.4153 214.3 87.5331 214.16 87.6134C214.02 87.6936 213.861 87.733 213.7 87.7271C213.539 87.7212 213.383 87.6702 213.25 87.58Z" fill="#434343"/>
<path d="M202.569 82.9998C203.089 83.1298 203.569 83.1598 204.119 83.2398C204.651 83.3958 205.22 83.3747 205.739 83.1798C205.889 83.085 206.005 82.944 206.068 82.7781C206.131 82.6122 206.138 82.4304 206.089 82.2598C205.934 81.9376 205.696 81.6628 205.399 81.464C205.101 81.2653 204.756 81.1499 204.399 81.1298C203.687 80.9676 202.94 81.082 202.309 81.4498C202.171 81.5416 202.061 81.6716 201.995 81.8242C201.929 81.9767 201.908 82.1452 201.936 82.3093C201.963 82.4733 202.038 82.6258 202.15 82.7484C202.263 82.871 202.408 82.9583 202.569 82.9998Z" fill="#434343"/>
<path d="M207.06 99.8598C206.706 100.084 206.284 100.172 205.87 100.11C205.47 99.9286 205.113 99.6664 204.82 99.3398H204.75C204.816 99.6195 204.956 99.8763 205.154 100.084C205.353 100.291 205.604 100.442 205.88 100.52C206.125 100.56 206.377 100.525 206.601 100.42C206.826 100.315 207.014 100.144 207.14 99.9298C207.19 99.8998 207.11 99.8398 207.06 99.8598Z" fill="#263238"/>
<path d="M207.319 96.1298C206.859 96.4424 206.338 96.6554 205.791 96.7553C205.243 96.8552 204.681 96.8397 204.139 96.7098C203.668 96.6025 203.214 96.4309 202.789 96.1998C202.705 96.1613 202.624 96.1144 202.549 96.0598C202.47 96.0229 202.396 95.9758 202.329 95.9198C202.276 95.8855 202.235 95.8346 202.214 95.775C202.192 95.7154 202.19 95.6503 202.209 95.5898C202.222 95.5514 202.239 95.5145 202.259 95.4798V95.3898C202.599 94.5398 203.259 93.3098 203.259 93.3098C202.889 93.3098 201.039 93.3098 201.259 92.9298C202.974 89.2064 205.065 85.6681 207.499 82.3698C207.569 82.2598 207.749 82.3698 207.679 82.4798C206.119 85.9298 203.959 89.0898 202.329 92.5298C203.003 92.5035 203.677 92.5777 204.329 92.7498C204.429 92.8298 203.069 95.1098 202.949 95.5098C203.606 95.8719 204.328 96.0984 205.074 96.1757C205.819 96.253 206.573 96.1796 207.289 95.9598C207.359 95.9998 207.419 96.0698 207.319 96.1298Z" fill="#263238"/>
<path d="M203.46 96C203.661 96.7928 204.064 97.5199 204.63 98.11C204.949 98.4236 205.358 98.6299 205.8 98.7C206.8 98.85 207.13 98.06 207.26 97.31C207.326 96.9103 207.347 96.5043 207.32 96.1C206.055 96.4777 204.703 96.4427 203.46 96Z" fill="#263238"/>
<path d="M204.63 98.0999C204.949 98.4135 205.358 98.6197 205.8 98.6899C206.8 98.8399 207.13 98.0499 207.26 97.2999C206.795 97.1202 206.284 97.1014 205.807 97.2464C205.33 97.3914 204.916 97.6919 204.63 98.0999Z" fill="#FF9BBC"/>
<path d="M211.999 90.2299C212.06 89.9159 212.036 89.5914 211.929 89.2899C211.86 89.1282 211.758 88.982 211.631 88.8601C211.504 88.7382 211.354 88.6429 211.19 88.5799C211.022 88.5292 210.846 88.5164 210.673 88.5424C210.5 88.5683 210.335 88.6324 210.19 88.7299C209.935 88.9093 209.726 89.1456 209.58 89.4199C209.496 89.5887 209.423 89.7624 209.359 89.9399C209.224 90.3037 209.176 90.6942 209.219 91.0799C209.299 90.8096 209.406 90.5483 209.539 90.2999C209.662 90.0779 209.799 89.8641 209.949 89.6599C210.259 89.2499 210.669 88.9599 211.039 89.1199C211.235 89.2144 211.394 89.3699 211.493 89.5629C211.593 89.756 211.626 89.976 211.589 90.1899C211.564 90.7294 211.487 91.2651 211.359 91.7899C211.688 91.3251 211.907 90.7916 211.999 90.2299Z" fill="#263238"/>
<path d="M201.46 85.3998C201.649 85.1443 201.9 84.9412 202.19 84.8098C202.348 84.7433 202.518 84.709 202.69 84.709C202.861 84.709 203.031 84.7433 203.19 84.8098C203.349 84.8935 203.487 85.0128 203.593 85.1585C203.699 85.3042 203.769 85.4723 203.8 85.6498C203.842 85.9593 203.811 86.2744 203.71 86.5698C203.654 86.7488 203.584 86.9227 203.5 87.0898C203.328 87.4386 203.078 87.7432 202.77 87.9798C202.914 87.7379 203.028 87.4793 203.11 87.2098C203.188 86.9681 203.248 86.7207 203.29 86.4698C203.37 85.9598 203.29 85.4698 202.93 85.3098C202.726 85.2321 202.502 85.2233 202.292 85.2847C202.083 85.3461 201.899 85.4743 201.77 85.6498C201.394 86.0421 201.059 86.4709 200.77 86.9298C200.874 86.3721 201.111 85.8475 201.46 85.3998Z" fill="#263238"/>
<path d="M202.889 75.8899C207.289 81.9899 217.439 78.8099 217.439 78.8099C217.48 80.2626 217.989 81.6634 218.89 82.8039C219.791 83.9444 221.036 84.7637 222.439 85.1399C222.439 85.1399 220.039 95.4199 222.649 96.3299C226.649 97.7399 232.649 84.7299 232.389 81.6299C232.129 78.5299 228.969 76.6299 228.969 76.6299C229.176 74.8952 228.715 73.147 227.679 71.7399C225.679 68.7399 215.359 68.1199 215.359 68.1199C215.272 66.6796 214.851 65.2793 214.129 64.0299C213.958 63.7218 213.726 63.4519 213.446 63.2365C213.167 63.021 212.847 62.8646 212.506 62.7767C212.165 62.6887 211.809 62.6712 211.461 62.725C211.112 62.7788 210.778 62.903 210.479 63.0899C210.716 63.9955 210.74 64.9435 210.549 65.8599C209.979 68.9199 207.619 68.0599 208.549 65.4499C208.872 64.4599 209.544 63.6211 210.439 63.0899C209.889 60.9599 208.189 59.7099 206.699 60.2199C203.999 61.1499 199.229 70.8299 202.889 75.8899Z" fill="#434343"/>
<path d="M208.3 95.1199C207.23 94.4345 206.475 93.3527 206.202 92.1117C205.928 90.8708 206.157 89.5719 206.84 88.4999C207.323 87.7448 208.007 87.1402 208.817 86.7549C209.626 86.3695 210.527 86.219 211.417 86.3202C212.308 86.4215 213.152 86.7706 213.854 87.3277C214.556 87.8849 215.087 88.6279 215.388 89.4721C215.689 90.3164 215.747 91.2281 215.555 92.1036C215.364 92.9791 214.93 93.7832 214.304 94.4247C213.679 95.0662 212.885 95.5192 212.015 95.7322C211.144 95.9453 210.231 95.9098 209.38 95.6299C208.999 95.5093 208.635 95.3378 208.3 95.1199ZM207.38 88.8399C206.937 89.5314 206.71 90.3385 206.726 91.1593C206.742 91.98 207.002 92.7775 207.471 93.4509C207.941 94.1242 208.6 94.6432 209.364 94.9421C210.129 95.241 210.965 95.3064 211.767 95.1301C212.568 94.9538 213.3 94.5437 213.869 93.9516C214.437 93.3595 214.817 92.6121 214.961 91.8039C215.105 90.9957 215.006 90.163 214.676 89.4111C214.347 88.6592 213.802 88.022 213.11 87.5799C212.821 87.3933 212.508 87.2453 212.18 87.1399C211.305 86.8515 210.358 86.862 209.489 87.1697C208.621 87.4774 207.879 88.0649 207.38 88.8399Z" fill="black"/>
<path d="M199.14 90.82C197.36 89.99 196.81 87.36 197.93 84.97C198.416 83.8787 199.23 82.9663 200.26 82.36C200.688 82.0783 201.18 81.9108 201.691 81.8735C202.202 81.8361 202.714 81.9302 203.178 82.1468C203.642 82.3633 204.043 82.6951 204.343 83.1105C204.643 83.526 204.831 84.0112 204.89 84.52C205.095 85.6961 204.923 86.907 204.4 87.98C203.34 90.25 201.17 91.51 199.4 90.98L199.14 90.82ZM200.57 82.92C199.657 83.4585 198.937 84.27 198.51 85.24C197.51 87.31 197.95 89.56 199.41 90.24C200.87 90.92 202.85 89.79 203.82 87.71C204.282 86.7573 204.436 85.6842 204.26 84.64C204.206 84.2337 204.055 83.8463 203.82 83.5105C203.585 83.1746 203.273 82.9001 202.91 82.71L202.69 82.62C202.335 82.5197 201.963 82.4947 201.598 82.5463C201.233 82.598 200.883 82.7252 200.57 82.92Z" fill="black"/>
<path d="M206.749 89.0698L207.329 88.7998C206.929 87.9398 205.749 86.4898 204.159 87.1298L204.399 87.7198C205.829 87.1398 206.709 88.9998 206.749 89.0698Z" fill="black"/>
<path d="M225.58 99.1999H226.22C226.22 98.9099 226.07 96.2699 224.87 95.4499C223.67 94.6299 215.62 91.7999 215.28 91.6699L215.06 92.2799C217.39 93.1099 223.64 95.3899 224.51 95.9799C225.38 96.5699 225.55 98.4799 225.58 99.1999Z" fill="black"/>
<path d="M220.06 96.8499C220.06 96.8499 225.33 92.5499 227.39 94.5799C229.45 96.6099 224.39 103.58 221.25 103.84C220.846 103.903 220.434 103.883 220.039 103.782C219.643 103.68 219.272 103.499 218.949 103.249C218.626 102.999 218.358 102.685 218.16 102.328C217.962 101.97 217.84 101.576 217.8 101.17L220.06 96.8499Z" fill="#EB9481"/>
<path d="M225.89 96.5399C225.94 96.5399 225.89 96.6199 225.89 96.6199C223.65 96.8599 222.07 98.4199 220.78 100.14C220.953 99.9717 221.161 99.8432 221.389 99.7631C221.617 99.683 221.86 99.6534 222.1 99.6762C222.341 99.699 222.573 99.7738 222.782 99.8953C222.991 100.017 223.171 100.182 223.31 100.38C223.316 100.392 223.319 100.406 223.317 100.419C223.316 100.433 223.311 100.445 223.302 100.456C223.294 100.467 223.282 100.475 223.27 100.479C223.257 100.483 223.243 100.483 223.23 100.48C222.909 100.266 222.53 100.157 222.145 100.168C221.76 100.178 221.388 100.309 221.08 100.54C220.571 100.93 220.105 101.372 219.69 101.86C219.54 102.02 219.24 101.86 219.37 101.64C220.08 98.9999 223.08 95.9999 225.89 96.5399Z" fill="#263238"/>
<path d="M201.68 116.47L205.38 126.82L218.54 114.41L221.97 118.69C221.97 118.69 208.79 138.69 208.75 137.77L204.89 128.77L198.59 134.65L199.67 119.32L201.68 116.47Z" fill="#EBEBEB"/>
<path d="M198.69 127.09C198.96 124.57 199.15 122.02 199.53 119.51C199.53 119.42 199.69 119.38 199.71 119.51C200.12 121.97 199.06 131.62 198.98 133.94C199.24 133.68 204.81 128.78 204.86 128.86C205.71 130.29 208.55 136.86 208.74 137.4C210.82 134.22 218.74 122.68 221.23 119.69C221.236 119.681 221.243 119.673 221.252 119.667C221.261 119.66 221.271 119.656 221.282 119.654C221.293 119.651 221.304 119.651 221.315 119.653C221.325 119.655 221.336 119.659 221.345 119.665C221.354 119.671 221.362 119.679 221.368 119.687C221.374 119.696 221.379 119.707 221.381 119.717C221.383 119.728 221.384 119.739 221.382 119.75C221.38 119.76 221.376 119.771 221.37 119.78C219.51 123.15 208.96 138.7 208.81 138.65C207.311 135.569 205.976 132.411 204.81 129.19C203.81 130.27 198.22 135.83 198.22 135.46C198.23 132.664 198.387 129.87 198.69 127.09Z" fill="#263238"/>
<path d="M323.24 79.5367L338.761 127.816C339.382 129.233 338.761 130.435 337.27 130.518L311.49 132C310.703 131.981 309.937 131.746 309.28 131.321C308.622 130.896 308.099 130.298 307.769 129.595L292.232 81.1839C291.628 79.7673 292.232 78.5648 293.723 78.4825L319.502 77C320.308 77.025 321.089 77.2775 321.751 77.7274C322.414 78.1773 322.931 78.8055 323.24 79.5367Z" fill="#C7C7C7"/>
<path d="M313.008 81.699C313.047 82.192 313.232 82.6623 313.539 83.0503C313.845 83.4383 314.26 83.7266 314.731 83.8788C315.201 84.0309 315.707 84.0401 316.182 83.9051C316.658 83.77 317.083 83.4969 317.404 83.1203C317.724 82.7437 317.926 82.2804 317.983 81.7891C318.04 81.2979 317.951 80.8007 317.725 80.3605C317.5 79.9203 317.149 79.5568 316.717 79.3161C316.285 79.0754 315.791 78.9682 315.298 79.0082C314.638 79.0617 314.026 79.3752 313.596 79.8797C313.167 80.3842 312.955 81.0386 313.008 81.699Z" fill="#263238"/>
<path d="M311.827 96.7061C311.257 100.536 316.107 99.0261 316.107 99.0261C316.107 99.0261 309.647 102.886 310.587 107.026C311.497 111.026 317.287 109.026 317.707 108.876C317.367 109.086 311.527 112.796 312.907 116.876C314.337 121.146 319.797 118.106 320.157 117.876C319.897 118.176 316.537 122.156 318.287 125.036C321.287 130.036 330.177 120.036 334.877 119.976C334.877 119.976 337.727 125.586 337.807 125.806C337.807 125.806 344.617 118.866 344.167 112.536C344.126 111.611 343.766 110.729 343.148 110.039C342.53 109.35 341.692 108.896 340.777 108.756C340.777 108.756 343.897 106.066 342.917 102.756C342.407 101.076 339.277 100.396 339.277 100.396C339.277 100.396 341.677 98.1361 340.627 95.2861C339.797 93.0061 336.787 92.6761 336.787 92.6761C336.787 92.6761 338.087 89.4361 336.477 87.3861C333.247 83.3961 313.067 88.4861 311.827 96.7061Z" fill="#EB9481"/>
<path d="M336.316 92.7062C336.327 92.7015 336.336 92.6938 336.343 92.6841C336.349 92.6743 336.352 92.6629 336.352 92.6512C336.352 92.6395 336.349 92.6281 336.343 92.6183C336.336 92.6085 336.327 92.6009 336.316 92.5962C328.993 92.6276 321.853 94.8878 315.846 99.0762C315.656 99.2162 315.796 99.5762 316.036 99.4662C322.432 96.2402 329.264 93.9629 336.316 92.7062Z" fill="#263238"/>
<path d="M339.386 100.476C339.466 100.476 339.446 100.336 339.386 100.336C332.126 100.436 323.496 103.176 317.486 108.796C317.286 108.986 317.296 109.366 317.546 109.166C321.776 105.726 332.726 101.566 339.386 100.476Z" fill="#263238"/>
<path d="M319.867 118.516C325.867 113.346 332.867 110.616 340.477 108.846C340.577 108.846 340.537 108.686 340.477 108.676C336.477 108.526 331.777 110.166 328.197 111.746C324.844 113.152 321.92 115.414 319.717 118.306C319.597 118.416 319.737 118.626 319.867 118.516Z" fill="#263238"/>
<path d="M316.107 98.9961C314.932 99.8447 313.844 100.806 312.857 101.866C311.849 102.848 311.121 104.08 310.747 105.436C310.612 106.067 310.715 106.726 311.037 107.286C311.365 107.849 311.833 108.318 312.397 108.646C312.985 108.924 313.625 109.077 314.276 109.094C314.927 109.111 315.574 108.993 316.177 108.746L319.177 107.646L316.757 109.716C315.671 110.621 314.742 111.699 314.007 112.906C313.635 113.448 313.381 114.062 313.262 114.708C313.143 115.354 313.162 116.018 313.317 116.656C313.469 117.245 313.817 117.764 314.305 118.128C314.792 118.491 315.389 118.678 315.997 118.656C317.358 118.573 318.675 118.147 319.827 117.416L323.077 115.506L320.647 118.356C319.967 119.153 319.393 120.034 318.937 120.976C318.474 121.851 318.276 122.841 318.367 123.826C318.429 124.267 318.612 124.682 318.896 125.025C319.181 125.367 319.555 125.624 319.977 125.766C320.97 125.943 321.994 125.832 322.927 125.446C324.955 124.64 326.918 123.677 328.797 122.566C329.797 122.036 330.737 121.506 331.737 121.016C332.707 120.462 333.784 120.121 334.897 120.016C333.826 120.233 332.808 120.654 331.897 121.256C330.897 121.816 330.027 122.416 329.097 123.016C327.257 124.282 325.302 125.37 323.257 126.266C322.158 126.775 320.934 126.948 319.737 126.766C319.097 126.597 318.521 126.244 318.078 125.752C317.636 125.26 317.347 124.65 317.247 123.996C317.096 122.775 317.308 121.537 317.857 120.436C318.351 119.382 318.976 118.394 319.717 117.496L320.537 118.446C319.187 119.334 317.629 119.854 316.017 119.956C315.122 119.983 314.246 119.701 313.537 119.156C312.856 118.601 312.36 117.851 312.117 117.006C311.92 116.199 311.897 115.36 312.046 114.543C312.196 113.727 312.517 112.951 312.987 112.266C313.819 110.951 314.859 109.779 316.067 108.796L316.637 109.796C315.878 110.079 315.067 110.192 314.261 110.128C313.454 110.064 312.671 109.825 311.967 109.426C311.29 108.987 310.739 108.381 310.367 107.666C309.994 106.931 309.902 106.085 310.107 105.286C310.583 103.846 311.452 102.568 312.617 101.596C313.678 100.601 314.849 99.7288 316.107 98.9961Z" fill="#263238"/>
<path d="M297 117.38C297 117.38 305.83 87.5896 315.78 96.7496C318.78 99.4696 327.63 114.17 324.72 116.02C320.95 118.4 316.09 112.95 313.58 109.02C313.58 109.02 312 119.57 304.33 120.67C302.924 120.848 301.496 120.635 300.203 120.055C298.909 119.474 297.801 118.549 297 117.38Z" fill="#EB9481"/>
<path d="M314.909 96.0396C316.194 96.9689 317.336 98.0806 318.299 99.3395C319.297 100.576 320.209 101.879 321.029 103.24C322.72 105.934 324.172 108.772 325.369 111.72C325.683 112.504 325.885 113.329 325.969 114.17C326.012 114.654 325.951 115.141 325.789 115.6C325.698 115.852 325.566 116.089 325.399 116.3C325.23 116.502 325.031 116.677 324.809 116.82C323.995 117.315 323.03 117.503 322.089 117.35C321.231 117.191 320.405 116.886 319.649 116.45C318.24 115.596 316.989 114.507 315.949 113.23C314.91 112.009 313.964 110.712 313.119 109.35L314.119 109.12C313.895 110.318 313.561 111.493 313.119 112.63C312.691 113.757 312.145 114.837 311.489 115.85C310.829 116.862 310.024 117.772 309.099 118.55C308.183 119.323 307.128 119.914 305.989 120.29C307.042 119.783 308.005 119.108 308.839 118.29C309.647 117.459 310.34 116.524 310.899 115.51C311.461 114.5 311.923 113.438 312.279 112.34C312.633 111.251 312.887 110.134 313.039 109L313.209 107.6L314.039 108.77C314.907 110.045 315.856 111.264 316.879 112.42C317.858 113.564 319.013 114.546 320.299 115.33C321.529 116.02 323.069 116.39 324.089 115.73C325.039 115.23 324.669 113.54 324.189 112.15C323.666 110.692 323.065 109.263 322.389 107.87C321.739 106.45 321.059 105.04 320.319 103.67C318.779 100.95 317.229 98.1696 314.909 96.0396Z" fill="#263238"/>
</svg>
