<svg width="207" height="270" viewBox="0 0 207 270" fill="none" xmlns="http://www.w3.org/2000/svg">
<path d="M161.311 256.54L158.836 256.7L159.859 269.369L161.311 256.54Z" fill="#A6A6A6"/>
<path d="M84.6318 116.555L156.048 135.247L157.008 131.747L85.5919 113.055L84.6318 116.555Z" fill="#37474F"/>
<path d="M93.0044 119.623L95.5361 120.285L96.9446 115.151L94.4129 114.488L93.0044 119.623Z" fill="#263238"/>
<path d="M83.8672 119.375C86.5698 120.082 89.3222 118.609 90.0147 116.084C90.7072 113.56 89.0777 110.94 86.375 110.232C83.6724 109.525 80.92 110.998 80.2275 113.523C79.535 116.047 81.1645 118.667 83.8672 119.375Z" fill="#263238"/>
<path d="M158.836 256.7L140.198 110.77L149.79 75.8032L167.244 211.013L161.311 256.54L158.836 256.7Z" fill="#455A64"/>
<path d="M69.9715 179.523L130.98 108.357L140.571 73.3904L58.5496 170.971L69.9715 179.523Z" fill="#455A64"/>
<path d="M3.25081 215.553L13.3057 222.471L67.2135 152.264L57.1586 145.346L3.25081 215.553Z" fill="#FFA4BB"/>
<path d="M57.1639 145.342L67.2188 152.259L71.7982 146.295L61.7434 139.378L57.1639 145.342Z" fill="#FF97B8"/>
<path d="M54.8844 146.619L66.627 154.698L68.2821 152.542L56.5395 144.463L54.8844 146.619Z" fill="#37474F"/>
<path d="M53.0553 149.002L64.7979 157.081L66.453 154.926L54.7104 146.847L53.0553 149.002Z" fill="#37474F"/>
<path d="M5.19752 216.948L5.19519 217.085L5.32725 217.043L7.24875 216.432L7.21198 218.334L7.20923 218.469L7.34051 218.43L9.3223 217.831L9.27746 219.733L9.27435 219.874L9.40934 219.828L11.2814 219.198L11.2576 221.112L11.2557 221.251L11.3895 221.207L13.2628 220.576L13.248 222.427L4.38212 226.487L1.5949 227.748L2.02696 224.866L3.37285 215.637L5.23429 215.045L5.19752 216.948Z" fill="#EBEBEB" stroke="black" stroke-width="0.2"/>
<g opacity="0.1">
<path d="M58.4638 158.904C55.7606 162.296 53.0772 165.705 50.4135 169.13L42.4544 179.423L34.5737 189.762L18.4322 210.995L14.5173 216.171L18.5572 211.071L34.8344 189.907L42.7914 179.622L50.6721 169.283C53.2848 165.844 55.882 162.385 58.4638 158.904Z" fill="black"/>
<path d="M55.9823 156.894C53.2735 160.285 50.5929 163.694 47.9406 167.122L39.9729 177.413L32.0922 187.752L15.9083 208.974L12.0293 214.185L16.0692 209.084L32.3443 187.929L40.3289 177.642L48.2096 167.303C50.8097 163.844 53.4006 160.375 55.9823 156.894Z" fill="black"/>
<path d="M53.4911 154.923C50.7426 158.304 48.1172 161.733 45.4494 165.152L37.5011 175.405L29.6119 185.742L13.4364 206.966L9.549 212.175L13.5889 207.074L29.8639 185.918L37.8231 175.625L45.7038 165.286C48.3103 161.826 50.9337 158.371 53.4911 154.923Z" fill="black"/>
</g>
<path d="M48.2625 179.395L53.3345 172.889L41.0588 163.764L35.8992 170.324L48.2625 179.395Z" fill="#37474F"/>
<path d="M77.853 172.833L63.6771 162.403L42.7329 189.261L56.7909 199.158L77.853 172.833Z" fill="#37474F"/>
<path d="M109.24 123.872C110.761 124.27 112.309 123.441 112.698 122.021C113.088 120.601 112.171 119.127 110.651 118.729C109.131 118.332 107.583 119.16 107.193 120.58C106.804 122 107.72 123.474 109.24 123.872Z" fill="#DBDBDB"/>
<path d="M107.798 122.993L112.6 120.422C112.544 120.276 112.473 120.135 112.388 120.001C112.306 119.865 112.21 119.737 112.101 119.619L107.29 122.188C107.349 122.333 107.42 122.474 107.502 122.609C107.587 122.745 107.686 122.874 107.798 122.993Z" fill="#C7C7C7"/>
<path d="M147.433 133.06C147.146 132.6 147.01 132.073 147.04 131.546C147.07 131.02 147.267 130.517 147.604 130.101C147.941 129.686 148.404 129.377 148.934 129.212C149.465 129.048 150.038 129.037 150.583 129.179C151.127 129.322 151.618 129.612 151.993 130.013C152.369 130.414 152.611 130.908 152.691 131.433C152.77 131.957 152.682 132.489 152.439 132.96C152.196 133.431 151.808 133.82 151.324 134.079C150.676 134.425 149.902 134.513 149.172 134.322C148.442 134.131 147.817 133.677 147.433 133.06Z" fill="#DBDBDB"/>
<path d="M150.871 134.266L148.027 129.694C148.154 129.596 148.291 129.509 148.435 129.435C148.574 129.356 148.723 129.292 148.879 129.245L151.722 133.817C151.599 133.916 151.465 134.004 151.323 134.078C151.182 134.16 151.03 134.223 150.871 134.266Z" fill="#C7C7C7"/>
<path d="M151.75 38.1166L158.156 39.7932L162.11 25.3813L155.704 23.7047L151.75 38.1166Z" fill="#37474F"/>
<path d="M151.704 31.1808L161.746 33.8091L170.299 2.62827L160.257 -5.80439e-05L151.704 31.1808Z" fill="#455A64"/>
<path d="M160.727 33.5423L161.118 33.6446L161.429 33.471L161.675 33.3396L161.907 33.2219L162.01 32.8489L160.727 33.5423Z" fill="#37474F"/>
<path d="M157.626 32.7306L158.025 32.8351L162.702 30.3251L162.802 29.9601L162.322 30.2171L162.076 30.3485L160.379 31.2568L160.134 31.3882L158.437 32.2964L158.189 32.4358L157.626 32.7306Z" fill="#37474F"/>
<path d="M154.533 31.9211L154.932 32.0256L155.487 31.7285L157.184 30.8203L157.432 30.6809L159.128 29.7727L159.374 29.6413L161.071 28.733L161.316 28.6016L163.013 27.6933L163.259 27.5619L163.494 27.4363L163.594 27.0712L163.114 27.3283L162.868 27.4597L161.171 28.3679L158.983 29.539L157.286 30.4473L157.041 30.5786L154.533 31.9211Z" fill="#37474F"/>
<path d="M151.772 30.935L151.705 31.181L151.832 31.2144L157.98 27.924L158.225 27.7926L159.922 26.8843L160.168 26.753L161.865 25.8447L162.11 25.7133L163.809 24.7971L164.055 24.6657L164.287 24.548L164.39 24.175L161.967 25.4717L161.719 25.611L160.022 26.5193L157.834 27.6903L156.137 28.5986L155.892 28.73L151.772 30.935Z" fill="#37474F"/>
<path d="M152.565 28.046L152.464 28.411L152.945 28.154L153.19 28.0226L154.887 27.1143L155.133 26.9829L156.83 26.0746L157.075 25.9433L158.772 25.035L159.017 24.9036L160.714 23.9953L162.905 22.8163L164.599 21.916L164.847 21.7767L165.08 21.6589L165.18 21.2939L164.702 21.543L164.456 21.6744L162.759 22.5826L162.514 22.714L160.817 23.6223L160.569 23.7616L158.872 24.6699L158.627 24.8013L156.93 25.7096L156.684 25.841L154.987 26.7492L154.733 26.8784L153.045 27.7889L152.799 27.9203L152.565 28.046Z" fill="#37474F"/>
<path d="M153.359 25.1495L153.257 25.5225L153.737 25.2654L153.983 25.134L155.68 24.2257L157.868 23.0547L159.565 22.1464L159.812 22.0071L161.507 21.1068L161.755 20.9674L163.452 20.0592L163.697 19.9278L165.394 19.0195L165.64 18.8881L165.872 18.7704L165.975 18.3974L165.494 18.6544L165.249 18.7858L163.552 19.6941L161.364 20.8651L159.667 21.7734L155.782 23.8527L155.526 23.9898L153.838 24.9003L153.592 25.0317L153.359 25.1495Z" fill="#37474F"/>
<path d="M154.151 22.2608L154.051 22.6259L156.719 21.1978L158.414 20.2974L158.662 20.1581L160.359 19.2498L160.604 19.1184L162.301 18.2101L162.547 18.0788L164.244 17.1705L164.489 17.0391L166.186 16.1308L166.432 15.9994L166.664 15.8817L166.767 15.5087L166.286 15.7658L166.041 15.8971L164.344 16.8054L164.098 16.9368L162.402 17.8451L160.214 19.0161L158.517 19.9244L158.271 20.0558L156.574 20.9641L156.32 21.0932L154.386 22.1351L154.151 22.2608Z" fill="#37474F"/>
<path d="M154.944 19.3719L154.844 19.7369L155.322 19.4878L155.57 19.3485L157.267 18.4402L157.512 18.3088L159.209 17.4005L159.455 17.2692L161.152 16.3609L161.397 16.2295L163.094 15.3212L163.34 15.1898L165.037 14.2816L165.282 14.1502L166.979 13.2419L167.225 13.1105L167.46 12.9848L167.56 12.6198L167.082 12.8689L166.834 13.0082L165.137 13.9165L162.949 15.0876L161.252 15.9958L161.007 16.1272L159.31 17.0355L159.064 17.1669L157.367 18.0752L157.113 18.2043L155.425 19.1148L155.179 19.2462L154.944 19.3719Z" fill="#37474F"/>
<path d="M155.739 16.4753L155.636 16.8483L156.117 16.5912L156.362 16.4598L158.059 15.5515L160.247 14.3805L161.944 13.4722L162.189 13.3408L163.886 12.4326L164.132 12.3012L165.829 11.3929L166.074 11.2615L167.771 10.3532L168.252 10.0962L168.352 9.73111L163.741 12.1989L162.044 13.1072L161.799 13.2385L160.102 14.1468L159.856 14.2782L158.159 15.1865L157.905 15.3157L156.217 16.2262L155.971 16.3575L155.739 16.4753Z" fill="#37474F"/>
<path d="M156.53 13.5865L156.43 13.9515L157.154 13.571L158.851 12.6628L159.096 12.5314L160.793 11.6231L161.039 11.4917L162.736 10.5834L162.981 10.4521L166.868 8.36478L168.565 7.45651L168.811 7.32512L169.043 7.20738L169.146 6.83438L168.665 7.09144L168.42 7.22284L166.723 8.13111L166.477 8.26249L164.78 9.17077L164.535 9.30216L162.838 10.2104L162.59 10.3498L160.896 11.2501L160.648 11.3894L158.951 12.2977L158.697 12.4269L157.008 13.3374L156.763 13.4688L156.53 13.5865Z" fill="#37474F"/>
<path d="M157.323 10.6978L157.221 11.0708L157.701 10.8137L157.947 10.6824L159.644 9.77409L159.889 9.64271L161.586 8.73442L161.834 8.59511L163.531 7.68682L163.776 7.55544L165.473 6.64716L165.719 6.51578L167.416 5.60749L167.661 5.47611L169.358 4.56783L169.604 4.43645L169.838 4.31078L169.939 3.94571L169.458 4.20277L169.213 4.33417L167.516 5.24244L165.328 6.41349L163.631 7.32177L163.385 7.45315L159.746 9.4011L159.49 9.5382L157.804 10.4408L157.556 10.5801L157.323 10.6978Z" fill="#37474F"/>
<path d="M158.116 7.80897L158.016 8.17402L162.626 5.70625L164.323 4.79797L164.569 4.66658L166.266 3.75831L166.511 3.62693L168.208 2.71864L168.998 2.29593L168.607 2.19364L168.308 2.35359L168.063 2.48497L166.366 3.39324L166.121 3.52464L164.424 4.43292L164.178 4.5643L162.481 5.47257L162.236 5.60397L160.539 6.51224L160.285 6.6414L158.351 7.68329L158.116 7.80897Z" fill="#37474F"/>
<path d="M158.908 4.92024L158.808 5.28529L159.288 5.02824L159.534 4.89685L161.231 3.98857L161.476 3.85718L163.173 2.94891L163.419 2.81752L165.116 1.90924L165.361 1.77786L165.906 1.48653L165.506 1.38201L165.216 1.54419L164.97 1.67557L163.273 2.58384L163.028 2.71524L161.331 3.62352L161.077 3.75267L159.389 4.66317L159.143 4.79457L158.908 4.92024Z" fill="#37474F"/>
<path d="M129.135 51.2165C130.195 47.3451 132.461 43.8818 135.645 41.2647C138.829 38.6476 142.789 36.9942 147.024 36.5137C151.259 36.0332 155.578 36.7471 159.436 38.5651C163.293 40.3832 166.516 43.2238 168.696 46.7275C170.877 50.2312 171.916 54.2408 171.684 58.249C171.451 62.2573 169.958 66.0842 167.391 69.2457C164.824 72.4072 161.301 74.7613 157.265 76.0103C153.23 77.2593 148.864 77.347 144.72 76.2624C139.169 74.8027 134.411 71.3465 131.489 66.6515C128.568 61.9565 127.721 56.4059 129.135 51.2165ZM133.06 52.2438C132.199 55.383 132.354 58.7125 133.505 61.8114C134.656 64.9102 136.752 67.6391 139.527 69.6531C142.302 71.6671 145.633 72.8756 149.097 73.1258C152.561 73.3761 156.003 72.6568 158.988 71.059C161.973 69.4612 164.368 67.0567 165.868 64.1494C167.368 61.2421 167.907 57.9626 167.416 54.7258C166.926 51.4889 165.428 48.44 163.112 45.9646C160.796 43.4892 157.767 41.6985 154.406 40.8189C149.9 39.6508 145.125 40.1969 141.125 42.3379C137.125 44.4788 134.225 48.0404 133.06 52.2438Z" fill="#263238"/>
<path d="M135.623 62.5178L129.332 85.4531L130.971 108.355L140.198 110.77L153.349 91.7393L159.641 68.804L135.623 62.5178Z" fill="#37474F"/>
<path d="M134.767 104.746C134.474 104.275 134.335 103.735 134.366 103.196C134.398 102.656 134.6 102.141 134.945 101.716C135.291 101.291 135.765 100.974 136.308 100.807C136.851 100.639 137.439 100.627 137.996 100.773C138.554 100.919 139.057 101.216 139.441 101.627C139.826 102.037 140.074 102.543 140.156 103.08C140.238 103.617 140.149 104.161 139.9 104.644C139.652 105.126 139.255 105.526 138.76 105.791C138.094 106.146 137.3 106.235 136.552 106.039C135.803 105.843 135.161 105.378 134.767 104.746Z" fill="#DBDBDB"/>
<path d="M138.303 105.961L135.383 101.267C135.515 101.168 135.653 101.077 135.796 100.992C135.944 100.92 136.098 100.858 136.256 100.807L139.176 105.501C139.047 105.599 138.909 105.689 138.765 105.768C138.618 105.845 138.463 105.91 138.303 105.961Z" fill="#C7C7C7"/>
<path d="M146.708 76.8166C146.212 77.0812 145.641 77.2001 145.066 77.1582C144.491 77.1162 143.939 76.9154 143.478 76.581C143.018 76.2466 142.671 75.7937 142.48 75.2794C142.289 74.7652 142.263 74.2128 142.406 73.6919C142.549 73.171 142.854 72.7051 143.282 72.353C143.711 72.0009 144.244 71.7784 144.814 71.7136C145.383 71.6488 145.965 71.7447 146.484 71.9891C147.003 72.2335 147.437 72.6154 147.731 73.0866C147.926 73.4001 148.055 73.7453 148.109 74.1025C148.163 74.4597 148.142 74.8219 148.047 75.1684C147.952 75.5149 147.785 75.8388 147.555 76.1216C147.325 76.4044 147.037 76.6406 146.708 76.8166Z" fill="#DBDBDB"/>
<path d="M147.947 73.5262L143.016 76.1653C142.788 75.9207 142.612 75.6378 142.498 75.3322L147.429 72.6931C147.657 72.9377 147.833 73.2207 147.947 73.5262Z" fill="#C7C7C7"/>
<path d="M1.94727 224L1.32233 228.283L5.35683 226.413L1.94727 224Z" fill="#37474F"/>
</svg>
