<svg width="252" height="214" viewBox="0 0 252 214" fill="none" xmlns="http://www.w3.org/2000/svg">
<path d="M196.067 175.079L157.68 154.655C163.505 143.273 164.418 129.946 160.222 117.551C156.026 105.156 147.058 94.6885 135.255 88.4084C123.452 82.1284 109.76 80.5397 97.1361 83.9855C84.5123 87.4313 73.9695 95.635 67.7841 106.825L29.3863 86.3954C34.9549 75.9292 42.6247 66.7124 51.9577 59.2713C61.2907 51.8302 72.1041 46.3105 83.7806 43.0273C95.4572 39.7441 107.768 38.7617 120.01 40.1363C132.253 41.5109 144.187 45.2155 155.131 51.0386C166.076 56.8617 175.816 64.6892 183.797 74.0743C191.777 83.4593 197.841 94.2182 201.642 105.736C205.443 117.255 206.907 129.307 205.951 141.205C204.995 153.103 201.636 164.613 196.067 175.079Z" fill="#FFA4BB"/>
<path d="M208.653 181.776L16.8005 79.699L0.00550181 111.265L191.858 213.342L208.653 181.776Z" fill="#FFA4BB"/>
<path d="M37.8189 87.0146C37.6907 87.2557 37.557 87.5069 37.4287 87.748L30.7594 83.9675C30.8877 83.7264 31.016 83.4853 31.1442 83.2441L37.8189 87.0146Z" fill="#263238"/>
<path d="M39.3232 84.541C39.1949 84.7821 39.0666 85.0232 38.8858 85.2364L32.3497 81.2561C32.478 81.015 32.6116 80.7638 32.7925 80.5506L39.3232 84.541Z" fill="#263238"/>
<path d="M40.9173 82.1277C40.789 82.3689 40.5977 82.5764 40.4589 82.812L34.0562 78.6062C34.1845 78.365 34.3654 78.1519 34.5252 77.9275L40.9173 82.1277Z" fill="#263238"/>
<path d="M42.6058 79.7648C42.425 79.978 42.2757 80.2079 42.1159 80.4323L35.8834 76.0334C36.0322 75.8008 36.1958 75.5779 36.3733 75.3659L42.6058 79.7648Z" fill="#263238"/>
<path d="M44.3728 77.4568C44.1919 77.6699 44.0216 77.8887 43.8513 78.1075L37.7784 73.5099L38.305 72.8749L44.3728 77.4568Z" fill="#263238"/>
<path d="M46.2187 75.2291C46.0328 75.4267 45.8519 75.6398 45.687 75.8486L39.7735 71.078C39.9018 70.8369 40.1193 70.6562 40.3106 70.4486L46.2187 75.2291Z" fill="#263238"/>
<path d="M50.1202 70.9369C49.9237 71.1289 49.7377 71.3264 49.5412 71.5183L43.9786 66.3673L44.568 65.7914L50.1202 70.9369Z" fill="#263238"/>
<path d="M52.2488 68.9372C52.0471 69.1136 51.8453 69.3155 51.6488 69.5075L46.2559 64.2147C46.4629 64.0283 46.6593 63.8364 46.8663 63.65L52.2488 68.9372Z" fill="#263238"/>
<path d="M54.4093 66.9798C54.2023 67.1662 53.9848 67.3469 53.7883 67.5389L48.6235 62.0452C48.8305 61.8589 49.0427 61.6882 49.2497 61.5018L54.4093 66.9798Z" fill="#263238"/>
<path d="M56.653 65.1186C56.4303 65.2838 56.2128 65.4645 56.0007 65.6352L51.0269 59.9854C51.2549 59.8102 51.4565 59.6339 51.6845 59.4588L56.653 65.1186Z" fill="#263238"/>
<path d="M58.9595 63.3168C58.7369 63.4819 58.5089 63.6571 58.2968 63.8279L53.5297 58.0173C53.7472 57.8366 53.9645 57.6815 54.1872 57.5164L58.9595 63.3168Z" fill="#263238"/>
<path d="M61.3443 61.6209C61.1006 61.7749 60.8675 61.9344 60.6607 62.0951L56.0898 56.144C56.3124 55.9789 56.5402 55.8294 56.7734 55.6698L61.3443 61.6209Z" fill="#263238"/>
<path d="M66.266 58.4514C66.0277 58.5953 65.7789 58.7337 65.5511 58.8831L61.4198 52.6632C61.6686 52.5249 61.8964 52.3754 62.1452 52.2371L66.266 58.4514Z" fill="#263238"/>
<path d="M68.818 56.9992L68.0873 57.4097L64.1888 51.0816C64.4237 50.9311 64.6676 50.7941 64.9194 50.6711L68.818 56.9992Z" fill="#263238"/>
<path d="M71.406 55.6821C71.1574 55.7947 70.9086 55.933 70.6651 56.0613L66.9837 49.6037L67.7351 49.2302L71.406 55.6821Z" fill="#263238"/>
<path d="M74.0937 54.3793L73.3266 54.7317L69.8884 48.1716C70.1424 48.0489 70.3964 47.9262 70.6555 47.8192L74.0937 54.3793Z" fill="#263238"/>
<path d="M76.7967 53.2008C76.527 53.3023 76.2679 53.4093 76.0139 53.5319L72.8137 46.8793C73.0677 46.7566 73.3268 46.6496 73.5965 46.5482L76.7967 53.2008Z" fill="#263238"/>
<path d="M79.5416 52.1216C79.2773 52.213 79.0235 52.31 78.7643 52.417L75.7863 45.6763L76.5687 45.3965L79.5416 52.1216Z" fill="#263238"/>
<path d="M85.1653 50.2411L84.3515 50.4785L81.8755 43.5795C82.145 43.5038 82.4093 43.4123 82.6839 43.3522L85.1653 50.2411Z" fill="#263238"/>
<path d="M88.013 49.4489L87.2099 49.6662L84.9717 42.7003L85.7853 42.4887L88.013 49.4489Z" fill="#263238"/>
<path d="M90.9127 48.7618L90.0888 48.9422L88.1094 41.9207L88.9332 41.7403L90.9127 48.7618Z" fill="#263238"/>
<path d="M93.8336 48.1629L92.9941 48.322L91.2627 41.2649C91.54 41.1921 91.8221 41.1356 92.1075 41.0957L93.8336 48.1629Z" fill="#263238"/>
<path d="M96.7794 47.6676C96.4996 47.7121 96.2146 47.741 95.9295 47.7955L94.4516 40.6928C94.7367 40.6383 95.027 40.5994 95.3014 40.5649L96.7794 47.6676Z" fill="#263238"/>
<path d="M99.7344 47.281C99.4548 47.2998 99.1803 47.3343 98.89 47.3732L97.6546 40.2706C97.9503 40.2217 98.2194 40.1973 98.5043 40.1684L99.7344 47.281Z" fill="#263238"/>
<path d="M105.681 46.848C105.396 46.8512 105.106 46.8644 104.821 46.8933L104.114 39.7107L104.973 39.6654L105.681 46.848Z" fill="#263238"/>
<path d="M108.708 46.7058C108.423 46.709 108.128 46.7065 107.848 46.7254L107.388 39.5328L108.243 39.5233L108.708 46.7058Z" fill="#263238"/>
<path d="M111.708 46.7164C111.429 46.7095 111.149 46.7026 110.859 46.7159L110.642 39.5235C110.943 39.5158 111.222 39.5227 111.496 39.5396L111.708 46.7164Z" fill="#263238"/>
<path d="M114.723 46.8512C114.439 46.8287 114.154 46.8061 113.859 46.8037L113.947 39.645L114.817 39.6824L114.723 46.8512Z" fill="#263238"/>
<path d="M117.733 47.0731C117.448 47.0249 117.158 47.0124 116.874 46.9899L117.194 39.8258L118.053 39.9089L117.733 47.0731Z" fill="#263238"/>
<path d="M120.72 47.3864C120.441 47.3538 120.156 47.3056 119.882 47.2887L120.44 40.1605L121.304 40.2593L120.72 47.3864Z" fill="#263238"/>
<path d="M126.693 48.3468C126.414 48.2886 126.124 48.2248 125.845 48.1922L126.908 41.1268L127.751 41.2914L126.693 48.3468Z" fill="#263238"/>
<path d="M129.652 48.9673L128.804 48.7871L130.162 41.7754L130.994 41.9601L129.652 48.9673Z" fill="#263238"/>
<path d="M132.589 49.7051C132.347 49.5765 132.036 49.5529 131.757 49.4947L133.325 42.5948C133.599 42.6631 133.883 42.737 134.157 42.8309L132.589 49.7051Z" fill="#263238"/>
<path d="M135.514 50.5397L134.678 50.288L136.504 43.4352L137.335 43.6713L135.514 50.5397Z" fill="#263238"/>
<path d="M138.387 51.4751C138.135 51.341 137.845 51.2772 137.577 51.1988L139.708 44.4311L140.513 44.7174L138.387 51.4751Z" fill="#263238"/>
<path d="M141.247 52.5074C140.995 52.3733 140.727 52.2693 140.443 52.1954L142.764 45.5026C143.039 45.5872 143.31 45.688 143.573 45.8045L141.247 52.5074Z" fill="#263238"/>
<path d="M146.852 54.8445C146.6 54.7104 146.347 54.5762 146.085 54.4365L148.884 47.9338L149.678 48.2916L146.852 54.8445Z" fill="#263238"/>
<path d="M149.642 56.1617L148.875 55.7537L151.895 49.394C152.147 49.5282 152.41 49.6679 152.662 49.8021L149.642 56.1617Z" fill="#263238"/>
<path d="M152.29 57.5447L151.523 57.1367L154.779 50.8643L155.546 51.2723L152.29 57.5447Z" fill="#263238"/>
<path d="M158.429 52.8706L154.936 59.0301L154.169 58.622L157.657 52.4726C157.925 52.5766 158.209 52.7275 158.429 52.8706Z" fill="#263238"/>
<path d="M161.27 54.5754L157.551 60.6019L156.795 60.1994L160.508 54.183C160.771 54.2457 161.023 54.3799 161.27 54.5754Z" fill="#263238"/>
<path d="M164.009 56.368L160.065 62.2615C159.823 62.1329 159.603 61.9385 159.361 61.7842L163.295 55.8852L164.009 56.368Z" fill="#263238"/>
<path d="M169.355 60.2304L165.022 65.84L164.33 65.317L168.663 59.7074L169.355 60.2304Z" fill="#263238"/>
<path d="M171.913 62.2878L167.345 67.7331C167.13 67.5286 166.91 67.3599 166.684 67.1755L171.248 61.7402C171.478 61.9146 171.693 62.0934 171.913 62.2878Z" fill="#263238"/>
<path d="M174.408 64.4399L169.651 69.7076C169.436 69.5031 169.21 69.3187 168.985 69.1343L173.758 63.8622C173.984 64.0466 174.193 64.2354 174.408 64.4399Z" fill="#263238"/>
<path d="M176.828 66.6556L171.866 71.75L171.253 71.1534L176.205 66.0533L176.828 66.6556Z" fill="#263238"/>
<path d="M179.215 68.983L174.043 73.9657L173.436 73.359L178.576 68.4366C178.77 68.5529 178.964 68.7462 179.215 68.983Z" fill="#263238"/>
<path d="M181.424 71.3439L176.085 76.083L175.504 75.4518L180.843 70.7127L181.424 71.3439Z" fill="#263238"/>
<path d="M185.69 76.3211L180.001 80.6804C179.829 80.4469 179.651 80.2234 179.457 80.0045L185.147 75.6452L185.69 76.3211Z" fill="#263238"/>
<path d="M187.697 78.8839L181.851 83.0566C181.689 82.8287 181.516 82.5952 181.328 82.3662L187.174 78.1935L187.697 78.8839Z" fill="#263238"/>
<path d="M189.586 81.5648L183.588 85.5152L183.098 84.8159L189.053 80.8945C189.262 81.0833 189.419 81.3213 189.586 81.5648Z" fill="#263238"/>
<path d="M191.39 84.2783L185.257 88.0276L184.804 87.3093L190.937 83.56L191.39 84.2783Z" fill="#263238"/>
<path d="M193.111 87.0498L186.816 90.5712C186.681 90.3188 186.525 90.0808 186.379 89.8484L192.668 86.3114L193.111 87.0498Z" fill="#263238"/>
<path d="M194.725 89.868L188.3 93.1783C188.176 92.9315 188.03 92.6734 187.889 92.431L194.304 89.1152L194.725 89.868Z" fill="#263238"/>
<path d="M197.657 95.6561L190.971 98.5442C190.868 98.2828 190.738 98.0204 190.613 97.7735L197.299 94.8855C197.424 95.1323 197.517 95.3881 197.657 95.6561Z" fill="#263238"/>
<path d="M198.965 98.6206L192.175 101.247L191.838 100.462L198.628 97.8354C198.768 98.1035 198.867 98.3492 198.965 98.6206Z" fill="#263238"/>
<path d="M200.177 101.612L193.289 104.018L192.983 103.224L199.866 100.827C199.975 101.079 200.073 101.35 200.177 101.612Z" fill="#263238"/>
<path d="M201.279 104.66L194.255 106.865C194.183 106.595 194.085 106.324 193.992 106.068L200.968 103.901L201.279 104.66Z" fill="#263238"/>
<path d="M202.279 107.719L195.205 109.639C195.117 109.374 195.045 109.103 194.947 108.832L202.021 106.911L202.279 107.719Z" fill="#263238"/>
<path d="M203.153 110.813L196.007 112.49C195.935 112.219 195.868 111.939 195.791 111.679L202.943 109.992L203.153 110.813Z" fill="#263238"/>
<path d="M204.596 117.072L197.31 118.249C197.27 117.97 197.209 117.705 197.153 117.43L204.443 116.243C204.499 116.518 204.555 116.793 204.596 117.072Z" fill="#263238"/>
<path d="M205.158 120.22L197.816 121.148C197.781 120.884 197.731 120.6 197.685 120.33L205.021 119.387L205.158 120.22Z" fill="#263238"/>
<path d="M205.599 123.394L198.212 124.078C198.188 123.795 198.148 123.515 198.108 123.236L205.505 122.557C205.529 122.841 205.575 123.11 205.599 123.394Z" fill="#263238"/>
<path d="M205.924 126.557L198.502 127.004C198.488 126.726 198.459 126.452 198.434 126.169L205.851 125.732C205.886 126.021 205.916 126.295 205.924 126.557Z" fill="#263238"/>
<path d="M206.18 129.775L198.728 129.948C198.704 129.664 198.701 129.392 198.676 129.108L206.128 128.935C206.121 129.202 206.135 129.48 206.18 129.775Z" fill="#263238"/>
<path d="M206.247 132.943L198.781 132.838C198.783 132.555 198.78 132.283 198.766 132.005L206.232 132.11L206.247 132.943Z" fill="#263238"/>
<path d="M206.107 139.287L198.623 138.709C198.636 138.432 198.659 138.16 198.677 137.873L206.155 138.462C206.142 138.739 206.151 138.976 206.107 139.287Z" fill="#263238"/>
<path d="M205.868 142.447L198.397 141.617C198.415 141.33 198.449 141.065 198.461 140.788L205.943 141.623C205.93 141.9 205.891 142.176 205.868 142.447Z" fill="#263238"/>
<path d="M205.507 145.607L198.012 144.494L198.123 143.676L205.618 144.79L205.507 145.607Z" fill="#263238"/>
<path d="M205.058 148.707L197.633 147.334C197.682 147.064 197.732 146.794 197.77 146.518L205.143 147.863C205.13 148.191 205.091 148.467 205.058 148.707Z" fill="#263238"/>
<path d="M204.46 151.856L197.053 150.248C197.118 149.974 197.168 149.703 197.228 149.439L204.624 151.041C204.575 151.311 204.515 151.576 204.46 151.856Z" fill="#263238"/>
<path d="M203.769 154.93L196.395 153.082C196.47 152.813 196.546 152.544 196.596 152.273L203.964 154.132C203.873 154.379 203.845 154.661 203.769 154.93Z" fill="#263238"/>
<path d="M202.048 161.001L194.819 158.728C194.947 158.487 194.992 158.201 195.073 157.947L202.316 160.293C202.22 160.474 202.134 160.738 202.048 161.001Z" fill="#263238"/>
<path d="M201.014 163.983L193.808 161.438C193.937 161.197 194.002 160.922 194.088 160.659L201.294 163.204C201.229 163.427 201.111 163.725 201.014 163.983Z" fill="#263238"/>
<path d="M199.891 166.93L192.772 164.096C192.905 163.845 193.033 163.604 193.099 163.329L200.192 166.162C200.147 166.448 200.035 166.659 199.891 166.93Z" fill="#263238"/>
<path d="M198.663 169.796L191.651 166.71C191.779 166.469 191.902 166.237 191.978 165.968L198.995 169.045C198.872 169.327 198.754 169.574 198.663 169.796Z" fill="#263238"/>
<path d="M197.292 172.676L190.382 169.373C190.51 169.132 190.644 168.881 190.772 168.64L197.687 171.958C197.538 172.188 197.42 172.435 197.292 172.676Z" fill="#263238"/>
<path d="M40.8891 91.8839C40.7982 92.0547 40.7127 92.2155 40.6272 92.3762L29.3862 86.3954C29.4557 86.2648 29.5305 86.1241 29.6 85.9935L40.8891 91.8839Z" fill="#263238"/>
<path d="M52.052 76.4508C51.8555 76.6427 51.6695 76.8402 51.4887 77.0534L41.8731 68.7018C42.0644 68.4943 42.2504 68.2967 42.4312 68.0836L52.052 76.4508Z" fill="#263238"/>
<path d="M66.8253 64.2661C66.587 64.41 66.3486 64.5539 66.1155 64.7135L58.7343 54.341L59.4389 53.878L66.8253 64.2661Z" fill="#263238"/>
<path d="M84.269 56.0807L83.4761 56.3549L78.7887 44.6185L79.587 44.3342L84.269 56.0807Z" fill="#263238"/>
<path d="M103.422 52.259C103.147 52.2678 102.862 52.2966 102.567 52.3199L100.901 39.8963C101.191 39.8574 101.46 39.833 101.75 39.8197L103.422 52.259Z" fill="#263238"/>
<path d="M123.099 53.0994L122.241 52.9649L123.69 40.5878L124.549 40.7224L123.099 53.0994Z" fill="#263238"/>
<path d="M142.138 58.588C141.88 58.4617 141.614 58.3508 141.344 58.2559L145.83 46.6824L146.64 47.0101L142.138 58.588Z" fill="#263238"/>
<path d="M166.711 58.2568L159.446 68.3133C159.194 68.1792 158.985 67.9647 158.743 67.8104L166.008 57.7539C166.239 57.9026 166.48 58.0825 166.711 58.2568Z" fill="#263238"/>
<path d="M183.583 73.7949L173.966 81.7362C173.794 81.5027 173.595 81.2938 173.401 81.0748L183.018 73.1335C183.222 73.3581 183.416 73.5771 183.583 73.7949Z" fill="#263238"/>
<path d="M196.228 92.7432L184.89 98.0928L184.5 97.331L195.838 91.9814C195.989 92.2294 196.109 92.4863 196.228 92.7432Z" fill="#263238"/>
<path d="M203.932 113.935L191.545 116.367L191.345 115.552L203.743 113.125L203.932 113.935Z" fill="#263238"/>
<path d="M206.24 136.123L193.52 135.556C193.533 135.279 193.535 134.996 193.537 134.714L206.246 135.275C206.254 135.563 206.252 135.846 206.24 136.123Z" fill="#263238"/>
<path d="M202.966 157.983L190.7 154.461C190.829 154.22 190.852 153.923 190.922 153.664L203.188 157.186L202.966 157.983Z" fill="#263238"/>
<path d="M196.067 175.08L184.837 169.104C184.885 169.027 184.928 168.946 184.965 168.863L196.254 174.754L196.067 175.08Z" fill="#263238"/>
<path d="M8.47344 109.892L7.654 109.456L5.21654 114.037L6.03597 114.473L8.47344 109.892Z" fill="#263238"/>
<path d="M11.2156 111.351L10.3962 110.915L7.95873 115.496L8.77816 115.932L11.2156 111.351Z" fill="#263238"/>
<path d="M13.9471 112.804L13.1276 112.368L10.6902 116.95L11.5096 117.386L13.9471 112.804Z" fill="#263238"/>
<path d="M16.6883 114.263L15.8688 113.827L13.4314 118.409L14.2508 118.845L16.6883 114.263Z" fill="#263238"/>
<path d="M22.1619 117.175L21.3425 116.74L18.905 121.321L19.7244 121.757L22.1619 117.175Z" fill="#263238"/>
<path d="M24.8934 118.629L24.0739 118.193L21.6365 122.774L22.4559 123.21L24.8934 118.629Z" fill="#263238"/>
<path d="M27.6355 120.088L26.8161 119.652L24.3786 124.233L25.1981 124.669L27.6355 120.088Z" fill="#263238"/>
<path d="M30.367 121.541L29.5476 121.105L27.1101 125.686L27.9295 126.122L30.367 121.541Z" fill="#263238"/>
<path d="M33.1092 123L32.2897 122.564L29.8523 127.145L30.6717 127.581L33.1092 123Z" fill="#263238"/>
<path d="M38.5819 125.912L37.7624 125.476L35.3249 130.057L36.1444 130.493L38.5819 125.912Z" fill="#263238"/>
<path d="M41.3133 127.365L40.4938 126.929L38.0564 131.51L38.8758 131.946L41.3133 127.365Z" fill="#263238"/>
<path d="M44.0555 128.824L43.236 128.388L40.7986 132.969L41.618 133.405L44.0555 128.824Z" fill="#263238"/>
<path d="M46.7869 130.278L45.9675 129.842L43.53 134.423L44.3494 134.859L46.7869 130.278Z" fill="#263238"/>
<path d="M49.5291 131.736L48.7097 131.3L46.2722 135.881L47.0916 136.317L49.5291 131.736Z" fill="#263238"/>
<path d="M55.0027 134.648L54.1833 134.212L51.7458 138.794L52.5653 139.23L55.0027 134.648Z" fill="#263238"/>
<path d="M57.7342 136.102L56.9147 135.666L54.4773 140.247L55.2967 140.683L57.7342 136.102Z" fill="#263238"/>
<path d="M60.4754 137.561L59.656 137.125L57.2185 141.706L58.0379 142.142L60.4754 137.561Z" fill="#263238"/>
<path d="M63.2068 139.014L62.3874 138.578L59.9499 143.159L60.7694 143.595L63.2068 139.014Z" fill="#263238"/>
<path d="M65.949 140.473L65.1296 140.037L62.6921 144.618L63.5116 145.054L65.949 140.473Z" fill="#263238"/>
<path d="M71.4227 143.385L70.6032 142.949L68.1658 147.53L68.9852 147.966L71.4227 143.385Z" fill="#263238"/>
<path d="M74.1541 144.838L73.3347 144.402L70.8972 148.984L71.7166 149.42L74.1541 144.838Z" fill="#263238"/>
<path d="M76.8963 146.297L76.0769 145.861L73.6394 150.442L74.4588 150.878L76.8963 146.297Z" fill="#263238"/>
<path d="M79.6277 147.75L78.8083 147.314L76.3708 151.896L77.1903 152.332L79.6277 147.75Z" fill="#263238"/>
<path d="M82.3689 149.209L81.5495 148.773L79.112 153.355L79.9315 153.791L82.3689 149.209Z" fill="#263238"/>
<path d="M87.8426 152.122L87.0231 151.686L84.5857 156.267L85.4051 156.703L87.8426 152.122Z" fill="#263238"/>
<path d="M90.574 153.575L89.7546 153.139L87.3171 157.72L88.1366 158.156L90.574 153.575Z" fill="#263238"/>
<path d="M93.3055 155.028L92.486 154.592L90.0486 159.173L90.868 159.609L93.3055 155.028Z" fill="#263238"/>
<path d="M96.0477 156.487L95.2282 156.051L92.7908 160.632L93.6102 161.068L96.0477 156.487Z" fill="#263238"/>
<path d="M98.7791 157.94L97.9597 157.504L95.5222 162.085L96.3416 162.521L98.7791 157.94Z" fill="#263238"/>
<path d="M104.253 160.852L103.433 160.417L100.996 164.998L101.815 165.434L104.253 160.852Z" fill="#263238"/>
<path d="M106.994 162.311L106.175 161.875L103.737 166.456L104.556 166.892L106.994 162.311Z" fill="#263238"/>
<path d="M109.725 163.765L108.906 163.329L106.468 167.91L107.288 168.346L109.725 163.765Z" fill="#263238"/>
<path d="M112.468 165.223L111.648 164.787L109.211 169.369L110.03 169.805L112.468 165.223Z" fill="#263238"/>
<path d="M115.199 166.677L114.38 166.241L111.942 170.822L112.762 171.258L115.199 166.677Z" fill="#263238"/>
<path d="M120.673 169.589L119.853 169.153L117.416 173.734L118.235 174.17L120.673 169.589Z" fill="#263238"/>
<path d="M123.415 171.048L122.595 170.612L120.158 175.193L120.977 175.629L123.415 171.048Z" fill="#263238"/>
<path d="M126.146 172.501L125.327 172.065L122.889 176.646L123.709 177.082L126.146 172.501Z" fill="#263238"/>
<path d="M128.887 173.96L128.068 173.524L125.631 178.105L126.45 178.541L128.887 173.96Z" fill="#263238"/>
<path d="M131.619 175.413L130.8 174.977L128.362 179.558L129.181 179.994L131.619 175.413Z" fill="#263238"/>
<path d="M137.093 178.325L136.273 177.889L133.836 182.471L134.655 182.907L137.093 178.325Z" fill="#263238"/>
<path d="M139.835 179.784L139.015 179.348L136.578 183.929L137.397 184.365L139.835 179.784Z" fill="#263238"/>
<path d="M142.566 181.237L141.747 180.802L139.309 185.383L140.129 185.819L142.566 181.237Z" fill="#263238"/>
<path d="M145.308 182.696L144.489 182.26L142.051 186.842L142.871 187.278L145.308 182.696Z" fill="#263238"/>
<path d="M148.04 184.15L147.22 183.714L144.783 188.295L145.602 188.731L148.04 184.15Z" fill="#263238"/>
<path d="M153.512 187.062L152.693 186.626L150.256 191.207L151.075 191.643L153.512 187.062Z" fill="#263238"/>
<path d="M156.255 188.521L155.435 188.085L152.998 192.666L153.817 193.102L156.255 188.521Z" fill="#263238"/>
<path d="M158.986 189.974L158.167 189.538L155.729 194.119L156.549 194.555L158.986 189.974Z" fill="#263238"/>
<path d="M161.728 191.433L160.909 190.997L158.471 195.578L159.291 196.014L161.728 191.433Z" fill="#263238"/>
<path d="M164.46 192.886L163.64 192.45L161.203 197.031L162.022 197.467L164.46 192.886Z" fill="#263238"/>
<path d="M169.933 195.798L169.114 195.362L166.676 199.944L167.496 200.379L169.933 195.798Z" fill="#263238"/>
<path d="M172.676 197.257L171.856 196.821L169.419 201.402L170.238 201.838L172.676 197.257Z" fill="#263238"/>
<path d="M175.407 198.711L174.588 198.275L172.15 202.856L172.97 203.292L175.407 198.711Z" fill="#263238"/>
<path d="M178.148 200.169L177.329 199.733L174.891 204.315L175.711 204.751L178.148 200.169Z" fill="#263238"/>
<path d="M180.88 201.623L180.06 201.187L177.623 205.768L178.442 206.204L180.88 201.623Z" fill="#263238"/>
<path d="M186.353 204.535L185.534 204.099L183.096 208.68L183.916 209.116L186.353 204.535Z" fill="#263238"/>
<path d="M189.096 205.994L188.276 205.558L185.839 210.139L186.658 210.575L189.096 205.994Z" fill="#263238"/>
<path d="M191.827 207.447L191.008 207.011L188.57 211.592L189.389 212.028L191.827 207.447Z" fill="#263238"/>
<path d="M7.40996 105.304L6.59053 104.868L2.47997 112.594L3.29941 113.03L7.40996 105.304Z" fill="#263238"/>
<path d="M21.0877 112.582L20.2683 112.146L16.1577 119.872L16.9771 120.308L21.0877 112.582Z" fill="#263238"/>
<path d="M37.5076 121.319L36.6882 120.883L32.5776 128.608L33.3971 129.044L37.5076 121.319Z" fill="#263238"/>
<path d="M53.9285 130.055L53.1091 129.619L48.9985 137.345L49.818 137.781L53.9285 130.055Z" fill="#263238"/>
<path d="M70.3484 138.792L69.529 138.356L65.4185 146.081L66.2379 146.517L70.3484 138.792Z" fill="#263238"/>
<path d="M86.7684 147.528L85.9489 147.092L81.8384 154.818L82.6578 155.254L86.7684 147.528Z" fill="#263238"/>
<path d="M103.188 156.265L102.369 155.829L98.2583 163.554L99.0777 163.99L103.188 156.265Z" fill="#263238"/>
<path d="M119.609 165.001L118.79 164.565L114.679 172.291L115.499 172.727L119.609 165.001Z" fill="#263238"/>
<path d="M136.029 173.737L135.21 173.302L131.099 181.027L131.919 181.463L136.029 173.737Z" fill="#263238"/>
<path d="M152.449 182.474L151.63 182.038L147.519 189.764L148.338 190.2L152.449 182.474Z" fill="#263238"/>
<path d="M168.87 191.211L168.05 190.775L163.94 198.5L164.759 198.936L168.87 191.211Z" fill="#263238"/>
<path d="M185.29 199.947L184.47 199.511L180.36 207.237L181.179 207.673L185.29 199.947Z" fill="#263238"/>
</svg>
